<svg id="Calque_1" data-name="Calque 1" xmlns="http://www.w3.org/2000/svg" viewBox="0 0 841.89 415.29"><defs><style>.cls-1{font-size:24px;}.cls-1,.cls-10,.cls-11{fill:#5d1b00;font-family:Base02, "Base 02";}.cls-2,.cls-3{fill:#fefee4;}.cls-2,.cls-4,.cls-5,.cls-6,.cls-7,.cls-8,.cls-9{stroke:#5d1b00;}.cls-2,.cls-3,.cls-4,.cls-5,.cls-6,.cls-7,.cls-8,.cls-9{stroke-linecap:round;}.cls-2,.cls-3,.cls-4{stroke-width:0.4px;}.cls-3{stroke:#42210b;}.cls-4,.cls-5,.cls-7,.cls-8,.cls-9{fill:none;}.cls-5{stroke-width:0.6px;}.cls-6{fill:#c8ebff;stroke-width:0.4px;}.cls-6,.cls-7,.cls-9{stroke-miterlimit:3.08;}.cls-7{stroke-width:1.2px;}.cls-8{stroke-width:1.2px;}.cls-9{stroke-width:2.8px;}.cls-10{font-size:72px;}.cls-11{font-size:36px;}</style></defs><title>Plan de travail 1</title><text class="cls-1" transform="translate(289.45 138.19)"> <tspan x="-69.47" y="28.8">Concevoir </tspan><tspan x="-197.5" y="57.6">des visualisations de donees</tspan><tspan x="-87.65" y="86.4">pour le web </tspan><tspan x="-144.26" y="115.2">et un support anime </tspan></text><path id="path4897" class="cls-2" d="M583.05,291.23c.14.27-.16.93.4.67C583.63,291.59,583.31,291.32,583.05,291.23Z"/><path id="path4899" class="cls-3" d="M560.2,276.72a9.53,9.53,0,0,1-1.26,1.11c-.28.23-.73.42-.6.88a2.3,2.3,0,0,1,1.32-.09c-.2-.59.67-.87.75-1.42.05-.19.06-.49-.21-.48Z"/><path id="path4901" class="cls-3" d="M560.63,276c-.4.24.1.7.23.18C561.05,276,560.76,276,560.63,276Z"/><path id="path4903" class="cls-3" d="M561.67,275.2c-.61,0,0,.84.08.21C561.76,275.34,561.76,275.23,561.67,275.2Z"/><path id="path4935" class="cls-2" d="M662.13,389.08c-.18.1-.47.4-.07.39A.2.2,0,1,0,662.13,389.08Z"/><path id="path4937" class="cls-2" d="M662.91,388.67c-.12.23-.32,1,.05.91C663,389.32,663.42,388.65,662.91,388.67Z"/><path id="path4939" class="cls-2" d="M663.21,389.2c-.07.35.1,1-.5.76a1.09,1.09,0,0,0-.16,1.47c-.23.29,0,.67.27.29.33.17.33-.34.39-.23.15.32-.25,1.06.41.9.21-.25.36-.68.11-.78.68-.16-.28-1-.22-.3-.39.1.22-.55-.29-.46-.45-.39.22-.5.12-.94C663.68,389.66,663.43,389.41,663.21,389.2Z"/><path id="path4941" class="cls-2" d="M661.52,383.29c-.1.18-.72.39-.2.47C661.61,383.79,662,383.35,661.52,383.29Z"/><path id="path4943" class="cls-2" d="M663.47,383.82c-.44.22-.3,1-1,.93-.27.12-.64.4-.19.53.21.4.57,0,.83.4a1,1,0,0,1,1.18.77c.32.17,1,.3.64-.25-.18-.22-.35-.79.14-.57.24.73,1.19-.37.75-.71s-.51.57-.91.21c-.21-.08-.6.26-.38-.18.54-.12.63-.75,0-.85-.44-.5-.48.25-.58.53-.37-.17-.25-.59-.46-.82Z"/><path id="path4945" class="cls-2" d="M658.61,384.05c-.18.28-.1.81.23.37C659.1,384.24,658.87,384,658.61,384.05Z"/><path id="path4947" class="cls-2" d="M638.71,372.52c-.12.39.46.64.21.1A.2.2,0,0,0,638.71,372.52Z"/><path id="path4949" class="cls-2" d="M634.73,362.86c-.34,0-.3.65,0,.26C634.73,363.05,635,362.82,634.73,362.86Z"/><path id="path4951" class="cls-2" d="M626.05,365.5c-.06.28,0,.81.33.52.25-.08.75.22.4-.23-.19-.14-.42.18-.48-.21A.19.19,0,0,0,626.05,365.5Z"/><path id="path4953" class="cls-2" d="M682.42,355.26c-.37.19-.15.9.2.58,0-.32.76-.23.29-.55A1.62,1.62,0,0,0,682.42,355.26Z"/><path id="path4955" class="cls-2" d="M678.3,348.58c-.43,0-.51.44-.07.56.24.13.4.3.3-.09C678.52,348.89,678.54,348.57,678.3,348.58Z"/><path id="path4957" class="cls-2" d="M679.47,346.07c-.18.39-.81.75-.36,1.2.51.19.66-.47.91-.73C680.12,346.13,679.73,346.14,679.47,346.07Z"/><path id="path4959" class="cls-2" d="M680.16,345.13c-.15.29-.15,1.33.29.71.14-.24-.29-.36-.11-.68C680.3,345.09,680.22,345.15,680.16,345.13Z"/><path id="path4961" class="cls-2" d="M681.16,343.55c0,.51-.55,1.05-.06,1.51s.53-.66.35-.8C680.86,344.23,682,343.51,681.16,343.55Z"/><path id="path4963" class="cls-2" d="M679.51,329c-.43.21.32,1,.27.28A.25.25,0,0,0,679.51,329Z"/><path id="path4965" class="cls-2" d="M696.07,44.56c-.18.43.38.2.53.39C696.69,44.4,696.32,44.76,696.07,44.56Z"/><path id="path4967" class="cls-2" d="M686.32,35.43c-.38.26-.17.63.09.82-.08.43.65.72.5.13A2.22,2.22,0,0,0,686.32,35.43Z"/><path id="path4969" class="cls-2" d="M676,48.6c-.07.47.5.8.8.54-.15-.21-.32-.24-.39-.51a.71.71,0,0,0-.41,0Z"/><path id="path4971" class="cls-4" d="M569,252c.14.6.74.95.67,1.6.28.63,1-.17,1.45-.19s.26.92.88.7c.26-.1.83.19.29.28s-1,.64-1,1.21c-.29.45-.62.92-.94,1.38-.59-.15-.79.63-1.27.83-.59,0-.6.69-1.06.89-.59,0-1.16.44-1.67,0-.37.13-.81.25-1-.2-.49-.42-1.15-.25-1.73-.46-.48,0-1.35-.14-1.38.53s-.92-.13-1.33.31c-.55.24-1.45.19-1.57.95s1.28.26,1.1,1.16c0,.41-.42,1.31.35,1.16.19.28,1.18-.38.82.31-.15.25-.6,1,0,.71.23.38-.07,1,.34,1.24,0,.32.21.6.45.28.46.34,1-.1,1.42.09s.26.73.43,1.06c0,.25.12.81-.24.45-.49.33-.14.78.1,1.13,0,.79-1.29.1-1.26,1a1.13,1.13,0,0,1-.53,1.57c-.05.37-.32.73-.07,1.06-.38.31-.24.65.16.84.19.31.88.75.16.87-.47.3-.34,1.06-.94,1.27-.13.46.42.59.47.13.33-.44.86-.68,1.18-1.09.43-.25,1-.3,1.35-.54.21-.3.58-.39.72-.78a3.77,3.77,0,0,0,1.64-.66c.54-.22,1,.26,1.51.19s1.15.46,1.77.31,1.1.4,1.65.57c.22-.21.9.26.68-.19.06-.77,1.09-.1,1.49-.55s1.1,0,1.67-.14,1.17.54,1.78.28,1.17.05,1.69-.1.49-1.34,1.24-.93c.78.23.32-1.19,1.14-1,.43,0,1,.63,1.19,0,.35-.2.2-.57-.19-.44-.3-.21.06-.6.31-.68.15-.43-.78-.7-.22-1.1.71-.2-.13-1.07.61-1.24a1.92,1.92,0,0,1,1.49.15c-.12.56.42.93.65,1.4s.61.46.77.87c.39.1,0-.62.4-.72.32-.63,1.15-.43,1.7-.28a1.52,1.52,0,0,1,1.16.82c.41.34.36,1.27,1,1.24.29,0,.28.42,0,.22-.14.47.66.78.71,1.3a3,3,0,0,1,.85,1.51,15.8,15.8,0,0,1,.46,1.73c.12.64-.47,1-.94,1.23a15.14,15.14,0,0,1-1.34.92,5.66,5.66,0,0,0-1.54,0c-.4.05-.23.33,0,.44-.2.55.46.47.78.49.27.53-.17.82-.58,1-.32.69,1.12.4.86,1.09-.12.36.4.26.54.43.45-.16-.08.53.12.77,0,.59.16,1.17.07,1.75-.32.42-.18,1.3-.89,1.28-.16.53-.66.56-1.08.32-.54.15-1.09.84-1.64.51-.11-.7-.9.14-1-.52.11-.47-.48-.38-.29.05-.15.62-.87.1-1.18.5-.35,0-.77,0-.32.34,0,.58.77.23,1,.61.24-.14.45.32.55-.13s1.2-.7.79-.1c-.43.44.68.28.2.67,0,.47,1,.07.75.68.06.27.59.63.81.29.41.08.62.3,1,.29.2.28.23.57-.1.68,0,.38-.25.52-.62.44-.4.34-1.08.66-1,1.3.27.52-.18,1.17.29,1.66,0,.52-1,1-1.17.54-.3.08,0,.57-.44.3s-1,.52-1.07-.22a.69.69,0,0,0-.31-.57c-.17.13-.43.59-.83.36-.56.11-.73.83-1.06,1.18-.57,0-.27.57-.59.83,0,.29.55.87-.06,1-.34.32-.71,0-.85-.32-.44.5-1.18-.21-1.69.17-.7.07,0-.83-.52-1s-1.16,0-1.39.47a.93.93,0,0,0,0,1.3c.21.22,1.28-.45,1.24.37-.38.38.2,1.19.68.79.71-.14.74.8.49,1.18.19.24.51,0,.32.43s1,.1.57.57c-.5-.11-.5.52-.82.76-.09.52-.64.78-.81,1.28-.6,0-.63.76-.92,1.17-.12.6-.68.68-1,1.1-.52.09-1.08-.2-1.36.43-.5.29-.46,1.25-1.21,1.08-.33.14-.76.2-1,.46,0,.37-.49.58-.58.14-.44.06-.86-.34-.58-.7-.14-.37-.52.29-.75-.14s-.56.23-.82-.13c-.34.12-.56.39-.94.45a2.45,2.45,0,0,0-.58,1.49c0,.37-.07,1.05.23,1.16.5-.12.6-1,1.09-.89a1.07,1.07,0,0,1,1.24.08c.6-.16.8.64,1.33.58.22-.07.4-.78.58-.26.5.51,1.09-.44,1.69,0a1.65,1.65,0,0,0,1,.35c.63.11.18,1,.08,1.39.05.55-.45,1-.41,1.51a1.22,1.22,0,0,0,1.6.53c.41-.09.82,0,1.18-.22.72.17.42-.84,1.06-.85.36-.26.75,0,1.11-.3.63.13.87-.6,1.47-.72a9.21,9.21,0,0,0,1.6-.61c.35-.44,1.06-.46,1.5-.81a10.45,10.45,0,0,0,1.64-.44c.23.07.65.2.68.48,0,0,.88-.12.68.31a1.51,1.51,0,0,1-.06,1.61c-.08.33-.75.42-.36.85.11.3-.3.48-.36.79-.27.11-.8.12-.63.55a1.09,1.09,0,0,0-.2.93c-.56.3,0,1.09.43.9s.16.66.61.37c.39,0,.71.46.92-.07.54,0,.08.73.21,1.06-.32.26-.9.51-.78,1.05.47.55.85-.51,1.25,0,.61-.09.47-.92.87-1.28s-.47-.54,0-.83c.25-.43.82-.14,1.19-.3.3.1.73.62.71,0s.85-.91,1.32-.46a5.94,5.94,0,0,1,1.5.62c.44.31.67.81,1.07,1.18s.61.95,1.09,1.22.46.67.95.41c.27.1.65-.08.83.26.43-.22,1-.53,1.42-.06a7.13,7.13,0,0,1,1,0c.54-.39,1,.41,1.48.41.27.25.12-.76.52-.33a2.32,2.32,0,0,1,1.1.91c-.2.61.71.34,1,.35a6.94,6.94,0,0,0,1.69-.18c.47.06.93-.35,1.34,0,.62-.43.41.6.91.73.46.39,0,.91-.37,1.08-.08.57-.82.09-.81.68-.39.39-1.07.29-1.54.61-.48-.32-.77.25-1.15.43-.24.62-1,.25-1.39.44-.4-.24-.46.63-.49.92.08.66-.42,1.25-.23,1.91a1.93,1.93,0,0,1-.51,1.62c-.25.35-.67,1.25-1.13.81-.29-.36-.92-.68-1.28-.26a1.32,1.32,0,0,0-.78.2c-.32-.2-.9-.49-.9.14-.4.2-.32,1.12-.94.68-.62-.15-.33.68-.86.69-.31.13-.61-.12-.89.2-.56-.19-.52.71-1.09.73-.45.38-.42,1.24-1.19,1.24-.56,0-1.2-.26-1.13-.91-.24-.54.24-1.35-.57-1.53-.27-.53-.89,0-.51.41,0,.47.07,1.33-.65,1.17-.29.27-1.06,0-.81.49-.19.34-1.12.64-.42,1,.09.27.77.46.29.71-.11.42-.71.22-.89.61-.51.13-.48.68,0,.78.75,0,.17.87.47,1.3-.14.32.08.76-.37.92s-.75.62-.63,1.17c0,.32.57.47.1.7-.4,0-.33.82-.68.25-.34.17-.29.91-.85.62-.56-.06,0,.65,0,.94.34.08.14-.46.56-.35s.49-.06.45.38c-.23.24-.14,1.2.26.64.51.1.8-.65,1.28-.34-.08.36.27.48-.09.74-.16.3.21.54-.15.76.2.26.77.23.61.71.25.13.51.07.67.34.26-.1.52-.31.8-.15-.35.13-.21.64-.67.69-.44.31-.94.51-1.13,1.06a.62.62,0,0,0-.66.6c-.5.29-.44-1-.78-.49.11.27,0,.73.43.63.33.38,0,1.4.52,1.48.52-.33.63.86,1,.34,0-.49.57-.16.58-.12.23-.31.48-.21.46.08.21-.19.41-.23.55,0,.14-.16,1-.44.74-.15s.39.43.4.68c.15-.28.76-.45.37,0a.5.5,0,0,0,.09.92c.12.41.65.24.57.73.38.53.66-.51,1.11,0,.37.19.45-.55.8-.55.24-.38.23.48.64.36.35.56,1.23-.71,1.37.05-.15.42-.32,1.24.39,1.06a9.66,9.66,0,0,1,.83-1.34c.39.23-.27.68-.23,1s-.1.78.34.87c.09.3.72.48.17.65a5,5,0,0,0-1.11,1.13,1.88,1.88,0,0,0-1,1.32c-.05.47.29,1.37.85,1.06a1.28,1.28,0,0,1,.78-.07c-.16.54.39-.05.54.24.18-.36.54-.81.92-.81,0,.57.71-.09,1,.21.3-.34.86-.32,1-.85.49-.47,1,.22,1.38.55s.17,1.13.89,1,.19.76-.24.83a1,1,0,0,0-.5,1.24c-.08.71.54.25.81,0,.41-.69,1.11.18,1.6-.3.52,0,1.1-.1,1.51.31.37,0,.45-.72.95-.39a1.87,1.87,0,0,1,1,1.23c0,.49.4.78.34,1.33.33.59-.4,1-.43,1.51.26.34.65-.3,1,0a3,3,0,0,0,.94-1.41c.48-.38.88.4.67.82,0,.44.36.84.8.55a1.58,1.58,0,0,1,1.08.1c.37-.48.9-1,1.57-.65.5,0,.67.54,1.21.47.48.44-.21,1.07-.14,1.56.37-.12.69-.21.87-.59.49-.21.5.53,1,.44a.49.49,0,0,1-.24.6c.2.41.79-.25.89.35.07.28-.52.91.08,1,.56-.15.61-1,1.09-1.28.25-.51.85-.82.67-1.49.25-.45.29.44.53.55.24.51-.35,1.45.6,1.45.34.17.36.72.9.55a.67.67,0,0,0,.85-.26c.23,0,.57.21.31-.17-.05-.37.54-.53.81-.67a6.43,6.43,0,0,1-.76,1.53c.18.39.67.66.52,1.14.38.22,1.12.13.82.84.13.79,1,.2.88-.36a.84.84,0,0,1,.84-.83c.16-.3.43-1,.78-.4s.07,1,.17,1.43c-.22.48-.31,1.23.09,1.58.54-.09.68-.8,1.2-.95.44.12,1.05.44,1.16-.28.17-.34.81-.36.6-.9.71,0,.26-1.06,1-1.06.23-.23.51-.4.59-.72.55.28.33-1,.87-.46.2.26.83,0,.5.38a2.88,2.88,0,0,1-1,1.36c.23.48-.61.88-.1,1.23a3.18,3.18,0,0,1-.75,1.5c-.2.54.3,1.06.33,1.63a6,6,0,0,0,1.14,1.12c.3.3.6.34.88.07.44.5.37-.53.83-.38a1,1,0,0,0,.88-.89c.32-.36.51,0,.48.36.38.15.48.46.62.78a1.38,1.38,0,0,0,1,0c-.26-.5.83-.65.42-.13s-.1,1.05.49.74c.28-.15.7.25.75-.29.32-.31.87-.25,1.27-.35-.08.53-1,.38-.67,1s-.53.9-1,1.24c-.51.17-.65,1-1.2.92-.42.12-.15.87-.28,1.25.13.32.67.11.78.16a4.26,4.26,0,0,1-1.07,1.32c-.49-.06-1,.06-1.11.55-.42.24.49.52,0,.84a3,3,0,0,0-.64,1.63c-.33.46.22.68.57.41.25.45-.67,1.1.11,1.42.46.48,1.08-.08,1.42-.4.59.31.87-.57,1.47-.44s1.22.11,1.58-.34a3.22,3.22,0,0,1,1.37-.23c-.28.35-.86.55-1,.86.21.59.82.39,1.25.49s.71.79,1.2,1c.67.42,1-.45,1.62-.49.22.07.88,0,.78.3-.5-.07-1.38-.17-1.46.51s.68.12,1.06.19a5.94,5.94,0,0,1,1.46,0,1.81,1.81,0,0,1,1.3,1,7.3,7.3,0,0,0,.77,1.62c.08.5,0,1.29.5,1.55.36-.42.94.26,1.38-.19.39-.07.86.57,1.14-.05.44-.5.15.95.53.31.19-.39.64.13.77-.25a1.92,1.92,0,0,0,1.46-.37c.31.21.67,0,.84.41.28-.15.23-.84.48-1.17-.12-.26-.84-.49-.27-.84a8.48,8.48,0,0,1,1.08-1.16,4.58,4.58,0,0,0,1-1.35,5.67,5.67,0,0,0,.39-1.42.71.71,0,0,0,.56-.79c.27-.41,1.07-.33.94-.95.57-.29.38-1,.7-1.51.37-.24.92-.1,1.17-.58.39-.23-.06-.55.34-.74.12-.25-.44-.56.12-.61.2-.26-.25-.85.38-.66a1.08,1.08,0,0,0,.11-.9c.4-.67-.84-.55-1.08-.31-.31.44-.88.58-1.31.89s-1,.45-1.28,1c-.33.31-.43.71-.9.88a8.64,8.64,0,0,1-1.08,1.18c-.21.45-.53,1.07-1.13.92s-1-.9-.38-1.32c.31-.14.17-.37.17-.61.57.24,1.09-.54.94-1.06,0-.44-.07-.93.43-1.12.25-.57-.63-.95-.57-1.57a5.91,5.91,0,0,0-.56-1.66c-.46-.12-.79.63-1.14.06-.29-.32.56-.15.65-.41a4.84,4.84,0,0,1,1.55-.34c.58-.33,1.31-.34,1.86-.63.67,0,.93-.62,1.31-1,.47,0,.48-.5.73-.74a.83.83,0,0,0,1-1c-.27-.69.65-.8.89-1.29.53-.53.51.52.88.71.43.35,1.35-.26,1-.77-.3-.08-.69-.08-.92-.3-.7.28-1.21-.72-.44-1,.14-.22.75-.65.77-.22-.39,0-.45.81,0,.54.15-.36.68,0,.44-.53s.39-.4.33-.76c.48.38,1.14-.35,1-.86a.58.58,0,0,1,.48-.69c.26-.61-1-.89-.36-1.47.76-.31,0-1,.15-1.57-.09-.73-1-.55-1.22,0-.14.24-.26.8-.48.29,0-.46-.31-.64-.69-.39-.34.06-1.2-.18-.5-.44.43-.34.85-.68,1.28-1a4.72,4.72,0,0,0,1-1.63,1.58,1.58,0,0,0,.13-1.76c-.42-.19-.81-.51-1.34-.35-.69-.14-.4-1.16-.22-1.63.34-.54,1,0,1.36.13,0,.44.3.29.54.13.43.25.5-.5.93-.55a3.58,3.58,0,0,1,.82-1.55c0-.37.43-.25.45-.65.52-.09.46-1.08,1.15-.69.35-.17.14.82.35.45s-.5-1,.11-1.35c.35-.11.66-.51,1-.12.2,0,.95-.11.42-.31-.16-.49.51-.87.84-1.16.54-.15,1.06-.73,1.66-.5.26.18.22.59.55.19.27-.18.81.33.9-.22a4.19,4.19,0,0,0,1-1.33,7,7,0,0,0-.06-1.51c-.11-.14-.76-.29-.22-.36.48-.28.73-.89,1.28-1.05s-.37-.22-.12-.6c.08-.33.52-.47.59-.78.72-.06-.09-1,.63-.9.2.21.7.55.61-.06a2.47,2.47,0,0,0,.17-1.34c-.5-.2-.92.53-1.5.28s-.88.47-1.45.3c-.35.33-.57-.37-.82,0-.36-.24-.81.32-.37.55-.6.18-.32-.64-.27-.93-.34-.39-.38-1.1-1-1.15,0-.59-.55-.14-.8,0a1.33,1.33,0,0,0-1.66-.46,2.34,2.34,0,0,0-1.12,1.16,5.71,5.71,0,0,1-.87,1.47c-.08.66-1.12.44-.91,1.23-.06.21-.08.76-.35.37-.49-.1-.11.76-.56.56-.34.19-.23-.5-.38-.65.36-.32-.49-.95-.48-.53.31.4-.75.86-.42.19.29-.21.35-.52.1-.72a2.07,2.07,0,0,1-.2-1.27c-.16-.23-.82-.31-.32-.54.3,0,.92,0,.54-.48a2.47,2.47,0,0,1,.09-1.61c.3,0,.56-.05.61-.37.51,0,1.08.11,1.46-.36.35-.28,1.08-.52,1-1.05a2,2,0,0,1-.32-1.63c-.11-.35.43-.4.41-.74a1.94,1.94,0,0,1,1.07,0c-.31.61.37.9.7,1.28,0,.65,1,.22,1,.73-.43.1-1.16-.07-1.39.34.33.22.72.46,1.08.2.55.29,1.08-.24,1.32-.72.18-.8,1.08-.33,1.45,0,.47-.1.4.71,1,.48.39,0,.76-.55,1,.05.51.18.26-.58.65-.59.11-.21-.12-.58-.25-.24-.69,0,0-.76-.45-1,.27-.41-.25-.82-.7-.68-.67-.28-.29-1.27-.07-1.79.3-.34.59-.7.85-1.06.39-.53,1.44.37,1.57-.43.56-.3.88.87.3.69-.12.48-.54-.24-.83-.09-.19-.2-1-.08-.48.11a.84.84,0,0,1,1,.94c.12.37.73.1,1.05.14.21-.27.17-.76.54-.95-.44,0-.27-.75,0-.72.33.43.72-.49.59-.79.11-.55.58.05.67.32.17.46,1,.09.46-.18-.48-.12-.7-1.18,0-1.09.1-.3.13-.73.6-.72.26-.3-.4-.45-.23-.83-.17-.55-1.34-.2-.9-1a2.42,2.42,0,0,1,1.13-1.07c.35.4.8,0,1.17.06.2-.36-.19-1.37-.61-.7-.46.5-1,.12-1.56.19a.71.71,0,0,1-1.29-.35c-.06-.55-.53-1.24.07-1.6.11-.3.46-.51.46-.89.36-.23.45-.62.86-.77.22-.26.69-.72,1-.19.32.2.64.14.74-.24.51,0,1.35-.29,1.15-1-.24-.41.17-.74-.17-1.12-.35-.54.27-1,.17-1.5.42-.13.87-.53.42-.93,0-.26.79,0,.62-.52-.29-.14-1.3-.51-.7-.93a1.42,1.42,0,0,0,.2-1.75,2.35,2.35,0,0,1,0-1.71,12.37,12.37,0,0,0,.47-1.76c-.21-.37,0-1.09-.66-1-.43-.6.77-.42.46-1a3.31,3.31,0,0,1,.09-1.87,1.83,1.83,0,0,0-.15-1.82c0-.53-.64-.87-.83-.26-.65.13-1.1-1-.45-1.27.35-.35.09-1,0-1.24.23-.37.75-1.15.12-1.36-.42-.32-.08-1-.45-1.37s-.15-1.1.3-.67c.48-.3.16-.89.28-1.33.44-.43.14-1.1.58-1.5,0-.61.75-.7.49-1.34.24-.37-.11-.83-.09-1.08.28-.47-.18-1-.08-1.54-.21-.56,0-1.17-.25-1.71.3-.52-.24-1.07-.33-1.63-.26-.61.19-1.16.15-1.7.46,0,.53-.31.3-.69s-.57.21-.57-.24c-.18,0-.71-.19-.29-.28-.38-.51.18-.92.25-1.38-.51-.38-.53-1.21-.5-1.81a2.48,2.48,0,0,1,.61-1.67c.45-.44-.4-1-.07-1.54a6.75,6.75,0,0,1,.52-1.92c.26-.51.89-.82.91-1.43s.84-1.06.43-1.69.27-1.22.34-1.85a3.54,3.54,0,0,0,0-2c-.11-.65-.78-.74-1.29-.87-.27-.18.25-.67-.27-.77-.28-.27.5-.31,0-.47-.47.07-1-.62-.3-.72.44.05,1.07-.47.51-.81-.19.36-1.17.47-1,0,.66.27.5-.9,1.11-.67.23.36.82.08.7.62a6.79,6.79,0,0,0-.28,1.69c0,.31-.08,1.25.44.88a4.53,4.53,0,0,1-.09-1.64,5.1,5.1,0,0,1,.36-1.94c.25-.54.48-1.11.75-1.63a9.47,9.47,0,0,1,.87-1.47c.31-.48.58-1,.89-1.45a11.73,11.73,0,0,1,.94-1.36c.31-.45.67-.85,1-1.29a8.12,8.12,0,0,1,1.08-1.19c.35-.45,1-.58,1.16-1.14a2.84,2.84,0,0,1,.86-1.46c.31-.44.74-.81,1-1.28a11.31,11.31,0,0,0,.88-1.46A9.86,9.86,0,0,0,698,246a9.19,9.19,0,0,0,.9-1.42,5.63,5.63,0,0,0,.93-1.39c.25-.48.63-.94.92-1.4s.6-1,.86-1.48a10.09,10.09,0,0,1,1-1.4c.17-.52.68-.87.92-1.39s.62-.94.89-1.44.61-1,.91-1.41a9.13,9.13,0,0,1,.92-1.4c.29-.43.7-.77,1-1.21a6.79,6.79,0,0,1,1.09-1.18,4.38,4.38,0,0,0,.66-1.63,12.28,12.28,0,0,0,.39-2,17.68,17.68,0,0,1,.28-1.75c-.07-.63.1-1.25.09-1.88s.36-1.3.09-1.81c-.49-.23-.13-1-.22-1.44a10.75,10.75,0,0,1,0-1.5,14.81,14.81,0,0,1,0-1.63,8,8,0,0,0,.1-1.69c.07-.6.09-1.21.2-1.8a7.66,7.66,0,0,1,.24-1.95c.15-.6.41-1.23,0-1.77a2,2,0,0,1-.28-1.36,9,9,0,0,1,0-1.72c.07-.54-.54-1.05-.49-1.67a6.94,6.94,0,0,1,0-1.51,6,6,0,0,1,0-1.53,6.8,6.8,0,0,1,.16-1.75,12.65,12.65,0,0,0,.25-2,10.69,10.69,0,0,1,.15-1.78,20.35,20.35,0,0,1,.48-2,10.6,10.6,0,0,0,0-1.38,2,2,0,0,0-.26-1.7c0-.56-.47-1-.42-1.57-.14-.61-.28-1.24-.46-1.83a5.5,5.5,0,0,1-.18-1.76,5.46,5.46,0,0,0-.47-1.75,6.12,6.12,0,0,1-.75-1.62,14.28,14.28,0,0,1-.49-1.73,1.56,1.56,0,0,1,0-1.46c-.61-.35-.48-1.13-.52-1.73s-.32-1.25-.33-1.9-.26-1.16-.3-1.76a3.53,3.53,0,0,1,0-1.74c.15-.65-.26-1.28,0-1.9a8.42,8.42,0,0,0,.26-1.85c.18-.66.21-1.36.34-2a5.47,5.47,0,0,1,.27-1.93c.13-.64.21-1.25.38-1.86-.07-.53.36-1,.24-1.51a2.92,2.92,0,0,1-.23-1.5,17.94,17.94,0,0,1,0-1.94,4.17,4.17,0,0,0,0-1.89c0-.46.3-.91-.07-1.31a6.24,6.24,0,0,1-.61-1.81,17.06,17.06,0,0,1-.58-1.84,11.56,11.56,0,0,0-.43-1.85,4.9,4.9,0,0,1,0-1.79,9.18,9.18,0,0,1,.08-2c0-.6.31-1.18.29-1.79a5.63,5.63,0,0,0,.27-1.58c.33-.44-.48-.66-.38-1,.51.46.3-.47.27-.73-.13-.49,0-1-.2-1.44.4-.27-.12-1.06.17-1.52,0-.24.08-.64-.2-.63.14-.55-.15-1-.19-1.55-.24-.64-.18-1.31-.4-2s-.5-1.15-.64-1.78-.56-1-.81-1.53-.66-.94-.87-1.49a3.79,3.79,0,0,0-.93-1.38,11.15,11.15,0,0,0-1-1.3,11.29,11.29,0,0,0-1-1.33c-.4-.38-.62-.88-1-1.3a7.56,7.56,0,0,1-1-1.33c-.31-.45-.72-.81-1-1.28-.13-.58-.59-.87-.84-1.39s-.53-1-.84-1.51a16.39,16.39,0,0,0-.89-1.44c-.24-.57-.47-1.08-.75-1.63s-.34-1-.65-1.39c-.23-.08-.42.64-.41.11.18-.27.56-.5.29-.9-.11-.62-.38-1.2-.46-1.83a10.61,10.61,0,0,1,.06-1.69c-.1-.49.07-1,0-1.48a1.24,1.24,0,0,1,1-1.4c.31-.34-.23-.74,0-1.15-.36-.33.6-.56,0-.81-.15-.25.44-1,.56-.38.1.18-.14,1,.11.49.45-.55-.59-.87-.19-1.47.08-.21.19-.66-.13-.29-.13.06,0-.67.09-.87.2-.49,0-1,.05-1.5a16.34,16.34,0,0,0,.64-1.82,2.92,2.92,0,0,0,.38-1.88c.11-.35-.22-.45-.08-.82a7.39,7.39,0,0,1,.28-1.56c.36-.33.85-.67.71-1.24s-.65-.2-.37-.72a2.11,2.11,0,0,1,.6-1.31,3.25,3.25,0,0,1,.73-1.64c.16-.17.51-.12.4-.51a2.56,2.56,0,0,1,.89-1.32c.52-.37.08-1.14.71-1.41-.06-.65.64-1,.71-1.55a4.8,4.8,0,0,1,.13-1.73c.12-.41.15-.92-.35-1-.2-.54.22-1.22-.23-1.69s-.09-1.22-.3-1.79a4.24,4.24,0,0,0-.19-1.55c.14-.63-.45-.84-.83-1.1-.17-.42.11-.71.55-.67.06-.55-.29-1.29,0-1.87.48-.3.19-.72-.08-1,0-.61-.56-1.12-.23-1.76a2.33,2.33,0,0,0-.53-1.62c.09-.66-1.07-.48-1-1.22s.91,0,.84-.65c.16-.61-.39-1-.68-1.42-.06-.29.65-.36.27-.69s.18-.89-.29-1.2c-.3-.57.5-1.25-.17-1.73-.53-.09-.65-.94-.2-1.11.41-.4-.18-.74.13-1.2-.28-.54.21-1.18-.22-1.65.09-.24.48-.36.11-.65s-.67-.47-.62-.94c-.38-.26-.58-1.18.12-1,.58-.4-.4-1-.29-1.56s-.73-.3-.49-.85a2.24,2.24,0,0,1-1-1.29A10.73,10.73,0,0,1,694.2,50c0-.23-.43-.14-.48-.47-.31-.23,0-1.42.41-.81.34.08.54-.13.33-.49s-.14-1-.59-1.28c.06-.44.37-.83.84-.59a1.34,1.34,0,0,0,.39-1.47c.09-.29.67-.73.07-.91-.46-.4-1.15,0-1.6-.39-.23-.18.21-.54-.27-.52s-.41-.61-.87-.42c0-.36.32-.81-.21-1-.24-.16-.09-.31-.1-.4-.48-.29-1.1-.15-1.55-.6-.62,0-.16-.87-.58-1.22-.14-.47-.88.14-.86-.47a.63.63,0,0,0-1,.14c-.18.16-.63.33-.29.54,0,.62-.76.54-1.2.51-.69.28-.72-.76-1.26-.65-.17.23-.49.71-.64.19-.36-.41-.57,0-.84.21-.3-.13-.46-.57-.86-.63-.4-.25-.68.5-1.07.43a.63.63,0,0,1-1.12.28c-.35,0-.62.56-.93.07a.52.52,0,0,1-.73-.19c-.62-.21-.7.82-1.2.89-.33.06-.79.52-1.27.44-.23.37.13,1.18-.54,1.32-.28.39.63.67.21,1.15.11.44.66.63.31,1.14s-.44,1.26.17,1.34c.29.28.3.63.65.85.08.36-.07.74.21,1.07-.21.42-.81.81-.3,1.27.2.55-.84.86-.24,1.39,0,.59.46.92.9,1.17.33,0,.59.1.47.5a.52.52,0,0,1,.27.9,1.21,1.21,0,0,1-.74,1.27c-.26.48-.75,1.14-.38,1.69.37,0,.61.54,1.09.54.28.13.6.69.05.58-.55.21-.36,1-.5,1.5-.25.09-.76,0-.75.43-.28.14-.46.41-.82.4-.26.53-.88.65-1.25,1.07a5.44,5.44,0,0,0-1.32.93c-.29.48-1,.63-1,1.3-.13.36-.38.78.15,1,.41.39,1.15.55.92,1.29-.14.41-.5.83-.06,1.19.14.6,0,1.29.33,1.83s.93.59,1.34.93c.25.19.3.66-.17.59a.65.65,0,0,0-.55.91c-.49.12-.42.77-.76,1.1-.06.62-.75.71-1,1.22a1.43,1.43,0,0,1-1,1.06c-.3.41,0,1-.22,1.43s-1.13.67-.72,1.22c.12.53.68.63.9,1.09.66.16.74.87.94,1.41.42.49.27,1.27.74,1.69.56,0,1.28.22,1.12.91.31.37.79.54.75,1.14.21.52.67,1,.56,1.59a13.11,13.11,0,0,1-.13,1.66,1.45,1.45,0,0,0-.17,1.53c.06.56-.53.9-.11,1.41a.93.93,0,0,1-.3,1.33c-.46.53.57,1.11.1,1.6-.06.44.42.66.3,1.12.32.43-.09,1.08.46,1.41a1.44,1.44,0,0,1,0,1.45c-.1.5.53.93-.06,1.31-.29.49-.54,1.06-1.14,1.23-.22.27-.58.53-.32.85-.31.4-.4,1.11-1.07,1a1.19,1.19,0,0,0-.9,1.22c-.21.61.19,1.2,0,1.8s.19,1.06.15,1.61a5.34,5.34,0,0,0-1,1.29,3.63,3.63,0,0,1-1.23,1A2.4,2.4,0,0,1,670,108c-.24.21.06.54-.35.44-.28.36.65,1,.13,1.14a2.79,2.79,0,0,1-1.68.32c-.65,0-.87-.78-.82-1.31-.48-.35-.81-.84-.48-1.43,0-.45-.63-.41-.53-.94-.21-.53-1.18-.3-1.07-1,0-.37.28-.94-.34-.86-.33.14-.78.08-1.05.22-.62-.22-.2-1.46-1-1.16-.12-.15.52-.52.2-.85-.16-.51.11-.93.21-1.36.07-.2.06-.71-.37-.58s-.94-.16-1.29-.46c-.35.63-1,.22-1.57.17-.23.17-.6-.23-.6.23-.23.26-.78.18-.29-.08.2-.41.38-.93,0-1.25,0-.63-.74-.82-.91-1.38s-.5-1-.93-.45c-.48.18-1.12.07-1.26.73s-.86.71-1.32,1c-.66.39-1.15-.45-1.77-.23a7.15,7.15,0,0,1-1.45-.76c-.54,0-.87-.7-1.5-.65-.44-.14-.34-.92-1-.76-.35,0-.93-.14-.94.36-.42.2-1.25-.26-1.28.47s-1,.25-1.12-.18c-.69-.15-.78.65-1.08,1-.65.21-.92-.44-1.53-.57a.68.68,0,0,0-1.06.29c-.65.09-.44.7-.59,1.14-.24-.58-1-.7-1.09.07-.22.16-.59-.17-.75.24s-.79.85-.87,1.45c-.15.78-1.13-.22-1.25.25-.23.27-.74.09-.93,0-.54.25-.08.92-.59,1.21-.38.52.34.63.38,1.06-.13,0-.35-.25-.37.14a.59.59,0,0,1-.84.61c-.26.37.21,1-.46,1.11-.41.21-.56,1-1.11.6-.46-.14-.89-.23-1.07-.71-.36.09,0,.71-.42.84.41.52-.31,1.21.24,1.65.29.29.19.55-.2.42-.22.13-.9.15-.47.56.16.46.08,1,.35,1.51.46.08.14.55-.09.69,0,.4.64.24.47.69a.8.8,0,0,1-.39,1.39c-.6.1-.87.6-1.47.73-.32.26-.78.66-1.14.59-.41-.65-1.05-.1-1.58,0a4.89,4.89,0,0,0-1,1.41,2.36,2.36,0,0,1-1.12,1.21c-.36.38-1.41.49-1.35-.25-.4-.08-.78-.6-1,0a1,1,0,0,1-1.37.32c-.34.17-.4-.26-.65,0-.52-.3-.78.72-1.37.31-.26-.06-.39.39-.52,0-.15-.15-.2.17-.34,0a6.2,6.2,0,0,0-1.32.88c-.31.54-1.07-.2-1.57.1-.58.15-1.19.69-1.78.26-.68.13-.62-.7-1.2-.72-.15-.2-.12-.38.06-.3.29-.36.46-.94-.17-1-.29-.09,0-.87-.48-.49-.34.28-.28.77.24.72s.51.41.06.43c-.13-.14-.56-.23-.27,0,.62.25-.43.66-.74.53-.44.21-.61-.61-1-.13s-1,.66-1,1.16-.17,1-.86.84c-.35.13-.66.8-1.13.33s-.88.26-1.23-.28c-.28-.24-.35.51-.55,0-.28-.63-.82.48-1.1-.17-.67-.34-1,1-.16.8.33.3-1.07.34-.57.9.08.08.45,0,.19.25-.48.09-1.28.46-.8,1.06.08.56-.44,1-.76,1.47-.6.29-1.11-.32-1.72-.22-.2-.24-.77.38-.76-.08.67-.2-.81-.94-.65-.18-.46.3-1.37.26-1.37,1s-.79,0-.83.61c-.35.35-.95.43-1.08-.17.13-.81-1-.67-1.4-.32-.13.61-.52-.27-.82.17a1.65,1.65,0,0,0-1.7.37c-.37.14-1.18-.09-.93.56s.86-.47,1,.27c.23.33.65-.21.72.31.18.26.27.74.09.9.58.6-.6.8-1,.94s-.39.73.11.5c.59.21-.61.05-.47.43-.22.18-.55.43,0,.46a3.47,3.47,0,0,1,.71,1.72c.09.39-.24.54-.25.93a3,3,0,0,0-1.19,1c-.35.3-.26.8-.7,1-.36.4-.89.37-1.27.71a7.11,7.11,0,0,1-1.67.27,2.85,2.85,0,0,1-1.52-.33,3.19,3.19,0,0,1-1-1c.52-.21,0-1,.68-1,.66.15.19-.95-.27-.4-.24-.23-.71-1-.8-.28-.13.37-.7.12-1,.34-.48.52-1-.28-1.53.12,0,.35,0,.76-.52.81-.33.21-.81.17-1.08.38-.08-.53.18-1.07-.08-1.6a.56.56,0,0,1,.41-.83c-.15-.38-.43-.16-.63.05-.51-.22.11-.85-.17-1.25.19-.33.78-1.1,0-1.08-.23.57-.85.66-1.17,1.1s-1.11.26-1.18.73c.21.21.61.42.21.71-.42-.16-1.09.91-.36.65.42.34,1-.36,1.49-.21-.14.41-.9,1-.34,1.49.31.28-.28.89.39.84.21.28,1,.85.36,1.2-.22.38-1,.48-.58,1,.22.33.48.68.06,1-.22.33.58,1-.14,1-.35,0-.59,0-.67.38a.4.4,0,1,0,.3.72c.36.15.19.63-.11.71.11.55.81-.3.65.31-.14.29.64.5.22.84-.43.11-.78.4-1.2.12-.3.62-.89.09-1-.37a1.3,1.3,0,0,1-.87-.17c-.12.19-.28.55-.54.26-.34.17-.18.55.11.62.1.55-.67.52-.83.91-.62-.31-.74,1-1.26.63-.19-.58-.88-.55-1.35-.61a1.49,1.49,0,0,0-1.3.86c-.32.46-.13,1-.16,1.48.36.39-.15.67,0,1,.32.38.17,1,.13,1.46-.25.36-.22.91-.66,1.2-.31.45-.72.81-1,1.28s-.15.6-.53.71-.58.44-.35.87c-.27.52.47,1.08.72.44.5-.39,1.09.07,1.65-.06.34,0,.58-.3.89-.07.18-.35.77-.26,1.07-.11a2.27,2.27,0,0,0,.44,1.11c.11.4-.13,1.28-.57.64-.32.35-.47.88-.91,1.19a1.1,1.1,0,0,1-.91.84c-.19.32,0,1.06.35,1.05s.55.66.11.7c.18.37.16,1-.43.86-.4-.34-1-.13-1.43-.27-.07.46-.65.11-.84.45-.72.12-.1,1,.23,1.22s.45.65.9.37c.39.11.45.6.89.63.06.33-.74.37-.31.82a2,2,0,0,1-.26,1.77c-.22.33-.71.44-.51,1-.23.33-.73.18-.67.62-.33.07-1.2.41-1.07-.18.27-.35-.57-.42-.71-.71a3.25,3.25,0,0,1-1.58-.52c-.43,0-.93.19-1.16-.31-.34.23,0,.91-.58,1-.29.26-.82,0-1,.14-.26.41-.65-.45-.92.11-.61.29.1.68.21,1-.27.23-1.44.3-1,.85.42.29,1.35.22,1.35.89-.28.15-.47.56-.74.24-.4.18-.9.85-.36,1.24.12.48.91.43.79,1.08,0,.33,0,.74,0,1a4.24,4.24,0,0,1-.93-.2c.19.7-.66.64-.91,1.05-.59.08-.84-.62-1.43-.7-.16-.34-1.22,0-.55.26.47.31-.32.87-.56.32-.33-.11-.54-.33-.77,0a.31.31,0,1,0,0,.6c.17.28.58.89.3,1.13s-.67-.63-.65,0c.19.48-.48-.12-.2.38.2.31-.48.42-.56.47-.3-.12-.65-.19-.75.14-.44.1-.37-.85-.88-.28-.22-.18-.41-.27-.61-.16-.26-.25-.49-.43-.11-.72-.11-.36-.28-1-.76-.86.16-.49-.83-.37-.34,0a5.17,5.17,0,0,0-.32,1.21c.27.31.36,1.06-.28.81-.22-.39-.86-1-1.23-.49-.26.73,1.14.7.77,1.28-.56.38.27.42.42,0s.62-.09.88-.3c.18.17-.13.5.26.41.19.36.41.24.66,0,.53,0,.12.45-.06.6.17.27,1,.48.35.74-.36.27-.55,1,0,1.16.21.34-.42.09-.3.43-.41.3-.17.8-.44,1.19.24.27.53.79.7.18.21-.12.24.19.47,0,.35.23-.09.38-.18.45a1.35,1.35,0,0,1-.43,1.08c.53.35-.85.67-.14.91.29-.09.51-.17.65.2.17-.19.44-.72.56-.11.45.27.64-.48,1-.59-.16-.81,1,0,1.08-.72.31-.26.7-.57.65-1,.28-.06.52-.17.35-.48a1.1,1.1,0,0,1,1-.75,1.35,1.35,0,0,1,1.48-.8c.65-.22.76.44,1.13.76.3.1.63-.35.56.19s.27.22.43.11c.07.4.54.47.45,0,0-.73.84.24.51.6-.2.62.36,1.08.92,1.14.26.4.92-.5.82.11a1.67,1.67,0,0,0-.09,1.46,2,2,0,0,1-1.28.92c-.13.44-.7.18-.89.58a.56.56,0,0,0-.62.32c-.27,0-.51,0-.81,0,0,.46-.76.27-.5.75-.12.32-.78.46-.63.78.5.12.84.68,1.06,1.12-.25.18-.66.34-.22.63.2.18.35.93.66.54-.18-.4.11-.74.54-.56.54,0,.87-.52,1.42-.44.51-.18,1-.73,1.56-.24s-.5,1.41.11,1.55c.31.24.5-.17.84.1s1,.27.65.75c.07.6.64-.12,1,0,.16-.3.23-.75.65-.4.38-.06.38.73.76.25.36.1.8-.54,1,0a.33.33,0,0,0,0,.65c.46.08.63.46.75.85.36,0,.59-.68.93-.2.39.1.48.44.12.65-.48.39.31.38.58.43a3.56,3.56,0,0,1-.06.83c-.47-.07-.66.66-.08.58.35-.11.29.91.66.5.39-.11,1-.65,1.23,0a1.49,1.49,0,0,1,.23,1.72c-.37.48.73.58.29,1.06.11.49-.51.41-.5.9-.56,0-1,.26-1.52.26-.35,0-.52-.6-.84-.17-.37.13-.45.79-.84.57-.51.54-1.28-.28-1.74.17-.16.42-.44-.13-.76.14-.48.3-1.4,0-1.51.64s-.84,0-1,.59a1.65,1.65,0,0,0-1.36.27c-.53-.18-.8-.69-1.38-.79s-.34.54,0,.6c-.4.71-.83-.53-1.31-.22-.18.24.32.72-.26.71s-1,.46-1.55.44c-.2.3-.8.25-.91.74a1.25,1.25,0,0,1-1.19-.07c-.29.23-.25-.3-.57,0s-.87.42-.58.88c-.33.58-1.13.21-1.62.58-.5-.14-.84.31-1.18.5-.54-.07-.87-.51-1.28-.83s-.77,0-1.1,0c-.11.46-1.39.54-.6,1.08.51.2.8.67,1.33.81-.07.27-.23.45.16.55a.82.82,0,0,0,1.38-.08c0-.31.57-1,.69-.36.51.25,1.15-.11,1.55.41s-.08.83-.29,1.16c-.29-.05-.27.5-.51.63-.08.58.91.15.81.84.52-.3.94.58.29.65-.36-.3-1.34-.2-.8.37a1.22,1.22,0,0,1-.55,1.26,1.3,1.3,0,0,0,1.07.09c.09-.45.65-.27.73-.73.27-.12.89.29.59.62a6.6,6.6,0,0,1-.16,1.69c-.7.25-.47,1-.17,1.5-.6.3.1.93.27,1.27s1.25.22.68.82a1.13,1.13,0,0,1-1.34.23,1.66,1.66,0,0,1-1.23.32c-.1-.53-.75.21-.61.55-.09.27-.87.09-.59.66s.79.27.93.76c.21-.26.37.31.61,0,.57.18,1.09-.18,1.54-.35.38.18.57-.27.93,0,0-.63,1.15-.27,1.08.29a2.37,2.37,0,0,1-.81,1.28.72.72,0,0,0-1,.67,1.06,1.06,0,0,1-.68.44c-.12.71-.81,0-1.12.07-.13.33-.1.75-.59.56-.41.28-1,.55-1.1,1.1a.92.92,0,0,0-.26.84c.46.17.59-.41,1-.42a3.66,3.66,0,0,0,1.36-.79c.14-.33.77-.2,1,0,.34,0,.94-.29,1,.3.34.21.85-.11.87.45.44.12.39.76.1,1s-.45.89-.84,1.12a1.78,1.78,0,0,0-.63,1c-.23.2-.82.82-.33,1,.46-.37.94-.2,1.48-.22.38-.24,1.1.14,1.14-.53.31-.48.69-.06,1,.18,0-.49.67-.43.93-.75a1.25,1.25,0,0,1,1,.29c.13.32.39.65.17.94.27.24-.12.36.21.49a1,1,0,0,0,.79.39c-.27.5.28.34.58.27.31.24.69-.1,1-.08.58-.4.48.39.46.73.58.09,1.34-.61,1.75-.12.2.2.93.37.4.76-.1.69.73.86.85,1.46.52.39.14,1,.42,1.57-.13.63.76,0,.77-.3s.22-.77.57-.44c.5-.13,1-.41,1.45,0s.67.43.85-.08,1.07-.37,1-1.09.48-1.15,1-.67c.39-.05.67.32.94.52-.17.38,0,.78-.17,1.18.08.66.91.62,1.13,1.17.12.31.6.58.36,1,.12.35-.1.42-.32.47a2.41,2.41,0,0,1-.69,1.57c-.53.35.41.27.41.1s.51.19.45-.18c.69-.23.69.77,1.11,1.05a6.73,6.73,0,0,0,.47.93c-.11.39.38.81.54,1.17,0,.54-.17,1.37-.71,1.52s.07.56.33.21a3.42,3.42,0,0,0,1.74,0c.43-.06.72-.82,1.11-.23.35.13-.12.81.48.82a.61.61,0,0,1,.35.88,2.27,2.27,0,0,0,.82,1.55c-.09.3-.06.46-.36.54-.2.44-.4,1.29-1,1.19-.3.06-.6.37-.83-.06-.41-.27-1.2-.72-1.55-.19,0,.4-.39.57-.09,1,.08.25.51.76-.1.75s-.91.74-1.49.88c-.37.3-.85.21-1.24.42-.5-.22-.78.81-1.21.27a2.56,2.56,0,0,0-1.65-.22c-.48,0-.36.52-.73.72,0,.68-1,.63-1.43.69s-.81.58-1.2.91-.92.61-1.19,1.08c-.1.26-.66.29-.32.67.1.33-.63.48-.13.79.29.36-.36.47-.24.88Z"/><g id="layer9"><path id="path4687" class="cls-5" d="M677,182.47c-.51-.37-1.25-.69-1.72-.08a1,1,0,0,0-1.32.54c-.42-.07-.77,0-.59.52a2.78,2.78,0,0,0,.25,1.83,2.31,2.31,0,0,1,.49,1.68c.31.54.53,1.1,1.15,1.35.47-.07.82.28,1.32.15a1.57,1.57,0,0,0,1.35.21c.37.18.59-.18.9.11.71,0,.85.79,1.24,1.28a1.25,1.25,0,0,1,.1,1.72c-.19.5.31.92.18,1.37a.67.67,0,0,1,.72.45c.28-.43.55.26.13.32.54.18.93.93,1.56.9.36,0,.2.6.64.63,0,.39.66,1.27.84.52s1,0,1,.46c.27.4,1.16,0,.89.71.17.56.19,1.51,1,1.45.25.35-.37.91.27,1.14.41.25,1,.58.72,1.13.25.62.64-.33,1,.13s.37,1.31,1,1.52c.52-.09.5.45.17.63a2.67,2.67,0,0,1,1.41,1c.34.43,1.22.2,1,.93.11.71,1.06.18,1.39,0-.1-.15-.56-.29-.13-.41.26.31,1,.26.77-.31.15-.69,1.25-.22.71.29-.09.38.29.28.33,0a5,5,0,0,1,.86.49c.09.49.39.4.57.07.49-.22.83.22,1.26.25-.28.71.55.86,1,1.21.24.31.21.75.72.76.17.3-.57.57-.08.88s.82.16,1.08.57c.65-.29,1.25.41,1.48,1,.39.32.82,1,1.36.45.39-.28.86-.58,1.2-.1.53-.25,1.23-.6,1.12-1.27.32-.12.83.16.75-.4.26-.06.6.22.92.23.26.19.35.15.51,0,.51.09.74.67,1.22.48"/><path id="path4691" class="cls-5" d="M657.13,309.06c0-.61-.82-.55-1.25-.62-.64.18.08-.72-.45-.88s-.64-1.3-1.2-.77c-.38-.33-.88-.55-.82-1.12,0-.29-.15-.66-.58-.6-.2-.45-1-.64-1,0-.53.18-.71.84-1.08,1.09-.65-.28-.87.68-1.54.46a18.59,18.59,0,0,1-1.87-.16c-.36.22-.81.71-1.18.32a4.18,4.18,0,0,1-1.63.31,1.86,1.86,0,0,1-1.15.88c-.33.3-.19-.05-.29-.21-.46.17-.42-.79-.93-.37-.33.21-.46.65-.93.35.09-.39-.64-.18-.3.09a.69.69,0,0,1-1.3.11c-.57-.1-.29.51-.71.68.13.74-.74,0-1-.21-.53-.26.46-.64-.16-.75-.26-.23-.52-.42-.79,0s-1.13-.33-1,.47c-.08.61-.7.86-.84,1.45-.48.3-.75.76-.38,1.28-.37.59-1.27-.29-1.71.37-.12.61-.91.35-1.16.59,0,.9-1.09-.59-1.13.35-.06.37,0,.82-.52.64-.39.18-1.2.32-.81.9-.36.73.94.16.6.84s.23,1.43-.51,1.74c-.23.47,0,1.23-.64,1.47s-.23,1-.79,1.29c0,.46.26,1.16-.3,1.48s0,1-.37,1.51c-.41-.06-.71-.8-1.25-.32-.36.32,0,1.19-.75,1.12-.52.19-1.25-.42-1.43.33-.34.2-.32.69-.79.44-.59-.07-1.34-.56-1.83,0a1,1,0,0,1-1.29,1,1.24,1.24,0,0,0-1.48,1c-.2.47-.55,1-1.08.64-.49.07-1.07.43-1.52,0-.48.09-1.12.5-1.14-.31-.21-.77-1-.31-1.46-.41-.38-.49-1.39-.11-1.6-.8s-1.23.51-1.39-.19c-.17-.39-.59-.6-.83-1-.54-.18-.86.43-1.34.51-.81.19-.77-1.13-1.58-1-.53-.14-.93.44-1.47.23a3.54,3.54,0,0,0-.92-.07"/><path id="path4701" class="cls-5" d="M646.24,249.89c-.14-.62.28-1.22.38-1.81a2.44,2.44,0,0,0,.91-1.36,2.63,2.63,0,0,1,1.72-.67c.42-.29.79-.2,1.11-.62a9.15,9.15,0,0,1,1.61-.9c.44-.38,1.09-.49,1.42-1a2.75,2.75,0,0,0,.61-1.91c.54-.48-.52-1.06,0-1.54.57-.16.24-1,0-1.35-.21-.64.37-1.23,0-1.82.24-.42.55-1.08,1.12-1.22.45-.31.39-.73.39-1.19.22-.34-.57-.35-.14-.66.5-.51,1.26-.64,1.74-1.18a7.9,7.9,0,0,1,1.17-.53c.43.58,1-.11,1-.56.51-.08.66-.93,1.31-.67.47.31.87-.14.71-.62.2-.57.73,0,.81.35.49,0,.21-.83.78-.46a1.61,1.61,0,0,1,.81.28c.49-.42,1.21.16,1.72.37.45.36,1.14.31,1.26,1,.46.87,1.2-.06,1.78-.08s1.37.13,2.07.27,1.07-1.06,1.66-.3c.37.3-.5,1.07.14,1.09.25-.28.6-.57.86-.14.49,0,1.23.31,1.48-.27s.77-.15,1.09.12a1.6,1.6,0,0,1,1.82.31c.51.34.72.93,1.31,1.12.44.45.4,1.14.68,1.67-.16.23-.8,0-.5.52-.16.39.09.57.41.77a.79.79,0,0,0,.65,1c.58.31-.59.34,0,.64.34.15.93.39.4.78s-.53,1.34.17,1.48c.24.36.23.79-.19,1-.28.69,1.16.67.71,1.25-.63-.12-1.17.47-.66,1-.09.45-.25.88.08,1.28-.08.61-.13,1.27.55,1.53.36.45.46,1.11,1,1.39s.6,1.06,1.23,1.28,1.16.27,1.71.47c.47.41,1,.16,1.61.15s.34.81.94.55a.9.9,0,0,1,1,.61,1.79,1.79,0,0,0,.95,1c.16.49.59.52,1,.49.15.6.88.79,1,1.43.08.16,0,.39.14.45"/><path id="path4715" class="cls-5" d="M648.53,324.9a2.42,2.42,0,0,1-1.26,1.52c-.44.52-1.13.59-1.67.95s-1,1.21-1.69,1c-.58-.07-1,.4-1.54.46s-1.08.58-1.7.64c-.15.47-.66-.08-1,.07-.58-.09-1.06.27-1.61.31-.07,0-.64-.27-.59.2a1.38,1.38,0,0,1-1,.05c-.12.51-.64,1.15-1.21,1.08s-1,.76-1.35,1.09c-.5-.21-.49.7-1.08.56-.28.19-.44.67-.87.61-.31.45-.8-.29-1,.28-.32-.23-.63.09-.48.51-.35.29-1-.49-1.3.12-.08.76-1.14.74-1.08,1.46-.38-.09-.81,0-.83.49s-.59.46-.94.61c.13.32.21,1-.3.63-.63-.18-.71.49-.91.89-.44.5-.64,1.14-1,1.67,0,.63-.62,1-1.1,1.27-.46,0-1.25.17-1.36.72a15,15,0,0,0-.68,1.81c0,.84-1.5.33-1.1,1.24.19.58-.19,1.13-.47,1.62-.1.56-.78.66-.92,1.27s-.91.54-1.34.84c-.49.47-.06,1.1-.21,1.6-.11.13-.14.31-.25.42"/><path id="path4717" class="cls-5" d="M616.61,350.87c-.31.34-.45.89-1,.75-.4.15-.74.57-1.22.23a.7.7,0,0,0-1,.83c0,.59,0,1.44-.85,1.54a7,7,0,0,0-1.54.93c-.17.3-.63.24-.69.65,0,.1-.15,0-.23.09"/><path id="path4721" class="cls-5" d="M657.07,137.4c-.68-.15-1.08-.81-1.67-1.06s-1,.16-1.47-.15c-.34.37-.89.41-1.31.66s-.49.44-.94.33c-.69.16-.93-.79-1.5-1-.41-.5-.32-1.29-.82-1.71s-.32-1.12-1-1.43a3.83,3.83,0,0,0-1.26-1.42c-.39-.41-.35-1.06-.93-1.29a18.06,18.06,0,0,0-.41-1.88c-.08-.68-.63-1.08-.78-1.69-.41-.54-.25-1.29-.46-1.94-.16-.42-.41-.82-.87-.72-.28-.61-.41-1.38-1.18-1.59-.53-.29-.7-.93-1-1.41-.35-.32-.49-.91-1-.93a3.18,3.18,0,0,1-1.47,0c-.45.24-1.67.38-1.26-.46.17-.73-1.25-.82-.58-1.51a.72.72,0,0,1-.25-.82c-.35-.23-1.1.27-1.19-.37-.49.12-.69-.6-.82-1,.13-.3.61-.49.14-.81s-.55-1.09-1-1.41c-.1-.47-.62-.82-.92-1.17-.23.08-.39.38-.6.21-.09.16-.06.6-.4.11"/><path id="path4727" class="cls-5" d="M657.71,132.9c.54-.42,1.41-.14,1.82-.7a11.3,11.3,0,0,0,1.86-1.08c.47-.46,1.24-.19,1.58-.69a5.55,5.55,0,0,1,1.3-.72,2.88,2.88,0,0,1,1.21-1.3c.45,0,.3-.41.72-.49.2-.43-.34-1,.25-1.18,0-.52.86-.1.81-.75.15-.34.7-.42.63-.91a1.31,1.31,0,0,0,1-1.08c0-.56.58-.84,1.06-1,.4-.29.26-.65,0-.93.36-.6-.38-1.17,0-1.8.19-.41.52-.73.14-1.14-.16-.59-.93.07-1.34.09-.32.36-.68-.43-1.11-.13-.62-.27.78-.94,0-1-.61-.12.16-.68-.37-.91-.35-.21,0-.78.15-1,.74-.11.18-.92.6-1.32.39-.08.58-.58,1.09-.45a.93.93,0,0,0,1.14-.79,1.45,1.45,0,0,0,0-1.55.94.94,0,0,1-.28-1.37c0-.51-.34-.85.15-1.19,0-.06,0-.19-.19-.21"/><path id="path4729" class="cls-5" d="M613.35,171.16a2.15,2.15,0,0,0-1.73-.67c-.57.19-.35-.5-.53-.82.06-.51-.28-1.1.26-1.46-.24-.7.8-.62.74-1.23.27-.28.84-.48.89-1,.52-.24.64-.83,1.21-1,.29-.66,1-.71,1.62-.88s.8-.82,1.38-1c.24-.71,1.27-.57,1.54-1.19.5,0,1.16-.23,1.26-.85.59-.27,1.17-.46,1.79-.71.55-.42,1.42.15,1.84-.56.1-.64,1-.15,1.31-.65.39-.21.87-.58,1.28-.4.43-.33,1.3.05,1.54-.6.36-.16.26-.54.62-.74,0-.68,1.12-.36,1.25-1.09.35-.53,1.17-.13,1.29.26.21.61.38-.82.81-.29.22.3.54.21.82.39.41-.45,1.32-.06,1.66-.66.37-.12.19.69.6.21.18-.32,1,.08.72-.48.12-.44.59.29.81-.2.45-.09,1,.09,1.26-.39.55,0,.75-.62,1.13-.83.5.33.37-.87,1-.78.27-.36.48.37.82,0,.6-.26,1.26-.33,1.64-.87.89.41.82-1.16,1.65-.9.56.16.27-.67.84-.63.38-.51,1.06-.45,1.61-.66.37-.34.79.35,1.2,0,.49.29.93,1.26,1.69,1,.44.32,1.12.16,1.56.44.51-.1,1.06,0,1.45-.46s.92-.16.94-.78a.8.8,0,0,1,1.32.37c.49.3.34,1.12,1,1.16.16.16.24.42.5.59"/><path id="path4733" class="cls-5" d="M611.35,200.51a4.91,4.91,0,0,0-1.78.66c-.5-.17-1,.17-1.43.29-.26.47-.59.07-1,.37-.56,0-1.47-.06-1.3.78-.27.54-.85,1-.93,1.53s-.31.9-.21,1.37c-.44.23.36.89-.32.78-.34.16-.15.47.1.52.15.59-.86.7-.41,1.35a4.24,4.24,0,0,0-.17,1.14c-.29.08-.42.52-.69.51-.34.24-.41.59-.88.63-.17.46-.11,1.1-.28,1.53.38.29,0,.78.57.87.16.33-.45,1.08-.51.41-.33-.15-.74-.14-1-.47-.34.43-1.3-.1-1.3.72a10.35,10.35,0,0,0-1.41.56c.08.54-.36,1.35-.9.7-.38-.41-1.4-.56-1.74,0-.07.68-.6,0-.87.18,0,.57.49,1.3-.2,1.62-.09.49.1,1-.5,1.13-.29.56-.85,1.22-.53,1.87a5.33,5.33,0,0,1,1.17,1.45c.07.57.68.73.93,1.11.78-.08,0,1.18-.36.55-.65-.48-.36.66-.43,1,.24.4.56.86,1.06.46.44-.08,1.26.07,1.19.67-.28.12-.52.19-.43.56-.18.5-.68.2-1,.19-.12.57-.8.43-1,.82.34.29.58,1.33-.16,1.18-.43.12-1.34.09-1.34.71s-.76,0-.9-.24c-.6.1-.65,1-1.17,1.15-.27,0-.6-.48-.68.06.2.59-.61.68-.94,1-.5,0-1-.33-1.51-.17-.31.27-.36.83-.93.68a.72.72,0,0,0-.19,1.05c-.33.3-.78.33-1,.76-.73-.09-1.22.79-2,.67-.32-.12-.81.22-.74.58-.51-.07-1.08-.06-1.29.57-.07.46.69,1.07-.07,1.35-.31.36-1.08.38-.94-.24-.4-.73-1,.25-1.46.22-.2,0-.29-.11-.41-.1"/><path id="path4741" class="cls-5" d="M610.36,161.67a2.42,2.42,0,0,1-1.64.32,3.35,3.35,0,0,1-1.8.1,1.55,1.55,0,0,1-.75-1.29c-.56-.55-1.35,0-2-.4a1.54,1.54,0,0,1-1.07-.9c-.52.08-.78-.84-1.33-.44-.43-.4-1,.52-1.27-.11a.53.53,0,0,0-.82-.62c-.3-.36-.82-1.22-1.15-.39a.51.51,0,0,1-.89-.12c-.45.6-.68-.32-.66-.7a12.33,12.33,0,0,0-.51-1.7c-.1-.6-.43-1.18,0-1.74.12-.57.33-1.35-.35-1.63-.58,0-1.26.08-1.5-.6a3.63,3.63,0,0,0-1.46-1.68,2.17,2.17,0,0,1-1-1.12c-.43-.33-.2-.83-.42-1.24.38-.61,0-1.34,0-2a3.83,3.83,0,0,0-.09-1.72,5.76,5.76,0,0,1-.48-1.76,9.77,9.77,0,0,1,.22-1.52c0-.62,0-1.24,0-1.86a6.66,6.66,0,0,1-1.13-1.42c-.16-.54-.47-1.12-.08-1.63-.42-.17-.43-.56-.31-.91a.3.3,0,0,0-.17-.21"/><path id="path4745" class="cls-5" d="M602.36,183.07c-.25.63.52,1,.37,1.65a1.65,1.65,0,0,0,0,1.76c.2.56,1,.15,1.08.85.09.52.27.95.89.77.43.26.87-.16,1.32.09.32.07.74.08.83.51.42.35.84.73,1.42.61.53.16,1.11.2,1.38.78.42.31.8.82,1.35.4.29-.46,1-.29,1.1-.91.31-.21.43-.59.85-.58a3.55,3.55,0,0,1,1.4-1.47,12.73,12.73,0,0,0,1.31-.45c-.38-.64.85-.21.64-.92.21-.35.88-.08.91-.62.27,0,.65.16.66-.29.38-.29.86-.37,1.26-.62.28.48,1,.86,1.4.27.33-.22,1.18-.2.8-.87.19-.7,1.09,0,1.51-.25s1.27.09,1.82-.39,1.52-.1,1.94-.84c.29-.46,1-.5,1-1.12.49-.15.92-.53.7-1.05.36-.64,1.17-.47,1.71-.26a1.1,1.1,0,0,1,.6-.6c.13-.58.12-1.26.65-1.6a2.23,2.23,0,0,0,.74-1.06c.5-.47,1.54-.48,1.56-1.37.1-.59.49-1.14,1.1-1.09.34-.37.95-.56.92-1.1.46,0,.72-.42,1.19-.22.34-.55.55.51,1.06.13a7.87,7.87,0,0,0,1.27.42c.36.71,1.15-.23,1.6.34.56,0,.57-1,1.24-.74.27-.29.15-.88.73-.8.31-.27.57-.78,1.07-.51.64,0,.84-1.32,1.42-.57.49.6,1.18-.16,1.75.28.62-.19,1.07-.81,1.73-.67.5-.25.19-.72-.08-1a2.09,2.09,0,0,1,1.37-1.24c.67-.16.52.82,1,.88.26-.28.53-.69,1-.55.33-.13-.06-.61.36-.77.21-.27.15-.84.65-.55.69,0,.81-1,.81-1.61a9.63,9.63,0,0,0-.12-1.78,6.67,6.67,0,0,1,.77-2.06c.29-.6,1-.8,1.14-1.49.31-.37-.19-.71-.16-1.13-.76.14-.71-.86-1-1.31-.43-.16-.82-.54-.3-.89.21-.73,1-.94,1.37-1.52s-.08-1.35-.57-1.66c-.21-.65.24-1.61.93-1.56.45.42.79-.31,1.21-.4a2,2,0,0,1,1.37.44,1.67,1.67,0,0,0,1.6.3c.35-.58,1.12-.29,1.63-.11.7.06.74-1.17,1.53-1,.5-.31,1.36.24,1.52-.5.36-.37,1.08-.22,1.16-.88.45-.31.48-1.14,1.22-1.18s.69-1.41,1.55-1.36c.28.29.89.45,1-.1-.62-.41.7-.74.56-1.32.18-.62,1-.39,1.21-.93s.69-.4.67.1c.72.34.68-1.25,1.39-.56.31.49.76.25,1.16.1.41.27,1.19.05,1-.54.14-.55,1-.24,1.45-.35.37.06.47.45.91.34a17.11,17.11,0,0,0,1.92.83c.77.18,1.15-.6,1.82-.75.46-.15,1.41-.72,1.27.23-.2.57.41.92.9.74.75,0,.92-.87.73-1.44.18-.53-.15-1.1-.11-1.55.56-.25,1.29,1.12,1.47.17,0-.33-1-.87-.28-1,.49,0,1.26.16,1.24-.56.48-.51.86.31,1,.68s.65,1.15,1,.49.68-.08.53.33c-.11.79.69,1.1,1.29.71.41-.48,1-.73,1.4-1.28a2.13,2.13,0,0,1,1.32-1,2,2,0,0,0,1.54-.48,4.4,4.4,0,0,1,1.19-1,1.38,1.38,0,0,1,1.44-.54c-.06.42.57,1,.76.34-.12-.53.67-.94.74-.28s.65.2,1,.35c.48-.09.62-1.44,1.07-.62.22.42.47,0,.67-.06.13.64,1.16,0,1.18.87.22.41,1.09.21,1,.87-.29.51.23,1.22.78.93.43-.6.77-.23.94-.1"/><path id="path4747" class="cls-5" d="M600.42,180.81a1.37,1.37,0,0,0-1.5-.37c-.58,0-1.21.31-1.65-.22-.54-.14-1-.55-1.6-.44-.32-.19-1,.44-1-.25a3.18,3.18,0,0,0-1.2-1.24c-.58-.16,0-.85-.29-1.17.09-.48-.62-.43-.55-1A1.49,1.49,0,0,0,591.5,175c-.47-.16-.75-.62-1.26-.62a3.77,3.77,0,0,1-1.54-1.23c-.37-.47-1.07-.47-1.61-.66a1.42,1.42,0,0,1-1.34-.38c-.35-.35-1.37.48-1.07-.36.26-.64-.84-.35-.6-1a4.21,4.21,0,0,0-2-.52c-.64-.31-1.41.16-1.95-.26-.17-.71-1.14-.37-1.26-1.1a3,3,0,0,0-1.34-1c-.39-.14-.72-.43-1.14-.23-.46-.25-.58-.81-1.07-1-.23-.49-.83-.72-.77-1.32a2.82,2.82,0,0,0-1.48-1c-.58.22-1.15-.13-1.73.14-.46-.06-.74-.41-1.19-.44-.17-.1-.25-.42-.66-.44"/><path id="path4751" class="cls-5" d="M659.4,138.73c.51.46,1.19-.09,1.77-.11.34-.66,1.09-.31,1.68-.44s1.28.12,1.88-.1a4.08,4.08,0,0,0,1.48-.66c-.24-.33.22-.36.34-.7.56,0,.77-1.1,1.39-.55.24.3.6.13.46-.24.24-.18.53-.05.62-.45a.84.84,0,0,0-.26-.94c.2-.42-.43-1.14.31-1.11.35,0,.48-.13.28-.4.21,0,.6,0,.3-.24.22-.32.58-.21.68-.62a3.8,3.8,0,0,1,1.59-.46c.23.37.45.35.6-.05.31-.17.63.08.9-.25.46,0,.86-.06,1-.59.34-.49.87-.93.87-1.54.29-.27.61-.47.81-.06.29-.21.42,0,.51.21.34,0,.67,0,.66-.47.37-.43.68-1,1.36-.84.29-.35.5-.91,1.09-.82.42-.41-.54-1.09.33-1.19.42-.26-.33-.88.41-.85.52-.14,1.09.22,1.53-.28a3.21,3.21,0,0,0,1.89-.22c.34-.37.69-.18,1.12-.1.5-.21,1,0,1.44-.35a1.19,1.19,0,0,0,1.16.1c.35.2.57,0,.65-.35.46-.1.51-.67.81-1,.59,0,1.2,1.43,1.69.52.37-.71,1.46-.51,1.49-1.39.43-.29.38-.86.82-1.16a1.75,1.75,0,0,0,.43-1.68,9.66,9.66,0,0,0-.14-1.08"/><path id="path4753" class="cls-5" d="M673.73,170.44c-.2.34-.32.74.12.9a2.57,2.57,0,0,0,1.7,1.15c.45.5.87,1.12,1.64,1,.4-.05.49.52.79.09.48.09.6.92,1.2.58.35-.09.5-.61,1-.35.52-.1.51.7,1,.4.32.2,1-.21.57-.62.1-.56-.37-1.33.3-1.65a.83.83,0,0,0,.15-1c.34-.2.42-.59.9-.65s.84-.53.4-.92a3.83,3.83,0,0,0,.34-1.8c.14-.36.7-1,.15-1.27-.7-.5.28-1.07,0-1.66s.6-1.12-.05-1.48c.15-.31.19-.88.64-.59.24-.61.92-.35,1.3-.8.25-.23.25-.6.72-.5.23,0,.51.38.75,0,.72,0,1,1.24,1.73.75.37-.66,1,0,1.39.12.23-.46.63-1,1.24-.74.37.33,1,.16.73-.42.31-.45.52-1.23,1.2-1.14-.12-.4-.35-.94.29-1,.27-.26-1-.35-.3-.64.29,0,1,.45.71-.16-.51-.64.77-1,.67-.15.47.46,1.21.08,1.74.41.35-.15.67,0,1-.17.4.16.8,0,1.16.32s1-.5,1.09.25c.48-.42,1,.22,1.46.32a1.63,1.63,0,0,0,1.6,0c.57-.45,1.19-.06,1.81,0,.33.11.75.1.82-.17a2,2,0,0,0,1.37.37c.37.28.33-.07.45-.25"/><path id="path4757" class="cls-5" d="M653,286c-.07-.56-.63-.82-.76-1.37-.65-.24-.44-1-.4-1.54a2.28,2.28,0,0,0-.16-1.7,3.81,3.81,0,0,1,.3-1.78c.43-.4-.23-.85.1-1.3.17-.44,0-.91.19-1.35-.11-.44.3-.55.37-1a5.81,5.81,0,0,0,.92-1.78c0-.23.67-.32.18-.51-.24-.34.72-.37.15-.76-.24-.54.18-.9.52-1.25.37.23,1,0,.89-.49.33.19,0-.42.37-.4.13-.39-.72-.87-.08-1.17.3-.12.71-.39.77.08.43.05.45.92.89.38a2.7,2.7,0,0,0,1.36-.32c.4-.14,1.43-.1,1.45.63.31.39.92.22,1,.75.32-.17.68.19.78-.29.28-.54.52-1.29,1.24-1.27.38-.49,1.13.37,1.27-.4.26-.39.72,0,.74-.56.4-.49,1-.3,1.44-.66.4.07.87.63,1.16,0,.47.19.95,0,1.48.13.44-.51,1,.69,1.18,0,.41-.27.24,1,.6.43.09-.69.53-.12.8.11.4-.19.46-1,1.06-.91s.11.83.76.8c.47.18,1-.44,1.25.1a3.37,3.37,0,0,0,1.78.4c.55,0,.83-.91,1.41-.38s1.4.12,2.09.27a9.6,9.6,0,0,1,2.18.83,10.65,10.65,0,0,1,1.77,1c.59.2.91.71,1.34,1.11.41,0,.53.35.81.57.13,0,.21-.18.35-.15"/><path id="path4763" class="cls-5" d="M649.21,246.94a1.21,1.21,0,0,1,1.28-.42,5.18,5.18,0,0,0,1.59-.17.67.67,0,0,1,1.18.23,4.34,4.34,0,0,1-.68,1.25c.08.51.42,1.2-.28,1.42.11.48-.41,1,0,1.39.08.43-.41.81-.15,1.14-.34.17-.8.29-.76.81-.74.23.32.56.07,1s0,.77-.09,1.09c-.71.14,0,1-.68,1.29-.48.39.12.68.25,1-.49.44-.3,1.13-.32,1.72.24.54-.25.91-.6,1.17.2.35.08.58-.29.63-.2.35.43,1.1-.28,1.09-.43.18-1.31.21-.85.9a5,5,0,0,1-.77,1.54c-.26.14-.76.09-.66.59-.45.17-1.46-.17-1.38.67.14.59-1.17.06-.83.85s-.76.06-1.06.52-.88.25-1.29.58c-.63-.25-.77.79-.29,1.1-.29.26-.37.86-.75.31-.5.05-.32,1-1.06.82-.71,0-.17,1.07-.9,1.14.1.65-.65.78-.87,1.28a1.39,1.39,0,0,1-.55,1.34c-.16.4.06,1-.51,1.17a2.38,2.38,0,0,1-.54,1.57c-.45.39-1-.31-1.46.17a4.79,4.79,0,0,0-.82,1.21c-.51-.06-.5.81-1,1a1.09,1.09,0,0,0-.62,1.1c-.41.48-.81,1-1.2,1.46a1.63,1.63,0,0,1-1.38.77c-.33-.25-1.1-.35-.88.31,0,.34-.53,0-.46.47-.17.5-.94.48-.91,1.06.22.7-.47,1.19-.35,1.85-.17.62-1.07-.2-1.14.61-.34.48-1.12.54-1.41,1.07,0,.54-.65,1.25-1,.54-.35-.07-.76,0-.48.45.05.6-.5.68-.9.4a3.26,3.26,0,0,1-1.4,1.58c-.55.15-.91-.52-1.45-.51-.38.25-.22.89-.68,1.16-.15.45-.46.83-.62,1.28-.32.11-.6-.33-1-.13-.31-.19-.09-1-.68-.71-.85,0,.32,1.14-.26,1.15-.51-.26-1.47-.68-1.46.24a.65.65,0,0,1-.64.59c0,.37.14,1.14-.21,1.25-.27-.82-1.17-.22-1.49.25-.14.23.61.55,0,.72-.39.12-.89.42-1-.13-.93-.16.28,1-.52.92-.46,0-1.35.34-.78.82a2.18,2.18,0,0,1-.71,1.49.6.6,0,0,0-.83.73c-.44.65-1.25-.28-1.64.4a4.14,4.14,0,0,0-2,.5c-.4-.14-.88.41-1.31-.06-.55.22-.67.89-1.09,1.25-.15.48,0,1.09-.69,1.21s-.86.92-1.44,1.23c-.42.37-1.18.73-1.08,1.38a1.6,1.6,0,0,1,.41,1c.32.25.21.79-.22.68-.28.37-.94-.49-.83.25,0,.56-.52,1-.91,1.33.06.48-.67.69-.86.35-.28.26-.22.64-.64.86s-.74-.09-.89.4c-.31.37-.15.88-.32,1.24.68,0,.36.65.35,1s-.5.77.15.67c0,.28-.34.27-.39.43"/><path id="path4765" class="cls-5" d="M640.66,242.06c.36-.32.83-.87,1.34-.72.4.54-.38,1-.31,1.55-.09.58-.56,1.06-.51,1.66.06.43-.24.8-.34,1.17-.45.35-.07,1-.39,1.51a2.72,2.72,0,0,1-.48,1.7c-.4.34-1,.44-1.08,1a1.32,1.32,0,0,1-1.2.42c-.38.37-.82.31-1.24.61-.68-.42-1.3.21-2,.22a2,2,0,0,0-1.68.32c-.61.24-1.4,0-1.79.57a5.67,5.67,0,0,1-1.62.88c-.4.79-1.19-.31-1.73.33-.58.2-1.24-.28-1.63.4-.18.37-.8.51-.45,1a2.45,2.45,0,0,0,.29.85c-.6.24,0,.81-.54,1.09-.5.62-1.15.23-1.75,0-.44-.4-.51.3-.74.52.31.62-.56,1.59-1,.83-.22,0-.26.66-.63.05-.3-.21-.45-.82-.85-.33-.51.1-1,0-1.37.55a9.2,9.2,0,0,0-1.2,1.37.62.62,0,0,0-.64,1c-.42.62-1-.14-1.19-.57-.35-.21-.64.35-1,.21-.45.58.45,1.12.46,1.72.28.34.49.68.18,1.1,0,.51-.67-.12-1,.21-.52.23-1-.73-1.33,0-.35.48-1.13.24-1.38.9-.51.23-.59,1-1.26.93a.93.93,0,0,1-1.28,1c-.4-.12-.14-.81-.69-.9-.71-.37-1.37.29-1.71.86a1.14,1.14,0,0,1-1.52.6,4.24,4.24,0,0,1-1.59-.34c-.38-.25-1-.33-.91.33s-1,.41-1.29,1-1,.33-1.1,1a2.2,2.2,0,0,0-1.44.65c-.67,0-.66.72-1.18,1-.36.73-.87-.84-1.38-.08a3.55,3.55,0,0,0-1.38.66c-.58,0,.13.83-.57.6-.42-.65-1-.07-1.23.47-.12.37-.34.34-.56.1-.14.5-.73.05-.49-.38a.35.35,0,1,0-.66-.21"/><path id="path4767" class="cls-5" d="M611.68,198.51a1.76,1.76,0,0,0,1.25-.81c.52,0,.71.81,1.28.91.35.21.68.55,1.07.25a1.53,1.53,0,0,0,1.14-.22,1.79,1.79,0,0,1,.88,1.47c.24.19.66.22.67.6.44.21.86.6,1.37.58a4.62,4.62,0,0,0,1.81-.18,2.14,2.14,0,0,0,1.27-1c.08-.42,0-.78.48-1,.09-.75,1-.86,1.33-1.52-.19-.64.63-.72.77-1.27.49-.35.53-1,1-1.39-.07-.43-.3-1,.37-1,.32-.52,1.1-.25,1.32-.89.53,0,.83-.4,1.3-.59.13-.36-.12-.73.25-1,.07-.65.47-1.27,1.19-1.11.25-.43,1.14-.93,1.34-.13.11.26.53,0,.69.27.57-.18,1.2,0,1.67-.52.45,0,.8.45,1.21,0a5.64,5.64,0,0,0,1.84-.38c.21-.59.93-.42,1.42-.66.41,0,.92.22.68.69.56.07.88-.92,1.57-.7.13-.14-.19-.58.27-.6s.8-.43,1.24-.15.78-.3,1-.35c.44-.24.89-.7,1.48-.53.35-.18.84-.18.67.32.32.38.7,1,1.28.55.65-.18,1.16-.86,1.89-.43.54.36,1.35.3,1.7.93a3.74,3.74,0,0,0,1.56,1.25,6,6,0,0,1,1.17.72c.26.26.52.44.54.85.33.39.91.35,1.28.68.64-.09.39.63.93.74.24.78,1.23.16,1.77.19.29.29.1.81.55,1.06a1.75,1.75,0,0,1,0,1.31c-.18.63-.93.29-1.34.58s-1-.43-1.07.33c-.12.51,1.15,1,.26,1.27-.33,0-1.3-.07-.74.45.4.22,1.23.29.82.89-.14.45.1,1,.61.63.8-.14.85,1,.64,1.49.33.71,1.49-.26,1.56.71,0,.64,1,.46,1.15,1.11.25.24.69.15.7.61.38.39.86.88,1.44.44.4-.18.86.32,1.23.55a4.6,4.6,0,0,0,1.39,1.05,5.24,5.24,0,0,0,1.9.8c.45.17.66.86,1.27.56a17.86,17.86,0,0,0,2.08-.19,3.1,3.1,0,0,1,1.78.48c.13.42.75,1.1,1,.37a1.69,1.69,0,0,1,1.5.38.71.71,0,0,0,1.29-.12c.32-.77,1.32-.12.91.54.41.21,1.34.23,1,1-.2.56-1.3.84-.91,1.51.59.24,1.08-.51,1.65-.4.15.35,0,1,.52,1.15.07-.74,1-.12.5.31s.56.55.64.09c.6-.32.22.37.18.64.11.58.53.78,1,.91.27.52.69.16.9-.15.49-.29,1.63-.17,1.31.62-.33.33-1.12.61-.73,1.19a11.93,11.93,0,0,1,1.35.4c.28-.53.41-1.16.73-1.71a.39.39,0,0,1,.76.07c.24-.14.74-.4.78.16,0,.73.57.94,1.18.8.52.3.3,1.07.78,1.46.71.3-.87,1.07,0,1.1.55,0,1.23-.11,1.7.25.26.63-.88.62-.5,1.32.18.8,1.12.3,1.6.71.65.11.34,1,.72,1.35,0,.37-.18.83.39.85.39.34.77.11,1.06-.13.67.1.89.71,1.11,1.26a1.4,1.4,0,0,1-.17,1.46c0,.29.52.22.48.64.31.58,1.25.22,1.51.85.33.4.8.63.62,1.19-.51.19-.37.88.21.58a8.27,8.27,0,0,0,1.59-.56c-.51-.2.2-.94.26-.4.55.18,1.17,1.08.23,1.18-.61.44.57.68.73,1,.41.26.74.82,1.23.84s.29-1.2.84-.64c-.27.69.77.74.78.09s.12-1.22.83-1c.87.1.11,1.12.46,1.41.67,0,1.5.28,2-.27s1.22,0,1.79.16.71.66,1,.45"/><path id="path4773" class="cls-5" d="M642.59,239.53c-.41.17-.76,1.3-1.09.45-.43-.44-.18-1.22-.76-1.57s.07-1.08-.51-1.4c-.19-.54.55-1.39-.35-1.57a2,2,0,0,1-.81-1.8c.19-.37-.15-.73.08-1-.44-.35-.61-1.12-1.22-1.2s-1.14.22-1.77.18c0,.45-.54,0-.69-.07-.61,0-1,.69-1.57.61-.23.61-.76.39-1.26.39s-.93.44-1.4.51a2.28,2.28,0,0,0-1.74.45,2,2,0,0,0-1.71.83c.25.75-.68.69-1.15.82a1.25,1.25,0,0,1-1.36.16c-.51-.51-1.1.25-1.63-.17-.57-.2-1.36-.44-1.81.14-.18.82-1.09.9-1.35,1.68,0,.56-.77.36-.8.93a.57.57,0,0,0-.75.54c-.18.68-.93.69-1.36,1.07-.48.08-1-.27-1.21.31a1.8,1.8,0,0,0-1.43.64c-.45.21-.38.87-.8,1.07s-1,.37-1.21.88c-.52,0-.6.69-1.13.72-.41.49-1.15-.41-1.39.38a11,11,0,0,1-.41,1.83c.23.8-1.24.46-1.11,1.3-.26.56-.6-.47-.78.14-.12.41-.48,1.17-.93.82-.51.42-.78,1.18-1.46,1.36,0,.5-.41.84-.7,1.11.28.46.43,1.38-.29,1.49s-.41,1.42-1.34,1.21c-.31.2.33.74-.28.74-.25.25-.44.65-.81.57-.63.14-1.16.9-1.77.65,0,.6-.53.4-.94.36-.47.47-1.11.69-1.58,1.17-.74.08-.43,1.14-1.24,1.18-.19.2,0,.63-.46.58-.49.29-.5.92-1,1.26-.12.64-.48,1.23-.18,1.9,0,.4-.86.42-.54,1a1.66,1.66,0,0,0-.57,1.61c-.15.29-.68.47-.37.92-.43.65-.11,1.39,0,2.09a1.86,1.86,0,0,1-.27,1.74,3.82,3.82,0,0,1-1,1.41c-.06.48.22,1.19-.15,1.54"/></g><g id="layer10"><g id="g4840"><path id="path4842" class="cls-6" d="M620.64,257.52c.25-.24.18.33.39.25.05.24.35.41.35.61-.27,0-.25-.41-.58-.39,0-.15-.1-.52-.29-.25-.23.07-.19.54-.51.31-.13.06-.23,0-.36,0a6.15,6.15,0,0,0-.48.81c-.19.27-.55.33-.78.57a.88.88,0,0,0-.5.65c-.07-.18-.08-.35-.25-.43.07-.29.4-.44.34-.79s.42-.45.53-.75.45-.19.6-.38c.33-.1.72-.29,1,0s.11-.29.4-.15h.06l0,0Z"/><path id="path4844" class="cls-6" d="M613.61,127.37c.33-.18.61.33,1,.27.28.1.7-.13.85.22s-.24.68-.29,1-.5.42-.78.53-.59-.3-.93-.22c-.23-.41.47-.17.59-.46s-.14-.65-.34-.86-.26-.41-.06-.52Z"/><path id="path4846" class="cls-6" d="M623,183.37c.17-.05.07.54,0,.59C622.82,183.71,622.76,183.7,623,183.37Z"/><path id="path4848" class="cls-6" d="M655,322c.36-.32.69.38.2.42-.34.12-.81-.14-1,.27-.34.18-.14.75-.56.83s-.1-.58,0-.82.51-.22.74-.47C654.66,322.33,654.76,322,655,322Z"/><path id="path4850" class="cls-6" d="M631.08,333.43a.81.81,0,0,1,.68.14c-.13.29-.67-.25-.64.19-.21,0-.53,0-.41.29s-.47.19-.29.51c-.17.28-.23-.26-.42-.26.06-.15.43-.07.3-.36a.36.36,0,0,1,.61-.32c.1,0,.13-.12.17-.19Z"/><path id="path4852" class="cls-6" d="M665.33,350.69c.24-.22.26.3.13.43a2.29,2.29,0,0,0-.07,1.27c.15.36-.56-.1-.67-.12.41-.15.31-.66.36-1S665.1,350.71,665.33,350.69Z"/><path id="path4854" class="cls-6" d="M646.65,362.22c.27,0,.27.62.05.8a3.48,3.48,0,0,0-.42.92c-.12.29.08.66-.24.84.06.38-.15.73-.11,1.1s-.18.4-.25.08c-.43-.14-.15-.67.05-.89a1.93,1.93,0,0,0,.29-1c.07-.25,0-.48.24-.64-.07-.37.5-.57.3-1C646.6,362.4,646.48,362.17,646.65,362.22Z"/><path id="path4856" class="cls-6" d="M693.43,115.19c.2-.16.15.37.3.47a1.67,1.67,0,0,0,.52.74c.17.25.53.37.39.76s.15.72.17,1.06a1.07,1.07,0,0,1,.62.66,3,3,0,0,0,.51.85,3,3,0,0,1,.41,1c.1.37.65.27.71.67s.37.57.41.89.36.66,0,.86-.38.52-.54.8-.2.53.12.62a4.78,4.78,0,0,1,.31,1,2,2,0,0,1,.14,1.07c.11.32.54.43.61.76.24.44.44-.23.64-.39a1.75,1.75,0,0,0-.12-1.13,5.88,5.88,0,0,1-.46-.9,5.45,5.45,0,0,1-.33-1.09c.27-.22.63-.36.83,0a3.47,3.47,0,0,1,.47.84c.2.24.32.55.57.72s.38.46.53.71.38.41.56.64.41.5.56.78.19.63.41.88a1.79,1.79,0,0,1,.51.75c.18.35.09.71.19,1.07a1.38,1.38,0,0,0,.56.76c.34.27,0,.76.15,1.06s.39.66.29,1.07-.73.35-1,.14a2.19,2.19,0,0,0-.72-.56c-.16-.31-.58-.32-.86-.5s-.51-.49-.85-.38c-.21-.17-.48-.27-.7-.46a1.4,1.4,0,0,1-1-.31c-.21-.18-.51-.32-.6-.64a4.61,4.61,0,0,1-.19-1.11c.11-.35-.3-.59-.18-.94a1.54,1.54,0,0,0-.36-.92,3.64,3.64,0,0,0-.47-.81,7.71,7.71,0,0,0-.51-.69c-.18-.27-.83-.22-.54-.66.12-.25.4-.54.19-.84,0-.3.53-.59.27-.87s-.05-.68-.35-.85a1.29,1.29,0,0,0-.46-.85c-.42-.08.14-.48-.19-.71s.43-.66.12-1c-.2-.14-.23-.37-.47-.47.06-.2-.35-.22-.41-.46s-.24-.59-.52-.72c-.09-.2-.21-.37-.42-.18s-.37.27-.5,0-.49-.47-.5-.82a.53.53,0,0,1,.65-.55c.33,0,.71-.07.66-.49.14-.33.34-.72,0-1a1.41,1.41,0,0,0-.09-.32Z"/><path id="path4858" class="cls-6" d="M673.14,119.17c.15-.15.05.42.29.24.05.24.51,0,.45.39.11.33-.23.42-.42.19-.31,0-.9-.12-.6-.54C673,119.43,673,119.15,673.14,119.17Z"/><path id="path4860" class="cls-6" d="M625.4,182.61c.32-.21.64.12,1,0,.42.08.22.73-.11.83s-.69-.28-.9.1a.84.84,0,0,1-.83.39c-.42,0-.84,0-1.26,0-.34.26-.35-.49-.2-.62s.48.53.69.1.61-.26.82-.54A.87.87,0,0,1,625.4,182.61Z"/><path id="path4862" class="cls-6" d="M696.51,188.7c.29-.22.42.42.76.17.35,0,.71,0,1.05.1s.31.32,0,.25-.59.3-.94.19a.51.51,0,0,1-.83-.33c-.1-.13-.48-.21-.17-.37l0,0Z"/><path id="path4864" class="cls-6" d="M703.1,194.9c.24-.11.16.46.48.4s.4.59-.05.49c-.23-.13-.45-.29-.74-.18-.46,0-.14-.44-.24-.66.23,0,.2.33.47.31s-.07-.2.08-.36Z"/><path id="path4866" class="cls-6" d="M708.51,218.61c.16-.12.07.38.33.31.3.21.43-.19.55-.29.17.24-.3.35,0,.58s-.22.29-.34.5c-.34.11-.07-.72-.42-.35-.19.1-.36-.11-.15-.18A.36.36,0,0,1,708.51,218.61Z"/><path id="path4868" class="cls-6" d="M707.17,220.36c.18-.13.19.33.44.25s-.05.29.22.28.38-.61.77-.41c.34,0,.51.38.81.5,0,.25.13.56,0,.76-.32-.14-.69-.06-1-.22-.29.18.17.88.35.43.34-.26.6.36.56.64s-.5.16-.57.52c-.21.06-.33-.36-.54-.09-.37.24.4.29.32.61.22.41-.23.7-.54.78-.09.29-.44.32-.44.62a8.8,8.8,0,0,0-.26,1.26c.13.41-.23.71-.62.71s-.71-.19-1-.06a2.42,2.42,0,0,1-1.07-.09,1.08,1.08,0,0,1-.7-.68c-.24-.15-.71-.39-.4-.75,0-.23.36-.28.33-.58a1.61,1.61,0,0,1,.53-.71,2.56,2.56,0,0,1,1.19-.26c.23,0,.31,0,.55-.05s.06-.47.3-.61c.05-.33.4-.52.39-.86.28-.1.68-.28.77-.58s0-.77-.24-.57c-.09.4-.44-.24-.13-.34C707.29,220.7,707.14,220.53,707.17,220.36Z"/><path id="path4870" class="cls-6" d="M694.73,229.2c.26-.18.72,0,.72.31-.18.3.42.28.28.64a.38.38,0,0,1-.73.15c-.25-.22-.67-.16-1-.17a2,2,0,0,1-1-.28c-.32-.14,0-.27.16-.29s.74-.14,1.08-.26a.55.55,0,0,0,.46-.1Z"/><path id="path4872" class="cls-6" d="M665.81,231.07c.3-.15.53.27.67.49s.65.3.55.71c-.32.24-.49-.15-.66-.38.08-.43-.47-.44-.59-.78v0Z"/><path id="path4874" class="cls-6" d="M698,238c.18,0,.43.34.22.56,0,.36.51.46.47.83-.08.57.78.2.79.67.28.16.78.11.86.49a.61.61,0,0,1-.07.88c-.28.27.08.68-.18,1a3,3,0,0,1-.55.75,1,1,0,0,0-.59.73.37.37,0,0,0-.37-.13c-.13-.21.33-.12.1-.37s-.68,0-.86.24-.27.7-.66.64a1.35,1.35,0,0,1-1.16,0,2,2,0,0,1-.77-.53c-.14-.28-.47-.39-.6-.68s-.23-.52-.55-.54-.42-.09-.51-.34c-.3-.11-.66-.47-.37-.81a5.77,5.77,0,0,1,.84-.49c.25-.19.32-.61.71-.46s.74.1,1,.36c.38.11.75-.08,1.12,0a1.44,1.44,0,0,1,.4.6c.14-.15.35-.24.18-.47-.37,0-.5-.4-.74-.56s-.35-.28-.6-.25c-.16-.16-.33,0-.5-.19-.21.19-.61,0-.36-.24.28-.11.53-.34.81-.16.23-.09.58.11.4-.29a.89.89,0,0,1,0-1c.24-.2.67.09.67.33.34-.07.28.71.65.35.17-.25,0-.66.21-.9h0Zm-2.38,3.46c-.19.23-.51.34-.66.62s.54.31.78.27c.34.16.61-.47.16-.56-.07-.13,0-.41-.28-.33Z"/></g></g><g id="layer4"><polyline id="polyline3083" class="cls-7" points="595.92 313.18 596.12 312.99 596.12 312.8 596 312.61 596.01 312.41 596.22 312.39 596.26 312.2 596.15 312.05 596.15 311.94 596.22 311.87 596.26 311.74 596.27 311.63 596.37 311.5 596.22 311.22 596.04 311.18 595.84 311.23 595.64 311.07 595.54 310.86 595.82 310.36 595.97 310.27 596.11 309.93 596.27 309.69 596.38 309.63 596.48 309.45 596.59 309.43 596.69 309.48 596.92 309.54 597.07 309.48 597.35 309.15 597.46 309.13 597.55 309.02 597.5 308.87 597.53 308.72 597.74 308.55 597.83 308.55 597.89 308.76 598 308.78 598.58 308.51 598.47 308.33 598.49 308.07 598.52 307.92 598.53 307.69 598.45 307.56 598.48 307.49 598.77 307.38 598.83 307.3 598.84 307.14 598.99 307.14 599.21 307.12 599.61 306.91 599.86 306.75 600.12 306.78 600.33 306.63 600.55 306.45 600.63 306.15 600.38 305.89 600.21 305.46 600.1 305.01 600.01 304.32 600.3 304.29 600.51 304.08 600.92 303.76 601.27 303.45 601.64 303.36 602.1 302.7 602.34 302.55 602.91 302.46 603.08 302.2 603.2 302.03 603.24 301.79 603.21 301.66 603.31 301.29 603.48 300.99 603.64 300.88 603.92 300.49 604.11 300.17 604.3 299.98 604.5 299.95 604.58 300.04 604.79 300.1 604.87 300.19 605.16 300.17 605.45 299.96 605.56 299.91 605.68 299.95 605.74 300 605.9 300 606.28 299.74 606.4 299.72 606.84 299.56 607.13 299.52 607.69 299.47 607.88 299.47 607.9 299.23 608.01 299.17 608.41 299.17 608.67 299.3 608.84 299.34 609.24 299.26 609.31 299.21 609.4 298.8 609.36 298.7 609.44 298.43 609.84 298.28 610.13 298.3 610.24 298.37 610.4 298.31 610.56 297.85 610.8 297.59 610.88 296.79 610.71 296.58 610.71 296.47 611.07 296.17 611.46 296.1 611.98 295.97 612.04 295.87 611.98 295.71 611.82 295.37 611.85 295.22 612.01 295.13 612.25 295.13 612.4 295.41 612.55 295.46 612.81 295.43 613.13 295.25 613.36 295.23 613.56 295.08 613.39 294.81 613.2 294.71 613.2 294.6 613.47 294.39 613.8 293.99 614.33 293.84 614.56 293.93 614.81 294.34 615.02 293.86 615.03 293.39 614.99 293.05 615 292.98 615.2 292.96 615.47 292.87 615.71 292.14 615.74 291.86 616.33 291.82 616.63 291.99 617.21 292.38 617.24 292.12 617.21 292.05 617.23 291.86 617.1 291.68 617.09 291.51 616.95 291.4 616.98 291.19 617.31 291.13 617.53 290.93 617.85 291.25 617.79 291.53 617.89 291.71 618.23 291.75 618.55 291.73 618.75 291.9 618.84 291.97 618.92 291.92 619.23 291.32 619.46 291 619.61 290.5 619.93 290.24 619.92 290.07 620.06 289.92 620.01 289.66 620.1 289.53 620.36 289.46 620.57 289.51 621.45 290.02 621.88 289.92 622.39 289.5 622.82 289.07 623.16 288.37 623.72 288.63 623.85 288.58 624.09 288.03 623.92 287.75 623.94 287.55 624.6 287.57 624.83 287.9 625.04 287.89 625.43 287.53 625.55 286.92 626.74 286.14 626.98 285.82 627.13 285.55 627.29 285.48 627.52 285.49 627.69 285.63 628.01 285.54 628.07 285.27 628.01 285.02 628.08 284.65 628.4 284.23 628.45 284 628.46 283.3 628.59 283.03 628.91 282.92 629.29 282.56 629.45 282.12 629.73 282.14 629.82 281.92 629.72 281.68 630.01 281.38 630.54 281.53 630.55 281.65 630.94 281.56 631.14 281.62 631.92 281.14 632.64 280.19 632.82 279.76 633.14 279.63 633.81 279.76 633.97 279.89 634.45 279.98 634.65 280.3 635.07 280.58 635.52 280.91 635.62 281.1 636.31 281.1 636.57 280.84 636.71 280.99 636.95 281.06 637.06 280.95 637.24 281.12 637.48 280.82 637.61 280.8 637.71 280.89 637.95 280.8 638.05 280.88 638 281.02 638.26 281.45 638.79 281.6 639.53 281.98 639.95 282.07 640.91 282.57 641.29 282.74 641.4 282.68 641.53 282.57 641.53 282.31 641.5 282.09 641.6 281.96 642 282.12 642.44 282.31 642.98 282.33 643.46 282.31 643.91 281.85 644.21 281.88 644.8 281.69 644.98 281.47 645.12 281.62 645.24 281.44 645.4 281.44 645.57 281.49 645.68 281.77 645.52 282.27 645.54 282.66 645.61 282.98 645.35 283.13 645.28 283.35 644.99 283.45 644.95 283.65 644.96 283.82 645.03 283.88 645.32 283.84 645.45 283.75 645.53 283.73 645.56 283.82 646.04 284.06 646.01 284.17 646 284.34 646.11 284.43 646.26 284.53 646.78 284.82 647.2 285.12 647.32 285.33 647.49 285.31 647.76 285.77 648.6 286 649.33 285.74 649.76 285.53 650.31 285.44 650.64 285.4 651 285.64 651.21 285.59 651.37 285.74 651.87 285.76 652.42 286.17 653.2 286.43 653.82 285.76 654.02 285.31 654.71 284.75 654.91 284.19 655.28 283.78 655.6 283.33 655.76 283.33 656.12 283.13 656.81 283.17 657.4 282.7 657.63 282.83 658.19 282.48 658.55 282.46"/></g><g id="layer15"><path id="polyline3348" class="cls-8" d="M681.59,135l-.29,0a7,7,0,0,0-1,.09c-.23.09-.45.21-.67.32-.68.25-1.36.48-2,.74a3.77,3.77,0,0,1-.48,0c-.15,0-.31,0-.45.05a1,1,0,0,1-.42.12,4.21,4.21,0,0,1-.48-.12c-.09-.06-.16,0-.22.07s-.21,0-.3,0a1.29,1.29,0,0,0-.45.27,1,1,0,0,0-.38.15c-.08.08-.19.06-.3.06s-.15,0-.13.13-.16.1-.22.16-.1.16-.2.11a1.48,1.48,0,0,0-.21.13c-.08.09-.21,0-.31,0s-.1-.21-.19-.27a2.21,2.21,0,0,0-.5-.21c-.19-.08-.41-.07-.6-.16a2.45,2.45,0,0,0-.62-.23c-.09,0-.18.08-.26,0a.75.75,0,0,1-.27-.26.74.74,0,0,0-.32-.26,2.74,2.74,0,0,0-.63-.21,1.08,1.08,0,0,0-.44,0c-.1,0-.15.07-.21.12a3,3,0,0,1-.42,0c-.09,0-.18,0-.15.15s.12.15.05.21-.09.19-.18.13-.17,0-.22-.07a.89.89,0,0,0-.37-.23c-.09,0-.19,0-.26,0a.19.19,0,0,0-.14.18l-.48-.19a4.28,4.28,0,0,0-1-.11,4.17,4.17,0,0,0-.71.07,3.2,3.2,0,0,1-.42-.1.73.73,0,0,0-.36,0c-.1,0-.17,0-.14-.11l-.28-.17a1.28,1.28,0,0,1-.11-.27.35.35,0,0,0-.16-.23l-.5,0a6.27,6.27,0,0,1-.75,0,2.18,2.18,0,0,0-.57,0,1.32,1.32,0,0,1-.44,0,1.63,1.63,0,0,1-.4-.24c-.06-.08-.15,0-.23,0a.66.66,0,0,1-.37,0,4.89,4.89,0,0,0-.48.2c-.09.08-.22.13-.24.27a.29.29,0,0,0,0,.24.51.51,0,0,1,0,.3c-.24.17-.51.28-.76.43s-.43.34-.65.51l.06.24c0,.18-.08.36-.11.54a2.57,2.57,0,0,1,.26.41.76.76,0,0,1,.08.36,1.73,1.73,0,0,1-.35.41,5.36,5.36,0,0,0-.15.78c0,.31,0,.62,0,.93-.07.1-.16.19-.24.29a3.94,3.94,0,0,0-.1.47.69.69,0,0,0-.24.35c0,.12.1.21.06.32a.5.5,0,0,0,0,.32,1.34,1.34,0,0,0,.18.28.24.24,0,0,1,.11.21,2,2,0,0,1-.11.35,1,1,0,0,1-.23.13,1.11,1.11,0,0,1-.43.15c-.37-.07-.75-.11-1.12-.17a1.76,1.76,0,0,0-.4-.07,2.23,2.23,0,0,0-.56.16,4.69,4.69,0,0,0-.47.53,2.86,2.86,0,0,0-.3.54c0,.09-.06.17-.16.19s-.12.14-.16.22-.15.05-.22.08-.16.14-.25.2a3.54,3.54,0,0,0-.16.34c-.07-.13-.1-.29-.24-.37a1.45,1.45,0,0,0-.23-.19,3.09,3.09,0,0,1-.43,0,1.94,1.94,0,0,1-.57-.25c-.07,0-.17,0-.25,0s-.21.08-.27.17a2.26,2.26,0,0,0-.16.26c0,.11,0,.15-.11.08a.7.7,0,0,1-.33-.2,1.77,1.77,0,0,1-.33-.34,2.94,2.94,0,0,1-.11-.66c-.09-.12-.14-.27-.28-.34s-.2,0-.28,0-.21-.13-.21-.25,0-.18,0-.25-.17-.09-.16-.19a.26.26,0,0,1,0-.24c.09-.1-.07-.08-.14-.11s-.14.11-.19.05-.08-.29-.14-.43-.08-.16-.14,0-.16.08-.22,0-.19-.09-.19-.2,0-.19-.08-.22-.29,0-.42-.06-.09-.13-.06-.2a3.06,3.06,0,0,0,.17-.59c0-.09,0-.17-.11-.17s-.18.12-.28.08-.2,0-.18-.09.06-.18.09-.28.17-.1.1-.18-.12-.09-.19-.11l-.27-.06c-.08,0-.11.12-.19.16s-.14,0-.23,0-.2,0-.2-.08.1-.26.08-.4a.17.17,0,0,0-.09-.21c-.07,0-.11.11-.18.14s-.14.08-.22.08,0-.14,0-.21-.12-.15-.12-.25a.4.4,0,0,0-.09-.25.25.25,0,0,0-.22,0c-.08,0-.18.06-.24,0a.22.22,0,0,1-.1-.21c0-.11.12-.07.18-.06a.45.45,0,0,0,.21-.24c0-.08-.08-.13-.14-.17a1,1,0,0,1-.34,0c-.08,0-.19,0-.21.07s-.09.18-.19.17-.14-.09-.11-.15,0-.13,0-.2-.16-.12-.13-.15.22-.12.24-.25,0-.17-.05-.21-.15-.12-.12-.19.09-.16,0-.21,0-.19-.09-.23a.31.31,0,0,0-.25,0,1.32,1.32,0,0,1-.25.16c-.07.07-.15,0-.21,0s0-.12,0-.19a1.22,1.22,0,0,0-.11-.62.69.69,0,0,1,0-.24c-.06-.12-.16-.23-.14-.37s.07-.24.12-.36l.48-1a1.16,1.16,0,0,0-.41-.09l-.67-.06a.83.83,0,0,0,0-.27l0,0c-.24-.11-.47-.22-.71-.31a.7.7,0,0,0-.35,0,.51.51,0,0,0-.26.14.34.34,0,0,0-.25-.08.74.74,0,0,0-.39.07c-.08,0-.15.16-.25.11s-.31,0-.46-.08a1.34,1.34,0,0,1-.4-.27.38.38,0,0,0-.25-.14c-.12,0-.15-.13-.22-.21l-.24-.35a4,4,0,0,1-.69,0c-.12.18-.24.36-.37.53a2.91,2.91,0,0,0-.3,0l-.26.28.21.8-.31.42c-.24,0-.49.07-.72.13a1.56,1.56,0,0,0-.26.11c0,.05,0,.19-.14.18a.63.63,0,0,0-.31.05,1.94,1.94,0,0,0-.33.23c0,.23-.09.45-.12.67a1.11,1.11,0,0,0,.08.44,7.48,7.48,0,0,0,.39.74,3.35,3.35,0,0,1-.2.61l-.21.48-.83.36.37.61a.7.7,0,0,0,0,.35c.05.13.13.25.19.38s.22,0,.14.13l-.2.51.62,1.9-.54,2.71c-.13.07-.24.18-.39.17s-.38,0-.56,0-.2,0-.19.11,0,.19-.07.23-.22,0-.3,0-.16,0-.24,0-.14.11-.21.13a1.82,1.82,0,0,0-.31-.16l-.4,0c-.09.12-.15.27-.25.38s-.26.16-.32.29-.15.27-.29.33l-.57.37a1.38,1.38,0,0,0-.25-.17l-.74-.05-.15.39a.73.73,0,0,0-.32.18c-.08.06-.15.18-.27.16l-.79.08-.87-.53c-.42.17-.84.35-1.25.56a3.54,3.54,0,0,1-.34.16,2.67,2.67,0,0,0-.4,0c-.09,0-.2,0-.24.15s-.19.25-.26.39l-.1.39c-.13.08-.28.13-.35.27a.47.47,0,0,1-.12.28c-.07.12-.18.22-.24.35a5.29,5.29,0,0,1-.15.57c-.27.23-.54.46-.8.7-.06.1-.16.19-.15.32a.23.23,0,0,1-.09.22,8.35,8.35,0,0,1-.6.59c-.08,0-.18,0-.25,0s-.25.26-.39.37l-.5.11a4.27,4.27,0,0,0-.28.83,1.22,1.22,0,0,1-.09.27,1,1,0,0,1-.4.2c-.11,0-.23,0-.34.08l-.26.27-.82,0a1.38,1.38,0,0,0-.27-.08c-.22.1-.44.18-.66.29a.64.64,0,0,0-.18.28c-.06.1,0,.23,0,.33-.23.3-.45.62-.69.91a1.8,1.8,0,0,1-.19.2c-.13,0-.27.09-.4,0a.62.62,0,0,1-.3-.18.38.38,0,0,0-.26-.13c-.25-.08-.51-.13-.76-.19a3.75,3.75,0,0,1-.81.16c-.37,0-.74,0-1.11.1a1.61,1.61,0,0,1-.58,0c-.2,0-.38-.12-.59-.08l-.39,0-.33-.31c-.11,0-.23.06-.32,0s-.3-.18-.45-.25a1,1,0,0,1-.46-.12c-.09-.08-.14-.07-.12.06a1,1,0,0,1-.07.42c-.16.37-.33.74-.47,1.11,0,.13,0,.27-.15.37s-.2.18-.19.32a2.74,2.74,0,0,0,0,.5,2.78,2.78,0,0,0,.26.32l.32.19-.12.53c0,.07.12.14.12.22a2.13,2.13,0,0,0-.09.71c0,.2-.06.4,0,.6s.07.18.12.26a4.63,4.63,0,0,1,.42.32c.06.09.16.16.13.27a4.64,4.64,0,0,1,0,.53c-.1.17-.22.34-.32.51s-.06.3-.11.44l-.28.36c0,.16,0,.32,0,.48a3.15,3.15,0,0,0-.09.42l.14.32a2.63,2.63,0,0,1-.21.41,2.38,2.38,0,0,1-.51.44c-.09,0-.16.09-.13.19a1.45,1.45,0,0,1,0,.3l-.25.34c0,.15.07.31.08.46a1.43,1.43,0,0,0-.14.34,1.47,1.47,0,0,1-.12.49,1.07,1.07,0,0,1-.36.27c-.09,0-.2.07-.24.18s0,.24,0,.35a3.13,3.13,0,0,1,0,.44c0,.08-.06.17-.15.21a3.81,3.81,0,0,0-.32.24.54.54,0,0,0,0,.33c.06.36.12.72.17,1.08a4.64,4.64,0,0,0-.16.53c0,.08,0,.19,0,.24a1.86,1.86,0,0,1,.41.43,1.35,1.35,0,0,0,.31.4c.07,0,.18,0,.26,0s.2.08.3.12.13.13.22.09a.3.3,0,0,1,.24,0c.06,0,.19,0,.2.12l.08.38-.65.57c-.1,0-.22,0-.32,0s-.31.31-.45.48-.06.25-.11.36l-.5.41a2.57,2.57,0,0,1-.08.38c-.1.15-.21.29-.3.44a2.36,2.36,0,0,1,0,.46,1.65,1.65,0,0,0-.11.36,3.65,3.65,0,0,0-.58.53c-.23.26-.47.52-.7.79,0,.07,0,.2-.13.17s-.17,0-.22.07a1.79,1.79,0,0,1-.28.27,3.13,3.13,0,0,1-.51.19c-.12.16-.24.33-.35.5s.16.14.09.19a2.57,2.57,0,0,0-.24.21l-.08.44-1.22.7-.46-.2a1.23,1.23,0,0,0-.17.41,2.08,2.08,0,0,0,0,.35c-.07.07-.19.1-.18.22s0,.2-.09.23a3.54,3.54,0,0,1-.33.19,2.74,2.74,0,0,0-.5,0c0,.07,0,.16,0,.23l-.38.41"/><path id="polyline3350" class="cls-8" d="M681.59,135c0-.09,0-.21.15-.25l.9-.62a2.57,2.57,0,0,0,.14-.68,2.25,2.25,0,0,1,.08-.52l-.23-.3.4-.42a2.66,2.66,0,0,0,.63.09c.24-.2.51-.37.74-.59a9.51,9.51,0,0,0,.36-1c.16,0,.32,0,.47-.07a1.06,1.06,0,0,1,.3-.26.76.76,0,0,0,.3-.23,2.63,2.63,0,0,1,.45-.36,5.81,5.81,0,0,1,.77-.43,1.81,1.81,0,0,0,.48-.29.75.75,0,0,0,.25-.25c.05-.08,0-.18,0-.27s-.18.05-.23,0a.44.44,0,0,1-.11-.35,1.28,1.28,0,0,1,.15-.28l.22-.18a1,1,0,0,1,0-.29.12.12,0,0,0,0-.2,1.82,1.82,0,0,1-.15-.27c0-.09,0-.19.1-.24s.08-.2.11-.3.12-.17.17-.26l.32-.22a.44.44,0,0,1,0-.32c0-.09,0-.16-.06-.2a1.13,1.13,0,0,1-.23-.26.65.65,0,0,1,0-.31c0-.07-.13-.15-.08-.22a1.33,1.33,0,0,0,.19-.42c0-.09.14-.08.21-.12s.16-.13.24-.19l.1-.26c-.11-.06-.18-.18-.28-.26a7.28,7.28,0,0,0-1-.39.92.92,0,0,0-.25-.23c-.14-.06-.19-.22-.34-.27s-.15-.11-.25-.06-.18.07-.21,0-.08-.18-.18-.19-.13-.1-.17-.17,0-.19-.14-.2l-.35,0c-.09-.09-.16-.2-.28-.23s-.21-.06-.12-.16a1.25,1.25,0,0,0,.1-.27c.2-.06.39-.13.59-.17l.32.09c0-.15,0-.31.07-.46l.28-.29c-.08-.11-.12-.25-.26-.3a.29.29,0,0,0-.26-.05c-.26-.16-.55-.27-.81-.43-.07,0-.16-.09-.17-.19a3.69,3.69,0,0,0-.46-.88c-.15-.25-.29-.5-.42-.76a3.87,3.87,0,0,0-.35-.45c-.21-.19-.44-.37-.64-.57s0-.23-.05-.35,0-.53,0-.8A1.54,1.54,0,0,1,683,115a5.74,5.74,0,0,0-.35-1,3.23,3.23,0,0,1-.25-.8c0-.23,0-.46,0-.69a3.78,3.78,0,0,1,.05-.67.59.59,0,0,1,.22-.25,3,3,0,0,1,.65-.23c.16,0,.26-.17.39-.26a4,4,0,0,0,.58-.51,1.2,1.2,0,0,0,.22-.23v-.37l-.4-.24c.05-.08.14-.14.1-.24a.56.56,0,0,1,0-.36c.05-.11.16-.2.14-.33a2.74,2.74,0,0,1,.08-.5,1.83,1.83,0,0,1,.35-.44c.06-.09.18-.16.17-.28s0-.3,0-.45a.77.77,0,0,1,.17-.29,1.61,1.61,0,0,0,.14-.71,1.38,1.38,0,0,0,.12-.56.19.19,0,0,1,.1-.21c.09,0,.1-.12.1-.21a.59.59,0,0,1,.1-.29,2.59,2.59,0,0,0,.29-.14,2.53,2.53,0,0,1,.34-.57c.07-.07.05-.18.05-.27a2,2,0,0,1-.13-.52c0-.14,0-.28-.06-.4s-.09-.2,0-.3a6,6,0,0,1,.22-.72c.11-.12.27-.21.33-.37a.4.4,0,0,0,.08-.26,5.3,5.3,0,0,0,0-.69,3.47,3.47,0,0,1-.29-.25L685.88,99c-.34-.08-.68-.16-1-.22a3.36,3.36,0,0,0,.08-.77c0-.23,0-.46,0-.69a1.43,1.43,0,0,0-.14-.5c-.1-.11-.07-.26-.09-.39l0-.35a3.07,3.07,0,0,1-.36-.2c-.07-.14-.17-.28-.23-.43l.08-.42a.49.49,0,0,0-.29-.06c-.09,0-.12-.11-.18-.16s-.09-.2-.16-.27a1.53,1.53,0,0,0-.51-.13,2.2,2.2,0,0,0-.57,0,1.78,1.78,0,0,0-.42-.35,1.34,1.34,0,0,0-.38-.14l-.55-.07a2.54,2.54,0,0,0-.32.55c-.06.1-.09.21-.15.3a1.35,1.35,0,0,0-.33.19l-.09.37a1.23,1.23,0,0,0-.53.21c-.08.06-.16.14-.27.13a1.61,1.61,0,0,1-.38,0c-.06.07-.11.15-.21.16s-.23.16-.34.24a1.57,1.57,0,0,1-.42.35,2.17,2.17,0,0,0-.36,0c-.08,0-.16.11-.25.06s-.17-.08-.26-.06-.17.12-.26,0,0-.2-.1-.15l-.19.07"/><path id="polyline3352" class="cls-8" d="M681.59,135a4.78,4.78,0,0,1-.22.67c0,.24-.08.48-.12.72a5.74,5.74,0,0,0-.31.91,4.17,4.17,0,0,0,.26.46l.3.32c0,.4,0,.8.06,1.2l-.09.45a1.83,1.83,0,0,0,.53.25,2.54,2.54,0,0,0,.55.1.52.52,0,0,1,0,.3c0,.07.12.12.18.18s.31.26.45.41c.11.3.23.59.34.89.15.07.32.12.46.2a.32.32,0,0,0,.23.13,1,1,0,0,1,.42.13l.41.23c.08-.05.22-.05.25-.16s0-.22.14-.18.17.06.24,0,.2-.15.32-.13.51,0,.76,0c.09,0,.22,0,.27-.1s.06-.23.13-.33a.24.24,0,0,1,.17-.18c.09,0,.19,0,.28,0s.21.13.25.25.3.44.44.66a1.13,1.13,0,0,0,.13.32c.09.07.16.17.29.17a.29.29,0,0,0,.24,0c.11,0,.16-.13.23-.2a.43.43,0,0,1,.2-.22.21.21,0,0,1,.22,0,.9.9,0,0,1,0,.4,2.12,2.12,0,0,1,.14.55,1.77,1.77,0,0,0,.19.33.92.92,0,0,0,.43,0,5.51,5.51,0,0,1,.57-.06.2.2,0,0,0,.13-.2c0-.1.12-.09.19-.14a1.93,1.93,0,0,0,.52-.38c.13-.13.34-.23.35-.43a1.31,1.31,0,0,1,.3-.6,1.14,1.14,0,0,1,.32-.3,2.2,2.2,0,0,1,.74-.31.48.48,0,0,1,.31.07c.27-.07.56-.09.83-.18a1.15,1.15,0,0,0,.42-.23,7.29,7.29,0,0,0,.72-.65.75.75,0,0,1,.26-.27l.35-.23c0-.07-.15-.14-.1-.21s.18-.08.28-.12a2.13,2.13,0,0,0,.49-.21.74.74,0,0,1,.39-.05,4.19,4.19,0,0,1,.33.26,1.3,1.3,0,0,1,.31.31c0,.07.16,0,.23.08s.2,0,.23-.14a1,1,0,0,0,.14-.6.52.52,0,0,1,.28-.13.24.24,0,0,1,.23,0c.12,0,.1.17.15.26a.72.72,0,0,0,.11.32,1.59,1.59,0,0,0,.43-.06c.1,0,.18.16.31.14a.19.19,0,0,0,.22-.08,1.57,1.57,0,0,0,.32-.31c.09-.12.11-.29.22-.41a.2.2,0,0,1,.24-.11c.09.12.13.27.27.35a.33.33,0,0,0,.23.09c.1,0,.12-.08.15-.15s.16-.11.22-.09.07.21.18.27.14.06.22.05a1.9,1.9,0,0,1,.46.1c.07,0,.16.08.19.15a1.66,1.66,0,0,1,.11.38c.18.12.4.11.58.22a1.36,1.36,0,0,1,.35.24.64.64,0,0,1,.07.47.58.58,0,0,0,0,.32c0,.1,0,.21.11.26a1.69,1.69,0,0,0,.31.21.44.44,0,0,0,.3,0,.69.69,0,0,0,.35-.18,2.14,2.14,0,0,1,.44-.08l.22.09"/></g><g id="layer8"><g id="Major_Political_Boundary_State_" data-name="Major Political Boundary State "><polyline id="polyline3098" class="cls-9" points="685.67 281.69 685.33 281.63 684.9 281.46 684.72 281.44 684.64 281.35 684.6 281.2 684.64 281.09 684.63 281.01 684.54 280.99 684.5 280.88 684.39 280.77 684.31 280.73 684.09 280.47 683.78 280.38 683.58 280.25 683.37 280.12 683.34 279.91 683.16 279.89 682.79 280.02 682.47 280.29 682.02 280.46 681.98 280.32 682.08 279.98 682 279.9 681.87 279.84 681.73 279.95 681.73 280.07 681.77 280.23 681.27 280.51 681.09 280.46 680.9 280.46 680.72 280.71 680.72 280.88 680.86 281.19 680.74 281.32 680.24 281.3 680.07 281.32 680.01 281.49 679.91 281.49 679.62 281.6 679.58 281.83 679.47 282.02 678.98 282.33 678.73 282.55 678.44 282.5 678.31 282.5 678.17 282.61 678.04 282.83 678 283 677.96 283.34 677.96 283.64 677.75 283.84 677.59 283.81 677.47 283.84 677.34 284.01 677.09 284.37 676.95 284.43 676.87 284.43 676.76 284.54 676.62 284.9 676.49 284.84 676.43 284.59 676.33 284.51 676.14 284.54 675.95 284.43 675.71 284.62 675.62 284.76 675.48 284.87 675.37 285.29 675.15 285.26 674.93 285.59 674.77 285.74 674.53 285.95 674.64 286.11 674.62 286.3 674.46 286.45 674.3 286.43 673.95 286.47 673.94 286.62 673.98 286.8 673.92 286.9 673.83 286.92 673.59 286.84 673.33 286.75 673.04 286.75 672.93 286.82 672.74 287.1 672.59 287.31 672.48 287.34 672.38 287.34 672.17 287.31 671.84 287.21 671.62 287.25 671.37 287.4 671.28 287.4 671.1 287.19 671 286.99 671 286.71 671.08 286.47 671.19 286.21 671.21 285.83 671 285.61 671.07 285.46 670.99 285.39 670.74 285.35 670.45 285.35 670.38 285.2 670.21 284.85 670.06 284.74 669.92 284.81 669.55 284.68 669.47 284.85 669.37 284.85 669.22 284.85 668.82 285.05 668.46 285.14 668.14 285.11 668.13 284.9 667.99 284.68 667.83 284.72 667.69 284.79 667.08 284.94 666.56 285.11 665.95 285.48 665.23 285.57 664.98 285.78 664.9 285.76 664.82 285.59 664.64 285.29 664.38 285.03 664.1 284.85 663.81 284.85 663.66 284.66 663.12 284.64 662.78 284.57 662.4 284.4 662.02 284.42 661.86 284.42 661.79 284.33 661.24 283.58 660.53 283.92 660.15 284.25 660.04 284.33 659.28 283.69 659.28 283.45 659.14 283 658.55 282.46 658.95 281.74 659.19 280.52 659.29 280.15 659.41 279.67 659.58 279.43 659.62 279.04 659.93 278.59 659.65 277.47 660.27 276.48 660.64 276.2 661.06 275.33 661.51 274.64 661.6 274.64 662.38 273.32 661.8 271.03 661.58 271.17 661.45 271.06 661.37 271.06 661.31 271.17 661.2 271.17 660.95 271.06 660.95 270.89 660.98 270.78 660.68 270.83 660.06 270.42 660.04 270.08 659.57 269.75 659.28 269.72 658.88 269.75 658.7 269.61 658.64 269.63 658.53 269.86 657.99 269.97 657.56 270.17 657.27 270.02 657.08 270.25 656.9 270.25 656.71 269.91 656.5 269.69 656.42 269.8 656.32 269.75 656.32 269.61 656.25 269.49 656.48 269.27 657.23 268.63 657.39 268.43 657.7 268.4 657.81 267.93 658.26 267.2 658.55 266.95 658.9 266.28 658.26 265.89 657.77 265.89 657.43 265.58 657.41 265.33 656.92 264.69 656.67 264.24 657.17 263.68 657.5 263.46 657.85 262.45 657.8 261.86 657.88 261.55 658.11 261.33 658.13 261.05 658.11 260.91 658.15 260.55 657.9 260.01 657.94 259.46 657.86 259.09 658.29 257.92 657.82 257.81 657.57 257.61 657.47 257.36 657.42 257.11 657.59 256.13 657.34 255.77 657.28 255.63 657.3 255.32 657.2 254.99 657.36 254.65 657.38 254.26 656.87 253.87 656.8 253.67 656.62 253.42 656.68 253.2 656.82 252.97 656.99 251.72 657.22 250.15 657.51 246.32 656.76 246.3 656.37 246.21 656.08 246.07 655.81 245.88 655.6 245.74 655.44 245.74 655.25 245.82 655.09 245.99 654.86 246.07 653.64 246.21 653.3 245.93 652.56 245.46 652.41 245.57 652.25 245.68 652.02 245.68 651.44 245.6 651.32 245.79 650.99 245.82 650.62 245.85 650.26 246.02 649.66 246.35 649.14 246.44 648.19 246.72 648.03 246.41 648.11 246.24 647.94 246.24 647.28 245.26 647.22 245.01 646.85 244.45 646.81 243.89 646.76 243.56 646.64 243.45 646.25 243.5 646.06 243.31 645.65 243.11 645.44 242.74 645.13 242.43 645.07 242.26 645.19 241.93 644.92 241.84 644.47 241.42 644.36 241.17 643.78 241.14 643.62 240.95 643.47 240.47 643.66 239.8 643.87 239.52 643.89 239.41 643.66 239.33 643.45 239.13 643.33 238.85 643.27 238.43 643.04 238.1 643.41 237.29 643.45 236.65 643.51 236.48 643.74 236.09 643.78 235.86 643.7 235.61 643.93 235.25 643.97 235.05 643.91 234.86 643.97 234.52 643.93 234.16 644.05 233.71 643.93 233.07 643.58 232.87 643.33 232.37 643.04 232.01 642.85 231.5 642.54 231.28 642.52 230.53 642.58 230.3 642.54 230 641.57 229.32 641.45 229.02 640.95 229.02 640.53 228.6 640.53 228.21 639.95 228.01 639.87 227.84 639.17 227.56 638.16 227.72 637.71 227.89 637.56 227.86 637.48 227.64 636.88 227.13 636.51 226.41 636.22 226.07 636.09 225.68 635.89 225.51 635.27 225.38 635.12 225.04 634.96 224.93 634.36 224.68 634.93 223.56 634.87 223.47 635.08 223.31 634.85 223.11 634.73 222.61 634.48 222.13 634.31 221.32 634.11 221.04 633.96 220.65 633.98 220.21 634.13 219.98 634.09 219.84 634.17 219.45 633.38 218.86 633.32 218.39 633.24 218.14 633.26 217.91 633.2 217.72 633.22 217.5 633.2 216.96 631.79 216.38 631.6 216.38 631.42 216.26 630.9 216.15 630.84 216.04 630.53 215.23 630.53 214.95 630.75 214.53 630.5 214.2 630.44 213.67 630.65 213.08 630.82 212.77 630.96 212.44 630.9 211.96 630.79 211.79 630.71 211.71 630.65 211.04 630.61 210.84 630.39 210.24 630.29 210.05 630.31 209.6 630.43 209.24 630.21 208.57 630.16 208.32 629.91 208.37 629.19 208.54 628.74 208.46 628.32 208.57 628.13 208.76 627.78 208.76 627.27 209.16 626.81 209.1 626.4 209.24 625.71 208.85 625.44 208.59 625.32 208.23 625.11 208.15 624.35 208.04 624.14 208.12 624 207.9 623.98 207.56 623.93 207.34 623.77 207.17 623.58 206.92 623.04 206.75 622.82 206.81 622.34 206.92 622.15 206.89 621.66 206.47 621.64 206.19 621.08 205.63 620.81 205.21 620.48 204.68 619.9 204.88 619.65 204.52 619.42 204.13 619.4 203.43 618.86 203.06 618.65 203.23 617.62 203.01 617.21 203.09 617 203.06 616.52 202.98 616.07 202.98 615.59 202.81 615.38 202.9 615.12 202.73 614.95 202.78 614.62 202.7 614.29 202.39 614.18 202.25 613.79 202.17 613.63 202.03 613.56 201.78 613.56 201.39 613.36 201.05 613.34 200.72 613.07 200.13 612.8 199.93 612.76 199.85 612.76 199.71 612.65 199.51 612.61 199.26 612.01 199.07 611.6 199.07 611.59 198.5 611.36 198.08 611.05 197.77 610.55 197.97 609.99 198.3 609.45 198.36 609.1 198.36 608.63 198.53 608.15 198.61 607.7 198.13 607.63 197.94 607.01 197.35 606.8 197.21 606.51 196.74 606.06 196.51 606.04 196.18 605.89 195.98 605.52 195.79 605.02 195.28 604.63 195.09 604.57 194.89 604.75 194.36 604.75 194.08 605 193.61 605 193.41 604.94 193.22 605.13 192.99 605.25 192.77 605.21 192.6 605.21 192.41 605.23 192.27 605.09 192.13 604.82 192.1 604.57 191.62 604.05 191.18 603.97 190.7 603.97 190.48 603.78 190.26 603.43 190.03 603.18 189.98 602.75 189.7 602.23 189.59 601.88 189.59 601.57 189.44 601.53 189.31 601.2 189 601.03 188.86 600.95 188.61 600.95 188.3 601.17 187.99 601.09 187.88 601.07 187.71 601.17 187.57 601.42 187.15 601.38 186.23 601.24 185.78 601.01 185.59 601.17 185.37 601.28 184.92 601.51 184.75 601.55 184.58 601.49 184.36 601.46 183.88 601.3 183.75 601.26 183.52 601.28 183.3 601.42 182.91 601.36 182.57 600.72 182.4 600.49 182.57 600.12 182.52 599.85 182.57 599.46 182.91 599.21 183.07 598.86 182.99 598.69 183.33 598.3 183.69 597.65 183.8 597.35 183.91 597.14 184.16 596.95 184.22 596.76 184.28 596.72 184.67 596.56 184.64 596.37 184.81 596.25 184.92 595.83 184.89 595.52 185.14 595.34 185.25 594.9 185.45 594.82 185.34 594.86 185 594.74 184.92 594.38 184.96 593.71 184.84 593.46 184.65 592.84 184.65 592.74 184.48 592.1 184.09 591.62 184.12 591.23 183.95 591.02 184.03 590.77 184.03 590.52 183.9 590.17 183.28 589.22 183.42 588.87 183.28 588.6 183.56 587.4 183.67 587.27 183.42 587.07 183.34 586.67 183.11 586.57 182.75 586.2 182.5 585.91 182.16 585.72 181.8 585.56 181.35 585.43 180.91 584.23 180.71 583.63 180.91 583.05 180.88 582.8 180.93 582.29 180.74 582.1 180.54 580.88 180.51 580.34 180.32 580.05 179.79 579.16 179.45 578.83 179.29 578.66 179.09 578.54 178.9 578.5 178.53 577.79 178.45 577.38 178.73 577.13 178.87 575.33 178.76 575.04 178.65 574.21 178.56 573.84 178.73 573.63 178.7 573.41 178.39 573.37 178.2 573.43 178.06 573.59 178.03 573.55 177.56 573.55 177.36 573.37 177.08 573.28 176.72 573.53 176.41 573.47 176.27 572.83 176.22 572.12 176.22 571.98 176.33 571.32 176.33 570.86 176.52 570.05 176.47 569.78 176.27 569.58 176.05 568.89 175.85 568.42 175.68 567.98 175.4 567.69 175.07 567.49 174.82 567.32 174.34 567.24 174.09 567.07 173.92 566.95 173.62 566.95 173.45 566.68 173.5 566.41 173.56 566.08 173.42 565.75 173.59 565.44 173.5 565.23 173.73 564.94 173.81 564.59 173.78 564.22 173.87 563.76 173.73 563.55 173.45 563.55 173.34 563.41 173.14 562.85 173.39 562.23 173.28 561.36 173.73 561.32 173.95 560.86 174.29 560.39 174.2 560.26 174.03 559.76 174.03 559.66 173.78 559.29 173.42 559.27 172.97 558.86 172.95 558.5 172.22 557.43 172 557.16 171.83 556.57 171.72 556.38 171.61"/></g></g><text class="cls-10" transform="translate(135.32 126.12)">SAE 303</text><text class="cls-11" transform="translate(127.22 316.12)">LA POLLUTION EN <tspan x="103.26" y="43.2">CORSE</tspan></text></svg>