<svg id="Calque_1" data-name="Calque 1" xmlns="http://www.w3.org/2000/svg" viewBox="0 0 841.89 595.28"><defs><style>.cls-1{fill:#fefee4;}.cls-1,.cls-2,.cls-3,.cls-4{stroke:#0ca6ed;}.cls-1,.cls-2,.cls-3,.cls-4,.cls-5,.cls-6,.cls-7{stroke-linecap:round;}.cls-1,.cls-2{stroke-width:0.4px;}.cls-10,.cls-15,.cls-2{fill:#5d1b00;}.cls-3,.cls-5,.cls-6,.cls-7,.cls-9{fill:none;}.cls-3{stroke-width:0.6px;}.cls-4{fill:#c8ebff;stroke-width:0.4px;}.cls-4,.cls-5,.cls-7{stroke-miterlimit:3.08;}.cls-5,.cls-6,.cls-7{stroke:#858585;}.cls-5{stroke-width:1.2px;}.cls-6{stroke-width:1.2px;}.cls-7{stroke-width:2.8px;}.cls-8{fill:#fbffb4;}.cls-9{stroke:#ff0;stroke-miterlimit:10;stroke-width:2px;}.cls-10{font-size:14px;}.cls-10,.cls-15,.cls-16{font-family:Bauhaus93, "Bauhaus 93";}.cls-11{fill:#ff8100;}.cls-12{fill:#ff0007;}.cls-13{fill:#0067f4;}.cls-14,.cls-16{fill:#2aff42;}.cls-15,.cls-16{font-size:12px;}</style></defs><title>Corsedeco</title><path id="path4897" class="cls-1" d="M576.06,379.58c.14.27-.16.93.4.67C576.64,379.94,576.32,379.67,576.06,379.58Z"/><path id="path4899" class="cls-1" d="M553.21,365.07a9.53,9.53,0,0,1-1.26,1.11c-.28.23-.73.42-.6.88a2.3,2.3,0,0,1,1.32-.09c-.2-.59.67-.87.75-1.42.05-.19.06-.49-.21-.48Z"/><path id="path4901" class="cls-1" d="M553.64,364.37c-.4.24.1.7.23.18C554.06,364.35,553.77,364.35,553.64,364.37Z"/><path id="path4903" class="cls-1" d="M554.68,363.55c-.61,0,0,.84.08.21C554.77,363.69,554.76,363.58,554.68,363.55Z"/><path id="path4935" class="cls-1" d="M655.14,477.43c-.18.1-.47.4-.07.39A.2.2,0,1,0,655.14,477.43Z"/><path id="path4937" class="cls-1" d="M655.92,477c-.12.23-.32,1,.05.91C656,477.67,656.43,477,655.92,477Z"/><path id="path4939" class="cls-1" d="M656.22,477.55c-.07.35.1,1-.5.76a1.07,1.07,0,0,0-.16,1.46c-.23.3,0,.68.27.3.33.17.33-.34.39-.23.15.32-.25,1.06.41.9.21-.25.36-.68.11-.78.68-.16-.28-1-.22-.3-.39.1.22-.55-.29-.46-.45-.39.22-.5.12-.94C656.69,478,656.44,477.76,656.22,477.55Z"/><path id="path4941" class="cls-1" d="M654.53,471.64c-.1.18-.72.39-.2.47C654.62,472.14,655,471.7,654.53,471.64Z"/><path id="path4943" class="cls-1" d="M656.48,472.17c-.44.22-.3,1-1,.93-.27.12-.64.4-.19.53.21.4.57,0,.83.4a1,1,0,0,1,1.18.77c.31.17,1,.3.64-.25-.18-.22-.35-.79.14-.57.24.73,1.19-.37.75-.71-.29-.41-.51.57-.91.21-.21-.08-.6.26-.38-.18.54-.12.63-.75,0-.85-.44-.5-.48.25-.58.53-.37-.17-.25-.59-.46-.82Z"/><path id="path4945" class="cls-1" d="M651.62,472.4c-.18.28-.1.81.23.37C652.11,472.59,651.88,472.31,651.62,472.4Z"/><path id="path4947" class="cls-1" d="M631.72,460.87c-.12.39.46.64.21.1A.2.2,0,0,0,631.72,460.87Z"/><path id="path4949" class="cls-1" d="M627.74,451.21c-.34,0-.3.65,0,.25C627.74,451.4,628,451.17,627.74,451.21Z"/><path id="path4951" class="cls-1" d="M619.06,453.85c-.06.28,0,.8.33.52.25-.08.75.22.4-.23-.19-.14-.42.18-.48-.21A.19.19,0,0,0,619.06,453.85Z"/><path id="path4953" class="cls-1" d="M675.42,443.61c-.36.19-.14.9.21.58,0-.32.76-.23.29-.56A2.07,2.07,0,0,0,675.42,443.61Z"/><path id="path4955" class="cls-1" d="M671.31,436.93c-.43,0-.51.44-.07.56.24.13.4.3.3-.09C671.53,437.24,671.55,436.92,671.31,436.93Z"/><path id="path4957" class="cls-1" d="M672.48,434.42c-.18.39-.81.75-.36,1.2.51.19.66-.47.91-.73S672.74,434.49,672.48,434.42Z"/><path id="path4959" class="cls-1" d="M673.17,433.48c-.15.29-.15,1.33.29.71.14-.24-.29-.36-.11-.68C673.31,433.44,673.23,433.5,673.17,433.48Z"/><path id="path4961" class="cls-1" d="M674.17,431.9c0,.51-.55,1.05-.06,1.51s.52-.66.35-.8C673.87,432.58,675,431.86,674.17,431.9Z"/><path id="path4963" class="cls-1" d="M672.52,417.39c-.43.21.32,1,.27.28A.25.25,0,0,0,672.52,417.39Z"/><path id="path4965" class="cls-1" d="M689.08,132.91c-.18.43.38.2.53.39C689.7,132.75,689.33,133.11,689.08,132.91Z"/><path id="path4967" class="cls-1" d="M679.33,123.78c-.38.26-.17.63.09.82-.08.43.65.72.49.13A2.11,2.11,0,0,0,679.33,123.78Z"/><path id="path4969" class="cls-1" d="M669.05,137c-.07.47.5.8.8.54-.15-.21-.32-.24-.39-.51a.71.71,0,0,0-.41,0Z"/><path id="path4971" class="cls-2" d="M562,340.31c.14.6.74.95.67,1.6.28.63,1-.17,1.45-.19s.26.92.88.7c.26-.1.83.19.29.28s-1,.64-1,1.21c-.29.45-.62.92-.94,1.38-.59-.15-.79.63-1.27.83-.59,0-.6.69-1.06.89-.59,0-1.16.44-1.67,0-.37.13-.81.25-1-.2-.49-.43-1.15-.25-1.73-.46-.48,0-1.35-.14-1.38.53s-.92-.13-1.34.31c-.54.24-1.44.19-1.56.95s1.28.26,1.1,1.16c0,.41-.42,1.31.35,1.16.19.28,1.18-.38.82.31-.15.24-.6,1,0,.71.23.38-.07,1,.34,1.24,0,.32.21.6.45.28.46.34,1-.1,1.42.09s.26.73.43,1.06c0,.24.12.81-.24.45-.49.33-.14.78.1,1.13,0,.79-1.29.1-1.26,1a1.13,1.13,0,0,1-.53,1.57c-.05.37-.32.73-.07,1.06-.38.31-.24.65.16.84.19.31.88.75.16.87-.48.3-.35,1.06-.94,1.27-.13.46.42.59.47.13.33-.44.86-.68,1.18-1.09.43-.25,1-.3,1.35-.54.21-.3.58-.39.72-.78a3.77,3.77,0,0,0,1.64-.66c.54-.22,1,.26,1.51.19s1.15.46,1.77.31,1.1.4,1.65.57c.22-.21.9.26.68-.19.06-.77,1.09-.1,1.49-.55s1.1,0,1.67-.14,1.17.54,1.78.28,1.17.05,1.69-.1.49-1.34,1.24-.93c.78.23.32-1.19,1.14-1,.43,0,1,.63,1.19,0,.35-.2.2-.57-.19-.44-.3-.21.06-.6.31-.68.15-.43-.78-.7-.22-1.1.71-.2-.13-1.07.61-1.24a1.92,1.92,0,0,1,1.49.15c-.12.56.42.93.65,1.4s.61.46.77.87c.39.1,0-.62.4-.72.32-.63,1.15-.43,1.7-.28a1.52,1.52,0,0,1,1.16.82c.41.34.36,1.27,1,1.24.29,0,.28.42,0,.22-.14.47.66.78.71,1.3a3,3,0,0,1,.85,1.51,15.8,15.8,0,0,1,.46,1.73c.12.64-.47,1-.94,1.23a15.14,15.14,0,0,1-1.34.92,5.66,5.66,0,0,0-1.54,0c-.4.05-.23.33,0,.44-.2.55.46.47.78.49.27.53-.17.82-.58,1-.32.69,1.12.4.86,1.08-.12.37.4.27.54.44.45-.16-.08.53.12.77,0,.59.16,1.17.07,1.75-.32.42-.18,1.3-.89,1.28-.16.53-.66.56-1.08.32-.54.15-1.09.84-1.64.51-.11-.7-.91.14-1-.52.11-.47-.48-.38-.29.05-.15.62-.87.1-1.18.5-.35,0-.77,0-.32.34,0,.58.77.23,1,.61.24-.14.45.32.55-.13s1.2-.7.79-.1c-.43.44.68.28.2.67,0,.47,1,.07.75.68.06.27.59.63.81.29.41.08.62.3,1,.29.2.28.23.57-.1.68,0,.38-.25.52-.62.44-.4.34-1.09.66-1,1.3.27.52-.18,1.17.29,1.66,0,.52-1,1-1.17.54-.3.08,0,.57-.44.3s-1,.52-1.07-.22a.69.69,0,0,0-.31-.57c-.17.13-.43.59-.83.36-.56.11-.73.83-1.06,1.18-.57,0-.27.57-.59.83,0,.29.55.87-.06,1-.34.32-.71,0-.85-.32-.44.5-1.18-.21-1.69.17-.7.07,0-.83-.52-1s-1.16,0-1.39.47a.93.93,0,0,0,0,1.3c.21.22,1.28-.45,1.24.37-.39.38.2,1.19.68.79.71-.14.74.79.49,1.18.19.24.51,0,.32.43s.95.1.57.57c-.5-.11-.5.52-.82.76-.09.52-.64.78-.81,1.27-.6,0-.63.77-.92,1.18-.12.6-.68.68-1,1.1-.52.09-1.08-.2-1.36.43-.5.29-.46,1.25-1.21,1.08-.33.14-.76.2-1,.46,0,.37-.49.58-.58.14-.44.06-.86-.34-.58-.7-.14-.37-.52.29-.75-.14s-.56.23-.82-.13c-.34.12-.56.39-.94.45a2.39,2.39,0,0,0-.58,1.49c0,.37-.07,1.05.23,1.16.5-.12.59-1,1.09-.89a1.07,1.07,0,0,1,1.24.08c.6-.16.8.64,1.33.58.22-.07.4-.78.58-.26.5.51,1.09-.44,1.69,0a1.69,1.69,0,0,0,1,.35c.63.11.18,1,.08,1.39s-.46,1-.41,1.51a1.22,1.22,0,0,0,1.6.53c.41-.09.82,0,1.18-.22.72.17.42-.84,1.06-.85.36-.26.74,0,1.11-.3.63.13.87-.6,1.47-.72a9.21,9.21,0,0,0,1.6-.61c.35-.44,1.05-.46,1.5-.81a10.45,10.45,0,0,0,1.64-.44c.23.07.65.2.68.48,0,0,.88-.12.68.31a1.51,1.51,0,0,1-.06,1.61c-.08.33-.75.42-.36.85.11.3-.31.48-.36.79-.27.11-.8.12-.63.55a1.09,1.09,0,0,0-.2.93c-.56.3-.05,1.09.43.9s.16.66.61.37c.39,0,.71.46.92-.07.54,0,.08.73.21,1.06-.32.25-.91.51-.78,1.05.46.55.85-.51,1.25,0,.61-.09.47-.92.87-1.28s-.47-.54,0-.83c.25-.43.82-.14,1.19-.3.3.1.73.62.71,0s.85-.91,1.32-.46a5.6,5.6,0,0,1,1.5.62c.44.31.67.81,1.07,1.18s.61.95,1.09,1.22.46.67,1,.41c.27.09.65-.08.83.26.43-.22,1-.53,1.42-.06a7.13,7.13,0,0,1,1,0c.54-.39,1,.41,1.48.41.27.25.12-.76.52-.33a2.32,2.32,0,0,1,1.1.91c-.2.61.71.34.95.35a6.94,6.94,0,0,0,1.69-.18c.47.06.92-.35,1.34,0,.62-.43.41.6.91.73.46.39,0,.91-.37,1.08-.08.57-.82.09-.81.68-.39.39-1.07.29-1.54.61-.48-.32-.77.25-1.15.43-.24.62-1,.25-1.39.44-.4-.24-.46.63-.49.92.08.66-.43,1.25-.23,1.91a2,2,0,0,1-.51,1.62c-.25.34-.67,1.25-1.13.81-.29-.36-.92-.68-1.28-.26a1.32,1.32,0,0,0-.78.2c-.32-.2-.91-.5-.9.14-.4.2-.32,1.12-.94.68-.63-.15-.33.68-.86.69-.31.13-.61-.12-.89.2-.56-.19-.52.71-1.09.73-.45.38-.42,1.24-1.19,1.24-.56,0-1.2-.26-1.13-.91-.24-.54.24-1.35-.57-1.53-.27-.53-.89,0-.51.41,0,.47.07,1.33-.65,1.17-.29.27-1.06,0-.81.49-.19.34-1.12.64-.42,1,.09.27.77.46.29.71-.11.42-.71.22-.89.61-.51.13-.48.68,0,.78.75,0,.17.87.47,1.3-.14.32.08.76-.37.92s-.75.62-.63,1.17c0,.31.57.47.1.7-.4,0-.33.82-.68.25-.34.17-.29.91-.85.62-.56-.06,0,.65,0,.94.34.08.14-.46.56-.35s.49-.06.44.38c-.22.24-.13,1.2.27.64.51.1.8-.65,1.28-.34-.08.36.27.48-.09.74-.16.3.21.54-.15.76.2.26.77.23.61.71.25.13.51.07.67.34.26-.1.52-.31.8-.15-.35.13-.21.64-.67.69-.44.31-.94.51-1.13,1.06a.62.62,0,0,0-.66.6c-.5.29-.44-1-.78-.49.11.27,0,.73.43.63.33.38,0,1.4.52,1.48.52-.33.63.86,1,.34,0-.49.58-.16.59-.12.23-.31.47-.21.46.08.21-.19.41-.23.55,0,.14-.16,1-.44.74-.15s.39.43.4.68c.15-.28.76-.45.37,0a.5.5,0,0,0,.09.92c.12.41.65.24.57.73.38.53.66-.51,1.11,0,.37.19.45-.55.8-.55.24-.38.23.48.64.36.35.56,1.23-.71,1.37.05-.15.42-.32,1.24.38,1.06a10.79,10.79,0,0,1,.84-1.34c.39.23-.27.68-.23,1.05s-.1.78.34.87c.08.3.72.48.17.65a4.76,4.76,0,0,0-1.11,1.13,1.86,1.86,0,0,0-1,1.32c-.05.47.29,1.37.85,1.06a1.28,1.28,0,0,1,.78-.07c-.16.54.39,0,.54.24.18-.36.54-.81.92-.81,0,.57.71-.09,1,.2.3-.33.86-.31,1-.84.49-.47,1,.22,1.38.55s.17,1.13.89,1,.19.76-.24.83a1,1,0,0,0-.5,1.24c-.08.71.54.25.81,0,.41-.69,1.1.18,1.6-.3.52,0,1.1-.1,1.51.31.37,0,.45-.72.95-.39a1.87,1.87,0,0,1,1,1.23c0,.49.4.78.33,1.33.34.59-.39,1-.42,1.51.26.34.65-.3,1,0a3,3,0,0,0,.94-1.41c.48-.38.88.4.67.82,0,.44.36.84.8.55a1.58,1.58,0,0,1,1.08.1c.37-.48.9-1,1.57-.65.5,0,.67.54,1.21.47.48.44-.21,1.07-.14,1.56.37-.13.69-.21.87-.59.48-.21.5.53,1,.44a.49.49,0,0,1-.24.6c.19.41.79-.25.89.35.07.28-.52.91.08,1,.56-.15.61-.95,1.09-1.28.25-.51.85-.82.67-1.49.25-.45.29.43.53.55.24.5-.35,1.45.6,1.45.34.17.36.72.9.55a.67.67,0,0,0,.85-.26c.23,0,.57.2.31-.17-.05-.37.54-.53.81-.67a6.43,6.43,0,0,1-.76,1.53c.18.39.67.66.52,1.14.38.22,1.12.13.82.84.13.79,1,.2.88-.36a.84.84,0,0,1,.84-.83c.16-.3.43-.95.78-.4s.07,1,.17,1.43c-.22.48-.31,1.23.09,1.58.54-.09.68-.8,1.2-.95.44.12,1.05.43,1.16-.28.17-.34.81-.36.6-.9.71,0,.26-1.06,1-1.06.23-.23.51-.4.59-.72.55.28.33-1,.87-.46.2.26.83-.05.5.38a2.88,2.88,0,0,1-1,1.36c.23.48-.61.88-.1,1.23a3.2,3.2,0,0,1-.75,1.49c-.2.55.3,1.07.33,1.64a6,6,0,0,0,1.14,1.12c.3.3.6.34.88.07.44.5.37-.53.83-.38a1,1,0,0,0,.88-.89c.32-.36.51.05.48.36.38.15.48.46.62.78a1.35,1.35,0,0,0,1,0c-.25-.5.84-.65.43-.13s-.1,1.05.49.74c.28-.15.7.25.75-.29.32-.31.87-.25,1.27-.35-.09.53-1.06.38-.67,1s-.53.9-1,1.24c-.52.17-.65,1-1.2.92-.42.12-.15.87-.28,1.25.13.32.67.11.78.16a4.26,4.26,0,0,1-1.07,1.32c-.49-.06-1,.06-1.11.55-.42.24.49.52,0,.84a3,3,0,0,0-.64,1.63c-.33.46.22.68.57.41.25.45-.67,1.1.11,1.42.46.48,1.08-.08,1.42-.4.59.31.87-.57,1.47-.44s1.22.11,1.58-.34a3.22,3.22,0,0,1,1.37-.23c-.28.35-.86.55-1.05.86.22.59.83.39,1.26.49s.71.79,1.2,1c.67.41,1-.45,1.62-.49.22.07.88,0,.78.3-.5-.07-1.38-.17-1.46.51s.68.12,1.06.19a5.94,5.94,0,0,1,1.46,0,1.81,1.81,0,0,1,1.3,1,7.3,7.3,0,0,0,.77,1.62c.08.5,0,1.29.5,1.55.35-.42.94.26,1.38-.19.39-.07.86.57,1.14-.05.44-.5.15,1,.53.31.19-.39.64.13.77-.25a1.92,1.92,0,0,0,1.46-.37c.31.21.67,0,.84.41.27-.15.23-.84.48-1.17-.12-.26-.84-.49-.27-.84a8.48,8.48,0,0,1,1.08-1.16,4.58,4.58,0,0,0,1-1.35A5.67,5.67,0,0,0,653,468a.71.71,0,0,0,.56-.79c.27-.41,1.07-.33.94-.95.57-.29.38-1,.7-1.51.37-.24.92-.1,1.17-.58.39-.23-.06-.55.34-.74.12-.25-.44-.56.12-.61.2-.26-.25-.85.38-.66a1.08,1.08,0,0,0,.11-.9c.4-.67-.84-.55-1.08-.31-.31.44-.88.58-1.31.89s-1,.45-1.28,1c-.33.31-.43.71-.9.88a8.64,8.64,0,0,1-1.08,1.18c-.21.45-.53,1.07-1.13.92s-1-.9-.38-1.32c.31-.14.17-.37.17-.61.57.24,1.09-.54.94-1.06,0-.44-.07-.93.43-1.12.25-.57-.63-.95-.57-1.57a6.24,6.24,0,0,0-.56-1.66c-.46-.12-.79.63-1.14.06-.29-.32.56-.15.65-.41a4.84,4.84,0,0,1,1.55-.34c.58-.33,1.31-.34,1.86-.63.67,0,.93-.62,1.31-1.05.47,0,.48-.5.73-.74a.83.83,0,0,0,1-1c-.27-.69.65-.8.89-1.29.53-.53.51.52.88.71.43.35,1.35-.26,1-.77-.3-.08-.69-.08-.92-.3-.7.28-1.21-.72-.44-1,.14-.22.75-.65.77-.22-.39,0-.45.81,0,.54.15-.36.68,0,.44-.54-.12-.34.39-.39.33-.75.48.38,1.14-.35,1-.86a.58.58,0,0,1,.48-.69c.25-.61-1-.89-.36-1.47.76-.31,0-1,.15-1.57-.09-.73-1-.55-1.22,0-.15.24-.27.8-.48.29,0-.46-.31-.64-.69-.39-.34.06-1.2-.18-.5-.44.43-.34.85-.68,1.28-1a4.72,4.72,0,0,0,1-1.63,1.58,1.58,0,0,0,.13-1.76c-.42-.19-.81-.51-1.34-.35-.69-.14-.4-1.16-.22-1.63.34-.54,1,0,1.36.13,0,.44.3.29.54.13.43.25.5-.5.93-.55a3.58,3.58,0,0,1,.82-1.55c0-.37.42-.26.45-.65.52-.09.46-1.08,1.15-.69.35-.17.14.82.35.45s-.5-1,.11-1.35c.35-.11.66-.51,1-.12.2,0,1-.11.42-.31-.16-.49.51-.87.84-1.16.54-.15,1.06-.73,1.65-.5.27.18.23.59.56.19.27-.18.81.33.9-.22a4.19,4.19,0,0,0,1-1.33,7.64,7.64,0,0,0-.06-1.51c-.11-.14-.76-.29-.22-.36.48-.28.73-.89,1.28-1.05s-.37-.22-.12-.6c.08-.33.52-.47.59-.78.72-.06-.09-1,.63-.9.2.21.7.55.61-.06a2.47,2.47,0,0,0,.17-1.34c-.5-.2-.92.53-1.5.28s-.88.47-1.45.3c-.35.33-.57-.37-.82,0-.36-.24-.81.32-.37.55-.6.18-.32-.64-.27-.93-.34-.39-.38-1.1-1-1.15,0-.59-.55-.14-.8,0a1.33,1.33,0,0,0-1.66-.46,2.34,2.34,0,0,0-1.12,1.16,5.71,5.71,0,0,1-.87,1.47c-.08.66-1.12.44-.91,1.23-.06.21-.08.76-.35.37-.49-.1-.11.76-.56.56-.34.19-.23-.5-.38-.65.36-.32-.49-.95-.48-.53.31.4-.75.86-.42.19.29-.21.35-.52.1-.72a2.07,2.07,0,0,1-.2-1.27c-.16-.23-.82-.31-.32-.54.3,0,.92,0,.54-.48a2.47,2.47,0,0,1,.09-1.61c.3,0,.55,0,.61-.37.51,0,1.08.11,1.46-.36.35-.28,1.08-.52,1-1.05a2,2,0,0,1-.32-1.63c-.11-.35.43-.4.41-.74a1.94,1.94,0,0,1,1.07,0c-.31.61.37.9.7,1.28,0,.65,1,.22,1,.73-.43.1-1.17-.07-1.39.34.33.22.72.46,1.08.2.55.29,1.08-.24,1.32-.72.18-.8,1.08-.33,1.45,0,.47-.1.4.71,1,.48.39,0,.76-.55,1,0,.51.19.26-.57.65-.59.11-.2-.12-.57-.25-.23-.69,0,0-.76-.45-1,.27-.41-.25-.82-.7-.68-.67-.28-.29-1.27-.07-1.79.3-.34.59-.7.85-1.06.39-.53,1.44.37,1.57-.43.56-.3.87.87.3.69-.12.48-.54-.24-.83-.09-.19-.2-1-.08-.48.11a.84.84,0,0,1,1,.94c.12.37.72.1,1.05.14.21-.27.17-.76.54-.95-.44,0-.27-.75,0-.72.33.43.72-.49.59-.79.11-.55.58.05.67.32.16.46,1,.09.46-.18s-.7-1.18,0-1.09c.1-.3.13-.73.6-.72.26-.3-.4-.45-.23-.83-.17-.55-1.34-.2-.9-1a2.42,2.42,0,0,1,1.13-1.07c.34.39.8,0,1.17.06.2-.36-.19-1.37-.61-.7-.46.5-1,.12-1.56.19a.71.71,0,0,1-1.29-.35c-.06-.55-.53-1.24.07-1.6.11-.3.46-.51.46-.89.36-.23.45-.62.86-.77.22-.26.69-.72,1-.19.32.2.64.14.74-.24.51,0,1.35-.29,1.15-.95-.24-.41.17-.74-.17-1.12-.35-.54.27-1,.17-1.5.42-.13.87-.53.42-.93,0-.26.79,0,.62-.52-.29-.14-1.31-.51-.7-.93a1.42,1.42,0,0,0,.2-1.75,2.35,2.35,0,0,1,0-1.71,12.37,12.37,0,0,0,.47-1.76c-.21-.37,0-1.09-.66-1-.44-.6.77-.42.46-1a3.31,3.31,0,0,1,.09-1.87,1.83,1.83,0,0,0-.15-1.82c0-.53-.64-.87-.83-.26-.65.13-1.1-1-.45-1.27.35-.35.09-1,0-1.24.23-.37.75-1.15.12-1.36-.42-.32-.08-1-.45-1.37s-.15-1.1.3-.67c.48-.3.16-.89.28-1.33.44-.43.14-1.1.58-1.5,0-.61.75-.7.49-1.34.24-.37-.11-.83-.09-1.08.28-.47-.18-1-.08-1.54-.21-.56,0-1.17-.25-1.71.3-.52-.24-1.07-.33-1.63-.26-.61.19-1.16.15-1.7.46,0,.53-.31.3-.69s-.57.21-.57-.24c-.18,0-.71-.19-.29-.28-.38-.51.18-.92.25-1.38a2.11,2.11,0,0,1-.5-1.81,2.52,2.52,0,0,1,.61-1.68c.45-.43-.4-1-.07-1.53a6.75,6.75,0,0,1,.52-1.92c.26-.51.89-.82.91-1.43s.84-1.06.43-1.69.27-1.22.34-1.85a3.54,3.54,0,0,0,0-2c-.11-.65-.78-.74-1.29-.87-.27-.18.25-.67-.27-.77-.28-.27.5-.31,0-.47-.47.07-1-.62-.3-.72.44.05,1.07-.47.51-.81-.19.36-1.17.47-1,0,.66.27.5-.9,1.11-.67.23.36.82.08.7.62a6.79,6.79,0,0,0-.28,1.69c0,.31-.08,1.25.44.88a4.53,4.53,0,0,1-.09-1.64,5.1,5.1,0,0,1,.36-1.94c.25-.54.48-1.11.75-1.63a9.47,9.47,0,0,1,.87-1.47c.31-.48.58-1,.89-1.45a11.73,11.73,0,0,1,.94-1.36c.31-.45.67-.85,1-1.29a8.12,8.12,0,0,1,1.08-1.19c.35-.45,1-.58,1.16-1.14a2.84,2.84,0,0,1,.86-1.46c.31-.44.74-.81,1-1.28a11.31,11.31,0,0,0,.88-1.46,9.86,9.86,0,0,0,.87-1.46,9.19,9.19,0,0,0,.9-1.42,5.63,5.63,0,0,0,.93-1.39c.25-.48.63-.94.92-1.4s.6-1,.86-1.48a10.09,10.09,0,0,1,1-1.4c.17-.52.68-.87.92-1.39s.62-.94.89-1.44.61-.95.91-1.41a9.13,9.13,0,0,1,.92-1.4c.29-.43.7-.77,1-1.21a6.79,6.79,0,0,1,1.09-1.18,4.38,4.38,0,0,0,.66-1.63,12.19,12.19,0,0,0,.39-2c0-.58.25-1.15.27-1.74s.11-1.25.1-1.88.36-1.3.09-1.81c-.49-.23-.13-1-.22-1.44a10.75,10.75,0,0,1,0-1.5,14.81,14.81,0,0,1,0-1.63,8,8,0,0,0,.1-1.69c.07-.6.09-1.21.2-1.8a7.66,7.66,0,0,1,.24-1.95c.15-.6.41-1.23,0-1.77a2,2,0,0,1-.28-1.36,9,9,0,0,1,0-1.72c.07-.54-.54-1.05-.49-1.67a6.94,6.94,0,0,1,0-1.51,6,6,0,0,1,0-1.53,6.8,6.8,0,0,1,.16-1.75,12.65,12.65,0,0,0,.25-2,10.69,10.69,0,0,1,.15-1.78,20.35,20.35,0,0,1,.48-2,9.09,9.09,0,0,0,0-1.38,2,2,0,0,0-.25-1.7c0-.56-.47-1-.42-1.57-.14-.61-.28-1.24-.46-1.83a5.5,5.5,0,0,1-.18-1.76,5.46,5.46,0,0,0-.47-1.75,6.12,6.12,0,0,1-.75-1.62,14.28,14.28,0,0,1-.49-1.73,1.56,1.56,0,0,1,0-1.46c-.61-.35-.48-1.13-.52-1.73s-.32-1.25-.33-1.9-.26-1.16-.3-1.76a3.53,3.53,0,0,1,0-1.74c.15-.65-.27-1.28,0-1.9a8.42,8.42,0,0,0,.26-1.85c.18-.66.21-1.36.34-2a5.47,5.47,0,0,1,.27-1.93c.13-.64.21-1.25.38-1.86-.07-.53.36-1,.24-1.51a2.92,2.92,0,0,1-.23-1.5,17.94,17.94,0,0,1,0-1.94,4.17,4.17,0,0,0,0-1.89c0-.46.3-.91-.07-1.31a6.24,6.24,0,0,1-.61-1.81,17.06,17.06,0,0,1-.58-1.84,11.56,11.56,0,0,0-.43-1.85,4.9,4.9,0,0,1,0-1.79,9.18,9.18,0,0,1,.08-2c0-.6.31-1.18.29-1.8a5.5,5.5,0,0,0,.27-1.57c.33-.44-.48-.66-.38-1,.51.46.3-.47.27-.73-.13-.49,0-1-.2-1.44.4-.27-.12-1.06.17-1.52,0-.24.08-.64-.2-.63.14-.55-.15-1-.19-1.55-.24-.64-.18-1.31-.4-2s-.5-1.15-.64-1.78-.56-1-.81-1.53-.67-.94-.87-1.49a3.79,3.79,0,0,0-.93-1.38,11.15,11.15,0,0,0-1-1.3,11.29,11.29,0,0,0-1-1.33,15.89,15.89,0,0,1-1-1.3,8.15,8.15,0,0,1-1-1.33c-.3-.45-.71-.81-1-1.28-.13-.58-.59-.87-.84-1.39s-.53-1-.84-1.51a16.39,16.39,0,0,0-.89-1.44c-.24-.57-.47-1.08-.75-1.63s-.34-1-.65-1.39c-.23-.08-.42.64-.41.11.18-.27.56-.5.29-.9-.11-.62-.38-1.2-.46-1.83a10.61,10.61,0,0,1,.06-1.69c-.1-.49.07-1,0-1.48a1.24,1.24,0,0,1,1-1.4c.31-.34-.23-.74,0-1.15-.37-.33.6-.56,0-.81-.15-.25.44-1,.55-.38.11.18-.13,1,.12.49.45-.55-.59-.87-.19-1.47.08-.21.19-.66-.13-.29-.13.06,0-.67.09-.87.2-.49,0-1,.05-1.5a16.34,16.34,0,0,0,.64-1.82,2.92,2.92,0,0,0,.38-1.88c.11-.35-.22-.45-.08-.82a7.39,7.39,0,0,1,.28-1.56c.36-.33.85-.67.71-1.24s-.65-.2-.37-.72a2.11,2.11,0,0,1,.6-1.31,3.25,3.25,0,0,1,.73-1.64c.16-.17.51-.12.4-.51a2.56,2.56,0,0,1,.89-1.32c.52-.37.08-1.14.71-1.41-.06-.65.64-1,.71-1.55a4.8,4.8,0,0,1,.13-1.73c.12-.41.15-.92-.35-1-.2-.54.22-1.22-.23-1.69s-.09-1.22-.3-1.79a4.24,4.24,0,0,0-.19-1.55c.14-.63-.45-.84-.83-1.1-.17-.42.11-.71.55-.67.06-.55-.29-1.29,0-1.87.48-.3.19-.72-.08-1,0-.61-.56-1.12-.23-1.76a2.33,2.33,0,0,0-.53-1.62c.09-.66-1.07-.48-1-1.22s.91,0,.84-.65c.16-.61-.39-1-.68-1.42-.06-.29.65-.36.27-.69s.18-.89-.29-1.2c-.3-.57.5-1.25-.17-1.73-.53-.09-.65-.94-.2-1.11.41-.4-.18-.74.13-1.2-.28-.54.21-1.18-.22-1.65.09-.24.48-.36.11-.65s-.67-.47-.62-.94c-.38-.26-.58-1.18.12-1,.58-.4-.4-1-.29-1.56s-.73-.3-.49-.85a2.24,2.24,0,0,1-1-1.29,10.73,10.73,0,0,1-.15-1.51c0-.23-.43-.14-.48-.47-.31-.23,0-1.42.41-.81.34.08.54-.13.33-.49s-.14-1-.59-1.28c.06-.44.37-.83.84-.59a1.34,1.34,0,0,0,.39-1.47c.09-.29.67-.73.07-.91-.46-.4-1.15,0-1.6-.39-.23-.18.21-.54-.27-.52s-.41-.61-.87-.42c0-.36.32-.81-.21-1-.24-.16-.09-.31-.1-.4-.48-.29-1.1-.15-1.55-.6-.62,0-.17-.87-.58-1.22-.14-.47-.88.14-.86-.47a.63.63,0,0,0-1,.14c-.18.16-.63.33-.29.53,0,.63-.76.55-1.2.52-.69.28-.72-.76-1.27-.65-.16.23-.48.71-.63.19-.36-.41-.57,0-.84.21-.3-.13-.46-.57-.86-.63-.4-.25-.68.5-1.07.43a.63.63,0,0,1-1.12.28c-.35,0-.62.56-.93.07a.52.52,0,0,1-.73-.19c-.62-.21-.7.82-1.2.89-.33.06-.79.52-1.27.44-.23.37.13,1.18-.54,1.32-.28.39.63.67.21,1.15.11.44.66.63.31,1.14s-.44,1.26.17,1.34c.29.28.3.63.65.85.08.36-.07.74.21,1.07-.21.42-.81.81-.3,1.27.2.55-.84.86-.24,1.39,0,.59.46.92.9,1.17.33,0,.59.1.47.5a.52.52,0,0,1,.27.9,1.21,1.21,0,0,1-.74,1.27c-.26.48-.75,1.14-.38,1.69.37,0,.61.54,1.09.54.28.13.6.69.05.58-.55.21-.36,1-.5,1.5-.25.09-.76,0-.75.43-.28.14-.46.41-.82.4-.26.53-.88.65-1.25,1.07a5.44,5.44,0,0,0-1.32.93c-.29.48-1,.63-1,1.3-.13.36-.39.78.15,1,.41.39,1.15.55.92,1.29-.14.41-.5.83-.06,1.19.14.6,0,1.29.33,1.83s.93.59,1.34.93c.25.19.3.66-.17.59a.65.65,0,0,0-.55.91c-.49.12-.42.77-.76,1.1-.06.62-.75.71-1,1.22a1.43,1.43,0,0,1-1,1.06c-.3.41,0,1-.22,1.43s-1.13.67-.72,1.22c.12.53.68.63.9,1.09.66.16.74.87.94,1.41.42.49.27,1.27.74,1.69.56,0,1.28.22,1.12.91.31.37.79.54.75,1.14.21.52.67,1,.56,1.59a13.11,13.11,0,0,1-.13,1.66,1.45,1.45,0,0,0-.17,1.53c0,.56-.53.9-.11,1.41a.93.93,0,0,1-.3,1.33c-.46.53.57,1.11.1,1.6-.06.44.42.66.3,1.12.32.43-.09,1.08.46,1.41a1.44,1.44,0,0,1,0,1.45c-.1.5.53.93-.06,1.31-.29.49-.54,1.06-1.14,1.23-.22.27-.58.53-.32.85-.31.4-.4,1.11-1.07,1a1.19,1.19,0,0,0-.9,1.22c-.21.61.19,1.2,0,1.8s.19,1.06.15,1.61a5.34,5.34,0,0,0-1,1.29,3.75,3.75,0,0,1-1.23,1,2.4,2.4,0,0,1-1.15.51c-.24.21.06.54-.35.44-.28.36.65.95.13,1.14a2.79,2.79,0,0,1-1.68.32c-.65,0-.87-.78-.82-1.31-.48-.35-.81-.84-.48-1.43,0-.45-.63-.41-.53-.94-.21-.53-1.18-.3-1.07-1,0-.37.28-.94-.34-.86-.33.14-.78.08-1.05.22-.62-.22-.2-1.46-1-1.16-.12-.15.52-.52.2-.85-.16-.51.11-.93.21-1.36.07-.2.06-.71-.37-.58s-.94-.16-1.29-.46c-.35.63-1,.22-1.57.17-.23.17-.6-.23-.6.23-.23.26-.78.18-.29-.08.2-.41.38-.93,0-1.25,0-.63-.74-.82-.91-1.38s-.5-1-.93-.45c-.48.18-1.12.07-1.26.73s-.86.71-1.32,1c-.66.39-1.15-.45-1.77-.23a7.15,7.15,0,0,1-1.45-.76c-.54,0-.87-.7-1.5-.65-.44-.14-.34-.92-1-.76-.35,0-.93-.14-.94.36-.42.2-1.25-.26-1.28.47s-1,.25-1.12-.18c-.69-.15-.78.65-1.08,1-.65.21-.92-.44-1.53-.57a.68.68,0,0,0-1.06.29c-.65.09-.44.7-.59,1.14-.24-.58-1-.7-1.09.07-.22.16-.59-.17-.75.24s-.79.85-.87,1.44c-.15.79-1.13-.21-1.25.26-.23.27-.74.09-.93,0-.54.25-.08.92-.59,1.21-.38.52.34.63.38,1.06-.13,0-.35-.25-.37.14a.59.59,0,0,1-.84.61c-.26.37.21,1.05-.46,1.11-.41.21-.56,1-1.11.6-.46-.14-.89-.23-1.07-.71-.36.09,0,.71-.42.83.41.52-.31,1.22.24,1.66.29.29.19.55-.2.42-.22.13-.9.15-.47.56.16.46.08,1.05.35,1.51.46.08.14.55-.09.69,0,.4.64.24.47.69a.8.8,0,0,1-.39,1.39c-.6.1-.87.6-1.47.73-.32.26-.78.66-1.14.59-.41-.65-1.05-.1-1.58,0a4.89,4.89,0,0,0-1,1.41,2.36,2.36,0,0,1-1.12,1.21c-.36.38-1.42.49-1.35-.25-.4-.08-.78-.6-1,0a1,1,0,0,1-1.37.32c-.34.17-.4-.26-.65,0-.52-.3-.78.72-1.37.31-.26-.06-.39.39-.52,0-.15-.15-.2.17-.34,0a6.2,6.2,0,0,0-1.32.88c-.31.54-1.07-.2-1.57.1-.58.15-1.19.69-1.78.26-.68.13-.62-.7-1.2-.72-.15-.2-.12-.38.06-.3.29-.36.46-.94-.17-1.05-.29-.1,0-.87-.48-.49-.34.28-.28.77.24.72s.5.41.06.43c-.13-.14-.56-.23-.27,0,.62.25-.43.66-.74.53-.44.21-.61-.61-1-.13s-1,.66-1,1.16-.18,1-.86.84c-.35.13-.66.8-1.13.33s-.88.26-1.23-.28c-.28-.24-.35.51-.55,0-.28-.63-.82.48-1.1-.17-.67-.34-1,1-.16.8.33.3-1.07.34-.57.9.08.08.45,0,.19.25-.48.09-1.28.46-.8,1.06.08.56-.44,1.05-.76,1.47-.6.29-1.11-.32-1.72-.22-.2-.24-.77.38-.76-.08.67-.2-.81-.94-.65-.18-.46.3-1.37.26-1.37,1s-.79,0-.83.61c-.35.35-.95.43-1.08-.17.13-.81-1-.67-1.4-.32-.13.61-.52-.27-.82.17a1.65,1.65,0,0,0-1.7.37c-.37.14-1.18-.09-.93.56s.86-.47,1,.27c.23.33.65-.21.72.31.18.26.27.73.09.9.58.6-.6.8-1,.94s-.39.73.11.5c.59.21-.61,0-.47.43-.22.18-.55.43,0,.46a3.47,3.47,0,0,1,.71,1.72c.09.39-.24.54-.25.93a3,3,0,0,0-1.19,1c-.35.3-.26.8-.7,1-.36.4-.89.37-1.27.71a7.11,7.11,0,0,1-1.67.27A2.85,2.85,0,0,1,579,223a3.19,3.19,0,0,1-1-1c.52-.21,0-1,.68-1,.66.15.19-.95-.27-.4-.24-.23-.71-1-.8-.28-.13.37-.7.12-1,.34-.48.52-1-.28-1.53.12,0,.35,0,.76-.52.81-.33.21-.81.17-1.08.38-.08-.53.18-1.07-.08-1.6a.56.56,0,0,1,.41-.83c-.15-.38-.43-.16-.63,0-.51-.22.11-.85-.17-1.25.19-.33.78-1.1,0-1.08-.23.57-.85.66-1.17,1.1s-1.11.26-1.18.73c.21.21.61.42.21.71-.42-.16-1.09.91-.36.65.42.34,1-.36,1.49-.21-.14.41-.9,1-.34,1.49.3.28-.28.89.39.84.21.28,1,.85.36,1.2-.22.38-1,.48-.58,1,.22.33.48.68.06,1-.22.33.58,1-.14,1-.35,0-.59,0-.67.38a.4.4,0,1,0,.3.72c.36.15.19.63-.11.71.11.55.81-.3.65.31-.14.29.64.5.22.84-.43.11-.78.4-1.2.12-.3.62-.89.09-1-.37a1.25,1.25,0,0,1-.87-.18c-.12.2-.28.56-.54.27-.34.17-.18.55.11.62.1.55-.67.52-.83.91-.62-.31-.74,1-1.26.63-.19-.58-.88-.55-1.35-.61a1.49,1.49,0,0,0-1.3.86c-.32.46-.13,1-.16,1.48.36.39-.15.67,0,1,.32.38.17,1,.13,1.46-.25.36-.22.91-.66,1.2-.31.45-.72.81-1,1.28s-.15.6-.53.71-.58.44-.35.87c-.27.52.47,1.08.72.44.5-.39,1.09.07,1.65-.06.34,0,.58-.3.89-.07.17-.35.77-.26,1.07-.11a2.35,2.35,0,0,0,.43,1.11c.12.4-.12,1.28-.56.64-.32.35-.47.88-.91,1.19a1.1,1.1,0,0,1-.91.84c-.19.32,0,1.06.35,1.05s.54.66.11.7c.18.37.16,1-.43.86-.4-.34-1-.13-1.43-.27-.07.46-.65.11-.84.45-.72.12-.1,1,.23,1.22s.45.65.9.37c.39.11.45.6.89.63.06.33-.74.37-.31.82a2,2,0,0,1-.26,1.77c-.22.33-.71.44-.51.95-.23.33-.73.18-.67.62-.33.07-1.2.41-1.07-.18.27-.35-.57-.42-.71-.71a3.25,3.25,0,0,1-1.58-.52c-.43,0-.93.19-1.16-.31-.34.23,0,.91-.58,1-.29.26-.82,0-1,.13-.26.42-.65-.44-.92.12-.61.29.1.68.21,1-.27.23-1.44.3-1,.85.42.29,1.35.22,1.35.89-.28.15-.47.56-.74.24-.4.18-.9.85-.36,1.24.12.48.91.43.79,1.08,0,.33,0,.74,0,1a4.24,4.24,0,0,1-.93-.2c.19.7-.66.64-.91,1.05-.59.08-.84-.62-1.43-.7-.16-.34-1.22,0-.55.26.47.31-.32.87-.56.32-.33-.11-.54-.33-.77,0-.5,0-.45.64,0,.6.17.28.58.89.29,1.13s-.66-.63-.64,0c.19.48-.48-.12-.2.38.2.31-.48.42-.56.47-.3-.12-.65-.19-.75.14-.44.1-.37-.86-.88-.28-.22-.18-.41-.27-.61-.16-.27-.25-.49-.43-.11-.72-.11-.36-.28-.95-.76-.86.16-.49-.83-.37-.34,0a5.17,5.17,0,0,0-.32,1.21c.27.31.36,1.06-.28.81-.22-.39-.86-1-1.23-.49-.26.73,1.14.7.77,1.28-.56.38.27.42.42,0s.62-.09.88-.3c.18.17-.13.5.26.41.19.36.41.24.66,0,.53,0,.12.45-.06.6.17.27,1,.48.35.74-.36.27-.55,1,0,1.16.21.34-.42.09-.3.43-.41.3-.17.8-.44,1.19.24.27.53.79.7.18.21-.12.24.19.47.05.35.23-.09.38-.18.45a1.35,1.35,0,0,1-.43,1.08c.53.35-.85.67-.15.91.29-.09.52-.17.66.2.17-.19.44-.72.56-.11.45.27.64-.48,1-.59-.16-.81,1,0,1.08-.72.31-.26.7-.57.65-1,.28-.06.52-.17.35-.48a1.1,1.1,0,0,1,1-.75,1.34,1.34,0,0,1,1.48-.8c.65-.22.76.44,1.13.76.3.1.63-.35.56.19s.27.22.43.11c.07.4.54.47.45,0,0-.73.84.24.51.6-.2.62.36,1.08.92,1.14.26.4.92-.5.82.11a1.67,1.67,0,0,0-.09,1.46,2,2,0,0,1-1.28.92c-.13.43-.7.18-.89.58a.56.56,0,0,0-.62.32c-.27,0-.51.05-.81,0,0,.46-.76.27-.5.75-.12.32-.78.46-.63.78.5.12.84.68,1.06,1.12-.25.18-.66.34-.22.63.2.18.35.93.66.54-.18-.4.11-.74.54-.56.54,0,.87-.52,1.42-.44.51-.18,1-.73,1.56-.24s-.5,1.41.11,1.55c.31.24.5-.17.84.1s1,.27.65.75c.07.6.63-.12,1,0,.16-.3.23-.75.65-.4.38-.06.38.73.76.25.36.1.8-.54,1-.05a.33.33,0,0,0,0,.65c.46.08.63.46.75.85.36,0,.59-.68.93-.2.39.1.48.44.12.65-.48.39.31.38.58.43a3.56,3.56,0,0,1-.06.83c-.47-.07-.66.66-.08.58.34-.11.29.91.66.5.39-.11,1-.65,1.23,0a1.49,1.49,0,0,1,.23,1.72c-.37.48.73.58.29,1.06.11.49-.51.41-.5.9-.56,0-1,.26-1.52.26-.35,0-.52-.6-.84-.17-.37.13-.45.79-.85.57-.5.54-1.27-.28-1.73.17-.16.42-.44-.13-.76.14-.48.29-1.4,0-1.51.64s-.84,0-1,.59a1.68,1.68,0,0,0-1.37.27c-.52-.18-.79-.69-1.37-.79s-.34.54,0,.6c-.4.71-.83-.53-1.31-.22-.18.24.32.72-.26.71s-1,.46-1.55.44c-.2.3-.8.25-.91.74a1.24,1.24,0,0,1-1.19-.07c-.29.23-.25-.3-.57,0s-.87.42-.59.88c-.32.58-1.12.21-1.61.58-.5-.14-.84.31-1.18.5-.54-.07-.87-.51-1.28-.83s-.77,0-1.1,0c-.11.46-1.39.54-.6,1.08.51.2.8.67,1.33.81-.07.27-.23.45.16.55a.82.82,0,0,0,1.38-.08c0-.31.57-1,.69-.36.51.25,1.15-.11,1.55.41s-.08.83-.29,1.16c-.29-.05-.27.5-.51.63-.08.58.91.15.81.84.52-.3.94.58.28.65-.35-.3-1.33-.2-.79.37a1.22,1.22,0,0,1-.55,1.26,1.33,1.33,0,0,0,1.07.09c.09-.45.65-.27.73-.73.27-.12.89.29.59.62a6.6,6.6,0,0,1-.16,1.69c-.7.25-.47,1-.17,1.5-.6.3.1.93.27,1.27s1.25.22.68.82a1.13,1.13,0,0,1-1.34.23,1.66,1.66,0,0,1-1.23.32c-.1-.53-.75.21-.61.55-.09.27-.87.09-.59.66s.79.27.93.76c.21-.26.37.31.61,0,.57.18,1.09-.18,1.54-.35.38.18.57-.27.93,0,0-.63,1.15-.27,1.08.29a2.37,2.37,0,0,1-.81,1.28.72.72,0,0,0-1,.67,1.06,1.06,0,0,1-.68.44c-.12.71-.81,0-1.12.07-.13.33-.1.75-.59.56-.41.28-1,.55-1.1,1.1a.92.92,0,0,0-.26.84c.46.17.58-.41,1-.42a3.54,3.54,0,0,0,1.35-.79c.15-.33.77-.2,1,0,.34.05.94-.29,1,.3.34.21.85-.12.87.45.44.12.39.76.09,1s-.44.89-.83,1.11a1.92,1.92,0,0,0-.64,1c-.22.2-.81.82-.32,1,.46-.37.94-.2,1.48-.22.38-.24,1.1.14,1.14-.53.31-.48.69-.06,1,.18,0-.49.67-.43.93-.75a1.25,1.25,0,0,1,1,.29c.13.32.39.65.17.94.27.24-.12.36.21.49a1,1,0,0,0,.79.39c-.27.5.28.34.58.27.31.24.69-.1,1-.08.58-.4.47.39.46.73.58.09,1.34-.61,1.75-.12.2.2.93.37.4.76-.1.69.73.86.85,1.46.52.39.14,1,.42,1.57-.13.63.76,0,.77-.3s.22-.77.57-.44c.5-.13,1-.41,1.45,0s.67.43.85-.08,1.07-.37,1-1.09.48-1.15,1.05-.67c.39,0,.67.32.94.52-.17.38,0,.78-.17,1.18.08.66.91.62,1.13,1.17.12.31.6.58.36,1,.12.35-.1.42-.32.47a2.41,2.41,0,0,1-.69,1.57c-.53.35.41.27.41.1s.51.19.45-.18c.69-.23.69.77,1.11,1.05a5.77,5.77,0,0,0,.47.93c-.11.39.38.81.54,1.17,0,.54-.17,1.37-.71,1.52s.07.56.33.21a3.54,3.54,0,0,0,1.74,0c.43-.06.72-.82,1.11-.23.35.13-.12.81.48.82a.61.61,0,0,1,.35.88,2.27,2.27,0,0,0,.82,1.55c-.09.3-.06.46-.37.54-.19.44-.39,1.29-1,1.19-.3.06-.6.37-.83-.06-.41-.27-1.2-.72-1.55-.19,0,.4-.39.57-.09,1,.08.25.51.76-.1.75s-.91.74-1.49.88c-.37.3-.85.21-1.24.42-.5-.22-.78.81-1.21.27a2.56,2.56,0,0,0-1.65-.22c-.48,0-.36.52-.73.72,0,.68-1,.63-1.43.69s-.81.58-1.2.91-.92.61-1.19,1.08c-.1.26-.66.29-.32.67.1.33-.63.48-.13.79.29.36-.36.47-.24.88Z"/><g id="layer9"><path id="path4687" class="cls-3" d="M670,270.82c-.51-.37-1.25-.69-1.72-.08a1,1,0,0,0-1.32.54c-.42-.07-.77.05-.59.52a2.78,2.78,0,0,0,.25,1.83,2.31,2.31,0,0,1,.49,1.68c.31.54.53,1.1,1.15,1.35.47-.07.82.28,1.32.15a1.57,1.57,0,0,0,1.35.21c.37.18.59-.18.9.11.71,0,.85.79,1.24,1.28a1.25,1.25,0,0,1,.1,1.72c-.19.5.31.92.17,1.37a.67.67,0,0,1,.73.45c.28-.43.55.26.13.32.54.18.93.93,1.56.9.36,0,.2.6.64.63,0,.39.66,1.27.84.52s1,0,1,.46c.27.4,1.16,0,.89.71.17.56.19,1.51,1,1.45.25.35-.37.91.27,1.14.41.25,1,.58.72,1.13.25.62.64-.33,1,.13s.37,1.31,1,1.52c.52-.09.5.45.17.63a2.67,2.67,0,0,1,1.41,1c.34.43,1.22.2,1,.93.12.71,1.07.18,1.4,0-.1-.15-.56-.29-.13-.41.26.31,1,.26.77-.31.15-.69,1.25-.22.71.29-.09.38.29.28.33,0a5,5,0,0,1,.86.49c.09.48.39.4.57.07.49-.22.83.22,1.26.25-.28.71.55.86,1,1.21.24.31.21.75.72.76.17.3-.57.57-.08.88s.82.16,1.08.57c.65-.29,1.25.41,1.48,1,.39.32.82,1,1.36.45.39-.28.86-.58,1.2-.1.53-.25,1.23-.6,1.12-1.27.32-.12.83.16.75-.4.26-.06.6.21.91.23.27.19.36.15.52,0,.51.09.74.67,1.22.48"/><path id="path4691" class="cls-3" d="M650.14,397.41c0-.61-.82-.55-1.25-.62-.64.18.08-.72-.45-.88s-.64-1.3-1.2-.77c-.38-.33-.88-.55-.82-1.12,0-.29-.15-.66-.58-.6-.2-.45-1-.64-1,0-.53.18-.71.84-1.08,1.09-.65-.28-.87.68-1.54.46a18.59,18.59,0,0,1-1.87-.16c-.36.22-.81.71-1.18.32a4.18,4.18,0,0,1-1.63.31,1.86,1.86,0,0,1-1.15.88c-.33.3-.19-.05-.3-.21-.45.17-.41-.79-.92-.37-.33.21-.46.65-.93.35.09-.39-.64-.18-.31.09a.69.69,0,0,1-1.29.11c-.58-.1-.29.51-.71.68.13.74-.74,0-1-.21-.53-.26.46-.64-.16-.75-.26-.23-.52-.42-.79,0s-1.13-.33-1,.47c-.08.61-.7.86-.84,1.45-.48.3-.75.76-.38,1.28-.37.59-1.27-.29-1.71.37-.12.61-.91.35-1.16.58,0,.91-1.09-.58-1.13.36-.06.37,0,.82-.52.64-.39.18-1.2.32-.81.9-.36.73.94.16.6.84s.23,1.43-.51,1.74c-.24.47,0,1.23-.64,1.47s-.23,1-.8,1.29c0,.46.26,1.16-.29,1.48s0,1-.37,1.51c-.41-.06-.71-.8-1.25-.32-.36.32,0,1.19-.75,1.12-.52.19-1.25-.42-1.43.33-.34.2-.32.69-.79.44-.59-.07-1.34-.56-1.83,0a1,1,0,0,1-1.29,1,1.24,1.24,0,0,0-1.48,1c-.2.47-.55,1-1.09.64-.48.07-1.06.43-1.51,0-.48.09-1.12.5-1.14-.31-.21-.77-1-.31-1.46-.41-.38-.49-1.39-.11-1.6-.8s-1.23.51-1.39-.19c-.17-.39-.59-.6-.83-1-.54-.18-.86.42-1.34.51-.81.19-.77-1.13-1.58-1.05-.53-.14-.93.44-1.47.23a3.54,3.54,0,0,0-.92-.07"/><path id="path4701" class="cls-3" d="M639.25,338.24c-.14-.62.28-1.22.38-1.81a2.44,2.44,0,0,0,.91-1.36,2.61,2.61,0,0,1,1.72-.67c.42-.29.79-.2,1.11-.62a9.9,9.9,0,0,1,1.61-.91c.44-.37,1.09-.48,1.42-1A2.75,2.75,0,0,0,647,330c.54-.48-.52-1.06,0-1.54.57-.16.24-1,0-1.35-.21-.64.37-1.23,0-1.82.24-.42.55-1.08,1.12-1.22.45-.31.39-.73.39-1.19.22-.34-.57-.35-.14-.66.5-.51,1.26-.64,1.74-1.18a7.9,7.9,0,0,1,1.17-.53c.43.58,1-.11,1-.56.51-.08.66-.93,1.31-.67.47.3.87-.14.71-.62.2-.57.73,0,.81.35.49,0,.21-.83.78-.46a1.61,1.61,0,0,1,.81.28c.49-.42,1.21.16,1.72.37s1.14.31,1.26,1c.46.87,1.2-.06,1.78-.09.7.12,1.37.14,2.07.28s1.07-1.06,1.66-.3c.37.3-.5,1.07.14,1.09.25-.28.6-.57.86-.14.49,0,1.23.31,1.48-.27s.77-.15,1.09.12a1.6,1.6,0,0,1,1.82.31c.51.34.72.93,1.31,1.12.44.45.4,1.14.68,1.67-.16.23-.8.05-.5.52-.16.39.09.57.41.77a.79.79,0,0,0,.65,1c.58.31-.59.34,0,.64.34.15.93.39.4.78s-.53,1.34.17,1.48c.24.36.23.79-.19,1-.28.69,1.16.67.71,1.25-.63-.12-1.17.47-.66,1-.09.45-.25.88.08,1.28-.08.61-.13,1.27.54,1.53.37.45.47,1.11,1,1.39s.6,1.06,1.23,1.28,1.16.27,1.71.47c.47.41,1,.16,1.61.15s.34.81.94.55a.9.9,0,0,1,1,.61,1.79,1.79,0,0,0,.95,1c.16.49.59.52,1,.49.15.6.88.79,1,1.43.08.16,0,.38.14.45"/><path id="path4715" class="cls-3" d="M641.54,413.25a2.47,2.47,0,0,1-1.26,1.52c-.44.52-1.13.59-1.67,1s-1,1.21-1.69,1c-.58-.07-1,.4-1.54.46s-1.08.57-1.7.64c-.15.47-.66-.08-1,.07-.58-.09-1.06.27-1.61.31-.07,0-.64-.27-.59.2a1.38,1.38,0,0,1-1,.05c-.12.51-.64,1.15-1.21,1.08s-1,.76-1.35,1.09c-.5-.21-.49.7-1.08.56-.28.19-.44.67-.87.61-.31.45-.8-.29-1,.28-.32-.23-.63.09-.48.51-.35.29-1-.49-1.3.12-.08.76-1.14.74-1.08,1.46-.38-.09-.81,0-.83.49s-.59.46-.94.61c.12.32.21,1-.3.63-.63-.18-.71.49-.91.89-.44.5-.64,1.14-1,1.67,0,.63-.62,1-1.1,1.27-.47,0-1.25.17-1.36.72a15,15,0,0,0-.68,1.81c0,.84-1.5.33-1.1,1.24.19.58-.19,1.13-.47,1.62-.1.56-.78.66-.92,1.27s-.91.54-1.34.84c-.49.47-.06,1.1-.21,1.6-.11.13-.14.31-.25.42"/><path id="path4717" class="cls-3" d="M609.62,439.22c-.31.34-.45.89-1,.75-.4.15-.74.57-1.22.23a.7.7,0,0,0-1,.83c0,.59,0,1.44-.85,1.54a7,7,0,0,0-1.54.93c-.17.3-.63.24-.69.65,0,.1-.15,0-.23.09"/><path id="path4721" class="cls-3" d="M650.07,225.75c-.67-.15-1.07-.81-1.66-1.06s-1,.16-1.47-.15c-.34.37-.89.41-1.31.66s-.49.44-.94.32c-.69.17-.93-.78-1.5-1-.41-.5-.32-1.29-.82-1.71s-.32-1.12-1-1.43a3.83,3.83,0,0,0-1.26-1.42c-.39-.41-.35-1.06-.93-1.29a17.51,17.51,0,0,0-.41-1.88c-.08-.68-.63-1.08-.78-1.69-.41-.54-.25-1.29-.46-1.94-.16-.42-.41-.82-.87-.72-.28-.61-.41-1.38-1.18-1.59-.53-.29-.7-.93-1-1.41-.35-.32-.49-.91-1-.93a3.18,3.18,0,0,1-1.47,0c-.45.24-1.67.38-1.26-.46.17-.73-1.25-.82-.58-1.51a.72.72,0,0,1-.25-.82c-.35-.23-1.1.27-1.19-.37-.49.12-.69-.6-.82-1,.13-.3.61-.49.13-.81s-.54-1.09-1-1.41c-.1-.47-.62-.82-.92-1.17-.23.08-.39.38-.6.21-.09.16-.06.6-.4.11"/><path id="path4727" class="cls-3" d="M650.72,221.25c.54-.42,1.41-.14,1.82-.7a11.73,11.73,0,0,0,1.86-1.08c.47-.46,1.24-.19,1.58-.69a5.55,5.55,0,0,1,1.3-.72,2.88,2.88,0,0,1,1.21-1.3c.45,0,.3-.41.72-.49.2-.43-.34-1,.25-1.18,0-.52.86-.1.81-.75.15-.34.7-.42.63-.91a1.31,1.31,0,0,0,1-1.08c0-.56.58-.84,1.06-1,.4-.29.26-.65,0-.93.36-.6-.38-1.17,0-1.8.19-.41.52-.73.14-1.14-.16-.59-.93.07-1.35.09-.31.36-.67-.43-1.1-.13-.62-.27.78-.94,0-1-.61-.12.16-.68-.37-.91-.35-.21,0-.78.15-1,.74-.11.18-.92.6-1.32.39-.08.58-.58,1.09-.46a.92.92,0,0,0,1.14-.78,1.47,1.47,0,0,0,0-1.55A.94.94,0,0,1,663,199c0-.51-.34-.85.15-1.19,0-.06,0-.19-.19-.21"/><path id="path4729" class="cls-3" d="M606.36,259.51a2.15,2.15,0,0,0-1.73-.67c-.57.19-.35-.5-.53-.82.06-.51-.28-1.1.26-1.46-.24-.7.8-.62.74-1.23.27-.28.84-.48.89-1,.52-.24.64-.83,1.21-1,.29-.66,1-.71,1.62-.88s.8-.82,1.38-1c.24-.71,1.27-.57,1.54-1.19.5,0,1.16-.23,1.26-.85.59-.27,1.17-.46,1.79-.71.55-.42,1.42.15,1.84-.56.1-.64,1-.15,1.31-.65.39-.21.87-.58,1.28-.4.43-.33,1.3.05,1.54-.6.36-.16.26-.54.62-.74,0-.68,1.12-.36,1.25-1.09.35-.53,1.17-.13,1.29.26.21.61.38-.82.81-.29.22.3.54.21.82.39.41-.45,1.32-.06,1.66-.66.37-.12.19.69.6.21.18-.32,1,.08.72-.48.12-.44.59.29.81-.2.45-.09,1,.09,1.26-.39.55,0,.75-.62,1.13-.83.5.33.37-.87,1-.78.27-.36.47.37.82,0,.6-.26,1.26-.33,1.64-.87.89.41.82-1.16,1.64-.9.57.16.28-.67.85-.63.38-.51,1.06-.45,1.6-.66.37-.34.8.35,1.21,0,.49.29.93,1.26,1.69,1,.44.32,1.12.16,1.56.44.51-.1,1.06,0,1.45-.46s.92-.16.94-.78a.8.8,0,0,1,1.32.37c.49.3.34,1.12,1,1.16.16.16.24.42.5.59"/><path id="path4733" class="cls-3" d="M604.36,288.86a4.91,4.91,0,0,0-1.78.66c-.5-.17-1,.17-1.43.29-.26.47-.59.07-1,.37-.56,0-1.47-.06-1.3.78-.27.54-.85,1-.93,1.53s-.31.9-.21,1.37c-.44.23.36.89-.32.78-.34.16-.15.47.1.52.15.59-.86.7-.41,1.35a4.24,4.24,0,0,0-.17,1.14c-.29.08-.42.52-.69.51-.34.24-.41.59-.88.63-.17.46-.11,1.1-.28,1.53.38.29,0,.78.57.87.16.33-.45,1.08-.51.41-.33-.15-.74-.14-1-.47-.34.43-1.3-.1-1.3.72a10.35,10.35,0,0,0-1.41.56c.08.54-.36,1.35-.9.7-.38-.41-1.4-.56-1.74,0-.07.68-.6,0-.87.18,0,.57.49,1.3-.2,1.62-.09.49.1,1-.5,1.13-.29.56-.85,1.22-.53,1.87a5.33,5.33,0,0,1,1.17,1.45c.07.57.68.73.93,1.11.78-.08,0,1.18-.36.55-.65-.48-.36.66-.43,1,.24.4.56.86,1.06.46.44-.08,1.26.07,1.19.67-.28.12-.52.19-.43.56-.18.5-.69.2-1,.19-.12.57-.8.43-1,.82.34.29.58,1.33-.16,1.18-.43.12-1.34.09-1.34.71s-.76,0-.9-.24c-.6.1-.65,1-1.17,1.15-.27,0-.6-.48-.68.06.2.59-.61.68-.94,1-.5.05-1-.33-1.51-.17-.31.27-.36.83-.93.68a.72.72,0,0,0-.19,1c-.33.3-.78.33-1,.76-.73-.09-1.22.79-2,.67-.32-.12-.81.22-.74.58-.51-.07-1.09-.07-1.29.57-.07.46.69,1.07-.07,1.35-.31.36-1.08.38-.94-.24-.4-.73-1,.25-1.46.22-.2,0-.29-.11-.41-.1"/><path id="path4741" class="cls-3" d="M603.37,250a2.42,2.42,0,0,1-1.64.32,3.35,3.35,0,0,1-1.8.1,1.55,1.55,0,0,1-.75-1.29c-.56-.55-1.35,0-2-.4a1.54,1.54,0,0,1-1.07-.9c-.52.08-.78-.84-1.33-.44-.43-.4-1,.52-1.27-.11a.53.53,0,0,0-.82-.62c-.3-.36-.82-1.22-1.15-.4a.5.5,0,0,1-.89-.11c-.45.6-.69-.32-.66-.7a12.33,12.33,0,0,0-.51-1.7c-.1-.6-.43-1.18,0-1.74.12-.57.33-1.35-.35-1.63-.58,0-1.26.08-1.5-.6a3.63,3.63,0,0,0-1.46-1.68,2.17,2.17,0,0,1-1-1.12c-.43-.33-.2-.83-.42-1.24.38-.61,0-1.34,0-2a3.83,3.83,0,0,0-.09-1.72,5.84,5.84,0,0,1-.48-1.76,9.77,9.77,0,0,1,.22-1.52c0-.62,0-1.24,0-1.86a6.66,6.66,0,0,1-1.13-1.42c-.16-.54-.47-1.12-.08-1.63-.42-.17-.43-.56-.31-.91a.3.3,0,0,0-.17-.21"/><path id="path4745" class="cls-3" d="M595.37,271.42c-.25.63.52,1,.37,1.65a1.65,1.65,0,0,0,0,1.76c.2.56,1,.15,1.08.85.09.52.27.95.89.77.43.26.87-.16,1.32.09.32.07.74.08.83.51.42.35.84.73,1.42.61.53.16,1.11.2,1.38.78.42.31.8.82,1.35.4.29-.46,1-.29,1.1-.91.31-.21.43-.59.85-.58a3.68,3.68,0,0,1,1.39-1.48,10.21,10.21,0,0,0,1.32-.44c-.38-.64.85-.21.64-.92.21-.35.88-.08.91-.62.27-.05.65.16.66-.29a12.25,12.25,0,0,1,1.26-.62c.28.48,1,.86,1.4.27.33-.22,1.18-.2.8-.87.19-.7,1.09,0,1.51-.25s1.27.09,1.82-.39,1.52-.1,1.94-.84c.29-.46,1-.5,1-1.12.5-.15.93-.53.71-1,.36-.64,1.17-.47,1.71-.26a1.07,1.07,0,0,1,.6-.6c.13-.58.12-1.26.65-1.6a2.23,2.23,0,0,0,.74-1.06c.5-.47,1.54-.48,1.56-1.37.1-.59.49-1.14,1.1-1.09.34-.37.95-.56.92-1.1.46,0,.72-.42,1.19-.22.34-.55.55.51,1.06.13a9,9,0,0,0,1.27.42c.36.71,1.15-.23,1.6.34.56,0,.57-1,1.24-.74.27-.29.15-.88.73-.8.31-.27.57-.78,1.07-.51.64,0,.83-1.32,1.42-.57s1.18-.16,1.75.28c.61-.19,1.07-.81,1.73-.67.5-.25.19-.72-.09-1A2.13,2.13,0,0,1,643,257.1c.67-.16.52.82,1,.88.26-.28.53-.69,1-.55.33-.13-.06-.61.36-.77.21-.27.15-.84.65-.55.69,0,.81-1,.81-1.61a9.57,9.57,0,0,0-.12-1.78,6.67,6.67,0,0,1,.77-2.06c.29-.6,1-.8,1.14-1.49.31-.37-.19-.71-.16-1.13-.76.14-.71-.86-1-1.31-.43-.16-.82-.54-.3-.89.21-.74,1-.94,1.37-1.52s-.08-1.35-.57-1.66c-.21-.65.23-1.61.93-1.56.45.42.79-.31,1.21-.4a2,2,0,0,1,1.37.44,1.7,1.7,0,0,0,1.6.3c.35-.58,1.12-.29,1.63-.11.7.06.74-1.17,1.53-1,.5-.31,1.36.24,1.52-.5.36-.37,1.08-.22,1.16-.88.44-.31.48-1.14,1.21-1.18s.7-1.41,1.56-1.36c.28.29.89.45,1-.1-.62-.41.7-.74.56-1.32.18-.62,1-.39,1.21-.93s.69-.4.67.1c.72.34.68-1.25,1.39-.56.31.49.76.25,1.16.1.41.27,1.19.05,1.05-.54.14-.55,1-.24,1.45-.35.37.06.47.45.91.34a17.11,17.11,0,0,0,1.92.83c.77.18,1.15-.6,1.82-.75.46-.15,1.41-.72,1.27.23-.2.57.41.92.9.74.75,0,.92-.88.73-1.44.18-.53-.15-1.1-.11-1.55.56-.25,1.29,1.12,1.47.17,0-.33-1-.87-.28-1,.49,0,1.26.16,1.24-.56.48-.51.86.31,1,.68s.65,1.15,1,.49.68-.08.53.33c-.11.79.69,1.1,1.29.71.41-.48,1-.73,1.4-1.28a2.13,2.13,0,0,1,1.32-1,2,2,0,0,0,1.54-.48,4.4,4.4,0,0,1,1.19-1,1.38,1.38,0,0,1,1.44-.54c-.06.42.57,1,.76.34-.12-.53.67-.94.74-.28s.65.2,1,.35c.48-.09.62-1.44,1.07-.62.22.42.47,0,.67-.06.13.64,1.16,0,1.17.87.23.41,1.1.21,1,.87-.29.5.23,1.22.78.93.43-.6.77-.23.94-.1"/><path id="path4747" class="cls-3" d="M593.43,269.16a1.37,1.37,0,0,0-1.5-.37c-.58,0-1.21.31-1.65-.22-.54-.14-1-.55-1.6-.44-.32-.19-1,.44-1-.25a3.18,3.18,0,0,0-1.2-1.24c-.58-.16,0-.85-.29-1.17.09-.48-.62-.43-.55-1a1.49,1.49,0,0,0-1.15-1.13c-.47-.16-.75-.62-1.26-.62a3.77,3.77,0,0,1-1.54-1.23c-.37-.47-1.07-.47-1.61-.66a1.41,1.41,0,0,1-1.34-.38c-.35-.35-1.37.48-1.07-.36.26-.64-.84-.35-.6-1a4.21,4.21,0,0,0-2-.52c-.64-.31-1.41.16-2-.26-.17-.71-1.14-.37-1.26-1.1a3,3,0,0,0-1.34-1c-.39-.14-.72-.43-1.14-.23-.46-.25-.58-.81-1.07-1-.24-.49-.83-.72-.77-1.32a2.82,2.82,0,0,0-1.48-1c-.58.22-1.15-.13-1.73.14-.46-.06-.74-.41-1.19-.44-.17-.1-.25-.42-.66-.44"/><path id="path4751" class="cls-3" d="M652.41,227.08c.51.46,1.19-.09,1.77-.11.34-.66,1.09-.31,1.68-.44s1.28.12,1.88-.1a4.08,4.08,0,0,0,1.48-.66c-.24-.33.22-.36.34-.7.56,0,.77-1.1,1.39-.55.24.3.6.13.46-.24.24-.18.53-.05.62-.45a.84.84,0,0,0-.26-.94c.2-.42-.43-1.14.31-1.11.35-.05.48-.13.27-.4.22,0,.61,0,.31-.24.22-.32.58-.21.68-.62a3.8,3.8,0,0,1,1.59-.46c.23.37.45.35.6-.05.31-.17.63.08.9-.26.46,0,.86-.05,1-.58.34-.49.87-.93.87-1.54.29-.27.61-.47.81-.07.29-.21.42,0,.51.22.34,0,.67,0,.66-.47.37-.43.68-1,1.36-.84.29-.35.5-.91,1.09-.82.42-.41-.54-1.09.33-1.19.42-.26-.33-.88.41-.85.52-.14,1.09.22,1.53-.28a3.22,3.22,0,0,0,1.89-.22c.34-.37.69-.18,1.11-.1.51-.21,1,0,1.45-.35a1.19,1.19,0,0,0,1.16.1c.35.2.57.05.65-.35.46-.1.51-.67.81-1,.59,0,1.2,1.43,1.69.52.37-.71,1.46-.51,1.49-1.39.43-.29.38-.86.82-1.16a1.75,1.75,0,0,0,.43-1.68,9.66,9.66,0,0,0-.14-1.08"/><path id="path4753" class="cls-3" d="M666.74,258.79c-.2.34-.32.74.12.9a2.57,2.57,0,0,0,1.7,1.15c.45.5.87,1.12,1.64,1,.4-.05.49.52.79.09.48.09.6.92,1.2.58.35-.09.5-.61,1-.35.52-.1.5.7,1,.4.32.2,1-.21.57-.62.1-.56-.37-1.33.3-1.65a.83.83,0,0,0,.15-1c.34-.2.42-.59.9-.65s.84-.53.4-.92a3.83,3.83,0,0,0,.34-1.8c.14-.36.7-1,.15-1.27-.7-.5.28-1.07,0-1.66s.6-1.12,0-1.48c.15-.31.19-.88.64-.59.24-.61.92-.35,1.3-.8.25-.23.25-.6.72-.5.23,0,.51.38.75,0,.72,0,1,1.24,1.73.75.37-.66,1,0,1.39.12.23-.46.63-1,1.24-.74.37.33,1,.16.73-.42.31-.45.52-1.23,1.2-1.14-.12-.4-.35-.94.29-1,.27-.26-1-.35-.3-.64.29,0,1,.45.71-.16-.52-.64.77-1,.67-.15.47.46,1.21.08,1.74.41.35-.15.67,0,1-.17.4.16.8,0,1.16.32s1-.5,1.09.25c.48-.42,1,.22,1.46.32a1.63,1.63,0,0,0,1.6,0c.57-.45,1.19-.06,1.81,0,.33.11.75.1.82-.17a2,2,0,0,0,1.37.37c.37.28.33-.07.45-.25"/><path id="path4757" class="cls-3" d="M646,374.37c-.07-.56-.63-.82-.76-1.37-.65-.24-.44-1-.4-1.54a2.28,2.28,0,0,0-.16-1.7A3.81,3.81,0,0,1,645,368c.43-.4-.23-.85.1-1.3.17-.44,0-.91.19-1.35-.11-.44.3-.55.37-1a5.81,5.81,0,0,0,.92-1.78c0-.23.67-.32.18-.51-.24-.34.72-.37.15-.76-.24-.54.18-.9.52-1.25.37.23,1,0,.89-.49.33.19,0-.42.37-.4.13-.39-.72-.87-.08-1.17.3-.12.71-.39.77.08.43.05.45.92.89.38a2.7,2.7,0,0,0,1.36-.32c.4-.14,1.43-.1,1.45.63.31.39.92.22,1,.75.32-.17.68.19.78-.29.28-.54.52-1.29,1.24-1.27.38-.49,1.13.37,1.27-.4.26-.39.72,0,.73-.56.41-.49,1-.3,1.45-.66.4.07.87.63,1.16,0,.47.19.95,0,1.48.13.44-.51,1,.69,1.18,0,.41-.27.24,1,.6.43.09-.69.53-.12.79.11.41-.19.47-1,1.07-.91s.11.83.76.8c.47.18,1-.44,1.25.1a3.37,3.37,0,0,0,1.78.4c.55,0,.83-.91,1.41-.38s1.4.12,2.09.27a10.07,10.07,0,0,1,2.18.82,11.46,11.46,0,0,1,1.77,1c.59.2.91.71,1.33,1.11.42,0,.54.35.82.57.13,0,.2-.18.35-.15"/><path id="path4763" class="cls-3" d="M642.22,335.29a1.21,1.21,0,0,1,1.28-.42,5.08,5.08,0,0,0,1.58-.17.67.67,0,0,1,1.19.23,4.34,4.34,0,0,1-.68,1.25c.08.51.42,1.2-.28,1.42.11.48-.41,1,0,1.39.08.43-.41.81-.15,1.14-.34.17-.8.29-.76.81-.74.23.32.56.07,1s0,.77-.09,1.09c-.72.14,0,1-.68,1.29-.48.39.12.68.25,1-.49.44-.3,1.13-.32,1.72.24.54-.25.91-.6,1.17.2.35.08.58-.29.63-.2.35.43,1.1-.28,1.09-.43.18-1.31.21-.85.9a5,5,0,0,1-.77,1.54c-.26.14-.76.09-.66.59-.45.17-1.46-.18-1.38.67.14.58-1.17.06-.83.85s-.76.06-1.06.52-.88.25-1.29.58c-.63-.25-.77.79-.29,1.1-.29.25-.37.86-.75.31-.5.05-.32,1-1.06.82-.71,0-.17,1.07-.9,1.14.1.65-.65.78-.87,1.28a1.39,1.39,0,0,1-.55,1.34c-.16.4.06,1-.51,1.17a2.38,2.38,0,0,1-.54,1.57c-.45.39-1-.31-1.46.17a4.79,4.79,0,0,0-.82,1.21c-.51-.06-.5.81-1,1a1.09,1.09,0,0,0-.62,1.1c-.41.47-.81,1-1.2,1.46a1.63,1.63,0,0,1-1.38.77c-.33-.25-1.1-.35-.88.31,0,.34-.53,0-.46.47-.17.5-.94.48-.91,1.06.22.7-.47,1.19-.35,1.85-.17.62-1.07-.2-1.14.61-.34.48-1.12.54-1.41,1.07,0,.54-.65,1.25-1,.54-.35-.07-.76,0-.48.45.05.6-.5.68-.9.4a3.26,3.26,0,0,1-1.4,1.58c-.55.15-.91-.52-1.45-.51-.38.25-.22.89-.68,1.16-.15.45-.46.83-.62,1.28-.32.11-.6-.33-1-.13-.31-.19-.1-1-.68-.71-.85,0,.32,1.14-.26,1.15-.51-.26-1.47-.68-1.46.24a.65.65,0,0,1-.64.59c0,.37.14,1.14-.21,1.25-.27-.82-1.17-.22-1.49.25-.14.23.61.55,0,.72-.39.12-.89.42-1-.13-.93-.16.28,1-.53.92-.45,0-1.34.34-.77.82a2.18,2.18,0,0,1-.71,1.49.6.6,0,0,0-.83.73c-.44.65-1.25-.28-1.64.4a4.14,4.14,0,0,0-2,.5c-.4-.14-.88.41-1.31-.06-.55.22-.67.89-1.09,1.25-.15.48,0,1.09-.69,1.21s-.86.91-1.44,1.23c-.42.37-1.18.73-1.08,1.38a1.6,1.6,0,0,1,.41,1c.32.25.21.78-.22.68-.28.37-.94-.49-.83.25,0,.56-.52,1-.91,1.33.06.48-.67.69-.86.35-.28.26-.22.64-.64.86s-.74-.09-.89.4c-.31.37-.15.88-.32,1.24.68,0,.36.65.35,1s-.5.77.15.67c0,.28-.34.27-.39.43"/><path id="path4765" class="cls-3" d="M633.67,330.41c.36-.32.83-.87,1.34-.72.4.54-.38,1-.31,1.55-.09.58-.56,1.06-.51,1.66.06.43-.24.8-.34,1.17-.45.35-.07,1-.39,1.51a2.72,2.72,0,0,1-.48,1.7c-.4.34-1,.44-1.08,1a1.32,1.32,0,0,1-1.2.42c-.38.37-.82.31-1.24.61-.68-.42-1.3.21-2,.22a2,2,0,0,0-1.67.32c-.61.24-1.4,0-1.79.57a5.67,5.67,0,0,1-1.62.88c-.4.79-1.19-.31-1.73.33-.58.2-1.24-.28-1.63.4-.18.37-.8.51-.45,1a2.45,2.45,0,0,0,.29.85c-.6.24,0,.81-.54,1.09-.5.62-1.15.23-1.75,0-.44-.4-.51.3-.74.52.31.62-.56,1.59-1,.83-.22,0-.26.66-.63.05-.3-.21-.45-.83-.85-.33-.51.1-1.05,0-1.37.55a9.2,9.2,0,0,0-1.2,1.37.62.62,0,0,0-.64.95c-.42.62-1-.14-1.19-.57-.35-.21-.64.35-1,.21-.45.58.45,1.12.46,1.72.28.34.49.68.18,1.1,0,.51-.67-.12-1,.21-.52.22-1-.73-1.33,0-.35.48-1.13.24-1.38.9-.51.23-.59.95-1.26.93a.93.93,0,0,1-1.28,1c-.4-.12-.14-.82-.69-.9-.71-.37-1.37.29-1.71.86a1.14,1.14,0,0,1-1.52.6,4.24,4.24,0,0,1-1.59-.34c-.38-.25-1-.33-.91.33s-1,.4-1.29,1c-.3.43-1,.33-1.1,1a2.2,2.2,0,0,0-1.44.65c-.67,0-.66.72-1.18,1-.36.73-.87-.84-1.38-.08a3.55,3.55,0,0,0-1.38.66c-.58,0,.13.82-.57.6-.42-.65-1.05-.07-1.23.47-.12.37-.34.34-.56.1-.14.5-.73.05-.49-.38a.35.35,0,1,0-.66-.21"/><path id="path4767" class="cls-3" d="M604.69,286.86a1.76,1.76,0,0,0,1.25-.81c.52,0,.71.8,1.28.91.34.21.68.55,1.07.25a1.53,1.53,0,0,0,1.14-.22,1.79,1.79,0,0,1,.88,1.47c.24.19.66.22.67.6.44.21.86.6,1.37.58a4.62,4.62,0,0,0,1.81-.18,2.14,2.14,0,0,0,1.27-1c.08-.43,0-.78.48-1,.09-.75,1-.86,1.33-1.52-.19-.64.63-.72.77-1.27.49-.35.53-1,1-1.39-.07-.43-.3-1,.37-1.05.32-.52,1.1-.25,1.32-.89.53,0,.83-.4,1.3-.59.13-.36-.12-.73.25-1,.07-.65.47-1.27,1.19-1.11.25-.44,1.14-.93,1.34-.14.11.27.53,0,.69.28.57-.18,1.2,0,1.67-.52.45-.05.8.45,1.21,0a5.64,5.64,0,0,0,1.84-.38c.21-.59.93-.42,1.42-.66.41,0,.92.22.68.69.56.07.88-.92,1.57-.7.13-.14-.19-.58.27-.6s.8-.43,1.24-.15.78-.3,1-.35c.44-.24.89-.7,1.48-.53.35-.18.84-.18.67.32.32.38.7,1,1.28.55.65-.18,1.16-.86,1.89-.43.54.36,1.35.3,1.7.93a3.74,3.74,0,0,0,1.56,1.25,6,6,0,0,1,1.17.72c.26.26.52.44.54.85.33.39.91.35,1.28.68.64-.09.39.62.93.74.24.78,1.23.16,1.77.19.29.29.1.81.55,1.06a1.75,1.75,0,0,1,0,1.31c-.18.63-.94.29-1.35.58s-1-.43-1.06.33c-.12.51,1.15,1,.26,1.27-.33,0-1.3-.07-.74.45.4.22,1.23.29.82.89-.14.45.1,1,.61.63.8-.14.85,1,.64,1.49.33.71,1.49-.26,1.56.71,0,.64,1,.46,1.15,1.11.25.24.69.15.7.61.38.39.86.88,1.44.44.4-.18.86.32,1.23.55a4.6,4.6,0,0,0,1.39,1.05,5.24,5.24,0,0,0,1.9.8c.45.17.66.86,1.27.56a20.34,20.34,0,0,0,2.08-.19,3.1,3.1,0,0,1,1.78.48c.13.42.75,1.1,1,.37a1.66,1.66,0,0,1,1.5.38.71.71,0,0,0,1.29-.12c.32-.77,1.32-.12.9.54.41.21,1.35.23,1,1-.2.56-1.3.84-.91,1.51.59.24,1.08-.51,1.65-.4.15.35,0,1.05.52,1.15.07-.74,1-.12.5.31s.56.55.64.09c.6-.32.22.37.18.64.11.58.53.78,1,.91.27.52.69.16.9-.15.49-.29,1.63-.17,1.31.62-.33.33-1.12.61-.73,1.19a11.93,11.93,0,0,1,1.35.4c.28-.53.41-1.16.73-1.71a.39.39,0,0,1,.76.07c.24-.14.74-.41.78.16,0,.73.57.94,1.18.8.52.3.3,1.07.78,1.46.71.3-.87,1.07,0,1.1.55,0,1.23-.11,1.7.25.26.63-.88.62-.5,1.32.18.8,1.12.3,1.6.71.65.11.34,1,.72,1.35,0,.37-.18.83.39.85.39.33.77.11,1.06-.13.67.1.89.71,1.11,1.26a1.4,1.4,0,0,1-.17,1.46c0,.29.52.22.48.64.31.58,1.25.22,1.51.85.33.4.8.63.62,1.19-.51.19-.37.88.21.58a8.27,8.27,0,0,0,1.59-.56c-.51-.2.2-.94.26-.4.55.18,1.17,1.08.23,1.18-.61.44.57.68.73,1.05.41.26.74.82,1.23.84s.29-1.2.84-.64c-.27.69.77.74.78.09s.12-1.22.83-1c.87.1.11,1.12.46,1.41.67,0,1.5.28,2-.27s1.22,0,1.79.16.71.66,1,.45"/><path id="path4773" class="cls-3" d="M635.6,327.88c-.41.17-.76,1.3-1.09.45-.43-.44-.18-1.22-.76-1.57s.07-1.08-.51-1.4c-.19-.54.55-1.39-.35-1.57a2,2,0,0,1-.81-1.8c.19-.37-.15-.73.08-1-.44-.35-.61-1.12-1.22-1.2s-1.14.22-1.77.18c0,.45-.54,0-.69-.07-.61,0-1,.69-1.57.61-.23.61-.76.39-1.26.39s-.93.44-1.4.51a2.28,2.28,0,0,0-1.74.45,2,2,0,0,0-1.71.83c.25.75-.68.69-1.15.82a1.25,1.25,0,0,1-1.36.16c-.51-.51-1.1.24-1.63-.17-.57-.2-1.36-.44-1.81.14-.18.82-1.09.9-1.35,1.68,0,.56-.77.36-.8.93a.57.57,0,0,0-.75.54c-.18.68-.93.69-1.36,1.07-.48.08-1-.27-1.21.31a1.8,1.8,0,0,0-1.43.64c-.45.21-.38.87-.8,1.07s-1,.37-1.21.88c-.52,0-.6.69-1.13.72-.41.49-1.15-.41-1.39.38a11,11,0,0,1-.41,1.83c.23.8-1.24.46-1.11,1.3-.26.56-.61-.47-.78.14-.12.41-.48,1.17-.93.82-.51.42-.78,1.18-1.46,1.36,0,.5-.41.84-.7,1.11.28.46.43,1.38-.29,1.49s-.41,1.42-1.34,1.21c-.31.2.32.74-.28.74-.25.25-.44.65-.81.57-.63.14-1.16.9-1.77.65,0,.6-.53.4-.94.36-.47.47-1.11.68-1.58,1.17-.74.08-.43,1.14-1.24,1.18-.19.2,0,.63-.46.58-.49.29-.5.92-1,1.26-.12.64-.48,1.23-.18,1.9,0,.4-.86.42-.54,1a1.66,1.66,0,0,0-.57,1.61c-.15.29-.68.47-.37.92-.43.65-.11,1.39,0,2.09a1.86,1.86,0,0,1-.27,1.74,3.7,3.7,0,0,1-1,1.4c-.06.49.21,1.2-.16,1.55"/></g><g id="layer10"><g id="g4840"><path id="path4842" class="cls-4" d="M613.65,345.87c.25-.24.18.33.39.25.05.24.35.41.35.61-.27,0-.25-.41-.58-.39,0-.15-.1-.52-.29-.25-.23.07-.19.54-.51.31-.13.06-.23,0-.36,0a6.15,6.15,0,0,0-.48.81c-.19.27-.55.33-.78.57a.88.88,0,0,0-.5.65c-.08-.18-.08-.35-.25-.43.07-.29.4-.44.34-.79s.42-.45.53-.75.45-.19.6-.38c.33-.1.72-.29,1,0s.1-.29.4-.15h.06l0,0Z"/><path id="path4844" class="cls-4" d="M606.62,215.72c.33-.18.61.33,1,.27.28.1.7-.13.85.22s-.24.68-.29,1-.5.42-.78.53-.59-.3-.93-.22c-.23-.41.47-.17.59-.46s-.14-.65-.34-.86-.26-.41-.06-.52Z"/><path id="path4846" class="cls-4" d="M616,271.72c.17-.05.07.54,0,.59C615.83,272.06,615.77,272.05,616,271.72Z"/><path id="path4848" class="cls-4" d="M648,410.36c.36-.31.69.39.2.43-.34.12-.81-.14-1,.27-.34.18-.14.75-.56.83s-.1-.58,0-.82.51-.22.74-.47C647.67,410.68,647.77,410.33,648,410.36Z"/><path id="path4850" class="cls-4" d="M624.09,421.78a.82.82,0,0,1,.68.14c-.13.29-.67-.25-.64.19-.21,0-.53,0-.41.29s-.47.19-.29.51c-.17.28-.23-.26-.42-.26.06-.15.43-.07.3-.36a.36.36,0,0,1,.61-.32c.1,0,.13-.12.17-.19Z"/><path id="path4852" class="cls-4" d="M658.34,439c.24-.22.26.3.13.43a2.29,2.29,0,0,0-.07,1.27c.14.36-.56-.1-.67-.12.41-.15.31-.66.36-1S658.11,439.06,658.34,439Z"/><path id="path4854" class="cls-4" d="M639.66,450.57c.27,0,.27.62.05.8a3.19,3.19,0,0,0-.42.92c-.12.29.08.66-.24.84.06.38-.15.73-.11,1.1s-.18.4-.25.08c-.43-.14-.15-.67,0-.89a1.93,1.93,0,0,0,.29-1c.07-.25,0-.48.24-.64-.07-.37.5-.57.3-1C639.61,450.75,639.49,450.52,639.66,450.57Z"/><path id="path4856" class="cls-4" d="M686.44,203.54c.2-.16.15.37.3.47a1.67,1.67,0,0,0,.52.74c.17.25.53.37.39.76s.15.72.17,1.06a1.07,1.07,0,0,1,.62.66,3,3,0,0,0,.51.85,2.88,2.88,0,0,1,.41.95c.1.37.64.27.71.67s.37.57.41.89.36.66,0,.86-.38.52-.54.8-.2.53.11.62a4.82,4.82,0,0,1,.32,1,2,2,0,0,1,.14,1.07c.11.32.54.43.61.76.24.44.43-.23.64-.39a1.75,1.75,0,0,0-.12-1.13,6.38,6.38,0,0,1-.46-.9,5.45,5.45,0,0,1-.33-1.09c.27-.22.63-.36.83,0a3.47,3.47,0,0,1,.47.84c.2.24.32.55.57.72s.38.46.53.71.38.41.56.64.41.5.56.78.19.63.41.88a1.79,1.79,0,0,1,.51.75c.18.34.09.71.19,1.07a1.38,1.38,0,0,0,.56.76c.34.27,0,.76.15,1.06s.39.66.29,1.07-.73.35-1,.14a2.19,2.19,0,0,0-.72-.56c-.16-.31-.58-.32-.86-.5s-.51-.49-.85-.38c-.21-.17-.48-.27-.7-.46a1.4,1.4,0,0,1-1-.31c-.21-.18-.51-.32-.6-.64a4.61,4.61,0,0,1-.19-1.11c.1-.35-.3-.59-.18-.94a1.54,1.54,0,0,0-.36-.92,3.64,3.64,0,0,0-.47-.81,7.71,7.71,0,0,0-.51-.69c-.18-.27-.83-.22-.54-.66.12-.25.4-.54.19-.84,0-.3.53-.59.27-.87s0-.68-.35-.85a1.29,1.29,0,0,0-.46-.85c-.42-.08.14-.48-.19-.71s.43-.66.12-1c-.2-.13-.23-.36-.47-.46.06-.2-.35-.22-.41-.46s-.24-.59-.52-.72c-.09-.2-.21-.37-.42-.18s-.37.27-.5,0-.49-.47-.5-.82.29-.67.64-.55.72-.07.67-.49c.13-.33.34-.72,0-1a1.41,1.41,0,0,0-.09-.32Z"/><path id="path4858" class="cls-4" d="M666.15,207.52c.15-.15.05.42.29.24,0,.24.51,0,.45.39.11.33-.23.42-.42.19-.31,0-.91-.12-.6-.54C666.05,207.78,666,207.5,666.15,207.52Z"/><path id="path4860" class="cls-4" d="M618.41,271c.32-.21.64.12,1,0,.42.08.22.73-.11.83s-.69-.28-.9.1a.85.85,0,0,1-.83.39h-1.26c-.34.26-.35-.49-.2-.62s.48.53.69.1.61-.26.82-.54A.87.87,0,0,1,618.41,271Z"/><path id="path4862" class="cls-4" d="M689.51,277.05c.3-.22.43.42.77.17.35,0,.71,0,1.05.1s.31.32,0,.25-.59.3-.94.19a.51.51,0,0,1-.83-.33c-.1-.13-.48-.21-.17-.37l0,0Z"/><path id="path4864" class="cls-4" d="M696.1,283.25c.25-.11.17.46.49.4s.4.58-.05.49c-.23-.13-.45-.29-.75-.18s-.13-.44-.23-.66c.23-.05.2.33.47.31s-.07-.2.07-.36Z"/><path id="path4866" class="cls-4" d="M701.52,307c.16-.12.07.38.33.31.3.2.43-.19.55-.29.17.24-.3.35,0,.58s-.22.29-.34.5c-.34.11-.07-.72-.42-.35-.19.1-.36-.11-.15-.18A.36.36,0,0,1,701.52,307Z"/><path id="path4868" class="cls-4" d="M700.18,308.71c.18-.13.19.33.44.25s0,.29.22.28.38-.61.77-.41c.34,0,.51.38.81.5,0,.25.13.56,0,.76-.31-.14-.68-.06-1-.22-.29.18.17.88.35.43.34-.26.6.36.56.63s-.5.17-.57.53c-.21.06-.33-.36-.54-.09-.37.24.4.29.32.61.22.41-.23.7-.54.78-.09.29-.44.32-.44.62a8.8,8.8,0,0,0-.26,1.26.57.57,0,0,1-.62.71c-.33.07-.71-.19-1-.06a2.42,2.42,0,0,1-1.07-.09,1.08,1.08,0,0,1-.7-.68c-.24-.15-.71-.39-.4-.75,0-.23.36-.28.33-.58a1.61,1.61,0,0,1,.53-.71,2.56,2.56,0,0,1,1.19-.26c.23,0,.31,0,.54-.05s.07-.47.31-.61c.05-.33.4-.53.39-.86.28-.1.68-.28.77-.58s0-.77-.24-.57c-.09.4-.44-.24-.13-.34C700.3,309.05,700.15,308.88,700.18,308.71Z"/><path id="path4870" class="cls-4" d="M687.74,317.55c.26-.18.72,0,.72.31-.18.3.42.28.28.64a.38.38,0,0,1-.73.15c-.25-.22-.67-.16-1-.17a2,2,0,0,1-1-.28c-.32-.15,0-.27.16-.29s.74-.14,1.08-.26a.55.55,0,0,0,.46-.1Z"/><path id="path4872" class="cls-4" d="M658.82,319.42c.3-.15.53.27.67.49s.65.3.55.71c-.32.24-.49-.15-.66-.38.08-.43-.47-.45-.59-.78v0Z"/><path id="path4874" class="cls-4" d="M691,326.38c.18,0,.43.34.22.56,0,.36.51.46.47.83-.08.57.78.2.79.67.28.16.78.11.86.49a.61.61,0,0,1-.07.88c-.28.27.08.68-.18,1a3,3,0,0,1-.55.75,1,1,0,0,0-.59.73.37.37,0,0,0-.37-.13c-.13-.21.33-.12.1-.37s-.68,0-.86.24-.27.7-.66.64a1.35,1.35,0,0,1-1.16,0,2,2,0,0,1-.77-.53c-.14-.28-.47-.39-.6-.68s-.23-.52-.55-.54-.42-.09-.51-.34c-.3-.11-.67-.47-.37-.81a5.77,5.77,0,0,1,.84-.49c.25-.19.32-.61.71-.46s.74.1,1,.36c.37.11.75-.08,1.12,0a1.44,1.44,0,0,1,.4.6c.14-.15.35-.24.18-.47-.37,0-.5-.4-.74-.56s-.35-.28-.6-.25c-.16-.16-.33,0-.5-.19-.21.19-.61,0-.36-.24.28-.11.53-.34.81-.16.23-.09.58.11.4-.29a.89.89,0,0,1,0-1c.24-.2.67.09.67.33.34-.07.28.71.65.35.17-.25,0-.66.21-.9h0Zm-2.38,3.46c-.19.22-.51.34-.66.62-.14.43.54.31.78.27.34.16.61-.47.16-.56-.07-.13,0-.41-.28-.33Z"/></g></g><g id="layer4"><polyline id="polyline3083" class="cls-5" points="588.93 401.53 589.13 401.33 589.13 401.15 589.01 400.96 589.02 400.76 589.23 400.74 589.27 400.55 589.16 400.4 589.16 400.29 589.23 400.22 589.27 400.09 589.28 399.98 589.38 399.85 589.23 399.57 589.05 399.53 588.85 399.58 588.65 399.42 588.55 399.21 588.83 398.71 588.98 398.62 589.12 398.28 589.28 398.04 589.39 397.98 589.49 397.8 589.6 397.78 589.7 397.83 589.93 397.89 590.08 397.83 590.36 397.5 590.47 397.48 590.57 397.37 590.51 397.22 590.54 397.07 590.75 396.9 590.84 396.9 590.9 397.11 591.01 397.13 591.59 396.86 591.48 396.68 591.5 396.42 591.53 396.27 591.54 396.05 591.46 395.92 591.49 395.84 591.78 395.73 591.84 395.65 591.85 395.49 592 395.49 592.22 395.47 592.62 395.26 592.87 395.1 593.13 395.13 593.34 394.98 593.56 394.8 593.64 394.5 593.39 394.24 593.22 393.81 593.1 393.36 593.02 392.67 593.31 392.64 593.52 392.43 593.93 392.12 594.28 391.8 594.65 391.7 595.11 391.05 595.35 390.9 595.92 390.81 596.09 390.55 596.21 390.38 596.25 390.14 596.22 390.01 596.32 389.64 596.49 389.34 596.65 389.23 596.93 388.84 597.12 388.52 597.31 388.33 597.51 388.3 597.59 388.39 597.8 388.44 597.88 388.54 598.17 388.52 598.46 388.31 598.57 388.26 598.69 388.3 598.75 388.35 598.91 388.35 599.29 388.09 599.41 388.07 599.85 387.91 600.13 387.88 600.7 387.82 600.89 387.82 600.91 387.58 601.02 387.52 601.42 387.52 601.68 387.65 601.85 387.69 602.25 387.61 602.32 387.56 602.41 387.15 602.37 387.06 602.45 386.78 602.85 386.63 603.14 386.64 603.25 386.72 603.41 386.66 603.57 386.2 603.81 385.94 603.89 385.14 603.72 384.93 603.72 384.82 604.08 384.52 604.47 384.45 604.99 384.32 605.05 384.22 604.99 384.06 604.83 383.72 604.86 383.57 605.02 383.48 605.25 383.48 605.41 383.76 605.56 383.81 605.82 383.78 606.14 383.6 606.37 383.58 606.57 383.43 606.4 383.15 606.21 383.06 606.21 382.95 606.48 382.75 606.81 382.33 607.34 382.19 607.57 382.28 607.82 382.69 608.03 382.2 608.04 381.74 608 381.4 608.01 381.33 608.21 381.31 608.48 381.22 608.72 380.49 608.75 380.21 609.34 380.17 609.64 380.34 610.22 380.73 610.25 380.47 610.22 380.4 610.24 380.21 610.11 380.02 610.1 379.86 609.96 379.75 609.99 379.54 610.32 379.49 610.54 379.28 610.86 379.6 610.8 379.88 610.9 380.06 611.24 380.1 611.56 380.08 611.75 380.25 611.85 380.32 611.93 380.27 612.24 379.67 612.47 379.35 612.62 378.85 612.94 378.59 612.93 378.42 613.07 378.27 613.02 378.01 613.11 377.88 613.37 377.81 613.58 377.86 614.46 378.37 614.89 378.27 615.4 377.85 615.83 377.42 616.17 376.72 616.73 376.98 616.86 376.93 617.1 376.38 616.93 376.1 616.95 375.9 617.61 375.92 617.84 376.25 618.05 376.24 618.44 375.88 618.56 375.27 619.74 374.49 619.99 374.17 620.14 373.9 620.3 373.83 620.53 373.84 620.7 373.98 621.02 373.89 621.08 373.62 621.02 373.37 621.09 373 621.41 372.58 621.46 372.35 621.47 371.64 621.6 371.38 621.91 371.27 622.3 370.91 622.46 370.46 622.74 370.49 622.83 370.27 622.73 370.03 623.02 369.73 623.55 369.88 623.56 370 623.95 369.9 624.15 369.97 624.93 369.49 625.65 368.54 625.83 368.11 626.15 367.98 626.82 368.11 626.98 368.24 627.46 368.33 627.66 368.65 628.08 368.93 628.53 369.26 628.63 369.45 629.32 369.45 629.58 369.19 629.72 369.34 629.96 369.41 630.07 369.3 630.25 369.47 630.49 369.17 630.62 369.15 630.72 369.24 630.96 369.15 631.06 369.23 631 369.37 631.27 369.8 631.8 369.95 632.54 370.32 632.96 370.42 633.92 370.92 634.3 371.09 634.41 371.03 634.54 370.92 634.54 370.66 634.51 370.44 634.61 370.31 635.01 370.47 635.45 370.66 635.99 370.68 636.47 370.66 636.92 370.19 637.21 370.23 637.81 370.05 637.99 369.82 638.13 369.97 638.25 369.79 638.41 369.79 638.58 369.84 638.69 370.12 638.52 370.62 638.55 371.01 638.62 371.33 638.36 371.48 638.29 371.7 638 371.8 637.96 372 637.97 372.17 638.04 372.23 638.33 372.19 638.46 372.09 638.54 372.08 638.57 372.17 639.05 372.41 639.02 372.52 639.01 372.69 639.12 372.78 639.27 372.88 639.79 373.18 640.21 373.47 640.33 373.68 640.5 373.66 640.77 374.13 641.61 374.35 642.34 374.09 642.77 373.88 643.32 373.79 643.65 373.75 644.01 373.99 644.22 373.94 644.38 374.09 644.88 374.11 645.43 374.52 646.21 374.78 646.83 374.11 647.03 373.66 647.72 373.1 647.92 372.54 648.29 372.13 648.61 371.68 648.77 371.68 649.13 371.48 649.82 371.52 650.41 371.05 650.63 371.18 651.2 370.83 651.56 370.81"/></g><g id="layer15"><path id="polyline3348" class="cls-6" d="M674.6,223.3l-.29,0a7,7,0,0,0-1,.09c-.23.09-.45.21-.67.32-.68.25-1.36.48-2,.74a3.77,3.77,0,0,1-.48,0c-.15,0-.31,0-.45,0a1,1,0,0,1-.42.12,4.21,4.21,0,0,1-.48-.12c-.09-.06-.16,0-.22.07s-.21,0-.3,0a1.29,1.29,0,0,0-.45.27,1,1,0,0,0-.38.15c-.08.08-.19.06-.3.06s-.15,0-.13.13-.16.1-.22.16-.1.16-.2.11a1.48,1.48,0,0,0-.21.13c-.08.09-.21,0-.31,0s-.1-.21-.19-.27a2.21,2.21,0,0,0-.5-.21c-.19-.08-.41-.07-.6-.16a2.45,2.45,0,0,0-.62-.23c-.09,0-.18.08-.26,0a.75.75,0,0,1-.27-.26.74.74,0,0,0-.32-.26,2.74,2.74,0,0,0-.63-.21,1.08,1.08,0,0,0-.44,0c-.1,0-.15.07-.22.12a2.75,2.75,0,0,1-.41,0c-.09,0-.18,0-.15.15s.12.15.05.21-.09.19-.18.13-.18,0-.22-.07a.89.89,0,0,0-.37-.23c-.09,0-.19,0-.26,0a.19.19,0,0,0-.14.18l-.48-.19a4.31,4.31,0,0,0-1-.11,4.15,4.15,0,0,0-.7.07,3.2,3.2,0,0,1-.42-.1.73.73,0,0,0-.36,0c-.1,0-.17,0-.14-.11l-.28-.17a1.28,1.28,0,0,1-.11-.27.35.35,0,0,0-.16-.23l-.5,0a6.27,6.27,0,0,1-.75,0,2.18,2.18,0,0,0-.57,0,1.3,1.3,0,0,1-.44,0,1.63,1.63,0,0,1-.4-.24c-.06-.08-.15,0-.23,0a.66.66,0,0,1-.37,0,4.89,4.89,0,0,0-.48.2c-.09.08-.22.13-.24.27a.29.29,0,0,0,0,.24.51.51,0,0,1,0,.3c-.24.16-.51.28-.76.43s-.43.34-.65.51l.06.24c0,.18-.08.36-.11.54a2.57,2.57,0,0,1,.26.41.76.76,0,0,1,.08.36,1.73,1.73,0,0,1-.35.41,5.36,5.36,0,0,0-.15.78c0,.31,0,.62,0,.93-.07.1-.16.19-.24.29a3.94,3.94,0,0,0-.1.47.69.69,0,0,0-.24.35c0,.12.1.21.06.32a.5.5,0,0,0,0,.32,1,1,0,0,0,.18.28.24.24,0,0,1,.11.21,2,2,0,0,1-.11.35,1,1,0,0,1-.23.13,1.1,1.1,0,0,1-.44.15c-.36-.07-.74-.11-1.11-.17a1.87,1.87,0,0,0-.4-.07,2.23,2.23,0,0,0-.56.16,4.69,4.69,0,0,0-.47.53,2.86,2.86,0,0,0-.3.54c0,.09-.06.17-.16.19s-.12.14-.16.22-.15.05-.22.08a2.43,2.43,0,0,0-.25.2,3.54,3.54,0,0,0-.16.34c-.07-.13-.1-.29-.24-.37a1.45,1.45,0,0,0-.23-.19,3.27,3.27,0,0,1-.44,0,2,2,0,0,1-.56-.25c-.07,0-.17,0-.25,0s-.21.08-.27.17a1.64,1.64,0,0,0-.16.26c0,.11,0,.15-.11.08a.7.7,0,0,1-.33-.2,1.77,1.77,0,0,1-.33-.34,2.94,2.94,0,0,1-.11-.66c-.09-.12-.14-.27-.28-.34s-.2,0-.28,0-.21-.13-.21-.25,0-.18,0-.25-.17-.09-.16-.19a.26.26,0,0,1,0-.24c.09-.1-.07-.08-.14-.11s-.14.11-.19,0-.08-.29-.14-.43-.08-.16-.14,0-.16.08-.22,0-.2-.09-.19-.2,0-.19-.08-.22-.29,0-.42-.06-.09-.13-.06-.2a3.06,3.06,0,0,0,.17-.59c0-.09,0-.17-.11-.17s-.18.12-.28.08-.2,0-.19-.09.07-.18.1-.28.17-.1.1-.18-.12-.09-.19-.11l-.27-.06c-.08,0-.11.12-.19.16s-.14,0-.23,0-.2,0-.2-.08.1-.26.08-.4a.17.17,0,0,0-.09-.21c-.07,0-.11.11-.18.14s-.14.07-.22.08,0-.14,0-.21-.12-.15-.12-.25a.4.4,0,0,0-.09-.25.25.25,0,0,0-.22,0c-.08,0-.18.06-.24,0a.22.22,0,0,1-.1-.21c0-.11.12-.07.18-.06a.45.45,0,0,0,.21-.24c0-.08-.08-.13-.14-.17a1,1,0,0,1-.34,0c-.08,0-.19,0-.21.07s-.09.18-.19.17-.14-.09-.11-.15,0-.13,0-.2-.16-.12-.13-.15.22-.12.24-.25,0-.17,0-.21-.15-.12-.12-.19.09-.16,0-.21,0-.19-.09-.23a.31.31,0,0,0-.25,0,1.75,1.75,0,0,1-.25.16c-.07.07-.15,0-.21,0s0-.12,0-.19a1.22,1.22,0,0,0-.11-.62.69.69,0,0,1,0-.24c-.06-.12-.16-.23-.14-.37s.07-.24.12-.36l.48-1a1.16,1.16,0,0,0-.41-.09l-.67-.06a.83.83,0,0,0,0-.27l0,0c-.24-.11-.47-.22-.71-.31a.7.7,0,0,0-.35.05.51.51,0,0,0-.26.14.34.34,0,0,0-.25-.08.74.74,0,0,0-.39.07c-.08,0-.15.16-.25.11s-.31,0-.46-.08a1.34,1.34,0,0,1-.4-.27.38.38,0,0,0-.25-.14c-.12,0-.15-.13-.22-.21L632,221a4,4,0,0,1-.69,0c-.12.18-.24.36-.37.53a2.91,2.91,0,0,0-.3,0l-.26.27.21.81-.31.42c-.24.05-.49.07-.72.13a1.56,1.56,0,0,0-.26.11c-.05,0-.05.19-.14.18a.63.63,0,0,0-.31.05,1.94,1.94,0,0,0-.33.23c0,.23-.09.45-.12.67a1.11,1.11,0,0,0,.08.44,7.48,7.48,0,0,0,.39.74,3.35,3.35,0,0,1-.2.61l-.21.48-.83.36.37.61a.6.6,0,0,0,0,.35c.05.13.13.25.19.38s.22,0,.14.13l-.2.51.62,1.9-.54,2.71c-.13.07-.24.18-.39.17s-.38,0-.56,0-.2,0-.19.11,0,.19-.07.23-.22-.05-.3,0-.16,0-.24,0-.14.11-.21.13a1.82,1.82,0,0,0-.31-.16l-.4,0c-.09.12-.15.27-.25.38s-.26.16-.32.29-.15.27-.29.33l-.57.37a1.38,1.38,0,0,0-.25-.17l-.74-.05-.15.39a.73.73,0,0,0-.32.18c-.08.06-.15.18-.27.16l-.79.08-.87-.53a12.59,12.59,0,0,0-1.25.56,3.54,3.54,0,0,1-.34.16,2.67,2.67,0,0,0-.4,0c-.09,0-.2.05-.24.15s-.19.25-.26.39l-.1.39c-.13.08-.28.13-.35.27a.47.47,0,0,1-.12.28c-.07.12-.18.22-.24.35a5.29,5.29,0,0,1-.15.57c-.27.23-.54.46-.8.7-.06.1-.16.19-.15.32a.23.23,0,0,1-.09.22,8.35,8.35,0,0,1-.6.59c-.08,0-.18,0-.25,0s-.25.26-.39.37l-.5.11a5.11,5.11,0,0,0-.29.83.84.84,0,0,1-.08.27,1,1,0,0,1-.4.2c-.11,0-.23,0-.34.08l-.26.27-.82,0a1.38,1.38,0,0,0-.27-.08c-.22.1-.44.18-.66.29a.64.64,0,0,0-.18.28c-.06.1,0,.23,0,.33-.23.3-.45.62-.69.91a1.8,1.8,0,0,1-.19.2c-.13,0-.27.09-.4,0a.62.62,0,0,1-.3-.18.38.38,0,0,0-.26-.13c-.25-.08-.51-.13-.76-.19a3.75,3.75,0,0,1-.81.16c-.37,0-.74,0-1.11.1a1.87,1.87,0,0,1-.58,0c-.2,0-.38-.12-.59-.08l-.39,0-.33-.31c-.11,0-.23.06-.32,0s-.3-.18-.45-.25a1,1,0,0,1-.46-.12c-.09-.08-.14-.07-.12.06a1,1,0,0,1-.07.42c-.16.37-.33.74-.48,1.11,0,.13,0,.27-.15.37s-.19.18-.18.32a2.74,2.74,0,0,0,0,.5c.09.11.16.23.25.32l.33.19-.12.53c0,.07.12.14.12.22a2.13,2.13,0,0,0-.09.71c0,.2-.06.4,0,.6s.07.18.12.26.29.2.42.32.16.16.13.27a4.64,4.64,0,0,1,0,.53c-.1.17-.22.34-.32.51s-.06.3-.11.44l-.28.36c0,.16,0,.32,0,.48a3.15,3.15,0,0,0-.09.42l.14.32a2.63,2.63,0,0,1-.21.41,2.38,2.38,0,0,1-.51.44c-.09,0-.16.09-.13.19a1.45,1.45,0,0,1,0,.3l-.25.34c0,.15.07.31.08.46a1.43,1.43,0,0,0-.14.34,1.47,1.47,0,0,1-.12.49,1.07,1.07,0,0,1-.36.27c-.09.05-.2.07-.24.18s0,.24,0,.35a2.86,2.86,0,0,1,0,.43c0,.09-.06.18-.15.22a3.81,3.81,0,0,0-.32.24.53.53,0,0,0,0,.33c.06.36.12.72.17,1.08a4.64,4.64,0,0,0-.16.53c0,.08,0,.19.05.24a1.86,1.86,0,0,1,.41.43,1.49,1.49,0,0,0,.31.4c.07,0,.17,0,.26,0s.2.08.3.12.13.13.22.09a.34.34,0,0,1,.24,0c.06.05.18.05.2.13l.08.38-.65.57c-.1,0-.22,0-.32,0s-.31.31-.45.48-.06.25-.11.36l-.5.41a2.57,2.57,0,0,1-.08.38c-.1.15-.21.29-.3.44a2.36,2.36,0,0,1,0,.46,1.65,1.65,0,0,0-.11.36,3.65,3.65,0,0,0-.58.53c-.23.26-.47.52-.7.79,0,.07,0,.2-.13.17s-.17,0-.22.07a1.79,1.79,0,0,1-.28.27,3.13,3.13,0,0,1-.51.19c-.12.16-.24.33-.35.5s.16.14.09.19a2.57,2.57,0,0,0-.24.21l-.08.44c-.41.23-.82.46-1.22.7l-.46-.2a1.23,1.23,0,0,0-.17.41,1.93,1.93,0,0,0,0,.34c-.07.08-.19.11-.18.23s0,.2-.09.23a3.54,3.54,0,0,1-.33.19,2.74,2.74,0,0,0-.5,0c0,.07,0,.16,0,.23l-.38.41"/><path id="polyline3350" class="cls-6" d="M674.6,223.3c0-.09,0-.21.15-.25l.9-.62a2.57,2.57,0,0,0,.14-.68,2.25,2.25,0,0,1,.08-.52l-.23-.3.4-.42a2.66,2.66,0,0,0,.63.09c.24-.2.51-.37.74-.59a10.35,10.35,0,0,0,.36-1c.16,0,.32,0,.47-.07a1.06,1.06,0,0,1,.3-.26.76.76,0,0,0,.3-.23,2.63,2.63,0,0,1,.45-.36,4.86,4.86,0,0,1,.77-.43,1.81,1.81,0,0,0,.48-.29.75.75,0,0,0,.25-.25c.05-.08,0-.18,0-.27s-.18,0-.23,0a.41.41,0,0,1-.11-.35,1.28,1.28,0,0,1,.15-.28l.22-.18a1,1,0,0,1,0-.29.12.12,0,0,0,0-.2,1.82,1.82,0,0,1-.15-.27c0-.09,0-.19.1-.24s.08-.2.11-.3.12-.17.17-.26l.32-.22a.44.44,0,0,1,0-.32c0-.09,0-.16-.06-.2a1.13,1.13,0,0,1-.23-.26.65.65,0,0,1,0-.31c0-.07-.13-.15-.08-.22a1.33,1.33,0,0,0,.19-.42c0-.09.14-.08.21-.12s.16-.13.24-.19l.1-.26c-.11-.06-.18-.19-.28-.26a6.9,6.9,0,0,0-1-.39.76.76,0,0,0-.24-.23c-.14-.06-.19-.23-.34-.27s-.16-.11-.25-.06-.18.07-.21,0-.08-.18-.18-.19-.13-.1-.17-.17,0-.19-.14-.2l-.35,0c-.09-.09-.16-.2-.28-.23s-.21-.06-.12-.16a1.25,1.25,0,0,0,.1-.27c.2-.06.39-.13.59-.17l.32.09c0-.15,0-.31.07-.46l.28-.29c-.08-.11-.12-.25-.26-.3a.34.34,0,0,0-.26-.06c-.26-.15-.55-.26-.81-.42-.07-.05-.16-.09-.17-.19a3.69,3.69,0,0,0-.46-.88c-.15-.25-.29-.5-.42-.76a3.87,3.87,0,0,0-.35-.45c-.21-.19-.44-.37-.64-.57s0-.23,0-.35,0-.53,0-.8a1.54,1.54,0,0,1-.26-.49,5.74,5.74,0,0,0-.35-1,3.23,3.23,0,0,1-.25-.8c0-.23,0-.46,0-.69a3,3,0,0,1,0-.67.54.54,0,0,1,.22-.25,3,3,0,0,1,.65-.23c.16,0,.26-.17.39-.26a4,4,0,0,0,.58-.51,1.2,1.2,0,0,0,.22-.23v-.37l-.4-.24c.05-.08.14-.14.1-.24a.56.56,0,0,1,0-.36c.05-.11.16-.2.14-.33a2.74,2.74,0,0,1,.08-.5,1.83,1.83,0,0,1,.35-.44c.06-.09.18-.16.17-.28s0-.3,0-.45a.66.66,0,0,1,.17-.29,1.61,1.61,0,0,0,.14-.71,1.38,1.38,0,0,0,.12-.56.19.19,0,0,1,.1-.21c.09,0,.1-.12.1-.21a.59.59,0,0,1,.1-.29,2.59,2.59,0,0,0,.29-.14,2.53,2.53,0,0,1,.34-.57c.07-.07.05-.18.05-.27a2,2,0,0,1-.13-.53c0-.13,0-.27-.06-.39s-.09-.2,0-.3a6,6,0,0,1,.22-.72c.11-.12.27-.21.33-.37a.4.4,0,0,0,.08-.26,5.3,5.3,0,0,0,0-.69c-.1-.09-.21-.16-.3-.25-.18-.46-.37-.93-.56-1.39-.34-.08-.68-.16-1-.22a3.36,3.36,0,0,0,.08-.77c0-.23,0-.46,0-.69a1.43,1.43,0,0,0-.14-.5c-.1-.11-.07-.26-.09-.39l0-.35a3.07,3.07,0,0,1-.36-.2,3.55,3.55,0,0,1-.23-.43l.08-.42a.49.49,0,0,0-.29-.06c-.09,0-.12-.11-.18-.16s-.09-.2-.16-.27a1.53,1.53,0,0,0-.51-.13,2.2,2.2,0,0,0-.57,0,1.78,1.78,0,0,0-.42-.35,1.34,1.34,0,0,0-.38-.14l-.55-.07a2.54,2.54,0,0,0-.32.55c-.06.1-.09.21-.15.3a1.35,1.35,0,0,0-.33.19l-.09.37a1.23,1.23,0,0,0-.53.21c-.08.06-.16.14-.27.13a1.61,1.61,0,0,1-.38,0c-.06.07-.11.15-.21.16s-.23.16-.34.24a1.57,1.57,0,0,1-.42.35,2.17,2.17,0,0,0-.36,0c-.08,0-.16.11-.25.06s-.17-.08-.26-.06-.17.12-.26,0,0-.2-.1-.15l-.19.07"/><path id="polyline3352" class="cls-6" d="M674.6,223.3a4.78,4.78,0,0,1-.22.67c0,.24-.08.48-.12.72a5.74,5.74,0,0,0-.31.91,4.17,4.17,0,0,0,.26.46l.3.32c0,.4,0,.8.06,1.2l-.09.45a1.83,1.83,0,0,0,.53.25,2.54,2.54,0,0,0,.55.1.52.52,0,0,1,0,.3c0,.07.12.12.18.18a5.74,5.74,0,0,1,.45.41c.11.3.23.59.34.89.15.07.32.12.46.2a.32.32,0,0,0,.23.13,1,1,0,0,1,.42.13l.41.23c.08,0,.22,0,.25-.16s0-.22.14-.18.17.06.24,0,.2-.14.32-.12.51,0,.76,0c.09,0,.22,0,.27-.1s.06-.23.13-.33a.24.24,0,0,1,.17-.18c.09,0,.19,0,.28,0s.21.13.25.25.3.44.44.66a1.13,1.13,0,0,0,.13.32c.09.07.16.17.29.17a.29.29,0,0,0,.24,0c.11,0,.16-.13.23-.2a.43.43,0,0,1,.2-.22.21.21,0,0,1,.22,0,.9.9,0,0,1,0,.4,2.12,2.12,0,0,1,.14.55,1.77,1.77,0,0,0,.19.33.92.92,0,0,0,.43,0,5.51,5.51,0,0,1,.57-.06.2.2,0,0,0,.13-.2c0-.1.12-.09.19-.14a1.93,1.93,0,0,0,.52-.38c.13-.13.34-.23.35-.43a1.31,1.31,0,0,1,.3-.6,1.14,1.14,0,0,1,.32-.3,2.2,2.2,0,0,1,.74-.31.48.48,0,0,1,.31.07c.27-.07.56-.09.83-.18a1.15,1.15,0,0,0,.42-.23,7.29,7.29,0,0,0,.72-.65.75.75,0,0,1,.26-.27l.35-.23c0-.07-.15-.14-.1-.21s.18-.08.28-.12a2.13,2.13,0,0,0,.49-.21.74.74,0,0,1,.39-.05,4.19,4.19,0,0,1,.33.26,1.3,1.3,0,0,1,.31.31c.05.07.16,0,.23.08s.2,0,.23-.14a1,1,0,0,0,.14-.6.52.52,0,0,1,.28-.13.24.24,0,0,1,.23,0c.12,0,.1.17.15.26a.72.72,0,0,0,.11.32,1.59,1.59,0,0,0,.43-.06c.1.05.18.16.31.14a.19.19,0,0,0,.22-.08,1.57,1.57,0,0,0,.32-.31c.09-.13.11-.29.22-.41a.2.2,0,0,1,.24-.11c.09.12.13.27.27.35a.29.29,0,0,0,.23.08c.1.05.12-.07.15-.14s.16-.11.22-.09.07.21.18.27.14.06.22.05a1.9,1.9,0,0,1,.46.1c.06,0,.16.08.19.15a1.66,1.66,0,0,1,.11.38c.18.12.4.11.58.22a1.36,1.36,0,0,1,.35.24.64.64,0,0,1,.07.47.58.58,0,0,0,0,.32c0,.1,0,.21.11.26a1.69,1.69,0,0,0,.31.21.44.44,0,0,0,.3,0,.78.78,0,0,0,.35-.18,2.14,2.14,0,0,1,.44-.08l.22.09"/></g><g id="layer8"><g id="Major_Political_Boundary_State_" data-name="Major Political Boundary State "><polyline id="polyline3098" class="cls-7" points="678.68 370.04 678.34 369.98 677.91 369.81 677.73 369.79 677.65 369.7 677.61 369.55 677.65 369.44 677.64 369.36 677.55 369.34 677.51 369.23 677.4 369.12 677.32 369.08 677.1 368.82 676.79 368.73 676.59 368.6 676.38 368.47 676.35 368.26 676.17 368.24 675.8 368.38 675.48 368.64 675.03 368.81 674.99 368.67 675.09 368.33 675.01 368.25 674.88 368.19 674.74 368.31 674.74 368.42 674.78 368.58 674.28 368.86 674.1 368.81 673.91 368.81 673.72 369.06 673.72 369.23 673.87 369.53 673.75 369.67 673.25 369.65 673.08 369.67 673.02 369.84 672.92 369.84 672.63 369.95 672.59 370.18 672.48 370.37 671.99 370.68 671.74 370.9 671.45 370.85 671.32 370.85 671.18 370.96 671.05 371.18 671.01 371.35 670.97 371.69 670.97 371.99 670.76 372.19 670.6 372.16 670.48 372.19 670.35 372.36 670.1 372.72 669.96 372.77 669.87 372.77 669.77 372.89 669.63 373.25 669.5 373.19 669.44 372.94 669.34 372.86 669.15 372.89 668.96 372.77 668.72 372.97 668.63 373.11 668.49 373.22 668.38 373.64 668.16 373.61 667.94 373.94 667.78 374.09 667.54 374.3 667.65 374.46 667.63 374.65 667.47 374.8 667.31 374.78 666.96 374.82 666.95 374.97 666.99 375.15 666.93 375.25 666.84 375.26 666.6 375.19 666.34 375.1 666.05 375.1 665.94 375.17 665.75 375.45 665.6 375.66 665.49 375.69 665.39 375.69 665.18 375.66 664.85 375.56 664.63 375.6 664.38 375.75 664.29 375.75 664.11 375.54 664.01 375.34 664.01 375.06 664.09 374.82 664.2 374.56 664.22 374.18 664.01 373.96 664.08 373.81 664 373.74 663.75 373.7 663.46 373.7 663.39 373.55 663.22 373.2 663.07 373.08 662.93 373.16 662.56 373.03 662.48 373.2 662.38 373.2 662.23 373.2 661.83 373.4 661.47 373.5 661.15 373.46 661.14 373.25 661 373.03 660.84 373.07 660.7 373.14 660.09 373.29 659.57 373.46 658.96 373.83 658.24 373.92 657.99 374.13 657.91 374.11 657.83 373.94 657.65 373.64 657.39 373.38 657.11 373.2 656.82 373.2 656.67 373.01 656.13 372.99 655.79 372.92 655.41 372.75 655.03 372.77 654.87 372.77 654.8 372.68 654.25 371.93 653.54 372.26 653.16 372.6 653.05 372.68 652.29 372.04 652.29 371.8 652.15 371.35 651.56 370.81 651.96 370.09 652.2 368.88 652.3 368.5 652.42 368.02 652.59 367.78 652.63 367.38 652.93 366.94 652.66 365.82 653.28 364.83 653.65 364.55 654.07 363.68 654.52 362.99 654.61 362.99 655.39 361.67 654.81 359.38 654.59 359.52 654.46 359.41 654.38 359.41 654.32 359.52 654.21 359.52 653.96 359.41 653.96 359.24 653.98 359.13 653.69 359.19 653.07 358.77 653.05 358.43 652.58 358.1 652.29 358.07 651.89 358.1 651.71 357.96 651.64 357.98 651.54 358.21 651 358.32 650.57 358.51 650.28 358.38 650.09 358.6 649.91 358.6 649.72 358.26 649.51 358.04 649.43 358.15 649.33 358.1 649.33 357.96 649.26 357.84 649.49 357.62 650.24 356.98 650.4 356.78 650.71 356.75 650.82 356.28 651.27 355.55 651.56 355.3 651.91 354.63 651.27 354.24 650.78 354.24 650.45 353.93 650.42 353.68 649.93 353.04 649.68 352.59 650.18 352.03 650.51 351.81 650.86 350.8 650.81 350.21 650.89 349.9 651.12 349.68 651.14 349.4 651.12 349.26 651.16 348.9 650.91 348.37 650.95 347.81 650.87 347.44 651.3 346.27 650.83 346.16 650.58 345.96 650.48 345.71 650.43 345.46 650.6 344.48 650.35 344.12 650.29 343.98 650.31 343.67 650.21 343.33 650.37 343 650.39 342.61 649.88 342.22 649.81 342.02 649.63 341.77 649.69 341.55 649.83 341.32 650 340.07 650.23 338.5 650.52 334.67 649.77 334.65 649.38 334.56 649.09 334.42 648.82 334.23 648.61 334.09 648.45 334.09 648.26 334.17 648.1 334.34 647.87 334.42 646.65 334.56 646.32 334.28 645.57 333.81 645.42 333.92 645.26 334.03 645.03 334.03 644.45 333.95 644.33 334.14 644 334.17 643.62 334.2 643.27 334.37 642.67 334.7 642.15 334.79 641.2 335.06 641.04 334.76 641.12 334.59 640.95 334.59 640.29 333.61 640.23 333.36 639.86 332.8 639.82 332.24 639.77 331.91 639.65 331.8 639.26 331.85 639.07 331.65 638.66 331.46 638.45 331.09 638.14 330.78 638.08 330.61 638.2 330.28 637.93 330.19 637.48 329.77 637.37 329.52 636.79 329.49 636.63 329.3 636.48 328.82 636.67 328.15 636.88 327.87 636.9 327.76 636.67 327.68 636.46 327.48 636.34 327.2 636.28 326.78 636.05 326.45 636.42 325.64 636.46 325 636.52 324.83 636.75 324.44 636.79 324.21 636.71 323.96 636.94 323.6 636.98 323.4 636.92 323.21 636.98 322.87 636.94 322.51 637.06 322.06 636.94 321.42 636.59 321.22 636.34 320.72 636.05 320.36 635.86 319.85 635.55 319.63 635.53 318.88 635.59 318.65 635.55 318.35 634.58 317.68 634.45 317.37 633.96 317.37 633.54 316.95 633.54 316.56 632.96 316.36 632.88 316.19 632.18 315.91 631.17 316.07 630.72 316.24 630.57 316.21 630.49 315.99 629.89 315.48 629.52 314.76 629.23 314.42 629.1 314.03 628.9 313.86 628.28 313.72 628.13 313.39 627.97 313.28 627.37 313.03 627.95 311.91 627.88 311.82 628.09 311.66 627.86 311.46 627.74 310.96 627.49 310.48 627.32 309.67 627.12 309.39 626.97 309 626.99 308.56 627.14 308.33 627.1 308.19 627.18 307.8 626.39 307.21 626.33 306.74 626.25 306.49 626.27 306.26 626.21 306.07 626.23 305.85 626.21 305.31 624.8 304.73 624.61 304.73 624.43 304.62 623.91 304.5 623.85 304.39 623.54 303.58 623.54 303.3 623.76 302.88 623.51 302.55 623.45 302.02 623.66 301.43 623.83 301.12 623.97 300.79 623.91 300.31 623.8 300.14 623.72 300.06 623.66 299.39 623.62 299.19 623.4 298.59 623.3 298.4 623.32 297.95 623.44 297.59 623.22 296.92 623.17 296.67 622.92 296.72 622.2 296.89 621.75 296.81 621.33 296.92 621.14 297.11 620.79 297.11 620.27 297.5 619.82 297.45 619.41 297.59 618.72 297.2 618.45 296.94 618.33 296.58 618.12 296.5 617.36 296.39 617.15 296.47 617 296.25 616.98 295.91 616.94 295.69 616.78 295.52 616.59 295.27 616.05 295.1 615.83 295.16 615.35 295.27 615.16 295.24 614.67 294.82 614.64 294.54 614.09 293.98 613.82 293.56 613.49 293.03 612.91 293.23 612.66 292.87 612.43 292.48 612.41 291.78 611.87 291.41 611.66 291.58 610.63 291.36 610.22 291.44 610.01 291.41 609.53 291.33 609.08 291.33 608.6 291.16 608.39 291.25 608.13 291.08 607.96 291.13 607.63 291.05 607.3 290.74 607.19 290.6 606.8 290.52 606.63 290.38 606.57 290.13 606.57 289.74 606.37 289.4 606.35 289.07 606.08 288.48 605.81 288.28 605.76 288.2 605.76 288.06 605.66 287.87 605.62 287.61 605.02 287.42 604.61 287.42 604.6 286.85 604.37 286.43 604.06 286.12 603.56 286.32 603 286.65 602.46 286.71 602.11 286.71 601.64 286.88 601.16 286.96 600.7 286.49 600.64 286.29 600.02 285.7 599.81 285.56 599.52 285.09 599.07 284.86 599.05 284.53 598.9 284.33 598.53 284.14 598.03 283.63 597.64 283.44 597.58 283.24 597.76 282.71 597.76 282.43 598.01 281.96 598.01 281.76 597.95 281.57 598.14 281.34 598.26 281.12 598.22 280.95 598.22 280.76 598.24 280.62 598.1 280.48 597.83 280.45 597.58 279.97 597.06 279.53 596.98 279.05 596.98 278.83 596.79 278.61 596.44 278.38 596.19 278.33 595.76 278.05 595.24 277.94 594.89 277.94 594.58 277.8 594.54 277.65 594.21 277.35 594.04 277.21 593.96 276.96 593.96 276.65 594.18 276.34 594.1 276.23 594.08 276.06 594.18 275.92 594.43 275.5 594.39 274.58 594.25 274.13 594.02 273.94 594.18 273.72 594.29 273.27 594.51 273.1 594.56 272.93 594.5 272.71 594.47 272.24 594.31 272.1 594.27 271.87 594.29 271.65 594.43 271.26 594.37 270.92 593.73 270.75 593.5 270.92 593.13 270.87 592.86 270.92 592.47 271.26 592.22 271.42 591.87 271.34 591.7 271.68 591.31 272.04 590.66 272.15 590.36 272.26 590.15 272.51 589.96 272.57 589.77 272.63 589.73 273.02 589.57 272.99 589.38 273.16 589.26 273.27 588.84 273.24 588.53 273.49 588.35 273.6 587.91 273.8 587.83 273.69 587.87 273.35 587.75 273.27 587.38 273.31 586.72 273.19 586.47 273 585.85 273 585.75 272.83 585.11 272.44 584.63 272.47 584.24 272.3 584.03 272.38 583.78 272.38 583.53 272.25 583.18 271.63 582.23 271.77 581.88 271.63 581.61 271.91 580.41 272.02 580.28 271.77 580.08 271.69 579.68 271.46 579.58 271.1 579.21 270.85 578.92 270.51 578.73 270.15 578.57 269.7 578.44 269.26 577.24 269.06 576.64 269.26 576.06 269.23 575.81 269.28 575.3 269.09 575.11 268.89 573.89 268.86 573.35 268.67 573.06 268.14 572.17 267.8 571.84 267.64 571.67 267.44 571.55 267.25 571.51 266.88 570.8 266.8 570.39 267.08 570.14 267.22 568.34 267.11 568.05 267 567.22 266.91 566.85 267.08 566.64 267.05 566.42 266.74 566.38 266.55 566.44 266.41 566.6 266.38 566.56 265.91 566.56 265.71 566.38 265.43 566.29 265.07 566.54 264.76 566.48 264.62 565.84 264.56 565.13 264.56 564.99 264.68 564.33 264.68 563.87 264.87 563.06 264.82 562.79 264.62 562.59 264.4 561.9 264.2 561.43 264.03 560.99 263.75 560.7 263.42 560.5 263.17 560.33 262.69 560.25 262.44 560.08 262.27 559.96 261.97 559.96 261.8 559.69 261.85 559.42 261.91 559.09 261.77 558.76 261.94 558.45 261.85 558.24 262.08 557.95 262.16 557.6 262.13 557.23 262.22 556.77 262.08 556.56 261.8 556.56 261.69 556.42 261.49 555.86 261.74 555.24 261.63 554.37 262.08 554.33 262.3 553.87 262.64 553.4 262.55 553.27 262.38 552.77 262.38 552.67 262.13 552.3 261.77 552.28 261.32 551.86 261.3 551.51 260.57 550.44 260.35 550.17 260.18 549.58 260.07 549.39 259.96"/></g></g><path class="cls-8" d="M727.52,219.23a.63.63,0,0,1-.33-.64V206.22a.46.46,0,0,1,.46-.42h2.9a.45.45,0,0,1,.46.51v4l.16-.15c.84-.84,1.68-1.67,2.51-2.51l.08-.08c.11-.1.23-.22.4-.14s.18.23.18.39v2.84l.18-.17c1-1,1.92-1.91,2.87-2.87.12-.12.24-.27.44-.2s.19.28.19.46v2.82a1.39,1.39,0,0,0,.17-.16l2.93-2.92c.12-.12.23-.28.43-.19s.19.28.19.45q0,5.34,0,10.68a.64.64,0,0,1-.33.64Zm4.12-3v-2.41h-2.72v2.41Zm5.65-2.41v2.41H740v-2.41Zm-4.18,0v2.41h2.71v-2.41Z"/><path class="cls-8" d="M728.18,204.19a.93.93,0,0,1,.29-.69.31.31,0,0,0,.09-.2,1.36,1.36,0,0,1,1-1.42.2.2,0,0,0,.17-.21,1.53,1.53,0,0,1,1.51-1.27,1.51,1.51,0,0,1,.19,3,.26.26,0,0,0-.16.13,1.36,1.36,0,0,1-1.15,1,.34.34,0,0,0-.2.15.94.94,0,0,1-1,.39A.92.92,0,0,1,728.18,204.19Z"/><path class="cls-9" d="M691.26,193.71c8.73-3.23,18.18-.82,23,5.39,6.32,8.13,4.26,22.19-6.6,29.38"/><text class="cls-10" transform="translate(727.19 194.18)">Rgion Bastiaise</text><path class="cls-9" d="M548,334.82c-9.35,3.59-15.53,11.9-15.37,19.87.22,10.45,11.3,19.58,25.05,17.49"/><text class="cls-10" transform="translate(433.4 326.7)">Rgion Ajaccienne</text><path class="cls-11" d="M727.52,241a.6.6,0,0,1-.33-.63V228a.45.45,0,0,1,.46-.42h2.9a.44.44,0,0,1,.46.5v4l.16-.14,2.51-2.51.08-.08c.11-.11.23-.22.4-.15s.18.24.18.39v2.85l.18-.17,2.87-2.87c.12-.12.24-.28.44-.2s.19.28.19.46v2.82l.17-.16,2.93-2.92c.12-.12.23-.28.43-.2s.19.28.19.46q0,5.34,0,10.68a.62.62,0,0,1-.33.63Zm4.12-3v-2.41h-2.72V238Zm5.65-2.42V238H740v-2.42Zm-4.18,0V238h2.71v-2.42Z"/><path class="cls-11" d="M728.18,226a.92.92,0,0,1,.29-.68.33.33,0,0,0,.09-.2,1.36,1.36,0,0,1,1-1.42.2.2,0,0,0,.17-.21,1.53,1.53,0,0,1,1.51-1.27,1.51,1.51,0,0,1,.19,3,.23.23,0,0,0-.16.13,1.37,1.37,0,0,1-1.15,1,.3.3,0,0,0-.2.15.94.94,0,0,1-1,.38A.91.91,0,0,1,728.18,226Z"/><path class="cls-12" d="M727.52,262.78a.61.61,0,0,1-.33-.64V249.78a.45.45,0,0,1,.46-.42c1,0,1.93,0,2.9,0a.44.44,0,0,1,.46.5v4a1.2,1.2,0,0,0,.16-.15c.84-.83,1.68-1.67,2.51-2.51l.08-.07c.11-.11.23-.22.4-.15s.18.24.18.39v2.85l.18-.17,2.87-2.88c.12-.11.24-.27.44-.19s.19.28.19.45v2.82l.17-.15,2.93-2.93c.12-.12.23-.27.43-.19s.19.28.19.46q0,5.34,0,10.67a.62.62,0,0,1-.33.64Zm4.12-3v-2.42h-2.72v2.42Zm5.65-2.42v2.42H740v-2.42Zm-4.18,0v2.42h2.71v-2.42Z"/><path class="cls-12" d="M728.18,247.74a.94.94,0,0,1,.29-.69.31.31,0,0,0,.09-.19,1.37,1.37,0,0,1,1-1.43.19.19,0,0,0,.17-.2A1.53,1.53,0,0,1,731.2,244a1.52,1.52,0,0,1,.19,3,.25.25,0,0,0-.16.12,1.35,1.35,0,0,1-1.15,1,.32.32,0,0,0-.2.16.94.94,0,0,1-1,.38A.91.91,0,0,1,728.18,247.74Z"/><path class="cls-13" d="M727.52,284.56a.64.64,0,0,1-.33-.64c0-4.05,0-8.11,0-12.17a1.41,1.41,0,0,1,0-.2.45.45,0,0,1,.45-.42h2.9a.45.45,0,0,1,.46.51c0,1.26,0,2.52,0,3.78v.25l.16-.15,2.51-2.51.07-.08c.12-.1.23-.22.41-.14s.17.23.17.39V276a1.56,1.56,0,0,0,.18-.17L737.4,273c.12-.12.23-.27.43-.19s.19.28.19.45v2.82a1.39,1.39,0,0,0,.17-.16l2.93-2.92c.12-.12.23-.28.44-.19s.18.28.18.45q0,5.34,0,10.68a.63.63,0,0,1-.33.64Zm4.13-3v-2.41h-2.72v2.41Zm5.64-2.41v2.41H740v-2.41Zm-4.17,0v2.41h2.71v-2.41Z"/><path class="cls-13" d="M728.18,269.52a.94.94,0,0,1,.3-.69.36.36,0,0,0,.08-.2,1.37,1.37,0,0,1,1-1.42.21.21,0,0,0,.18-.21,1.51,1.51,0,1,1,1.7,1.75.25.25,0,0,0-.16.12,1.36,1.36,0,0,1-1.16,1,.37.37,0,0,0-.2.15.93.93,0,0,1-1,.39A.92.92,0,0,1,728.18,269.52Z"/><path class="cls-8" d="M434.6,349.5a.62.62,0,0,1-.33-.63q0-6.09,0-12.17a1.33,1.33,0,0,1,0-.2.45.45,0,0,1,.45-.42h2.91a.45.45,0,0,1,.46.5v4a1.2,1.2,0,0,0,.16-.15c.84-.83,1.67-1.67,2.51-2.51l.08-.07c.11-.11.22-.22.4-.15s.17.24.17.39c0,.86,0,1.72,0,2.58V341l.18-.17c.95-1,1.91-1.92,2.87-2.87.12-.12.23-.28.44-.2s.18.28.19.45V341l.17-.16,2.92-2.93c.12-.11.24-.27.44-.19s.19.28.19.46v10.68a.62.62,0,0,1-.33.63Zm4.13-3v-2.42H436v2.42Zm5.64-2.42v2.42h2.72v-2.42Zm-4.17,0v2.42h2.71v-2.42Z"/><path class="cls-8" d="M435.26,334.46a1,1,0,0,1,.3-.69.24.24,0,0,0,.08-.19,1.36,1.36,0,0,1,1-1.42.22.22,0,0,0,.18-.21,1.51,1.51,0,1,1,1.7,1.74.23.23,0,0,0-.16.13,1.36,1.36,0,0,1-1.16,1,.43.43,0,0,0-.2.16.93.93,0,0,1-1,.38A.92.92,0,0,1,435.26,334.46Z"/><path class="cls-11" d="M434.6,371.28a.63.63,0,0,1-.33-.64q0-6.08,0-12.17a1.33,1.33,0,0,1,0-.2.46.46,0,0,1,.45-.42h2.91a.46.46,0,0,1,.46.51v4l.16-.15,2.51-2.51.08-.08c.11-.1.22-.22.4-.14s.17.24.17.39c0,.86,0,1.71,0,2.57v.27l.18-.17,2.87-2.87c.12-.12.23-.27.44-.19s.18.28.19.45v2.82l.17-.16,2.92-2.92c.12-.12.24-.27.44-.19s.19.28.19.45v10.68a.62.62,0,0,1-.33.64Zm4.13-3v-2.42H436v2.42Zm5.64-2.42v2.41h2.72v-2.41Zm-4.17,0v2.41h2.71v-2.41Z"/><path class="cls-11" d="M435.26,356.24a1,1,0,0,1,.3-.69.26.26,0,0,0,.08-.2,1.37,1.37,0,0,1,1-1.42c.12,0,.16-.08.18-.21a1.51,1.51,0,1,1,1.7,1.75.25.25,0,0,0-.16.12,1.36,1.36,0,0,1-1.16,1,.41.41,0,0,0-.2.15.92.92,0,0,1-1.7-.49Z"/><path class="cls-12" d="M434.6,393.05a.62.62,0,0,1-.33-.63q0-6.09,0-12.17a1.34,1.34,0,0,1,0-.2.46.46,0,0,1,.45-.42h2.91a.45.45,0,0,1,.46.5v4l.16-.15,2.51-2.51.08-.08c.11-.1.22-.22.4-.14s.17.23.17.39c0,.85,0,1.71,0,2.57v.27l.18-.17c.95-1,1.91-1.91,2.87-2.87.12-.12.23-.28.44-.2s.18.28.19.46v2.82l.17-.16,2.92-2.92c.12-.12.24-.28.44-.2s.19.28.19.46v10.68a.62.62,0,0,1-.33.63Zm4.13-3v-2.41H436v2.41Zm5.64-2.42v2.42h2.72v-2.42Zm-4.17,0v2.41h2.71v-2.41Z"/><path class="cls-12" d="M435.26,378a.93.93,0,0,1,.3-.68.27.27,0,0,0,.08-.2,1.37,1.37,0,0,1,1-1.42.22.22,0,0,0,.18-.21,1.52,1.52,0,0,1,1.51-1.27,1.51,1.51,0,0,1,.19,3,.23.23,0,0,0-.16.13,1.37,1.37,0,0,1-1.16,1,.36.36,0,0,0-.2.15.93.93,0,0,1-1.7-.5Z"/><path class="cls-13" d="M434.61,414.83a.59.59,0,0,1-.33-.63V401.83a.45.45,0,0,1,.46-.42c1,0,1.93,0,2.9,0a.44.44,0,0,1,.46.5v4a1.2,1.2,0,0,0,.16-.15l2.51-2.5.08-.08c.11-.11.22-.22.4-.15s.18.24.18.39v2.85l.18-.17c1-1,1.91-1.92,2.87-2.87.12-.12.24-.28.44-.2s.19.28.19.46v2.82l.17-.16,2.93-2.93c.11-.11.23-.27.43-.19s.19.28.19.46V414.2a.6.6,0,0,1-.33.63Zm4.12-3v-2.41H436v2.41Zm5.65-2.42v2.42h2.72v-2.42Zm-4.18,0v2.42h2.71v-2.42Z"/><path class="cls-13" d="M435.26,399.79a1,1,0,0,1,.3-.69.24.24,0,0,0,.08-.19,1.37,1.37,0,0,1,1-1.42.2.2,0,0,0,.17-.21,1.51,1.51,0,1,1,1.7,1.74.23.23,0,0,0-.16.13,1.35,1.35,0,0,1-1.16,1,.37.37,0,0,0-.19.16,1,1,0,0,1-1.05.38A.93.93,0,0,1,435.26,399.79Z"/><path class="cls-14" d="M625.64,310.17a.6.6,0,0,1-.33-.63V297.37a1.27,1.27,0,0,1,0-.2.44.44,0,0,1,.45-.42h2.9a.44.44,0,0,1,.46.5v4l.17-.15,2.5-2.5.08-.08c.12-.11.23-.22.4-.15s.18.24.18.39v2.85l.18-.17,2.88-2.87c.11-.12.23-.28.43-.2s.19.28.19.46v2.82l.17-.16,2.93-2.92c.12-.12.23-.28.43-.2s.19.28.19.46q0,5.34,0,10.68a.62.62,0,0,1-.33.63Zm4.12-3v-2.41h-2.71v2.41Zm5.65-2.42v2.42h2.72v-2.42Zm-4.18,0v2.42h2.71v-2.42Z"/><path class="cls-14" d="M626.3,295.13a.93.93,0,0,1,.3-.69.33.33,0,0,0,.08-.19,1.36,1.36,0,0,1,1-1.42.22.22,0,0,0,.18-.21,1.51,1.51,0,1,1,1.7,1.74c-.06,0-.15.07-.16.13a1.36,1.36,0,0,1-1.16,1,.35.35,0,0,0-.2.16.94.94,0,0,1-1,.38A.91.91,0,0,1,626.3,295.13Z"/><text class="cls-15" transform="translate(456.99 349.13)">Urbaine</text><text class="cls-15" transform="translate(456.99 371.31)">Priurbaine</text><text class="cls-15" transform="translate(456.99 392.69)">Trafic</text><text class="cls-15" transform="translate(456.99 414.65)">Industrielle</text><text class="cls-15" transform="translate(748.05 218.48)">Urbaine</text><text class="cls-15" transform="translate(748.05 240.65)">Priurbaine</text><text class="cls-15" transform="translate(748.05 262.04)">Trafic</text><text class="cls-15" transform="translate(748.05 284)">Industrielle</text><text class="cls-16" transform="translate(616.09 320.7)">Rurale</text></svg>