<?xml version="1.0" encoding="utf-8"?>
<!-- Generator: Adobe Illustrator 24.0.0, SVG Export Plug-In . SVG Version: 6.00 Build 0)  -->
<svg version="1.1" id="Calque_1" xmlns="http://www.w3.org/2000/svg" xmlns:xlink="http://www.w3.org/1999/xlink" x="0px" y="0px"
	 viewBox="0 0 841.9 70.7" style="enable-background:new 0 0 841.9 70.7;" xml:space="preserve">
<style type="text/css">
	.st0{fill:#5D1B00;}
</style>
<g>
	<g>
		<path class="st0" d="M743.6,28.4c0.2,0,0.5-0.1,0.9-0.2c0.3,0,0.8-0.1,1.2-0.1c0.3,0,0.6,0,0.9,0.1c0.2,0.1,0.4,0.2,0.6,0.4
			c0,0,0.1-0.1,0.2-0.1s0.2-0.1,0.4-0.2c0.1,0,0.3-0.1,0.5-0.2c0.2,0,0.4-0.1,0.6-0.1c0.4,0,0.7,0,1,0.2c0.3,0.1,0.5,0.3,0.6,0.5
			c0.1,0.2,0.3,0.5,0.3,0.8c0,0.3,0.1,0.6,0.1,0.9v2.9h-0.9v-2.7c0-0.3,0-0.6,0-0.8c0-0.2-0.1-0.4-0.2-0.6c-0.1-0.1-0.2-0.3-0.3-0.3
			c-0.1-0.1-0.3-0.1-0.6-0.1c-0.3,0-0.6,0-0.8,0.1c-0.2,0.1-0.3,0.2-0.4,0.2c0,0.2,0.1,0.4,0.1,0.6c0,0.2,0,0.4,0,0.6v2.9h-0.9v-2.7
			c0-0.3,0-0.6,0-0.8c0-0.2-0.1-0.4-0.2-0.6c-0.1-0.1-0.2-0.3-0.3-0.3c-0.1-0.1-0.3-0.1-0.6-0.1c-0.1,0-0.2,0-0.3,0s-0.2,0-0.3,0
			c-0.1,0-0.2,0-0.3,0s-0.1,0-0.2,0v4.4h-0.9V28.4z"/>
		<path class="st0" d="M751.9,30.9c0-0.5,0.1-0.9,0.2-1.2c0.1-0.3,0.3-0.6,0.5-0.9c0.2-0.2,0.5-0.4,0.8-0.5c0.3-0.1,0.6-0.2,0.9-0.2
			c0.7,0,1.2,0.2,1.6,0.6c0.4,0.4,0.6,1.1,0.6,2c0,0,0,0.1,0,0.2c0,0,0,0.1,0,0.2H753c0,0.6,0.2,0.9,0.5,1.2
			c0.3,0.3,0.7,0.4,1.3,0.4c0.3,0,0.6,0,0.8-0.1c0.2,0,0.4-0.1,0.5-0.2l0.1,0.8c-0.1,0-0.3,0.1-0.6,0.2c-0.3,0.1-0.6,0.1-1,0.1
			c-0.5,0-0.9-0.1-1.2-0.2c-0.3-0.1-0.6-0.3-0.8-0.6c-0.2-0.3-0.4-0.5-0.5-0.9C752,31.6,751.9,31.3,751.9,30.9z M755.5,30.4
			c0-0.4-0.1-0.8-0.3-1c-0.2-0.3-0.5-0.4-0.9-0.4c-0.2,0-0.4,0-0.6,0.1c-0.2,0.1-0.3,0.2-0.4,0.3c-0.1,0.1-0.2,0.3-0.3,0.5
			c-0.1,0.2-0.1,0.3-0.1,0.5L755.5,30.4L755.5,30.4z M755.5,26.3l-1.4,1.4l-0.5-0.4l1.3-1.5L755.5,26.3z"/>
		<path class="st0" d="M758.7,28.3h2V29h-2v2.4c0,0.3,0,0.5,0,0.6c0,0.2,0.1,0.3,0.2,0.4s0.2,0.2,0.3,0.2c0.1,0,0.3,0,0.4,0
			c0.3,0,0.5,0,0.7-0.1c0.2,0,0.3-0.1,0.3-0.1l0.2,0.8c-0.1,0-0.3,0.1-0.5,0.2c-0.2,0.1-0.5,0.1-0.8,0.1c-0.3,0-0.6,0-0.9-0.1
			c-0.2-0.1-0.4-0.2-0.6-0.4c-0.1-0.2-0.3-0.4-0.3-0.7c0-0.3-0.1-0.6-0.1-0.9v-4.6l0.9-0.2V28.3z"/>
		<path class="st0" d="M762.3,27.3c-0.2,0-0.3,0-0.4-0.2c-0.1-0.1-0.2-0.3-0.2-0.4s0-0.3,0.2-0.4c0.1-0.1,0.3-0.2,0.4-0.2
			s0.3,0,0.4,0.2c0.1,0.1,0.2,0.3,0.2,0.4s0,0.3-0.2,0.4C762.6,27.2,762.5,27.3,762.3,27.3z M762.8,33.5h-0.9v-5.2h0.9V33.5z"/>
		<path class="st0" d="M764.1,30.9c0-0.5,0.1-0.9,0.2-1.2c0.1-0.3,0.3-0.6,0.5-0.9c0.2-0.2,0.5-0.4,0.8-0.5s0.6-0.2,0.9-0.2
			c0.7,0,1.2,0.2,1.6,0.6c0.4,0.4,0.6,1.1,0.6,2c0,0,0,0.1,0,0.2c0,0,0,0.1,0,0.2h-3.6c0,0.6,0.2,0.9,0.5,1.2
			c0.3,0.3,0.7,0.4,1.3,0.4c0.3,0,0.6,0,0.8-0.1c0.2,0,0.4-0.1,0.5-0.2l0.1,0.8c-0.1,0-0.3,0.1-0.6,0.2c-0.3,0.1-0.6,0.1-1,0.1
			c-0.5,0-0.9-0.1-1.2-0.2c-0.3-0.1-0.6-0.3-0.8-0.6c-0.2-0.3-0.4-0.5-0.5-0.9C764.1,31.6,764.1,31.3,764.1,30.9z M767.7,30.4
			c0-0.4-0.1-0.8-0.3-1s-0.5-0.4-0.9-0.4c-0.2,0-0.4,0-0.6,0.1c-0.2,0.1-0.3,0.2-0.4,0.3c-0.1,0.1-0.2,0.3-0.3,0.5
			c-0.1,0.2-0.1,0.3-0.1,0.5L767.7,30.4L767.7,30.4z"/>
		<path class="st0" d="M771.9,28.1c0.1,0,0.2,0,0.3,0s0.2,0,0.3,0c0.1,0,0.2,0,0.3,0s0.1,0,0.2,0l-0.2,0.8c-0.1,0-0.2,0-0.4-0.1
			c-0.2,0-0.4,0-0.6,0c-0.2,0-0.3,0-0.5,0s-0.3,0-0.3,0.1v4.4h-0.9v-5c0.2-0.1,0.5-0.2,0.8-0.2C771.2,28.2,771.5,28.1,771.9,28.1z"
			/>
		<path class="st0" d="M775.1,32.8c0.4,0,0.6,0,0.9-0.2c0.2-0.1,0.3-0.3,0.3-0.5c0-0.2-0.1-0.4-0.3-0.6c-0.2-0.1-0.5-0.3-0.9-0.5
			c-0.2-0.1-0.4-0.2-0.6-0.3c-0.2-0.1-0.3-0.2-0.5-0.3c-0.1-0.1-0.3-0.3-0.3-0.4s-0.1-0.3-0.1-0.6c0-0.5,0.2-0.8,0.5-1.1
			c0.3-0.3,0.8-0.4,1.4-0.4c0.1,0,0.3,0,0.4,0c0.1,0,0.3,0,0.4,0c0.1,0,0.3,0,0.3,0.1s0.2,0,0.2,0.1l-0.2,0.8
			c-0.1,0-0.3-0.1-0.5-0.2c-0.2,0-0.5-0.1-0.8-0.1c-0.3,0-0.5,0-0.7,0.2c-0.2,0.1-0.3,0.3-0.3,0.5c0,0.1,0,0.2,0.1,0.3
			c0,0.1,0.1,0.2,0.2,0.3c0.1,0.1,0.2,0.1,0.3,0.2c0.1,0,0.3,0.1,0.5,0.2c0.3,0.1,0.5,0.2,0.6,0.3c0.2,0.1,0.3,0.2,0.5,0.3
			c0.1,0.1,0.3,0.3,0.3,0.4c0.1,0.2,0.1,0.4,0.1,0.6c0,0.5-0.2,0.9-0.6,1.1c-0.3,0.3-0.9,0.4-1.5,0.4c-0.5,0-0.8,0-1.1-0.1
			c-0.3-0.1-0.4-0.1-0.5-0.2l0.2-0.8c0.1,0,0.3,0.1,0.5,0.2C774.4,32.8,774.7,32.8,775.1,32.8z"/>
		<path class="st0" d="M746.7,42.6c-0.2,0-0.4,0.1-0.7,0.2c-0.3,0-0.6,0.1-0.9,0.1s-0.6,0-0.9-0.1c-0.3-0.1-0.5-0.2-0.6-0.4
			c-0.2-0.2-0.3-0.4-0.4-0.6c-0.1-0.3-0.1-0.6-0.1-0.9c0-0.3,0-0.6,0.1-0.9c0.1-0.3,0.2-0.5,0.3-0.6c0.2-0.2,0.3-0.3,0.6-0.4
			c0.2-0.1,0.5-0.1,0.8-0.1c0.2,0,0.3,0,0.5,0.1c0.1,0,0.3,0.1,0.4,0.2V37l0.9-0.2L746.7,42.6L746.7,42.6z M744.1,40.7
			c0,0.4,0.1,0.7,0.3,0.9c0.2,0.2,0.5,0.3,0.8,0.3c0.1,0,0.3,0,0.4,0c0.1,0,0.2,0,0.3,0v-2.3c-0.1,0-0.2-0.1-0.3-0.2
			c-0.1,0-0.3-0.1-0.4-0.1c-0.3,0-0.6,0.1-0.7,0.3C744.1,40,744.1,40.3,744.1,40.7z"/>
		<path class="st0" d="M751.2,42.6c-0.2,0-0.4,0.1-0.7,0.1c-0.3,0-0.6,0.1-0.9,0.1c-0.3,0-0.6,0-0.8-0.1c-0.2-0.1-0.4-0.2-0.5-0.4
			c-0.1-0.2-0.2-0.3-0.3-0.6c0-0.2-0.1-0.5-0.1-0.7v-2.2h0.9v2.1c0,0.4,0,0.7,0.2,0.9c0.1,0.2,0.3,0.3,0.6,0.3c0.1,0,0.2,0,0.3,0
			c0.1,0,0.2,0,0.3,0v-3.2h0.9V42.6z"/>
		<path class="st0" d="M754.3,37.6c0.2,0,0.5-0.1,0.9-0.2c0.3,0,0.8-0.1,1.2-0.1c0.3,0,0.6,0,0.9,0.1c0.2,0.1,0.4,0.2,0.6,0.4
			c0,0,0.1-0.1,0.2-0.1c0.1,0,0.2-0.1,0.4-0.2c0.1,0,0.3-0.1,0.5-0.2c0.2,0,0.4-0.1,0.6-0.1c0.4,0,0.7,0,1,0.2s0.5,0.3,0.6,0.5
			c0.1,0.2,0.3,0.5,0.3,0.8c0,0.3,0.1,0.6,0.1,0.9v2.9h-0.9v-2.7c0-0.3,0-0.6,0-0.8c0-0.2-0.1-0.4-0.2-0.6c-0.1-0.1-0.2-0.3-0.3-0.3
			c-0.1-0.1-0.3-0.1-0.6-0.1c-0.3,0-0.6,0-0.8,0.1c-0.2,0.1-0.3,0.2-0.4,0.2c0,0.2,0.1,0.4,0.1,0.6c0,0.2,0,0.4,0,0.6v2.9h-0.9v-2.7
			c0-0.3,0-0.6,0-0.8c0-0.2-0.1-0.4-0.2-0.6c-0.1-0.1-0.2-0.3-0.3-0.3c-0.1-0.1-0.3-0.1-0.6-0.1c-0.1,0-0.2,0-0.3,0
			c-0.1,0-0.2,0-0.3,0c-0.1,0-0.2,0-0.3,0s-0.1,0-0.2,0v4.4h-0.9V37.6z"/>
		<path class="st0" d="M767.1,42.6c-0.2,0-0.5,0.1-0.9,0.2c-0.3,0-0.8,0.1-1.2,0.1c-0.4,0-0.7,0-1-0.2c-0.3-0.1-0.5-0.3-0.6-0.5
			c-0.1-0.2-0.3-0.5-0.3-0.8c-0.1-0.3-0.1-0.6-0.1-1v-2.9h0.9v2.7c0,0.6,0.1,1.1,0.3,1.4c0.2,0.3,0.6,0.4,1,0.4c0.1,0,0.2,0,0.3,0
			c0.1,0,0.2,0,0.3,0c0.1,0,0.2,0,0.3,0c0.1,0,0.1,0,0.2,0v-4.4h0.9L767.1,42.6L767.1,42.6z"/>
		<path class="st0" d="M770.3,42.8c-0.6,0-1-0.1-1.2-0.4c-0.3-0.2-0.3-0.6-0.3-1.1v-6.2l0.9-0.2v6.3c0,0.2,0,0.3,0,0.4
			c0,0.1,0.1,0.2,0.1,0.3c0,0,0.1,0.1,0.3,0.1c0.1,0,0.2,0,0.4,0.1L770.3,42.8z"/>
		<path class="st0" d="M772.4,37.5h2v0.8h-2v2.4c0,0.3,0,0.5,0,0.6c0,0.2,0.1,0.3,0.2,0.4s0.2,0.2,0.3,0.2c0.1,0,0.3,0,0.4,0
			c0.3,0,0.5,0,0.7-0.1c0.2,0,0.3-0.1,0.3-0.1l0.2,0.8c-0.1,0-0.3,0.1-0.5,0.2c-0.2,0.1-0.5,0.1-0.8,0.1c-0.3,0-0.6,0-0.9-0.1
			c-0.2-0.1-0.4-0.2-0.6-0.4c-0.1-0.2-0.3-0.4-0.3-0.7c0-0.3-0.1-0.6-0.1-0.9V36l0.9-0.2L772.4,37.5L772.4,37.5z"/>
		<path class="st0" d="M776,36.5c-0.2,0-0.3,0-0.4-0.2c-0.1-0.1-0.2-0.3-0.2-0.4c0-0.2,0-0.3,0.2-0.4c0.1-0.1,0.3-0.2,0.4-0.2
			s0.3,0,0.4,0.2c0.1,0.1,0.2,0.3,0.2,0.4c0,0.2,0,0.3-0.2,0.4C776.3,36.5,776.1,36.5,776,36.5z M776.4,42.7h-0.9v-5.2h0.9V42.7z"/>
		<path class="st0" d="M778.1,37.6c0.2,0,0.5-0.1,0.9-0.2c0.3,0,0.8-0.1,1.2-0.1c0.3,0,0.6,0,0.9,0.1c0.2,0.1,0.4,0.2,0.6,0.4
			c0,0,0.1-0.1,0.2-0.1c0.1,0,0.2-0.1,0.4-0.2c0.1,0,0.3-0.1,0.5-0.2c0.2,0,0.4-0.1,0.6-0.1c0.4,0,0.7,0,1,0.2s0.5,0.3,0.6,0.5
			s0.3,0.5,0.3,0.8c0,0.3,0.1,0.6,0.1,0.9v2.9h-0.9v-2.7c0-0.3,0-0.6,0-0.8c0-0.2-0.1-0.4-0.2-0.6c-0.1-0.1-0.2-0.3-0.3-0.3
			c-0.1-0.1-0.3-0.1-0.6-0.1c-0.3,0-0.6,0-0.8,0.1c-0.2,0.1-0.3,0.2-0.4,0.2c0,0.2,0.1,0.4,0.1,0.6c0,0.2,0,0.4,0,0.6v2.9h-0.9v-2.7
			c0-0.3,0-0.6,0-0.8c0-0.2-0.1-0.4-0.2-0.6c-0.1-0.1-0.2-0.3-0.3-0.3c-0.1-0.1-0.3-0.1-0.6-0.1c-0.1,0-0.2,0-0.3,0s-0.2,0-0.3,0
			c-0.1,0-0.2,0-0.3,0s-0.1,0-0.2,0v4.4h-0.9V37.6z"/>
		<path class="st0" d="M786.4,40.1c0-0.5,0.1-0.9,0.2-1.2c0.1-0.3,0.3-0.6,0.5-0.9s0.5-0.4,0.8-0.5c0.3-0.1,0.6-0.2,0.9-0.2
			c0.7,0,1.2,0.2,1.6,0.6c0.4,0.4,0.6,1.1,0.6,2c0,0,0,0.1,0,0.2c0,0,0,0.1,0,0.2h-3.6c0,0.6,0.2,0.9,0.5,1.2
			c0.3,0.3,0.7,0.4,1.3,0.4c0.3,0,0.6,0,0.8-0.1c0.2,0,0.4-0.1,0.5-0.2l0.1,0.8c-0.1,0-0.3,0.1-0.6,0.2c-0.3,0.1-0.6,0.1-1,0.1
			c-0.5,0-0.9-0.1-1.2-0.2c-0.3-0.1-0.6-0.3-0.8-0.6c-0.2-0.3-0.4-0.5-0.5-0.9C786.4,40.8,786.4,40.5,786.4,40.1z M790,39.6
			c0-0.4-0.1-0.8-0.3-1c-0.2-0.3-0.5-0.4-0.9-0.4c-0.2,0-0.4,0-0.6,0.1c-0.2,0.1-0.3,0.2-0.4,0.3c-0.1,0.1-0.2,0.3-0.3,0.5
			c-0.1,0.2-0.1,0.3-0.1,0.5L790,39.6L790,39.6z M790,35.5l-1.4,1.4l-0.5-0.4l1.3-1.5L790,35.5z"/>
		<path class="st0" d="M795.6,35.1l0.9-0.2v7.6c-0.2,0-0.5,0.1-0.8,0.2c-0.3,0-0.7,0.1-1.2,0.1c-0.4,0-0.8,0-1.1-0.2
			c-0.3-0.1-0.6-0.3-0.8-0.6c-0.2-0.2-0.4-0.5-0.5-0.9c-0.1-0.3-0.2-0.7-0.2-1.2c0-0.4,0-0.8,0.2-1.1c0.1-0.3,0.3-0.6,0.5-0.9
			c0.2-0.3,0.4-0.4,0.7-0.6s0.6-0.2,1-0.2c0.3,0,0.6,0,0.8,0.1c0.2,0.1,0.4,0.2,0.5,0.2L795.6,35.1L795.6,35.1z M795.6,38.6
			c-0.1-0.1-0.3-0.2-0.5-0.3c-0.2-0.1-0.4-0.1-0.7-0.1s-0.5,0-0.7,0.1c-0.2,0.1-0.3,0.2-0.5,0.4c-0.1,0.2-0.2,0.4-0.3,0.6
			c0,0.2-0.1,0.5-0.1,0.8c0,0.6,0.2,1.1,0.5,1.4c0.3,0.3,0.7,0.5,1.2,0.5c0.3,0,0.5,0,0.6,0c0.2,0,0.3,0,0.4-0.1L795.6,38.6
			L795.6,38.6z"/>
		<path class="st0" d="M798.6,36.5c-0.2,0-0.3,0-0.4-0.2c-0.1-0.1-0.2-0.3-0.2-0.4c0-0.2,0-0.3,0.2-0.4c0.1-0.1,0.3-0.2,0.4-0.2
			s0.3,0,0.4,0.2c0.1,0.1,0.2,0.3,0.2,0.4c0,0.2,0,0.3-0.2,0.4C799,36.5,798.8,36.5,798.6,36.5z M799.1,42.7h-0.9v-5.2h0.9V42.7z"/>
		<path class="st0" d="M802.4,37.3c0.4,0,0.7,0,0.9,0.1c0.3,0.1,0.5,0.2,0.6,0.4c0.2,0.2,0.3,0.4,0.3,0.6c0.1,0.3,0.1,0.5,0.1,0.8
			v3.3c-0.1,0-0.2,0-0.3,0c-0.1,0-0.3,0-0.5,0.1c-0.2,0-0.4,0-0.6,0c-0.2,0-0.4,0-0.6,0c-0.3,0-0.6,0-0.8-0.1
			c-0.3,0-0.5-0.2-0.6-0.3c-0.2-0.1-0.3-0.3-0.4-0.5c-0.1-0.2-0.2-0.5-0.2-0.8s0-0.5,0.2-0.7c0.1-0.2,0.3-0.4,0.5-0.5
			s0.4-0.2,0.7-0.3c0.3,0,0.6-0.1,0.9-0.1c0.1,0,0.2,0,0.3,0c0.1,0,0.2,0,0.3,0s0.2,0,0.2,0c0.1,0,0.1,0,0.1,0v-0.3
			c0-0.2,0-0.3,0-0.5c0-0.2-0.1-0.3-0.2-0.4c-0.1-0.1-0.2-0.2-0.3-0.3c-0.2-0.1-0.3-0.1-0.6-0.1c-0.3,0-0.6,0-0.8,0.1
			c-0.2,0-0.4,0.1-0.5,0.1l-0.1-0.8c0.1,0,0.3-0.1,0.6-0.2C801.8,37.4,802.1,37.3,802.4,37.3z M802.5,42c0.2,0,0.4,0,0.6,0
			s0.3,0,0.4,0v-1.5c-0.1,0-0.2,0-0.3-0.1c-0.2,0-0.3,0-0.6,0c-0.1,0-0.3,0-0.4,0c-0.2,0-0.3,0-0.4,0.1c-0.1,0-0.3,0.2-0.3,0.3
			c-0.1,0.1-0.1,0.3-0.1,0.4c0,0.3,0.1,0.6,0.3,0.7C801.9,42,802.2,42,802.5,42z"/>
		<path class="st0" d="M743.2,50c0-0.3,0-0.6,0.2-0.9c0.1-0.3,0.3-0.5,0.4-0.6c0.2-0.2,0.4-0.3,0.6-0.4s0.5-0.1,0.7-0.1
			c0.6,0,1,0.2,1.3,0.5c0.3,0.3,0.5,0.9,0.5,1.5c0,0,0,0.1,0,0.2c0,0,0,0.1,0,0.2h-2.6c0,0.3,0.1,0.6,0.3,0.7
			c0.2,0.2,0.5,0.3,0.9,0.3c0.2,0,0.4,0,0.6,0c0.2,0,0.3-0.1,0.4-0.1l0.1,0.8c0,0-0.1,0-0.2,0.1c-0.1,0-0.2,0-0.3,0.1
			c-0.1,0-0.3,0-0.4,0c-0.1,0-0.3,0-0.4,0c-0.3,0-0.6,0-0.9-0.2c-0.3-0.1-0.5-0.3-0.6-0.4c-0.2-0.2-0.3-0.4-0.4-0.6
			C743.2,50.5,743.2,50.3,743.2,50z M745.8,49.5c0-0.1,0-0.3,0-0.3c0-0.1-0.1-0.2-0.2-0.3s-0.2-0.1-0.3-0.2c-0.1,0-0.2-0.1-0.3-0.1
			s-0.3,0-0.4,0.1c-0.1,0-0.2,0.1-0.3,0.2c-0.1,0.1-0.1,0.2-0.2,0.3c0,0.1-0.1,0.2-0.1,0.3H745.8z"/>
		<path class="st0" d="M747.7,46.9l0.9-0.2v1.2h1.4v0.8h-1.4v1.6c0,0.3,0,0.6,0.2,0.7c0.1,0.1,0.3,0.2,0.5,0.2c0.2,0,0.3,0,0.4,0
			c0.1,0,0.2-0.1,0.3-0.1l0.2,0.7c-0.1,0-0.3,0.1-0.4,0.1c-0.2,0-0.4,0.1-0.6,0.1c-0.3,0-0.5,0-0.7-0.1c-0.2-0.1-0.3-0.2-0.5-0.3
			c-0.1-0.1-0.2-0.3-0.3-0.5c0-0.2-0.1-0.4-0.1-0.7L747.7,46.9L747.7,46.9z"/>
		<path class="st0" d="M756,51.8c-0.2,0-0.4,0.1-0.7,0.2c-0.3,0-0.6,0.1-0.9,0.1c-0.3,0-0.6,0-0.9-0.1c-0.3-0.1-0.5-0.2-0.6-0.4
			c-0.2-0.2-0.3-0.4-0.4-0.6c-0.1-0.3-0.1-0.6-0.1-0.9s0-0.6,0.1-0.9c0.1-0.3,0.2-0.5,0.3-0.6c0.2-0.2,0.3-0.3,0.6-0.4
			c0.2-0.1,0.5-0.1,0.8-0.1c0.2,0,0.3,0,0.5,0.1c0.1,0,0.3,0.1,0.4,0.2v-2.1l0.9-0.2L756,51.8L756,51.8z M753.4,49.9
			c0,0.4,0.1,0.7,0.3,0.9c0.2,0.2,0.5,0.3,0.8,0.3c0.1,0,0.3,0,0.4,0c0.1,0,0.2,0,0.3,0v-2.3c-0.1,0-0.2-0.1-0.3-0.2
			c-0.1,0-0.3-0.1-0.4-0.1c-0.3,0-0.6,0.1-0.7,0.3C753.5,49.2,753.4,49.5,753.4,49.9z"/>
		<path class="st0" d="M757,50c0-0.3,0-0.6,0.2-0.9c0.1-0.3,0.3-0.5,0.4-0.6c0.2-0.2,0.4-0.3,0.6-0.4c0.2-0.1,0.5-0.1,0.7-0.1
			c0.6,0,1,0.2,1.3,0.5c0.3,0.3,0.5,0.9,0.5,1.5c0,0,0,0.1,0,0.2c0,0,0,0.1,0,0.2H758c0,0.3,0.1,0.6,0.3,0.7
			c0.2,0.2,0.5,0.3,0.9,0.3c0.2,0,0.4,0,0.6,0c0.2,0,0.3-0.1,0.4-0.1l0.1,0.8c0,0-0.1,0-0.2,0.1c-0.1,0-0.2,0-0.3,0.1
			c-0.1,0-0.3,0-0.4,0c-0.1,0-0.3,0-0.4,0c-0.3,0-0.6,0-0.9-0.2c-0.3-0.1-0.5-0.3-0.6-0.4c-0.2-0.2-0.3-0.4-0.4-0.6
			C757,50.5,757,50.3,757,50z M759.7,49.5c0-0.1,0-0.3,0-0.3c0-0.1-0.1-0.2-0.2-0.3s-0.2-0.1-0.3-0.2c-0.1,0-0.2-0.1-0.3-0.1
			c-0.1,0-0.3,0-0.4,0.1c-0.1,0-0.2,0.1-0.3,0.2c-0.1,0.1-0.1,0.2-0.2,0.3c0,0.1-0.1,0.2-0.1,0.3H759.7z"/>
		<path class="st0" d="M765.1,52c-0.6,0-1-0.1-1.2-0.4c-0.3-0.2-0.3-0.6-0.3-1.1v-6.2l0.9-0.2v6.3c0,0.2,0,0.3,0,0.4
			c0,0.1,0.1,0.2,0.1,0.3c0,0,0.1,0.1,0.3,0.1c0.1,0,0.2,0,0.4,0.1L765.1,52z"/>
		<path class="st0" d="M767.3,44.4c0,0.1,0,0.1,0,0.2s0,0.1,0,0.2c0,0.3-0.1,0.7-0.2,1c-0.1,0.3-0.3,0.6-0.5,0.9l-0.7-0.2
			c0.1-0.3,0.3-0.6,0.3-0.9c0.1-0.3,0.1-0.6,0.1-0.9c0-0.1,0-0.1,0-0.2s0-0.2,0-0.2H767.3z"/>
		<path class="st0" d="M769.1,45.8c-0.2,0-0.3,0-0.4-0.2c-0.1-0.1-0.2-0.3-0.2-0.4c0-0.2,0-0.3,0.2-0.4c0.1-0.1,0.3-0.2,0.4-0.2
			s0.3,0,0.4,0.2c0.1,0.1,0.2,0.3,0.2,0.4c0,0.2,0,0.3-0.2,0.4C769.4,45.7,769.3,45.8,769.1,45.8z M769.6,51.9h-0.9v-5.2h0.9V51.9z"
			/>
		<path class="st0" d="M771.2,46.8c0.2,0,0.5-0.1,0.9-0.2s0.8-0.1,1.2-0.1c0.4,0,0.8,0,1,0.2s0.5,0.3,0.6,0.5
			c0.2,0.2,0.3,0.5,0.3,0.8c0.1,0.3,0.1,0.6,0.1,1v2.9h-0.9v-2.7c0-0.3,0-0.6-0.1-0.8c0-0.2-0.1-0.4-0.2-0.6
			c-0.1-0.1-0.2-0.3-0.4-0.3c-0.2,0-0.4-0.1-0.6-0.1c-0.1,0-0.2,0-0.3,0s-0.2,0-0.3,0c-0.1,0-0.2,0-0.3,0s-0.1,0-0.2,0v4.4h-0.9
			L771.2,46.8L771.2,46.8z"/>
		<path class="st0" d="M777.8,46.7h2v0.8h-2v2.4c0,0.3,0,0.5,0,0.6c0,0.2,0.1,0.3,0.2,0.4s0.2,0.2,0.3,0.2c0.1,0,0.3,0,0.4,0
			c0.3,0,0.5,0,0.7-0.1c0.2,0,0.3-0.1,0.3-0.1l0.2,0.8c-0.1,0-0.3,0.1-0.5,0.2c-0.2,0.1-0.5,0.1-0.8,0.1c-0.3,0-0.6,0-0.9-0.1
			c-0.2-0.1-0.4-0.2-0.6-0.4c-0.1-0.2-0.3-0.4-0.3-0.7c0-0.3-0.1-0.6-0.1-0.9v-4.6l0.9-0.2V46.7z"/>
		<path class="st0" d="M780.6,49.3c0-0.5,0.1-0.9,0.2-1.2c0.1-0.3,0.3-0.6,0.5-0.9c0.2-0.2,0.5-0.4,0.8-0.5c0.3-0.1,0.6-0.2,0.9-0.2
			c0.7,0,1.2,0.2,1.6,0.6c0.4,0.4,0.6,1.1,0.6,2c0,0,0,0.1,0,0.2c0,0,0,0.1,0,0.2h-3.6c0,0.6,0.2,0.9,0.5,1.2
			c0.3,0.3,0.7,0.4,1.3,0.4c0.3,0,0.6,0,0.8-0.1c0.2,0,0.4-0.1,0.5-0.2l0.1,0.8c-0.1,0-0.3,0.1-0.6,0.2c-0.3,0.1-0.6,0.1-1,0.1
			c-0.5,0-0.9-0.1-1.2-0.2s-0.6-0.3-0.8-0.6c-0.2-0.3-0.4-0.5-0.5-0.9C780.7,50.1,780.6,49.7,780.6,49.3z M784.2,48.8
			c0-0.4-0.1-0.8-0.3-1c-0.2-0.3-0.5-0.4-0.9-0.4c-0.2,0-0.4,0-0.6,0.1s-0.3,0.2-0.4,0.3c-0.1,0.1-0.2,0.3-0.3,0.5
			c-0.1,0.2-0.1,0.3-0.1,0.5L784.2,48.8L784.2,48.8z"/>
		<path class="st0" d="M788.4,46.6c0.1,0,0.2,0,0.3,0s0.2,0,0.3,0c0.1,0,0.2,0,0.3,0s0.1,0,0.2,0l-0.2,0.8c-0.1,0-0.2,0-0.4-0.1
			c-0.2,0-0.4,0-0.6,0c-0.2,0-0.3,0-0.5,0c-0.2,0-0.3,0-0.3,0.1v4.4h-0.9v-5c0.2-0.1,0.5-0.2,0.8-0.2
			C787.6,46.6,788,46.6,788.4,46.6z"/>
		<path class="st0" d="M790.4,46.8c0.2,0,0.5-0.1,0.9-0.2s0.8-0.1,1.2-0.1c0.4,0,0.8,0,1,0.2s0.5,0.3,0.6,0.5
			c0.2,0.2,0.3,0.5,0.3,0.8c0.1,0.3,0.1,0.6,0.1,1v2.9h-0.9v-2.7c0-0.3,0-0.6-0.1-0.8c0-0.2-0.1-0.4-0.2-0.6
			c-0.1-0.1-0.2-0.3-0.4-0.3c-0.2,0-0.4-0.1-0.6-0.1c-0.1,0-0.2,0-0.3,0s-0.2,0-0.3,0c-0.1,0-0.2,0-0.3,0s-0.1,0-0.2,0v4.4h-0.9
			L790.4,46.8L790.4,46.8z"/>
		<path class="st0" d="M795.9,49.3c0-0.5,0.1-0.9,0.2-1.2c0.1-0.3,0.3-0.6,0.5-0.9c0.2-0.2,0.5-0.4,0.8-0.5c0.3-0.1,0.6-0.2,0.9-0.2
			c0.7,0,1.2,0.2,1.6,0.6c0.4,0.4,0.6,1.1,0.6,2c0,0,0,0.1,0,0.2c0,0,0,0.1,0,0.2h-3.6c0,0.6,0.2,0.9,0.5,1.2
			c0.3,0.3,0.7,0.4,1.3,0.4c0.3,0,0.6,0,0.8-0.1c0.2,0,0.4-0.1,0.5-0.2l0.1,0.8c-0.1,0-0.3,0.1-0.6,0.2c-0.3,0.1-0.6,0.1-1,0.1
			c-0.5,0-0.9-0.1-1.2-0.2c-0.3-0.1-0.6-0.3-0.8-0.6c-0.2-0.3-0.4-0.5-0.5-0.9C795.9,50.1,795.9,49.7,795.9,49.3z M799.4,48.8
			c0-0.4-0.1-0.8-0.3-1c-0.2-0.3-0.5-0.4-0.9-0.4c-0.2,0-0.4,0-0.6,0.1c-0.2,0.1-0.3,0.2-0.4,0.3c-0.1,0.1-0.2,0.3-0.3,0.5
			c-0.1,0.2-0.1,0.3-0.1,0.5L799.4,48.8L799.4,48.8z"/>
		<path class="st0" d="M802.6,46.7h2v0.8h-2v2.4c0,0.3,0,0.5,0,0.6c0,0.2,0.1,0.3,0.2,0.4s0.2,0.2,0.3,0.2c0.1,0,0.3,0,0.4,0
			c0.3,0,0.5,0,0.7-0.1c0.2,0,0.3-0.1,0.3-0.1l0.2,0.8c-0.1,0-0.3,0.1-0.5,0.2c-0.2,0.1-0.5,0.1-0.8,0.1c-0.3,0-0.6,0-0.9-0.1
			c-0.2-0.1-0.4-0.2-0.6-0.4c-0.1-0.2-0.3-0.4-0.3-0.7c0-0.3-0.1-0.6-0.1-0.9v-4.6l0.9-0.2V46.7z"/>
	</g>
	<rect x="743.1" y="57.8" class="st0" width="61.8" height="0.3"/>
	<g>
		<polygon class="st0" points="722.8,45.8 720.5,48 723,48.7 724.3,48.4 724,45.8 		"/>
		<path class="st0" d="M726,32l-3.5,0.6l0.3,2.1c0.1,0,0.3-0.1,0.5-0.1c0.3,0,0.5,0,0.7,0.2L726,32z"/>
		<path class="st0" d="M723.2,38.3C723.2,38.3,723.2,38.3,723.2,38.3l0.1,1.3h0.6l-0.4-1.4C723.5,38.2,723.3,38.3,723.2,38.3z"/>
		<polygon class="st0" points="724.6,51 724.4,49.3 723.3,49 718.3,50.2 719.2,53.6 		"/>
		<polygon class="st0" points="723.6,48.9 724.4,49.1 724.3,48.8 		"/>
		<polygon class="st0" points="719.4,33.1 721.9,32.6 721.7,31.8 		"/>
		<polygon class="st0" points="722.1,32.8 722.6,34.3 722.4,32.7 		"/>
		<polygon class="st0" points="721.8,31.8 722.1,32.6 722.4,32.5 722.2,31.5 		"/>
		<polygon class="st0" points="714,56.1 719.1,53.6 718.2,50.3 713.1,55.2 		"/>
		<path class="st0" d="M714.4,36l0.6,2.2l6.5-1.5c0,0,0,0,0,0L714.4,36z"/>
		<path class="st0" d="M715.8,41.3l1,3.8v-3c0-0.5-0.2-0.9-0.7-0.9C716.1,41.3,715.9,41.3,715.8,41.3z"/>
		<path class="st0" d="M715.1,38.4l0.5,1.8c0.6-0.5,1.2-0.8,2.1-0.8c1.4,0,2.1,0.6,2.3,1.7l2.1-3.4c-0.3-0.2-0.4-0.5-0.5-0.9
			L715.1,38.4z"/>
		<polygon class="st0" points="714.2,36 708.6,39.2 708.6,39.6 709.5,39.6 714.9,38.3 714.3,36 		"/>
		<polygon class="st0" points="718.1,50 717.3,47.3 716.6,47.1 714.3,50.9 		"/>
		<path class="st0" d="M717,46.1l-1.3-4.8c-0.3,0.2-0.5,0.6-0.5,0.9v3.5h-2.7l4,1.1L717,46.1z"/>
		<path class="st0" d="M719,33.4l-4.3,2.4l6.8,0.6c0-0.3,0.1-0.5,0.2-0.8l-2.6-2.4L719,33.4z"/>
		<polygon class="st0" points="713.8,56.1 712.9,55.4 710.5,57.7 		"/>
		<polygon class="st0" points="713.9,51.3 709.8,52.3 712,54.3 		"/>
		<polygon class="st0" points="717.9,50.3 714.1,51.2 712.2,54.5 712.9,55.1 		"/>
		<polygon class="st0" points="714.1,50.9 716.4,47.1 710.4,45.3 710.4,45.8 709,45.8 709.5,52 		"/>
		<polygon class="st0" points="714,56.3 710.5,57.9 714.6,56.9 		"/>
		<polygon class="st0" points="720.1,57.5 719.7,55.7 714.9,56.9 717,58.8 		"/>
		<polygon class="st0" points="714.3,35.7 714.4,35.7 718.5,33.4 713.9,34.3 		"/>
		<polygon class="st0" points="719.6,55.6 719.1,53.8 714.1,56.2 714.8,56.8 		"/>
		<path class="st0" d="M719.5,33.2l2.4,2.1c0.2-0.2,0.4-0.4,0.6-0.5l-0.6-2.1L719.5,33.2z"/>
		<polygon class="st0" points="708.4,39.6 708.4,39.3 707.9,39.6 		"/>
		<polygon class="st0" points="724.6,51.2 719.3,53.7 719.7,55.5 725,54.2 		"/>
		<path class="st0" d="M705.6,41.8V42l0.6-1.4l-0.7,0.4C705.6,41.2,705.6,41.5,705.6,41.8z"/>
		<polygon class="st0" points="708.9,35.2 714.2,35.7 713.8,34.3 		"/>
		<polygon class="st0" points="706.5,40.2 708.4,39.1 708.2,35.8 		"/>
		<polygon class="st0" points="705.6,42.4 705.6,43.8 707.3,44.3 707.3,40.3 706.3,40.5 		"/>
		<polygon class="st0" points="707.3,39.9 706.7,40.2 707.3,40.1 		"/>
		<path class="st0" d="M725.2,55.6l-4.8,2l1.5,5.4c1.4-0.5,2.8-1.2,4.1-2L725.2,55.6z"/>
		<polygon class="st0" points="695.2,39.6 694.1,38.6 694.9,39.6 		"/>
		<path class="st0" d="M696.3,41.5c-0.2,0.2-0.3,0.5-0.3,0.8v0.5l1.1-0.3L696.3,41.5z"/>
		<polygon class="st0" points="711.5,26.4 711.5,26.4 707.4,22.6 707.7,26.2 		"/>
		<path class="st0" d="M696.1,40.4l-0.5-0.5l0.1,0.9l0.1-0.2C695.9,40.6,696,40.5,696.1,40.4z"/>
		<path class="st0" d="M700,40.1c0.2,0.2,0.4,0.5,0.5,0.9c0.8-0.9,1.6-1.4,2.7-1.4c1.1,0,1.8,0.4,2.1,1.1l0.8-0.2l0.1,0l1.9-4.9v0
			l-0.5,0l-6.3,1.2L700,40.1z"/>
		<polygon class="st0" points="701.5,36.3 707.1,35.3 702.1,34.8 		"/>
		<polygon class="st0" points="727,50 724.8,51.1 725.1,54.1 726.6,53.7 		"/>
		<polygon class="st0" points="726.6,53.9 725.2,54.3 725.3,55.4 726.5,54.9 		"/>
		<path class="st0" d="M694.6,39.6l-1.2-1.6c-0.1,0.5-0.2,1-0.3,1.6H694.6z"/>
		<path class="st0" d="M693.5,48c0.3,1.3,0.8,2.6,1.4,3.9l2.4-5.9L693.5,48z"/>
		<polygon class="st0" points="726.5,55.1 725.3,55.6 725.9,60.3 		"/>
		<path class="st0" d="M697.6,42.1c0-0.2,0-0.3-0.1-0.4v0c-0.1-0.2-0.3-0.4-0.6-0.4c-0.2,0-0.4,0-0.6,0.2l0.9,1.1l0.4-0.1V42.1z"/>
		<polygon class="st0" points="705.8,26.1 707.5,26.2 707.2,22.6 		"/>
		<polygon class="st0" points="697.6,42.6 697.3,42.6 697.6,43 		"/>
		<path class="st0" d="M699.9,39.9l1.4-3.4l-7.7,1.4l1.8,1.6l0.1,0.1l0.7,0.6c0.6-0.5,1.2-0.8,2.2-0.8
			C699,39.5,699.5,39.6,699.9,39.9z"/>
		<path class="st0" d="M723.2,39.6l-0.2-1.4c-0.3,0-0.6-0.2-0.9-0.3l-2.1,3.6c0,0.1,0,0.2,0,0.3v3.9h-2.7l-0.2,0.3l0.3,1l2.9,0.8
			l2.3-2.2h-0.9v-6.1H723.2z"/>
		<polygon class="st0" points="724.8,45.8 724.1,45.8 724.4,48.4 726.5,47.9 725.1,43.5 724.8,43.8 		"/>
		<path class="st0" d="M710.4,42.3v2.9l1.7,0.5v-3.5c0-0.5-0.2-0.9-0.7-0.9C710.7,41.3,710.4,41.8,710.4,42.3z"/>
		<polygon class="st0" points="724.8,43.6 725.1,43.3 724.8,42.4 		"/>
		<path class="st0" d="M714.9,40.9c0.2-0.2,0.3-0.4,0.5-0.6l-0.5-1.9l-4.9,1.2l0.1,1.2c0.7-0.9,1.5-1.4,2.7-1.4
			C713.9,39.5,714.6,40,714.9,40.9z"/>
		<polygon class="st0" points="720.4,48.2 718.7,49.8 722.7,48.8 		"/>
		<polygon class="st0" points="716.7,46.9 717.3,47.1 717.1,46.3 		"/>
		<polygon class="st0" points="718.2,49.9 718.4,49.9 720.2,48.1 717.5,47.4 		"/>
		<polygon class="st0" points="705.8,53 709.2,52.1 703.7,47.2 702.9,49.4 		"/>
		<path class="st0" d="M701,41.6l1.1-0.3c-0.1,0-0.2-0.1-0.4-0.1C701.4,41.3,701.2,41.4,701,41.6z"/>
		<path class="st0" d="M700.8,42.3v0.1l1.7,0.5v-0.8c0-0.3-0.1-0.5-0.2-0.6l-1.4,0.3C700.8,42,700.8,42.1,700.8,42.3z"/>
		<polygon class="st0" points="708.9,45.8 707.3,45.8 707.3,44.4 705.6,44 705.6,45.8 704.3,45.8 703.8,47 709.3,51.9 		"/>
		<polygon class="st0" points="711.6,26.5 711.5,26.5 707.8,28.2 708.3,35.1 		"/>
		<polygon class="st0" points="700.8,44 702.4,43.1 700.8,42.6 		"/>
		<polygon class="st0" points="711.2,26.5 707.7,26.4 707.8,28 		"/>
		<polygon class="st0" points="700.8,44.4 703.7,46.9 704.1,45.8 702.4,45.8 702.4,43.2 700.8,44.1 		"/>
		<polygon class="st0" points="708.3,35.5 708.6,39 713.9,36 708.3,35.4 		"/>
		<path class="st0" d="M697.5,45.7l0.2-0.5v-2l-0.5-0.6l-1.2,0.3v2.8h-2.9c0.1,0.7,0.2,1.4,0.4,2.1L697.5,45.7z"/>
		<path class="st0" d="M693.5,37.8l7.9-1.5l0.6-1.5l-7.3-0.7C694.1,35.3,693.7,36.6,693.5,37.8z"/>
		<polygon class="st0" points="702.3,34.6 708.1,35.1 707.6,28.3 704.3,29.8 		"/>
		<polygon class="st0" points="700.8,54.2 702.7,49.4 699.7,45.8 697.7,45.8 697.6,45.8 695.1,51.8 700.8,54.2 		"/>
		<polygon class="st0" points="702.1,34.6 704.1,29.9 695.2,33.9 		"/>
		<path class="st0" d="M709,58.4l-7,1.8c0.4,0.3,0.9,0.6,1.4,0.9L709,58.4z"/>
		<path class="st0" d="M696.8,55.1l3.4-0.9l-5.2-2.1C695.6,53.2,696.2,54.2,696.8,55.1z"/>
		<path class="st0" d="M701.8,60.2l7.7-2l-8.6-3.6l-1.4,3.6C700.2,58.9,700.9,59.5,701.8,60.2z"/>
		<path class="st0" d="M719.1,22.9l1.9-0.9c-0.8-0.3-1.5-0.4-2.3-0.6L719.1,22.9z"/>
		<path class="st0" d="M709.5,58.4l0.1-0.1l-6.2,2.9c0.7,0.4,1.4,0.8,2.1,1.1L709.5,58.4z"/>
		<path class="st0" d="M721.2,22.1l0.6,4.7l7.7,0.3C727.2,24.9,724.4,23.2,721.2,22.1z"/>
		<polygon class="st0" points="712,26.4 720.1,26.8 719.1,23.2 711.9,26.3 		"/>
		<path class="st0" d="M711.5,25.9l-1.2-4.4c-0.9,0.2-1.9,0.4-2.8,0.8L711.5,25.9z"/>
		<path class="st0" d="M705.6,26.1l1.6-3.8c-2.3,0.8-4.4,2.1-6.3,3.6L705.6,26.1z"/>
		<path class="st0" d="M710.4,21.4l1.3,4.7l0.1,0.1l2-5.1C712.6,21.1,711.5,21.2,710.4,21.4z"/>
		<polygon class="st0" points="707.6,28.1 707.5,26.3 705.7,26.3 704.4,29.6 		"/>
		<path class="st0" d="M712.1,61l-1.9,0.8l0.2,2.1c1.3,0.3,2.7,0.4,4.2,0.4c0.1,0,0.2,0,0.3,0L712.1,61z"/>
		<path class="st0" d="M729.2,31.3l3.2-0.6c-0.8-1.2-1.8-2.4-2.8-3.4L729.2,31.3z"/>
		<path class="st0" d="M735.8,45.9l-0.3,0.1l-8.3,3.9l6.8,1.9C734.9,50,735.5,48,735.8,45.9z"/>
		<path class="st0" d="M712,26.2l7-3.2l-0.5-1.5c-1.3-0.3-2.7-0.4-4-0.4c-0.2,0-0.3,0-0.5,0L712,26.2z"/>
		<path class="st0" d="M735.6,38.1l-4.5-0.4l-2.7,2.6l7.4,5.3c0.1-0.9,0.2-1.9,0.2-2.9C736.1,41.1,735.9,39.6,735.6,38.1z"/>
		<path class="st0" d="M694.9,33.8l9.3-4.2l1.4-3.4l-4.9-0.3l0,0C698.2,28.1,696.1,30.8,694.9,33.8L694.9,33.8z"/>
		<path class="st0" d="M709.2,59l-3.5,3.4c0.4,0.2,0.8,0.3,1.2,0.5L709.2,59z"/>
		<path class="st0" d="M728.5,54.2l1.1,3.8c1.8-1.7,3.2-3.8,4.3-6L728.5,54.2z"/>
		<polygon class="st0" points="726.4,31.8 729.1,31.3 729.5,27.5 		"/>
		<path class="st0" d="M700.7,54.5l-3.6,0.9c0.7,0.9,1.5,1.8,2.3,2.6L700.7,54.5z"/>
		<polygon class="st0" points="709.9,58.4 710.2,61.6 712,60.8 		"/>
		<polygon class="st0" points="727.3,50.1 728.3,53.3 733.7,51.9 		"/>
		<path class="st0" d="M710,61.8l-2.9,1.2c1,0.3,2,0.6,3,0.9L710,61.8z"/>
		<polygon class="st0" points="714,60 710.2,58.4 712.2,60.8 		"/>
		<polygon class="st0" points="728.3,53.5 728.5,54.1 732.9,52.3 		"/>
		<path class="st0" d="M721.5,63.1l-7.2-3l-2,0.8l2.7,3.3C717.3,64.2,719.4,63.8,721.5,63.1z"/>
		<path class="st0" d="M728.4,54.3l-1.8,0.7L726,61c1.3-0.8,2.4-1.8,3.6-2.8L728.4,54.3z"/>
		<polygon class="st0" points="708.5,35.1 713.7,34.1 711.7,26.8 		"/>
		<path class="st0" d="M729.2,31.5l-0.4,3.9l5.6-1c-0.5-1.2-1.1-2.4-1.8-3.4L729.2,31.5z"/>
		<polygon class="st0" points="720.3,26.9 721.8,31.6 722.2,31.3 721.7,27 		"/>
		<polygon class="st0" points="705.6,53 702.8,49.6 701,54.1 		"/>
		<polygon class="st0" points="722.4,31.4 722.5,32.5 726.2,31.9 729.3,27.5 		"/>
		<polygon class="st0" points="722.4,31.3 729.3,27.3 721.8,27 		"/>
		<polygon class="st0" points="703.6,47.1 700.8,44.6 700.8,45.8 699.9,45.8 702.7,49.2 		"/>
		<polygon class="st0" points="713.9,34.1 718.9,33.2 719,33.1 711.9,26.7 		"/>
		<polygon class="st0" points="724.6,49.3 724.7,50.9 726.8,50 		"/>
		<polygon class="st0" points="719.2,23.1 720.3,26.8 721.6,26.8 721.1,22.2 		"/>
		<polygon class="st0" points="727.2,48 726.7,48.2 727.1,49.4 		"/>
		<polygon class="st0" points="728,40.7 725.3,43.4 726.6,47.9 727.3,47.7 		"/>
		<polygon class="st0" points="727.1,49.9 726.5,48.2 724.5,48.7 724.5,49.2 727,49.9 		"/>
		<path class="st0" d="M728.6,35.5l-3.6,0.7c0,0.1,0,0.2,0,0.3s0,0.2,0,0.2l3.5,0.3L728.6,35.5z"/>
		<path class="st0" d="M728.1,40.4l-3.6-2.6c-0.2,0.2-0.4,0.3-0.7,0.4l0.4,1.4h0.7v2.3l0.4,1.3L728.1,40.4L728.1,40.4z"/>
		<path class="st0" d="M729.1,31.5l-2.8,0.5l-2.1,3c0.4,0.2,0.7,0.6,0.8,1.1l3.7-0.7L729.1,31.5z"/>
		<path class="st0" d="M728.4,37.4l-3.5-0.3c0,0.2-0.1,0.3-0.3,0.5l3.5,2.5L728.4,37.4z"/>
		<polygon class="st0" points="719.3,33 721.6,31.7 720.2,26.9 712.2,26.5 		"/>
		<polygon class="st0" points="725,54.3 719.8,55.7 720.3,57.5 725.1,55.5 		"/>
		<polygon class="st0" points="727.4,48 727.2,49.8 734.8,46.2 		"/>
		<polygon class="st0" points="728.2,40.5 727.4,47.7 735.5,45.7 		"/>
		<polygon class="st0" points="728.1,53.5 726.8,53.9 726.7,54.8 728.3,54.2 		"/>
		<polygon class="st0" points="726.8,53.7 728.1,53.4 727.2,50.3 		"/>
		<path class="st0" d="M734.5,34.4l-3,2.9l4.1,0.4C735.2,36.6,734.9,35.5,734.5,34.4z"/>
		<polygon class="st0" points="734.2,34.5 728.8,35.5 728.6,37.1 731.3,37.3 		"/>
		<polygon class="st0" points="728.6,37.4 728.3,40.2 728.3,40.2 731,37.6 		"/>
		<polygon class="st0" points="710,61.7 709.8,58.4 709.7,58.6 707.1,62.9 		"/>
		<polygon class="st0" points="705.8,53.3 701.3,54.4 709.5,57.8 		"/>
		<polygon class="st0" points="709.5,52.4 709.5,52.4 709.9,57.8 711.9,54.5 		"/>
		<polygon class="st0" points="709.4,52.4 706,53.2 709.8,57.8 		"/>
		<polygon class="st0" points="716.9,58.9 714.8,57 710.3,58.1 714.4,59.9 		"/>
		<polygon class="st0" points="717,59 714.6,59.9 721.1,62.6 		"/>
		<polygon class="st0" points="712.8,55.3 712.1,54.6 710,58 710.1,57.9 		"/>
		<polygon class="st0" points="720.2,57.7 717.2,58.9 721.6,62.8 		"/>
	</g>
</g>
<g>
	<path class="st0" d="M40,49.7c-0.3,0-0.8,0-1.3,0c-0.7,0-1.1,0-1.3,0l-1.8,0c-0.2,0-0.4,0-0.8,0c-0.1,0-0.2-0.1-0.2-0.2
		c0-0.4,0-1.1,0-1.9s0-1.5,0-1.9c0-0.5,0-1.1,0-2s0-1.6,0-2c0-0.1,0.1-0.1,0.2-0.1s0.3,0,0.5,0s0.4,0,0.5,0c0.1,0,0.3,0,0.6,0
		s0.4,0,0.6,0c0.1,0,0.1,0,0.1,0.1l0,0.1c0,0.7-0.1,1.8-0.2,3.3l0,1.5c0,0.5,0,0.9,0,1.1c0,0,0,0.1,0,0.1s0,0.1,0.1,0.1
		c0,0,0.1,0,0.2,0c0.4,0,0.9,0,1.6-0.1s1.2-0.1,1.6-0.1c0.1,0,0.2,0,0.2,0.1c0,0.7,0,1.2-0.1,1.7c0,0.1-0.1,0.2-0.1,0.2
		C40.3,49.7,40.2,49.7,40,49.7z"/>
	<path class="st0" d="M47,45.4l0,4c0,0.1-0.1,0.2-0.2,0.2c-0.1,0-0.4,0-0.9,0c-0.4,0-0.7,0-0.9,0c-0.1,0-0.2-0.1-0.2-0.3
		c0-0.3,0-0.8,0-1.5s0-1.2,0-1.5c0-0.5-0.2-0.7-0.7-0.7c-0.2,0-0.3,0.1-0.6,0.2c-0.2,0.1-0.3,0.3-0.3,0.4v1.4c0,0.2,0,0.5,0,0.8
		s0,0.7,0,0.8c0,0.1-0.1,0.2-0.2,0.2s-0.5,0-1,0c-0.3,0-0.6,0-0.7,0s-0.2-0.1-0.2-0.2c0-0.3,0-0.8,0-1.4s0-1.1,0-1.4
		c0-1.3,0-2.3,0-3.2c0-0.3,0-0.6,0-0.9c0-0.3-0.1-0.6-0.1-0.9c0-0.1,0-0.1,0-0.1c0-0.1,0-0.1,0.1-0.1c0.1,0,0.3-0.1,0.5-0.1
		c0.3,0,0.5,0,0.5,0l1.1-0.1c0.1,0,0.1,0,0.1,0.1c0,0.1,0,0.3,0,0.5c0,0.3,0,0.4,0,0.5c0,0.9,0,1.6,0,2.1c0,0.1,0,0.1,0.1,0.1
		c0,0,0.1-0.1,0.3-0.2c0.2-0.2,0.4-0.3,0.7-0.4c0.3-0.1,0.6-0.2,0.9-0.2c0.5,0,0.9,0.1,1.3,0.4C46.8,44.5,47,44.9,47,45.4z"/>
	<path class="st0" d="M53.6,46.8c0,0.9-0.3,1.6-0.8,2.2s-1.3,0.8-2.1,0.8c-0.9,0-1.6-0.3-2.1-0.8s-0.8-1.3-0.8-2.1
		c0-0.9,0.3-1.6,0.8-2.2s1.3-0.8,2.2-0.8c0.9,0,1.6,0.3,2.1,0.8S53.6,45.9,53.6,46.8z M51.7,46.8c0-0.3-0.1-0.6-0.3-0.8
		s-0.4-0.4-0.7-0.4c-0.3,0-0.6,0.1-0.8,0.4c-0.2,0.2-0.3,0.5-0.3,0.8c0,0.3,0.1,0.6,0.3,0.8c0.2,0.2,0.5,0.4,0.8,0.4
		c0.3,0,0.6-0.1,0.8-0.4C51.6,47.4,51.7,47.1,51.7,46.8z"/>
	<path class="st0" d="M58.2,47.9c0,0.1,0,0.3,0,0.5s0,0.4,0,0.5s0,0.2,0,0.2s-0.1,0.1-0.2,0.1c-0.5,0.3-1.1,0.4-1.7,0.4
		c-1.1,0-1.7-0.4-1.7-1.3c0-0.3,0-0.6,0-1.2s0-0.9,0-1.2c0-0.2-0.1-0.3-0.3-0.3c0,0,0,0-0.1,0c0,0-0.1,0-0.1,0
		c-0.1,0-0.2-0.1-0.2-0.2c0-0.1,0-0.2,0-0.3s0-0.2,0-0.3c0-0.1,0-0.2,0-0.4s0-0.3,0-0.4c0-0.1,0.1-0.1,0.4-0.1c0.1,0,0.2,0,0.2-0.1
		c0-0.1,0-0.4,0-0.7c0-0.5,0-0.7,0-0.7c0-0.5,0-0.7,0.1-0.7c0.1,0,0.3,0,0.5,0.1c0.2,0.1,0.4,0.1,0.5,0.1c0.2,0,0.5,0.1,0.9,0.1
		c0.1,0,0.1,0,0.1,0.1c0,0.2,0,0.4,0,0.7s0,0.6,0,0.7c0,0.2,0.1,0.3,0.2,0.3c0.1,0,0.3,0,0.6,0s0.5,0,0.6,0c0.1,0,0.1,0,0.1,0.1
		c0,0.1,0,0.2,0,0.4s0,0.3,0,0.4c0,0.1,0,0.2,0,0.4s0,0.3,0,0.4c0,0.1-0.1,0.1-0.2,0.1c-0.1,0-0.2,0-0.4,0s-0.3,0-0.4,0h-0.4
		c-0.1,0-0.1,0.1-0.1,0.3c0,0.1,0,0.2,0,0.4c0,0.2,0,0.3,0,0.4c0,0.3,0,0.6,0.1,0.7c0.1,0.2,0.3,0.3,0.6,0.3c0.1,0,0.2,0,0.4-0.1
		s0.3-0.1,0.4-0.1C58.2,47.8,58.2,47.8,58.2,47.9z"/>
	<path class="st0" d="M64.2,46.5c0,0.4-0.1,0.6-0.4,0.7c0,0-0.4,0.1-1.2,0.1c-0.5,0.1-1.1,0.1-2.1,0.2c0.1,0.3,0.2,0.4,0.5,0.6
		c0.2,0.1,0.5,0.2,0.8,0.2c0.3,0,0.7-0.1,1-0.3c0.1-0.1,0.3-0.2,0.4-0.3c0.1,0,0.2,0.2,0.4,0.6s0.3,0.6,0.3,0.7c0,0,0,0.1-0.1,0.1
		c-0.5,0.5-1.2,0.8-2.2,0.8c-0.9,0-1.7-0.3-2.3-0.8c-0.6-0.6-0.9-1.3-0.9-2.2c0-0.9,0.3-1.6,0.8-2.2c0.5-0.6,1.3-0.9,2.1-0.9
		c0.8,0,1.4,0.3,1.9,0.8S64.2,45.7,64.2,46.5z M62.2,46.1c0-0.2-0.1-0.5-0.3-0.6s-0.4-0.3-0.6-0.3c-0.2,0-0.4,0.1-0.6,0.3
		c-0.1,0.2-0.2,0.4-0.2,0.7c0,0.1,0.1,0.2,0.2,0.2c0.3,0,0.7,0,1.3-0.1C62.1,46.2,62.2,46.1,62.2,46.1z"/>
	<path class="st0" d="M67,46.1c0,1.1,0,1.9,0,2.5c0,0.1,0,0.2,0,0.5c0,0.2,0,0.4,0,0.5c0,0.1,0,0.1-0.1,0.1c-0.2,0-0.5,0-0.9,0
		c-0.5,0-0.8,0-0.9,0c-0.1,0-0.1-0.1-0.1-0.2c0,0,0-0.1,0-0.3c0-0.3,0-0.9,0-1.6s0-1.2,0-1.6c0-1.6,0-2.4,0-2.2
		c0-0.9-0.1-1.6-0.1-2.2c0,0,0-0.1,0-0.1c0-0.1,0.1-0.1,0.2-0.1H67c0.1,0,0.1,0,0.1,0.1l0,0.1C67,43.3,67,44.8,67,46.1z"/>
	<path class="st0" d="M70.2,46.1c0,1.1,0,1.9,0,2.5c0,0.1,0,0.2,0,0.5c0,0.2,0,0.4,0,0.5c0,0.1,0,0.1-0.1,0.1c-0.2,0-0.5,0-0.9,0
		c-0.5,0-0.8,0-0.9,0c-0.1,0-0.1-0.1-0.1-0.2c0,0,0-0.1,0-0.3c0-0.3,0-0.9,0-1.6s0-1.2,0-1.6c0-1.6,0-2.4,0-2.2
		c0-0.9-0.1-1.6-0.1-2.2c0,0,0-0.1,0-0.1c0-0.1,0.1-0.1,0.2-0.1h2.1c0.1,0,0.1,0,0.1,0.1l0,0.1C70.3,43.3,70.2,44.8,70.2,46.1z"/>
	<path class="st0" d="M73.4,47c0,0.3,0,0.7,0,1.3s0,1,0,1.3c0,0.1,0,0.1-0.1,0.1c-0.1,0-0.4,0-0.9,0c-0.5,0-0.8,0-0.9,0
		c-0.1,0-0.1,0-0.2-0.1c0,0,0-0.1,0-0.2c0-0.3,0-0.7,0-1.2s0-0.9,0-1.2c0-1.1,0-2-0.1-2.6c0-0.1,0-0.1,0-0.1c0-0.1,0.1-0.1,0.2-0.1
		c0.1,0,0.3,0,0.5,0s0.4,0,0.5,0s0.3,0,0.5,0s0.4,0,0.5,0c0.1,0,0.1,0,0.1,0.1c0,0,0,0.1,0,0.1C73.5,45.1,73.4,46,73.4,47z
		 M73.6,42.6c0,0.7-0.4,1-1.1,1c-0.3,0-0.6-0.1-0.8-0.3c-0.2-0.2-0.4-0.4-0.4-0.8c0-0.3,0.1-0.6,0.4-0.8c0.2-0.2,0.5-0.3,0.8-0.3
		c0.3,0,0.6,0.1,0.8,0.3C73.5,42.1,73.6,42.3,73.6,42.6z"/>
	<path class="st0" d="M79.9,46.5c0,0.4-0.1,0.6-0.4,0.7c0,0-0.4,0.1-1.2,0.1c-0.5,0.1-1.1,0.1-2.1,0.2c0.1,0.3,0.2,0.4,0.5,0.6
		c0.2,0.1,0.5,0.2,0.8,0.2c0.3,0,0.7-0.1,1-0.3c0.1-0.1,0.3-0.2,0.4-0.3c0.1,0,0.2,0.2,0.4,0.6s0.3,0.6,0.3,0.7c0,0,0,0.1-0.1,0.1
		c-0.5,0.5-1.2,0.8-2.2,0.8c-0.9,0-1.7-0.3-2.3-0.8c-0.6-0.6-0.9-1.3-0.9-2.2c0-0.9,0.3-1.6,0.8-2.2c0.5-0.6,1.3-0.9,2.1-0.9
		c0.8,0,1.4,0.3,1.9,0.8S79.9,45.7,79.9,46.5z M77.9,46.1c0-0.2-0.1-0.5-0.3-0.6s-0.4-0.3-0.6-0.3c-0.2,0-0.4,0.1-0.6,0.3
		c-0.1,0.2-0.2,0.4-0.2,0.7c0,0.1,0.1,0.2,0.2,0.2c0.3,0,0.7,0,1.3-0.1C77.8,46.2,77.9,46.1,77.9,46.1z"/>
	<path class="st0" d="M84.5,46c0,0.2-0.1,0.2-0.3,0.2c-0.1,0-0.2,0-0.3,0s-0.2,0-0.3,0c-0.3,0-0.5,0.1-0.7,0.2s-0.2,0.3-0.2,0.6
		c0,0.2,0,0.4,0,0.8s0,0.6,0,0.8c0,0.1,0,0.3,0,0.5s0,0.4,0,0.5c0,0.1-0.1,0.1-0.2,0.2c-0.2,0-0.5,0-0.9,0c-0.4,0-0.7,0-0.9,0
		c-0.1,0-0.2-0.1-0.2-0.2c0-0.3,0-0.8,0-1.4s0-1.1,0-1.4c0-0.9-0.1-1.7-0.3-2.3c0,0,0-0.1,0-0.1c0-0.1,0-0.1,0.1-0.1
		c0.2,0,0.5-0.1,0.9-0.1c0.6-0.1,0.9-0.2,1-0.2c0.1,0,0.1,0.1,0.1,0.4s0.1,0.4,0.1,0.4c-0.1,0,0.1-0.1,0.5-0.3s0.7-0.3,1.1-0.3
		c0.2,0,0.3,0,0.3,0.1c0,0.1,0,0.3,0,0.5c0,0.2,0,0.4,0,0.5c0,0.1,0,0.3,0,0.5C84.5,45.8,84.5,45.9,84.5,46z"/>
	<path class="st0" d="M95.9,49.5c0,0.1,0,0.1-0.1,0.1c-0.1,0-0.5,0-1.1,0c-0.6,0-0.9,0-1.1,0c-0.1,0-0.2-0.1-0.3-0.3
		c-0.1-0.6-0.2-0.9-0.3-0.9c-0.1,0-0.6,0-1.6,0c-0.7,0-1,0-1.1,0.1c-0.1,0.1-0.1,0.3-0.2,0.6c-0.1,0.3-0.2,0.5-0.3,0.5
		c-0.1,0-0.6,0-1.3,0c-0.6,0-0.9-0.1-0.9-0.2c0-0.1,0.4-1.3,1.3-3.7c1-2.6,1.5-4,1.6-4.3c0-0.1,0.1-0.2,0.2-0.2c0.1,0,0.3,0,0.5,0
		s0.4,0,0.5,0c0.1,0,0.3,0,0.5,0s0.4,0,0.5,0c0.1,0,0.1,0.1,0.2,0.2c0.2,0.4,0.8,1.8,1.7,4.2C95.5,48.1,95.9,49.4,95.9,49.5z
		 M91.8,44.2c-0.1,0.2-0.2,0.5-0.4,1.1c-0.2,0.6-0.3,1-0.3,1.1c0,0.1,0.1,0.1,0.4,0.1c0.1,0,0.3,0,0.6,0c0.3,0,0.4,0,0.4-0.1
		c0,0,0,0,0-0.1c0-0.1-0.1-0.5-0.3-1.1C92,44.7,91.9,44.3,91.8,44.2z"/>
	<path class="st0" d="M102.5,44.3c0,0.3,0,0.7,0,1.3s0,1,0,1.3c0,0.3,0,0.7,0,1.3s0,1,0,1.3c0,0.1,0,0.2-0.1,0.2
		c-0.1,0-0.5,0.1-0.9,0.1c-0.4,0-0.7,0-0.9,0c-0.1,0-0.1-0.1-0.1-0.1c0-0.1,0-0.2,0-0.4c0-0.2,0-0.3-0.1-0.3c0.1,0-0.1,0.1-0.6,0.4
		s-0.9,0.4-1.2,0.4c-1,0-1.6-0.5-1.8-1.4c-0.1-0.4-0.1-1.1-0.1-1.9c0-0.9,0.1-1.6,0.2-2.1c0-0.2,0.1-0.2,0.2-0.2c0.2,0,0.5,0,0.8,0
		s0.6,0,0.8,0c0.1,0,0.2,0.1,0.2,0.2c0,0,0,0.1,0,0.1c-0.1,0.5-0.1,1.1-0.1,1.6c0,0.7,0,1.1,0.1,1.4c0.1,0.4,0.3,0.6,0.8,0.6
		c0.2,0,0.4-0.1,0.6-0.2s0.3-0.3,0.3-0.5c0-0.1,0-1.1,0-2.9c0-0.1,0-0.2,0-0.2c0,0,0.1-0.1,0.2-0.1c0.2,0,0.5,0,0.9,0s0.7,0,0.9,0
		c0.1,0,0.2,0,0.2,0.1C102.5,44.2,102.5,44.3,102.5,44.3z"/>
	<path class="st0" d="M109.7,41.3c0-0.1,0,0,0,0.4c0,0.4-0.1,1-0.1,1.7c0,0.8,0,1.6,0,2.6c0,1.6,0,2.8,0.1,3.4c0,0.1,0,0.1,0,0.1
		c0,0,0,0.1-0.1,0.1c-0.1,0-0.7,0-1.6,0c-0.2,0-0.3,0-0.4-0.1c0-0.1,0-0.3,0-0.4c0,0,0-0.1,0-0.1c0,0-0.1,0-0.1,0.1
		c-0.4,0.4-0.9,0.6-1.6,0.6c-0.8,0-1.5-0.3-2-0.9c-0.5-0.6-0.7-1.2-0.7-2.1c0-0.9,0.2-1.6,0.7-2.1c0.5-0.6,1.2-0.9,2-0.9
		c0.6,0,1,0.2,1.4,0.6c0.1,0.1,0.1,0.1,0.1,0.1c0,0,0.1-0.1,0.1-0.2c0-0.3,0-0.8,0-1.3s0-1,0-1.3c0-0.1,0-0.2,0.1-0.2
		c0.3,0,0.6,0,1-0.1c0.8-0.1,1.1-0.1,1-0.1C109.6,41.2,109.7,41.2,109.7,41.3z M107.5,46.7c0-0.3-0.1-0.6-0.3-0.8s-0.5-0.3-0.8-0.3
		c-0.3,0-0.6,0.1-0.8,0.3s-0.3,0.5-0.3,0.8c0,0.3,0.1,0.6,0.3,0.8c0.2,0.2,0.4,0.4,0.8,0.4s0.6-0.1,0.8-0.4S107.5,47,107.5,46.7z"/>
	<path class="st0" d="M114.4,46c0,0.2-0.1,0.2-0.3,0.2c-0.1,0-0.2,0-0.3,0s-0.2,0-0.3,0c-0.3,0-0.5,0.1-0.7,0.2s-0.2,0.3-0.2,0.6
		c0,0.2,0,0.4,0,0.8s0,0.6,0,0.8c0,0.1,0,0.3,0,0.5s0,0.4,0,0.5c0,0.1-0.1,0.1-0.2,0.2c-0.2,0-0.5,0-0.9,0c-0.4,0-0.7,0-0.9,0
		c-0.1,0-0.2-0.1-0.2-0.2c0-0.3,0-0.8,0-1.4s0-1.1,0-1.4c0-0.9-0.1-1.7-0.3-2.3c0,0,0-0.1,0-0.1c0-0.1,0-0.1,0.1-0.1
		c0.2,0,0.5-0.1,0.9-0.1c0.6-0.1,0.9-0.2,1-0.2c0.1,0,0.1,0.1,0.1,0.4s0.1,0.4,0.1,0.4c-0.1,0,0.1-0.1,0.5-0.3s0.7-0.3,1.1-0.3
		c0.2,0,0.3,0,0.3,0.1c0,0.1,0,0.3,0,0.5c0,0.2,0,0.4,0,0.5c0,0.1,0,0.3,0,0.5C114.4,45.8,114.4,45.9,114.4,46z"/>
	<path class="st0" d="M117.3,47c0,0.3,0,0.7,0,1.3s0,1,0,1.3c0,0.1,0,0.1-0.1,0.1c-0.1,0-0.4,0-0.9,0c-0.5,0-0.8,0-0.9,0
		c-0.1,0-0.1,0-0.2-0.1c0,0,0-0.1,0-0.2c0-0.3,0-0.7,0-1.2s0-0.9,0-1.2c0-1.1,0-2-0.1-2.6c0-0.1,0-0.1,0-0.1c0-0.1,0.1-0.1,0.2-0.1
		c0.1,0,0.3,0,0.5,0s0.4,0,0.5,0s0.3,0,0.5,0s0.4,0,0.5,0c0.1,0,0.1,0,0.1,0.1c0,0,0,0.1,0,0.1C117.3,45.1,117.3,46,117.3,47z
		 M117.4,42.6c0,0.7-0.4,1-1.1,1c-0.3,0-0.6-0.1-0.8-0.3c-0.2-0.2-0.4-0.4-0.4-0.8c0-0.3,0.1-0.6,0.4-0.8c0.2-0.2,0.5-0.3,0.8-0.3
		c0.3,0,0.6,0.1,0.8,0.3C117.3,42.1,117.4,42.3,117.4,42.6z"/>
	<path class="st0" d="M124.2,49.5c0,0.1-0.1,0.2-0.2,0.2s-0.4,0-0.9,0c-0.5,0-0.8,0-0.9,0s-0.2-0.1-0.2-0.2c0-0.2,0-0.5,0-0.8
		s0-0.7,0-0.8c0-0.1,0-0.4,0-0.6s0-0.5,0-0.6c0-0.5-0.2-0.8-0.7-0.8c-0.2,0-0.3,0.1-0.5,0.2c-0.2,0.1-0.3,0.3-0.3,0.4v3.2
		c0,0.1-0.1,0.2-0.2,0.2c-0.1,0-0.4,0-0.8,0c-0.5,0-0.8,0-0.9,0c-0.1,0-0.2-0.1-0.2-0.2c0-0.3,0-0.8,0-1.4s0-1.1,0-1.4
		c0-1-0.1-1.7-0.2-2.3c0,0,0-0.1,0-0.1c0-0.1,0-0.1,0.1-0.1c0.2,0,0.6-0.1,1-0.1c0.6-0.1,1-0.2,1-0.2c0,0,0.1,0.1,0.1,0.4
		s0.1,0.4,0.1,0.4c0,0,0.2-0.1,0.6-0.4s0.9-0.4,1.2-0.4c0.5,0,0.9,0.1,1.2,0.4c0.4,0.3,0.6,0.6,0.6,1.1v1.9c0,0.3,0,0.6,0,1.1
		S124.2,49.2,124.2,49.5z"/>
	<path class="st0" d="M131.1,46.7c0,0.3,0,0.7,0.1,1.3s0.1,1,0.1,1.3c0,0.2-0.1,0.2-0.2,0.3c-0.5,0-1,0.1-1.7,0.1
		c-0.1,0-0.1-0.1-0.1-0.3s-0.1-0.3-0.1-0.3c0,0-0.1,0-0.1,0.1c-0.4,0.4-0.9,0.7-1.4,0.7c-0.8,0-1.4-0.3-1.9-0.9
		c-0.5-0.6-0.7-1.2-0.7-2c0-0.9,0.2-1.6,0.7-2.2c0.5-0.6,1.2-0.9,2.1-0.9c0.6,0,1.1,0.2,1.5,0.6c0,0,0,0,0,0c0,0,0.1-0.1,0.1-0.3
		s0.1-0.3,0.2-0.3c0.1,0,0.4,0,0.8,0.1c0.4,0.1,0.7,0.1,0.8,0.2c0.1,0,0.1,0.1,0.1,0.1c0,0,0,0.1,0,0.1
		C131.2,45.2,131.1,45.9,131.1,46.7z M129.2,46.8c0-0.3-0.1-0.6-0.3-0.8s-0.5-0.3-0.8-0.3s-0.6,0.1-0.8,0.3s-0.3,0.5-0.3,0.8
		c0,0.3,0.1,0.6,0.3,0.8s0.5,0.3,0.8,0.3c0.3,0,0.6-0.1,0.8-0.3S129.2,47.1,129.2,46.8z"/>
	<path class="st0" d="M142.2,47.1c0,0.7-0.2,1.3-0.7,1.8c-0.5,0.5-1.4,0.8-2.7,0.8c-0.1,0-0.2,0-0.4,0c-0.2,0-0.3,0-0.4,0
		c-1.4,0-2.3,0-2.6-0.1c-0.1,0-0.2-0.1-0.2-0.2c0-0.4,0-1.1,0.1-1.9s0.1-1.5,0.1-1.9c0-0.5,0-1.3-0.1-2.6c0-0.3,0-0.8-0.1-1.4l0-0.1
		c0-0.1,0.1-0.1,0.2-0.1s0.6,0,1.4,0c1.2,0,2,0,2.2,0c1,0,1.7,0.2,2.1,0.5c0.6,0.4,0.9,1,0.9,1.9c0,0.2-0.1,0.5-0.2,0.7
		c-0.1,0.2-0.2,0.4-0.4,0.6c-0.1,0.2-0.2,0.2-0.2,0.2c0,0,0.1,0.1,0.2,0.1c0.3,0.2,0.5,0.4,0.6,0.7
		C142.2,46.4,142.2,46.8,142.2,47.1z M139.7,43.8c0-0.3-0.2-0.6-0.5-0.7c-0.2-0.1-0.5-0.1-0.9-0.1c-0.4,0-0.6,0-0.6,0.1
		c0,0.1,0,0.2,0,0.3s0,0.3,0,0.3c0,0.4,0,0.6,0.1,0.7c0,0,0.3,0.1,0.7,0.1C139.3,44.5,139.7,44.3,139.7,43.8z M139.9,47.1
		c0-0.4-0.1-0.6-0.4-0.7c-0.2-0.1-0.5-0.1-0.9-0.1c-0.5,0-0.8,0-0.8,0.1s-0.1,0.3-0.1,0.7c0,0.5,0,0.7,0.1,0.8s0.3,0.1,0.8,0.1
		c0.4,0,0.7,0,0.9-0.1C139.8,47.7,139.9,47.4,139.9,47.1z"/>
	<path class="st0" d="M150,46.8c0,1-0.1,1.7-0.4,2c-0.4,0.7-1.5,1-3.3,1c-0.8,0-1.4-0.1-1.8-0.2c-0.7-0.2-1.1-0.6-1.3-1.1
		c-0.1-0.3-0.2-0.8-0.2-1.4c0-0.2,0-0.4,0-0.7s0-0.6,0-0.7c0-0.5,0-1.1-0.1-2s-0.1-1.6-0.1-2c0-0.1,0-0.1,0.1-0.1c0.2,0,0.6,0,1.1,0
		s0.8,0,1.1,0c0.1,0,0.1,0,0.1,0.1c0,0.5,0,1.3,0,2.3s0,1.8,0,2.3c0,0.6,0.1,1,0.2,1.2c0.2,0.3,0.5,0.4,1.1,0.4
		c0.8,0,1.2-0.4,1.2-1.2c0-0.6,0-1.4,0-2.5s0-2,0-2.5c0-0.1,0-0.2,0.1-0.2c0.2,0,0.6,0,1,0s0.8,0,1,0c0.1,0,0.2,0,0.2,0.1
		c0,0.4,0,1.1-0.1,2s-0.1,1.6-0.1,2c0,0.1,0,0.3,0,0.6S150,46.6,150,46.8z"/>
	<path class="st0" d="M156.9,43.2c0,0.1,0,0.1-0.1,0.1c-0.1,0-0.7,0-1.8-0.1c0,1,0,1.7,0,2.1c0,0.5,0,1.2,0.1,2.1s0.1,1.6,0.1,2.1
		c0,0.1,0,0.1-0.1,0.1c0,0-0.1,0-0.2,0c-0.2,0-0.6,0-1,0c-0.5,0-0.9,0-1.1,0c-0.1,0-0.2-0.1-0.2-0.2c0-0.5,0-1.2,0.1-2.1
		s0.1-1.6,0.1-2.1c0-0.3,0-1,0-2c-0.8,0.1-1.4,0.1-1.9,0.1c-0.1,0-0.1,0-0.1-0.1c0-0.1,0-0.2,0.1-0.5c0.1-0.3,0.1-0.4,0.1-0.5
		c0-0.2,0-0.4,0-0.6c0-0.3,0.1-0.4,0.1-0.4c0,0,0,0,0.1,0c0.6,0.1,1.6,0.1,2.8,0.1c0.4,0,1,0,1.9-0.1c0.5,0,0.8-0.1,0.8-0.1
		c0.1,0,0.1,0,0.1,0s0,0,0,0.1c0,0.1,0,0.3,0,0.4c0,0.2,0,0.4,0,0.4c0,0.1,0,0.2,0,0.4S156.9,43.1,156.9,43.2z"/>
	<path class="st0" d="M169.2,49.5c0,0.1-0.1,0.2-0.2,0.2H167c-0.1,0-0.2-0.1-0.2-0.2c0-0.4,0-1,0-1.8s0-1.4,0-1.8
		c0-0.1,0-0.2-0.1-0.2c0,0-0.3,0.6-0.8,1.8c-0.3,0.7-0.6,1.4-0.8,2.1c0,0.1-0.1,0.1-0.1,0.2c0,0-0.1,0-0.2,0c-0.2,0-0.3,0-0.4-0.1
		c-0.2-0.4-0.5-1.1-0.8-1.9c-0.4-0.9-0.6-1.5-0.8-1.9c0,0,0,0-0.1-0.1c0,0,0,0.1,0,0.2c0,0.4,0,1,0,1.7s0,1.3,0,1.7
		c0,0.1-0.1,0.2-0.2,0.2h-2c-0.1,0-0.1,0-0.1,0s0-0.1,0-0.1c0-0.4,0-1.1,0.1-1.9s0.1-1.5,0.1-1.9c0-0.5,0-1.3-0.1-2.5
		c0-0.3,0-0.8-0.1-1.4l0-0.1c0-0.1,0.1-0.1,0.2-0.1c0.2,0,0.5,0,1,0s0.8,0,1,0c0,0,0.1,0.1,0.2,0.2l1.7,3.8c0.1,0.3,0.2,0.4,0.3,0.4
		c0,0,0.1-0.1,0.3-0.4c0.4-0.8,1-2.1,1.8-3.7c0.1-0.2,0.1-0.2,0.2-0.2c0.1,0,0.3,0,0.5,0s0.4,0,0.5,0c0.1,0,0.2,0,0.4,0s0.4,0,0.4,0
		c0.1,0,0.2,0,0.2,0.1c0,0.5,0,1.1,0,2.1s0,1.6,0,2.1c0,0.4,0,1.1,0.1,1.9S169.2,49,169.2,49.5z"/>
	<path class="st0" d="M179,49.5c0,0.1-0.1,0.2-0.2,0.2h-2.1c-0.1,0-0.2-0.1-0.2-0.2c0-0.4,0-1,0-1.8s0-1.4,0-1.8
		c0-0.1,0-0.2-0.1-0.2c0,0-0.3,0.6-0.8,1.8c-0.3,0.7-0.6,1.4-0.8,2.1c0,0.1-0.1,0.1-0.1,0.2c0,0-0.1,0-0.2,0c-0.2,0-0.3,0-0.4-0.1
		c-0.2-0.4-0.5-1.1-0.8-1.9c-0.4-0.9-0.6-1.5-0.8-1.9c0,0,0,0-0.1-0.1c0,0,0,0.1,0,0.2c0,0.4,0,1,0,1.7s0,1.3,0,1.7
		c0,0.1-0.1,0.2-0.2,0.2h-2c-0.1,0-0.1,0-0.1,0s0-0.1,0-0.1c0-0.4,0-1.1,0.1-1.9s0.1-1.5,0.1-1.9c0-0.5,0-1.3-0.1-2.5
		c0-0.3,0-0.8-0.1-1.4l0-0.1c0-0.1,0.1-0.1,0.2-0.1c0.2,0,0.5,0,1,0s0.8,0,1,0c0,0,0.1,0.1,0.2,0.2l1.7,3.8c0.1,0.3,0.2,0.4,0.3,0.4
		c0,0,0.1-0.1,0.3-0.4c0.4-0.8,1-2.1,1.8-3.7c0.1-0.2,0.1-0.2,0.2-0.2c0.1,0,0.3,0,0.5,0s0.4,0,0.5,0c0.1,0,0.2,0,0.4,0s0.4,0,0.4,0
		c0.1,0,0.2,0,0.2,0.1c0,0.5,0,1.1,0,2.1s0,1.6,0,2.1c0,0.4,0,1.1,0.1,1.9S179,49,179,49.5z"/>
	<path class="st0" d="M182.5,45.3c0,0.5,0,1.2,0,2.1s0,1.6,0,2.1c0,0.1,0,0.1-0.1,0.1c0,0-0.1,0-0.2,0c-0.3,0-0.6,0-1,0
		c-0.6,0-0.9,0-1.1,0c-0.1,0-0.2-0.1-0.2-0.2c0,0.1,0-0.3,0.1-1c0.1-1.6,0.1-2.6,0.1-3.1c0-0.4,0-1,0-1.9s0-1.5,0-1.9
		c0-0.1,0-0.1,0.1-0.1c0.1,0,0.3,0,0.5,0s0.4,0,0.5,0s0.3,0,0.5,0s0.4,0,0.5,0c0.1,0,0.2,0,0.2,0.1c0,0.4,0,1-0.1,1.9
		S182.5,44.9,182.5,45.3z"/>
	<path class="st0" d="M192.3,48c0,0.1,0,0.2,0,0.4s0,0.3,0,0.4s0,0.2,0,0.4s0,0.4,0,0.4s-0.1,0.1-0.2,0.1c0,0-0.2,0-0.6-0.1
		c-0.4-0.1-1-0.1-2-0.1c-0.3,0-0.8,0-1.4,0s-1,0-1.3,0c-0.1,0-0.2,0-0.2-0.1c0-0.1,0-0.3-0.1-0.6c-0.1-0.4-0.1-0.6-0.1-0.7
		c0-0.1,0.2-0.2,0.5-0.2c0.4-0.1,0.6-0.1,0.7-0.2c0.4-0.3,0.8-0.8,1.2-1.3c0.5-0.6,0.8-1.1,0.8-1.4c0-0.3-0.1-0.5-0.3-0.7
		s-0.4-0.3-0.7-0.3c-0.3,0-0.6,0.1-0.9,0.2c-0.2,0.1-0.4,0.2-0.7,0.3c-0.2,0.1-0.3,0.2-0.3,0.2c-0.1,0-0.2-0.2-0.2-0.5
		c0-0.2,0-0.4,0-0.5c0-0.1,0-0.2-0.1-0.3c0-0.1-0.1-0.2-0.1-0.3c0-0.1,0-0.1,0.1-0.1c0.3-0.2,0.8-0.4,1.3-0.5c0.5-0.1,1-0.2,1.4-0.2
		c0.7,0,1.4,0.2,1.9,0.5c0.6,0.4,0.9,0.9,0.9,1.6c0,0.9-0.7,2-2.1,3.3c1-0.1,1.8-0.1,2.4-0.1C192.2,47.8,192.3,47.8,192.3,48z"/>
	<path class="st0" d="M201.2,46.5c0,0.4-0.1,0.6-0.4,0.7c0,0-0.4,0.1-1.2,0.1c-0.5,0.1-1.1,0.1-2.1,0.2c0.1,0.3,0.2,0.4,0.5,0.6
		c0.2,0.1,0.5,0.2,0.8,0.2c0.3,0,0.7-0.1,1-0.3c0.1-0.1,0.3-0.2,0.4-0.3c0.1,0,0.2,0.2,0.4,0.6s0.3,0.6,0.3,0.7c0,0,0,0.1-0.1,0.1
		c-0.5,0.5-1.2,0.8-2.2,0.8c-0.9,0-1.7-0.3-2.3-0.8c-0.6-0.6-0.9-1.3-0.9-2.2c0-0.9,0.3-1.6,0.8-2.2c0.5-0.6,1.3-0.9,2.1-0.9
		c0.8,0,1.4,0.3,1.9,0.8S201.2,45.7,201.2,46.5z M199.6,43.3c0,0.1,0,0.1-0.1,0.1h0c-0.5-0.1-1.1-0.2-1.7-0.5
		c-0.7-0.3-1.2-0.6-1.5-0.9c-0.1-0.1-0.1-0.1-0.1-0.1c0,0,0-0.1,0.1-0.1c0.1-0.1,0.3-0.2,0.5-0.3c0.1-0.1,0.2-0.2,0.4-0.4
		c0,0,0.1,0,0.1-0.1c0.3,0.2,0.7,0.5,1.2,0.8c0.5,0.3,0.8,0.5,1.1,0.6c0.1,0,0.1,0.1,0.1,0.1c0,0,0,0.1,0,0.2s0,0.2,0,0.2
		s0,0.1,0,0.2S199.6,43.2,199.6,43.3z M199.2,46.1c0-0.2-0.1-0.5-0.3-0.6s-0.4-0.3-0.6-0.3c-0.2,0-0.4,0.1-0.6,0.3
		c-0.1,0.2-0.2,0.4-0.2,0.7c0,0.1,0.1,0.2,0.2,0.2c0.3,0,0.7,0,1.3-0.1C199.1,46.2,199.2,46.1,199.2,46.1z"/>
	<path class="st0" d="M211.2,49.4c0,0.1-0.1,0.2-0.2,0.2s-0.4,0-0.9,0c-0.5,0-0.8,0-0.9,0s-0.2-0.1-0.2-0.3c0-0.2,0-0.4,0-0.8
		s0-0.6,0-0.8c0-0.7,0-1.2,0-1.5c0-0.5-0.2-0.7-0.7-0.7c-0.2,0-0.4,0.1-0.5,0.2s-0.3,0.3-0.3,0.5c0,0.2,0,0.6,0,1.4
		c0,0.2,0,0.5,0,0.8s0,0.7,0,0.8c0,0.1-0.1,0.2-0.2,0.2h-1.8c-0.1,0-0.2-0.1-0.2-0.2c0-0.2,0-0.5,0-0.8s0-0.6,0-0.8
		c0-0.1,0-0.4,0-0.7s0-0.5,0-0.7c0-0.6-0.2-0.8-0.6-0.8c-0.2,0-0.4,0.1-0.6,0.2c-0.2,0.1-0.3,0.3-0.3,0.5c0,0.4,0,0.9,0,1.6
		s0,1.2,0,1.6c0,0.1,0,0.2,0,0.2s-0.1,0-0.2,0c-0.2,0-0.5,0-0.8,0c-0.2,0-0.5,0-0.8,0c-0.1,0-0.1,0-0.2,0s0-0.1,0-0.2
		c0-0.3,0-0.8,0-1.4s0-1.1,0-1.4c0-0.6,0-1.4-0.1-2.2c0,0,0-0.1,0-0.1c0-0.1,0-0.1,0.1-0.1c0.1,0,0.2-0.1,0.5-0.1
		c0.3,0,0.5,0,0.5-0.1c0,0,0.2,0,0.5-0.1c0.2-0.1,0.3-0.1,0.5-0.1c0.1,0,0.1,0.1,0.1,0.4s0,0.4,0,0.4c0,0,0.1,0,0.1-0.1
		c0.4-0.3,0.6-0.5,0.8-0.6c0.3-0.1,0.6-0.2,1-0.2c0.4,0,0.7,0.1,1,0.2c0.3,0.2,0.5,0.4,0.6,0.8c0.2-0.3,0.5-0.5,0.9-0.7
		s0.7-0.3,1.1-0.3c0.5,0,0.9,0.1,1.3,0.4c0.4,0.3,0.6,0.7,0.6,1.2c0,0.2,0,0.5,0,0.9s0,0.7,0,0.9c0,0.2,0,0.6,0,1.1
		S211.2,49.2,211.2,49.4z"/>
	<path class="st0" d="M217.7,46.5c0,0.4-0.1,0.6-0.4,0.7c0,0-0.4,0.1-1.2,0.1c-0.5,0.1-1.1,0.1-2.1,0.2c0.1,0.3,0.2,0.4,0.5,0.6
		c0.2,0.1,0.5,0.2,0.8,0.2c0.3,0,0.7-0.1,1-0.3c0.1-0.1,0.3-0.2,0.4-0.3c0.1,0,0.2,0.2,0.4,0.6s0.3,0.6,0.3,0.7c0,0,0,0.1-0.1,0.1
		c-0.5,0.5-1.2,0.8-2.2,0.8c-0.9,0-1.7-0.3-2.3-0.8c-0.6-0.6-0.9-1.3-0.9-2.2c0-0.9,0.3-1.6,0.8-2.2c0.5-0.6,1.3-0.9,2.1-0.9
		c0.8,0,1.4,0.3,1.9,0.8S217.7,45.7,217.7,46.5z M215.7,46.1c0-0.2-0.1-0.5-0.3-0.6s-0.4-0.3-0.6-0.3c-0.2,0-0.4,0.1-0.6,0.3
		c-0.1,0.2-0.2,0.4-0.2,0.7c0,0.1,0.1,0.2,0.2,0.2c0.3,0,0.7,0,1.3-0.1C215.6,46.2,215.7,46.1,215.7,46.1z"/>
	<path class="st0" d="M227.3,46.7c0,0.3,0,0.7,0.1,1.3s0.1,1,0.1,1.3c0,0.2-0.1,0.2-0.2,0.3c-0.5,0-1,0.1-1.7,0.1
		c-0.1,0-0.1-0.1-0.1-0.3s-0.1-0.3-0.1-0.3c0,0-0.1,0-0.1,0.1c-0.4,0.4-0.9,0.7-1.4,0.7c-0.8,0-1.4-0.3-1.9-0.9
		c-0.5-0.6-0.7-1.2-0.7-2c0-0.9,0.2-1.6,0.7-2.2c0.5-0.6,1.2-0.9,2.1-0.9c0.6,0,1.1,0.2,1.5,0.6c0,0,0,0,0,0c0,0,0.1-0.1,0.1-0.3
		s0.1-0.3,0.2-0.3c0.1,0,0.4,0,0.8,0.1c0.4,0.1,0.7,0.1,0.8,0.2c0.1,0,0.1,0.1,0.1,0.1c0,0,0,0.1,0,0.1
		C227.3,45.2,227.3,45.9,227.3,46.7z M225.4,46.8c0-0.3-0.1-0.6-0.3-0.8s-0.5-0.3-0.8-0.3s-0.6,0.1-0.8,0.3s-0.3,0.5-0.3,0.8
		c0,0.3,0.1,0.6,0.3,0.8s0.5,0.3,0.8,0.3c0.3,0,0.6-0.1,0.8-0.3S225.4,47.1,225.4,46.8z"/>
	<path class="st0" d="M234.2,49.5c0,0.1-0.1,0.2-0.2,0.2s-0.4,0-0.9,0c-0.5,0-0.8,0-0.9,0s-0.2-0.1-0.2-0.2c0-0.2,0-0.5,0-0.8
		s0-0.7,0-0.8c0-0.1,0-0.4,0-0.6s0-0.5,0-0.6c0-0.5-0.2-0.8-0.7-0.8c-0.2,0-0.3,0.1-0.5,0.2c-0.2,0.1-0.3,0.3-0.3,0.4v3.2
		c0,0.1-0.1,0.2-0.2,0.2c-0.1,0-0.4,0-0.8,0c-0.5,0-0.8,0-0.9,0c-0.1,0-0.2-0.1-0.2-0.2c0-0.3,0-0.8,0-1.4s0-1.1,0-1.4
		c0-1-0.1-1.7-0.2-2.3c0,0,0-0.1,0-0.1c0-0.1,0-0.1,0.1-0.1c0.2,0,0.6-0.1,1-0.1c0.6-0.1,1-0.2,1-0.2c0,0,0.1,0.1,0.1,0.4
		s0.1,0.4,0.1,0.4c0,0,0.2-0.1,0.6-0.4s0.9-0.4,1.2-0.4c0.5,0,0.9,0.1,1.2,0.4c0.4,0.3,0.6,0.6,0.6,1.1v1.9c0,0.3,0,0.6,0,1.1
		S234.2,49.2,234.2,49.5z"/>
	<path class="st0" d="M241.1,49.5c0,0.1-0.1,0.2-0.2,0.2s-0.4,0-0.9,0c-0.5,0-0.8,0-0.9,0s-0.2-0.1-0.2-0.2c0-0.2,0-0.5,0-0.8
		s0-0.7,0-0.8c0-0.1,0-0.4,0-0.6s0-0.5,0-0.6c0-0.5-0.2-0.8-0.7-0.8c-0.2,0-0.3,0.1-0.5,0.2c-0.2,0.1-0.3,0.3-0.3,0.4v3.2
		c0,0.1-0.1,0.2-0.2,0.2c-0.1,0-0.4,0-0.8,0c-0.5,0-0.8,0-0.9,0c-0.1,0-0.2-0.1-0.2-0.2c0-0.3,0-0.8,0-1.4s0-1.1,0-1.4
		c0-1-0.1-1.7-0.2-2.3c0,0,0-0.1,0-0.1c0-0.1,0-0.1,0.1-0.1c0.2,0,0.6-0.1,1-0.1c0.6-0.1,1-0.2,1-0.2c0,0,0.1,0.1,0.1,0.4
		s0.1,0.4,0.1,0.4c0,0,0.2-0.1,0.6-0.4s0.9-0.4,1.2-0.4c0.5,0,0.9,0.1,1.2,0.4c0.4,0.3,0.6,0.6,0.6,1.1v1.9c0,0.3,0,0.6,0,1.1
		S241.1,49.2,241.1,49.5z"/>
	<path class="st0" d="M247.4,46.5c0,0.4-0.1,0.6-0.4,0.7c0,0-0.4,0.1-1.2,0.1c-0.5,0.1-1.1,0.1-2.1,0.2c0.1,0.3,0.2,0.4,0.5,0.6
		c0.2,0.1,0.5,0.2,0.8,0.2c0.3,0,0.7-0.1,1-0.3c0.1-0.1,0.3-0.2,0.4-0.3c0.1,0,0.2,0.2,0.4,0.6s0.3,0.6,0.3,0.7c0,0,0,0.1-0.1,0.1
		c-0.5,0.5-1.2,0.8-2.2,0.8c-0.9,0-1.7-0.3-2.3-0.8c-0.6-0.6-0.9-1.3-0.9-2.2c0-0.9,0.3-1.6,0.8-2.2c0.5-0.6,1.3-0.9,2.1-0.9
		c0.8,0,1.4,0.3,1.9,0.8S247.4,45.7,247.4,46.5z M243.4,43.3c-0.1,0-0.1,0-0.1-0.1c0,0,0-0.1,0-0.1s0-0.1,0-0.2c0,0,0-0.1,0-0.2
		s0-0.2,0-0.2c0-0.1,0-0.1,0.1-0.1c0.2-0.1,0.6-0.3,1.1-0.6c0.2-0.2,0.6-0.4,1.1-0.8c0,0,0.1,0,0.1-0.1c0,0,0.1,0,0.1,0.1
		c0.1,0.1,0.2,0.2,0.4,0.4c0.1,0.1,0.3,0.2,0.5,0.3c0.1,0,0.1,0.1,0.1,0.1c0,0,0,0.1-0.1,0.1c-0.3,0.3-0.9,0.6-1.5,0.9
		S243.9,43.3,243.4,43.3L243.4,43.3z M245.3,46.1c0-0.2-0.1-0.5-0.3-0.6s-0.4-0.3-0.6-0.3c-0.2,0-0.4,0.1-0.6,0.3
		c-0.1,0.2-0.2,0.4-0.2,0.7c0,0.1,0.1,0.2,0.2,0.2c0.3,0,0.7,0,1.3-0.1C245.3,46.2,245.3,46.1,245.3,46.1z"/>
	<path class="st0" d="M253.4,46.5c0,0.4-0.1,0.6-0.4,0.7c0,0-0.4,0.1-1.2,0.1c-0.5,0.1-1.1,0.1-2.1,0.2c0.1,0.3,0.2,0.4,0.5,0.6
		c0.2,0.1,0.5,0.2,0.8,0.2c0.3,0,0.7-0.1,1-0.3c0.1-0.1,0.3-0.2,0.4-0.3c0.1,0,0.2,0.2,0.4,0.6s0.3,0.6,0.3,0.7c0,0,0,0.1-0.1,0.1
		c-0.5,0.5-1.2,0.8-2.2,0.8c-0.9,0-1.7-0.3-2.3-0.8c-0.6-0.6-0.9-1.3-0.9-2.2c0-0.9,0.3-1.6,0.8-2.2c0.5-0.6,1.3-0.9,2.1-0.9
		c0.8,0,1.4,0.3,1.9,0.8S253.4,45.7,253.4,46.5z M251.4,46.1c0-0.2-0.1-0.5-0.3-0.6s-0.4-0.3-0.6-0.3c-0.2,0-0.4,0.1-0.6,0.3
		c-0.1,0.2-0.2,0.4-0.2,0.7c0,0.1,0.1,0.2,0.2,0.2c0.3,0,0.7,0,1.3-0.1C251.3,46.2,251.4,46.1,251.4,46.1z"/>
	<path class="st0" d="M262.2,45.3v1.6h-2.7v-1.6H262.2z"/>
	<path class="st0" d="M269.8,47c0,0.8-0.3,1.5-1,2c-0.6,0.5-1.3,0.8-2.1,1c0,0-0.1,0-0.1,0c-0.1,0-0.3-0.3-0.6-0.8s-0.5-0.9-0.5-1
		c0,0,0-0.1,0.1-0.1c0.6-0.1,0.9-0.2,1.1-0.3c0.4-0.2,0.6-0.5,0.6-0.9c0-0.3-0.1-0.5-0.4-0.8c-0.5-0.5-0.7-0.8-0.8-0.9
		c-0.3-0.4-0.4-0.9-0.4-1.3c0-0.7,0.3-1.3,1-1.8c0.5-0.4,1.2-0.6,2-0.8c0,0,0.1,0,0.1,0c0.1,0,0.1,0,0.1,0.1
		c0.1,0.3,0.3,0.8,0.7,1.5c0,0,0,0,0,0.1c0,0.1,0,0.1-0.1,0.1c0,0-0.1,0-0.2,0s-0.1,0-0.2,0c-0.3,0-0.5,0.1-0.7,0.2
		c-0.3,0.1-0.4,0.4-0.4,0.6c0,0.2,0.1,0.5,0.4,0.9c0.5,0.6,0.8,1,0.8,1C269.6,46.1,269.8,46.5,269.8,47z"/>
	<path class="st0" d="M278.5,49.5c0,0.1,0,0.1-0.1,0.1c-0.1,0-0.5,0-1.1,0c-0.6,0-0.9,0-1.1,0c-0.1,0-0.2-0.1-0.3-0.3
		c-0.1-0.6-0.2-0.9-0.3-0.9c-0.1,0-0.6,0-1.6,0c-0.7,0-1,0-1.1,0.1c-0.1,0.1-0.1,0.3-0.2,0.6c-0.1,0.3-0.2,0.5-0.3,0.5
		c-0.1,0-0.6,0-1.3,0c-0.6,0-0.9-0.1-0.9-0.2c0-0.1,0.4-1.3,1.3-3.7c1-2.6,1.5-4,1.6-4.3c0-0.1,0.1-0.2,0.2-0.2c0.1,0,0.3,0,0.5,0
		s0.4,0,0.5,0c0.1,0,0.3,0,0.5,0s0.4,0,0.5,0c0.1,0,0.1,0.1,0.2,0.2c0.2,0.4,0.8,1.8,1.7,4.2C278,48.1,278.5,49.4,278.5,49.5z
		 M274.3,44.2c-0.1,0.2-0.2,0.5-0.4,1.1c-0.2,0.6-0.3,1-0.3,1.1c0,0.1,0.1,0.1,0.4,0.1c0.1,0,0.3,0,0.6,0c0.3,0,0.4,0,0.4-0.1
		c0,0,0,0,0-0.1c0-0.1-0.1-0.5-0.3-1.1C274.5,44.7,274.4,44.3,274.3,44.2z"/>
	<path class="st0" d="M285.1,47.8c0,0.2,0,0.5-0.1,0.9c-0.1,0.5-0.1,0.8-0.2,0.9c0,0.1-0.1,0.1-0.2,0.1c0,0-0.1,0-0.2,0
		c-0.3,0-1.1-0.1-2.5-0.1c-0.3,0-0.7,0-1.3,0s-1,0-1.3,0c-0.1,0-0.2-0.1-0.2-0.2c0-0.4,0-1.1,0.1-2s0.1-1.5,0.1-2
		c0-0.4,0-1.3-0.1-2.5c0-0.3,0-0.8-0.1-1.4l0-0.1c0-0.1,0-0.1,0.1-0.1c0.3,0,0.7,0,1.3,0s1,0,1.3,0c0.3,0,0.7,0,1.3,0s1,0,1.3,0
		c0.2,0,0.3,0.1,0.4,0.2c0,0.1,0,0.4,0.1,0.8s0.1,0.7,0.1,0.8c0,0.1,0,0.1-0.1,0.1c0,0-0.1,0-0.1,0c-1-0.1-2-0.1-2.8-0.1
		c-0.2,0-0.3,0-0.4,0.1c0,0,0,0.2,0,0.5c0,0.3,0,0.4,0.1,0.5c0.1,0.1,0.2,0.1,0.4,0.1c0,0,0.1,0,0.2,0s0.2,0,0.3,0c0.5,0,1,0,1.5,0
		c0,0,0.2,0,0.3,0c0.1,0,0.2,0,0.3,0c0.1,0,0.1,0,0.1,0.1c0-0.1,0,0.2-0.1,0.9c0,0.3,0,0.6,0,0.9c0,0.1-0.1,0.1-0.2,0.1l-0.5-0.1
		c-0.2,0-0.7,0-1.5,0h-0.6c-0.2,0-0.3,0-0.3,0.1c0,0,0,0.1,0,0.4c0,0.3,0,0.5,0.1,0.6c0.1,0.1,0.3,0.2,0.8,0.3c0,0,0.3,0,0.9,0
		c0.2,0,0.5,0,0.9-0.1s0.7-0.1,0.9-0.1C285,47.6,285.1,47.7,285.1,47.8z"/>
	<path class="st0" d="M294,47.6c0,0.7-0.3,1.3-0.9,1.7c-0.5,0.3-1.1,0.5-1.9,0.5c-0.6,0-1.1,0-1.4-0.1c-0.8-0.2-1.2-0.3-1.2-0.5
		c0,0,0-0.1,0-0.1c0.1-0.1,0.1-0.4,0.2-0.7c0-0.1,0.1-0.4,0.2-0.6c0-0.1,0.1-0.1,0.2-0.1c0,0,0.2,0.1,0.5,0.2s0.7,0.2,0.9,0.2
		c0.8,0,1.1-0.3,1.1-0.8c0-0.4-0.4-0.6-1.1-0.6c-0.1,0-0.2,0-0.4,0s-0.3,0-0.3,0c-0.2,0-0.4,0-0.4,0c-0.2,0-0.3-0.1-0.3-0.2
		c0-0.6,0-1,0.1-1.1c0-0.1,0.1-0.1,0.2-0.1c0.1,0,0.3,0,0.6,0s0.5,0,0.6,0c0.2,0,0.3-0.1,0.4-0.2s0.2-0.3,0.2-0.4
		c0-0.5-0.3-0.7-1-0.7c-0.3,0-0.7,0.1-1.1,0.2c0,0,0,0-0.1,0c-0.1,0-0.1-0.1-0.1-0.2c0-0.2,0-0.4,0-0.6c0,0,0-0.1,0-0.3
		c0-0.1,0-0.2,0-0.3c0-0.2,0.3-0.4,1-0.5c0.4-0.1,0.9-0.1,1.3-0.1c0.7,0,1.2,0.1,1.7,0.4c0.6,0.4,0.9,0.8,0.9,1.5
		c0,0.7-0.3,1.3-1,1.6c0.4,0.1,0.7,0.3,0.9,0.7S294,47.2,294,47.6z"/>
	<path class="st0" d="M301.4,46.1c0,1-0.3,1.9-1,2.6c-0.7,0.8-1.5,1.1-2.5,1.1s-1.8-0.4-2.5-1.1c-0.7-0.7-1-1.6-1-2.6
		c0-1,0.3-1.9,1-2.6c0.7-0.7,1.5-1.1,2.5-1.1s1.8,0.4,2.5,1.1C301.1,44.2,301.4,45.1,301.4,46.1z M299.2,46.1c0-0.4-0.1-0.8-0.4-1
		c-0.3-0.3-0.6-0.5-1-0.5c-0.4,0-0.7,0.2-1,0.5c-0.2,0.3-0.3,0.6-0.3,1.1c0,0.4,0.1,0.8,0.3,1.1c0.3,0.3,0.6,0.5,1,0.5
		c0.4,0,0.7-0.2,1-0.5C299.1,46.9,299.2,46.5,299.2,46.1z"/>
	<path class="st0" d="M307.4,47.6c0,0.7-0.3,1.3-0.9,1.7c-0.5,0.3-1.1,0.5-1.9,0.5c-0.6,0-1.1,0-1.4-0.1c-0.8-0.2-1.2-0.3-1.2-0.5
		c0,0,0-0.1,0-0.1c0.1-0.1,0.1-0.4,0.2-0.7c0-0.1,0.1-0.4,0.2-0.6c0-0.1,0.1-0.1,0.2-0.1c0,0,0.2,0.1,0.5,0.2s0.7,0.2,0.9,0.2
		c0.8,0,1.1-0.3,1.1-0.8c0-0.4-0.4-0.6-1.1-0.6c-0.1,0-0.2,0-0.4,0s-0.3,0-0.3,0c-0.2,0-0.4,0-0.4,0c-0.2,0-0.3-0.1-0.3-0.2
		c0-0.6,0-1,0.1-1.1c0-0.1,0.1-0.1,0.2-0.1c0.1,0,0.3,0,0.6,0s0.5,0,0.6,0c0.2,0,0.3-0.1,0.4-0.2s0.2-0.3,0.2-0.4
		c0-0.5-0.3-0.7-1-0.7c-0.3,0-0.7,0.1-1.1,0.2c0,0,0,0-0.1,0c-0.1,0-0.1-0.1-0.1-0.2c0-0.2,0-0.4,0-0.6c0,0,0-0.1,0-0.3
		c0-0.1,0-0.2,0-0.3c0-0.2,0.3-0.4,1-0.5c0.4-0.1,0.9-0.1,1.3-0.1c0.7,0,1.2,0.1,1.7,0.4c0.6,0.4,0.9,0.8,0.9,1.5
		c0,0.7-0.3,1.3-1,1.6c0.4,0.1,0.7,0.3,0.9,0.7S307.4,47.2,307.4,47.6z"/>
	<path class="st0" d="M315.2,45.1c0,0.1,0,0.3-0.1,0.5c0,0.2-0.1,0.3-0.1,0.5c0,0.2-0.1,0.5-0.1,0.8c0,0.1-0.1,0.1-0.1,0.1
		c-0.1,0-0.4,0-0.7,0s-0.5,0-0.7,0c-0.4,0-1,0-1.7,0.1c0,0-0.1,0-0.3,0c-0.1,0-0.2,0-0.3,0c-0.1,0-0.2-0.1-0.2-0.3
		c0-0.1,0.1-0.4,0.2-0.8c0.1-0.4,0.2-0.7,0.3-0.9c0-0.1,0.1-0.1,0.2-0.1c0.2,0,0.4,0,0.7,0s0.5,0,0.7,0c0.3,0,0.8,0,1.6-0.1
		c0.4-0.1,0.6-0.1,0.5-0.1C315.2,44.9,315.2,45,315.2,45.1z"/>
	<path class="st0" d="M326,48.3c0,0.1,0,0.1-0.1,0.2c-0.7,0.9-1.7,1.3-2.9,1.3c-1.2,0-2.2-0.4-3-1.2c-0.7-0.8-1.1-1.8-1.1-3
		c0-1.2,0.4-2.2,1.1-3c0.8-0.9,1.7-1.3,2.9-1.3c1.3,0,2.3,0.4,3,1.2c0.1,0.1,0.1,0.2,0.1,0.2c0,0.1-0.1,0.3-0.4,0.8
		s-0.4,0.7-0.5,0.8c0,0-0.1,0-0.1,0c0,0-0.1-0.1-0.3-0.2c-0.2-0.2-0.4-0.3-0.6-0.4c-0.3-0.2-0.6-0.2-1-0.2c-0.6,0-1,0.2-1.4,0.6
		c-0.3,0.4-0.5,0.9-0.5,1.5c0,0.6,0.2,1.1,0.5,1.5c0.3,0.4,0.8,0.7,1.4,0.7c0.3,0,0.7-0.1,1-0.2c0.2-0.1,0.4-0.2,0.6-0.4
		c0.2-0.1,0.3-0.2,0.3-0.2c0,0,0.1,0,0.1,0.1c0.1,0.1,0.2,0.3,0.5,0.7C325.9,48,326,48.3,326,48.3z"/>
	<path class="st0" d="M332.3,46.8c0,0.9-0.3,1.6-0.8,2.2s-1.3,0.8-2.1,0.8c-0.9,0-1.6-0.3-2.1-0.8s-0.8-1.3-0.8-2.1
		c0-0.9,0.3-1.6,0.8-2.2s1.3-0.8,2.2-0.8c0.9,0,1.6,0.3,2.1,0.8S332.3,45.9,332.3,46.8z M330.3,46.8c0-0.3-0.1-0.6-0.3-0.8
		s-0.4-0.4-0.7-0.4c-0.3,0-0.6,0.1-0.8,0.4c-0.2,0.2-0.3,0.5-0.3,0.8c0,0.3,0.1,0.6,0.3,0.8c0.2,0.2,0.5,0.4,0.8,0.4
		c0.3,0,0.6-0.1,0.8-0.4C330.2,47.4,330.3,47.1,330.3,46.8z"/>
	<path class="st0" d="M338.8,49.5c0,0.1-0.1,0.2-0.2,0.2s-0.4,0-0.9,0c-0.5,0-0.8,0-0.9,0s-0.2-0.1-0.2-0.2c0-0.2,0-0.5,0-0.8
		s0-0.7,0-0.8c0-0.1,0-0.4,0-0.6s0-0.5,0-0.6c0-0.5-0.2-0.8-0.7-0.8c-0.2,0-0.3,0.1-0.5,0.2c-0.2,0.1-0.3,0.3-0.3,0.4v3.2
		c0,0.1-0.1,0.2-0.2,0.2c-0.1,0-0.4,0-0.8,0c-0.5,0-0.8,0-0.9,0c-0.1,0-0.2-0.1-0.2-0.2c0-0.3,0-0.8,0-1.4s0-1.1,0-1.4
		c0-1-0.1-1.7-0.2-2.3c0,0,0-0.1,0-0.1c0-0.1,0-0.1,0.1-0.1c0.2,0,0.6-0.1,1-0.1c0.6-0.1,1-0.2,1-0.2c0,0,0.1,0.1,0.1,0.4
		s0.1,0.4,0.1,0.4c0,0,0.2-0.1,0.6-0.4s0.9-0.4,1.2-0.4c0.5,0,0.9,0.1,1.2,0.4c0.4,0.3,0.6,0.6,0.6,1.1v1.9c0,0.3,0,0.6,0,1.1
		S338.8,49.2,338.8,49.5z"/>
	<path class="st0" d="M343.6,45.8c0,0-0.1,0-0.4-0.1s-0.4-0.1-0.6-0.1c-0.3,0-0.6,0.1-0.8,0.3s-0.3,0.5-0.3,0.8
		c0,0.4,0.1,0.6,0.3,0.8s0.5,0.3,0.9,0.3c0.2,0,0.4,0,0.6-0.1s0.3-0.1,0.3-0.1c0.1,0,0.2,0.2,0.3,0.7c0.1,0.5,0.1,0.8,0.1,0.9
		s-0.2,0.3-0.7,0.4c-0.4,0.1-0.7,0.1-0.9,0.1c-0.9,0-1.6-0.3-2.1-0.9s-0.8-1.3-0.8-2.2c0-0.9,0.3-1.6,0.8-2.2s1.3-0.9,2.1-0.9
		c0.6,0,1.1,0.1,1.5,0.4c0.1,0.1,0.2,0.1,0.2,0.2s-0.1,0.3-0.2,0.7c-0.1,0.4-0.2,0.6-0.2,0.7S343.7,45.8,343.6,45.8z"/>
	<path class="st0" d="M350.1,46.5c0,0.4-0.1,0.6-0.4,0.7c0,0-0.4,0.1-1.2,0.1c-0.5,0.1-1.1,0.1-2.1,0.2c0.1,0.3,0.2,0.4,0.5,0.6
		c0.2,0.1,0.5,0.2,0.8,0.2c0.3,0,0.7-0.1,1-0.3c0.1-0.1,0.3-0.2,0.4-0.3c0.1,0,0.2,0.2,0.4,0.6s0.3,0.6,0.3,0.7c0,0,0,0.1-0.1,0.1
		c-0.5,0.5-1.2,0.8-2.2,0.8c-0.9,0-1.7-0.3-2.3-0.8c-0.6-0.6-0.9-1.3-0.9-2.2c0-0.9,0.3-1.6,0.8-2.2c0.5-0.6,1.3-0.9,2.1-0.9
		c0.8,0,1.4,0.3,1.9,0.8S350.1,45.7,350.1,46.5z M348.1,46.1c0-0.2-0.1-0.5-0.3-0.6s-0.4-0.3-0.6-0.3c-0.2,0-0.4,0.1-0.6,0.3
		c-0.1,0.2-0.2,0.4-0.2,0.7c0,0.1,0.1,0.2,0.2,0.2c0.3,0,0.7,0,1.3-0.1C348,46.2,348.1,46.1,348.1,46.1z"/>
	<path class="st0" d="M356.4,45.6c0,0.7,0,1.1-0.1,1.2c-0.1,0.3-0.4,0.7-0.8,1.4c-0.4,0.6-0.7,1-1,1.3c-0.1,0.1-0.4,0.2-0.9,0.2
		c-0.4,0-0.7,0-0.9,0c-0.1,0-0.2-0.1-0.2-0.1c-0.2-0.3-0.6-0.7-1-1.3c-0.5-0.7-0.7-1.1-0.8-1.4c-0.1-0.3-0.1-0.7-0.1-1.2
		c0-0.2,0-0.4,0-0.7s0-0.5,0-0.7c0-0.1,0.1-0.2,0.2-0.2c0.2,0,0.5,0,0.9,0s0.7,0,0.9,0c0.1,0,0.1,0.1,0.1,0.2c0,0.1,0,0.3,0,0.5
		s0,0.4,0,0.5c0,0.4,0,0.7,0,1c0,0.1,0.1,0.4,0.3,0.8c0.2,0.4,0.4,0.6,0.5,0.6c0.1,0,0.3-0.2,0.5-0.6c0.2-0.4,0.3-0.6,0.3-0.7
		c0-0.3,0-0.6,0-1c0-0.1,0-0.3,0-0.5s0-0.4,0-0.5c0-0.1,0-0.2,0.1-0.2c0.1,0,0.2,0,0.4,0s0.3,0,0.4,0s0.2,0,0.4,0s0.3,0,0.4,0
		c0.1,0,0.2,0.1,0.2,0.2C356.4,44.4,356.4,44.9,356.4,45.6z"/>
	<path class="st0" d="M362.8,46.8c0,0.9-0.3,1.6-0.8,2.2s-1.3,0.8-2.1,0.8c-0.9,0-1.6-0.3-2.1-0.8s-0.8-1.3-0.8-2.1
		c0-0.9,0.3-1.6,0.8-2.2s1.3-0.8,2.2-0.8c0.9,0,1.6,0.3,2.1,0.8S362.8,45.9,362.8,46.8z M360.9,46.8c0-0.3-0.1-0.6-0.3-0.8
		s-0.4-0.4-0.7-0.4c-0.3,0-0.6,0.1-0.8,0.4c-0.2,0.2-0.3,0.5-0.3,0.8c0,0.3,0.1,0.6,0.3,0.8c0.2,0.2,0.5,0.4,0.8,0.4
		c0.3,0,0.6-0.1,0.8-0.4C360.8,47.4,360.9,47.1,360.9,46.8z"/>
	<path class="st0" d="M365.7,47c0,0.3,0,0.7,0,1.3s0,1,0,1.3c0,0.1,0,0.1-0.1,0.1c-0.1,0-0.4,0-0.9,0c-0.5,0-0.8,0-0.9,0
		c-0.1,0-0.1,0-0.2-0.1c0,0,0-0.1,0-0.2c0-0.3,0-0.7,0-1.2s0-0.9,0-1.2c0-1.1,0-2-0.1-2.6c0-0.1,0-0.1,0-0.1c0-0.1,0.1-0.1,0.2-0.1
		c0.1,0,0.3,0,0.5,0s0.4,0,0.5,0s0.3,0,0.5,0s0.4,0,0.5,0c0.1,0,0.1,0,0.1,0.1c0,0,0,0.1,0,0.1C365.8,45.1,365.7,46,365.7,47z
		 M365.9,42.6c0,0.7-0.4,1-1.1,1c-0.3,0-0.6-0.1-0.8-0.3c-0.2-0.2-0.4-0.4-0.4-0.8c0-0.3,0.1-0.6,0.4-0.8c0.2-0.2,0.5-0.3,0.8-0.3
		c0.3,0,0.6,0.1,0.8,0.3C365.8,42.1,365.9,42.3,365.9,42.6z"/>
	<path class="st0" d="M370.7,46c0,0.2-0.1,0.2-0.3,0.2c-0.1,0-0.2,0-0.3,0s-0.2,0-0.3,0c-0.3,0-0.5,0.1-0.7,0.2S369,46.7,369,47
		c0,0.2,0,0.4,0,0.8s0,0.6,0,0.8c0,0.1,0,0.3,0,0.5s0,0.4,0,0.5c0,0.1-0.1,0.1-0.2,0.2c-0.2,0-0.5,0-0.9,0c-0.4,0-0.7,0-0.9,0
		c-0.1,0-0.2-0.1-0.2-0.2c0-0.3,0-0.8,0-1.4s0-1.1,0-1.4c0-0.9-0.1-1.7-0.3-2.3c0,0,0-0.1,0-0.1c0-0.1,0-0.1,0.1-0.1
		c0.2,0,0.5-0.1,0.9-0.1c0.6-0.1,0.9-0.2,1-0.2c0.1,0,0.1,0.1,0.1,0.4s0.1,0.4,0.1,0.4c-0.1,0,0.1-0.1,0.5-0.3s0.7-0.3,1.1-0.3
		c0.2,0,0.3,0,0.3,0.1c0,0.1,0,0.3,0,0.5c0,0.2,0,0.4,0,0.5c0,0.1,0,0.3,0,0.5C370.7,45.8,370.7,45.9,370.7,46z"/>
	<path class="st0" d="M380.6,41.3c0-0.1,0,0,0,0.4c0,0.4-0.1,1-0.1,1.7c0,0.8,0,1.6,0,2.6c0,1.6,0,2.8,0.1,3.4c0,0.1,0,0.1,0,0.1
		c0,0,0,0.1-0.1,0.1c-0.1,0-0.7,0-1.6,0c-0.2,0-0.3,0-0.4-0.1c0-0.1,0-0.3,0-0.4c0,0,0-0.1,0-0.1c0,0-0.1,0-0.1,0.1
		c-0.4,0.4-0.9,0.6-1.6,0.6c-0.8,0-1.5-0.3-2-0.9c-0.5-0.6-0.7-1.2-0.7-2.1c0-0.9,0.2-1.6,0.7-2.1c0.5-0.6,1.2-0.9,2-0.9
		c0.6,0,1,0.2,1.4,0.6c0.1,0.1,0.1,0.1,0.1,0.1c0,0,0.1-0.1,0.1-0.2c0-0.3,0-0.8,0-1.3s0-1,0-1.3c0-0.1,0-0.2,0.1-0.2
		c0.3,0,0.6,0,1-0.1c0.8-0.1,1.1-0.1,1-0.1C380.6,41.2,380.6,41.2,380.6,41.3z M378.4,46.7c0-0.3-0.1-0.6-0.3-0.8s-0.5-0.3-0.8-0.3
		c-0.3,0-0.6,0.1-0.8,0.3s-0.3,0.5-0.3,0.8c0,0.3,0.1,0.6,0.3,0.8c0.2,0.2,0.4,0.4,0.8,0.4s0.6-0.1,0.8-0.4S378.4,47,378.4,46.7z"/>
	<path class="st0" d="M386.9,46.5c0,0.4-0.1,0.6-0.4,0.7c0,0-0.4,0.1-1.2,0.1c-0.5,0.1-1.1,0.1-2.1,0.2c0.1,0.3,0.2,0.4,0.5,0.6
		c0.2,0.1,0.5,0.2,0.8,0.2c0.3,0,0.7-0.1,1-0.3c0.1-0.1,0.3-0.2,0.4-0.3c0.1,0,0.2,0.2,0.4,0.6s0.3,0.6,0.3,0.7c0,0,0,0.1-0.1,0.1
		c-0.5,0.5-1.2,0.8-2.2,0.8c-0.9,0-1.7-0.3-2.3-0.8c-0.6-0.6-0.9-1.3-0.9-2.2c0-0.9,0.3-1.6,0.8-2.2c0.5-0.6,1.3-0.9,2.1-0.9
		c0.8,0,1.4,0.3,1.9,0.8S386.9,45.7,386.9,46.5z M384.8,46.1c0-0.2-0.1-0.5-0.3-0.6s-0.4-0.3-0.6-0.3c-0.2,0-0.4,0.1-0.6,0.3
		c-0.1,0.2-0.2,0.4-0.2,0.7c0,0.1,0.1,0.2,0.2,0.2c0.3,0,0.7,0,1.3-0.1C384.8,46.2,384.8,46.1,384.8,46.1z"/>
	<path class="st0" d="M390.9,44.9c0,0,0,0.1-0.1,0.2c-0.1,0-0.2,0-0.3,0c-0.2,0-0.4,0.1-0.6,0.2c-0.2,0.1-0.3,0.3-0.3,0.5
		c0,0.1,0.1,0.3,0.3,0.5c0.3,0.3,0.5,0.5,0.6,0.6c0.2,0.3,0.3,0.6,0.3,1c0,0.2,0,0.4-0.1,0.6c-0.1,0.2-0.2,0.4-0.3,0.5
		c-0.3,0.3-0.6,0.5-1,0.6c-0.4,0.2-0.8,0.3-1.2,0.3c-0.1,0-0.3-0.2-0.5-0.6s-0.4-0.7-0.4-0.8c0,0,0-0.1,0.1-0.1
		c0.3-0.1,0.5-0.1,0.8-0.2c0.3-0.1,0.5-0.3,0.5-0.5c0-0.2-0.1-0.4-0.3-0.6c-0.4-0.4-0.5-0.6-0.6-0.6c-0.2-0.3-0.3-0.6-0.3-0.9
		c0-0.6,0.3-1.1,0.9-1.5c0.5-0.4,1.1-0.5,1.7-0.5c0.1,0,0.2,0.2,0.5,0.6S390.9,44.8,390.9,44.9z"/>
	<path class="st0" d="M400.4,45.6c0,0.7,0,1.1-0.1,1.2c-0.1,0.3-0.4,0.7-0.8,1.4c-0.4,0.6-0.7,1-1,1.3c-0.1,0.1-0.4,0.2-0.9,0.2
		c-0.4,0-0.7,0-0.9,0c-0.1,0-0.2-0.1-0.2-0.1c-0.2-0.3-0.6-0.7-1-1.3c-0.5-0.7-0.7-1.1-0.8-1.4c-0.1-0.3-0.1-0.7-0.1-1.2
		c0-0.2,0-0.4,0-0.7s0-0.5,0-0.7c0-0.1,0.1-0.2,0.2-0.2c0.2,0,0.5,0,0.9,0s0.7,0,0.9,0c0.1,0,0.1,0.1,0.1,0.2c0,0.1,0,0.3,0,0.5
		s0,0.4,0,0.5c0,0.4,0,0.7,0,1c0,0.1,0.1,0.4,0.3,0.8c0.2,0.4,0.4,0.6,0.5,0.6c0.1,0,0.3-0.2,0.5-0.6c0.2-0.4,0.3-0.6,0.3-0.7
		c0-0.3,0-0.6,0-1c0-0.1,0-0.3,0-0.5s0-0.4,0-0.5c0-0.1,0-0.2,0.1-0.2c0.1,0,0.2,0,0.4,0s0.3,0,0.4,0s0.2,0,0.4,0s0.3,0,0.4,0
		c0.1,0,0.2,0.1,0.2,0.2C400.4,44.4,400.4,44.9,400.4,45.6z"/>
	<path class="st0" d="M403.4,47c0,0.3,0,0.7,0,1.3s0,1,0,1.3c0,0.1,0,0.1-0.1,0.1c-0.1,0-0.4,0-0.9,0c-0.5,0-0.8,0-0.9,0
		c-0.1,0-0.1,0-0.2-0.1c0,0,0-0.1,0-0.2c0-0.3,0-0.7,0-1.2s0-0.9,0-1.2c0-1.1,0-2-0.1-2.6c0-0.1,0-0.1,0-0.1c0-0.1,0.1-0.1,0.2-0.1
		c0.1,0,0.3,0,0.5,0s0.4,0,0.5,0s0.3,0,0.5,0s0.4,0,0.5,0c0.1,0,0.1,0,0.1,0.1c0,0,0,0.1,0,0.1C403.4,45.1,403.4,46,403.4,47z
		 M403.5,42.6c0,0.7-0.4,1-1.1,1c-0.3,0-0.6-0.1-0.8-0.3c-0.2-0.2-0.4-0.4-0.4-0.8c0-0.3,0.1-0.6,0.4-0.8c0.2-0.2,0.5-0.3,0.8-0.3
		c0.3,0,0.6,0.1,0.8,0.3C403.4,42.1,403.5,42.3,403.5,42.6z"/>
	<path class="st0" d="M407.9,44.9c0,0,0,0.1-0.1,0.2c-0.1,0-0.2,0-0.3,0c-0.2,0-0.4,0.1-0.6,0.2c-0.2,0.1-0.3,0.3-0.3,0.5
		c0,0.1,0.1,0.3,0.3,0.5c0.3,0.3,0.5,0.5,0.6,0.6c0.2,0.3,0.3,0.6,0.3,1c0,0.2,0,0.4-0.1,0.6c-0.1,0.2-0.2,0.4-0.3,0.5
		c-0.3,0.3-0.6,0.5-1,0.6c-0.4,0.2-0.8,0.3-1.2,0.3c-0.1,0-0.3-0.2-0.5-0.6s-0.4-0.7-0.4-0.8c0,0,0-0.1,0.1-0.1
		c0.3-0.1,0.5-0.1,0.8-0.2c0.3-0.1,0.5-0.3,0.5-0.5c0-0.2-0.1-0.4-0.3-0.6c-0.4-0.4-0.5-0.6-0.6-0.6c-0.2-0.3-0.3-0.6-0.3-0.9
		c0-0.6,0.3-1.1,0.9-1.5c0.5-0.4,1.1-0.5,1.7-0.5c0.1,0,0.2,0.2,0.5,0.6S407.9,44.8,407.9,44.9z"/>
	<path class="st0" d="M414.8,44.3c0,0.3,0,0.7,0,1.3s0,1,0,1.3c0,0.3,0,0.7,0,1.3s0,1,0,1.3c0,0.1,0,0.2-0.1,0.2
		c-0.1,0-0.5,0.1-0.9,0.1c-0.4,0-0.7,0-0.9,0c-0.1,0-0.1-0.1-0.1-0.1c0-0.1,0-0.2,0-0.4c0-0.2,0-0.3-0.1-0.3c0.1,0-0.1,0.1-0.6,0.4
		s-0.9,0.4-1.2,0.4c-1,0-1.6-0.5-1.8-1.4c-0.1-0.4-0.1-1.1-0.1-1.9c0-0.9,0.1-1.6,0.2-2.1c0-0.2,0.1-0.2,0.2-0.2c0.2,0,0.5,0,0.8,0
		s0.6,0,0.8,0c0.1,0,0.2,0.1,0.2,0.2c0,0,0,0.1,0,0.1c-0.1,0.5-0.1,1.1-0.1,1.6c0,0.7,0,1.1,0.1,1.4c0.1,0.4,0.3,0.6,0.8,0.6
		c0.2,0,0.4-0.1,0.6-0.2s0.3-0.3,0.3-0.5c0-0.1,0-1.1,0-2.9c0-0.1,0-0.2,0-0.2c0,0,0.1-0.1,0.2-0.1c0.2,0,0.5,0,0.9,0s0.7,0,0.9,0
		c0.1,0,0.2,0,0.2,0.1C414.8,44.2,414.8,44.3,414.8,44.3z"/>
	<path class="st0" d="M421.7,46.7c0,0.3,0,0.7,0.1,1.3s0.1,1,0.1,1.3c0,0.2-0.1,0.2-0.2,0.3c-0.5,0-1,0.1-1.7,0.1
		c-0.1,0-0.1-0.1-0.1-0.3s-0.1-0.3-0.1-0.3c0,0-0.1,0-0.1,0.1c-0.4,0.4-0.9,0.7-1.4,0.7c-0.8,0-1.4-0.3-1.9-0.9
		c-0.5-0.6-0.7-1.2-0.7-2c0-0.9,0.2-1.6,0.7-2.2c0.5-0.6,1.2-0.9,2.1-0.9c0.6,0,1.1,0.2,1.5,0.6c0,0,0,0,0,0c0,0,0.1-0.1,0.1-0.3
		s0.1-0.3,0.2-0.3c0.1,0,0.4,0,0.8,0.1c0.4,0.1,0.7,0.1,0.8,0.2c0.1,0,0.1,0.1,0.1,0.1c0,0,0,0.1,0,0.1
		C421.7,45.2,421.7,45.9,421.7,46.7z M419.8,46.8c0-0.3-0.1-0.6-0.3-0.8s-0.5-0.3-0.8-0.3s-0.6,0.1-0.8,0.3s-0.3,0.5-0.3,0.8
		c0,0.3,0.1,0.6,0.3,0.8s0.5,0.3,0.8,0.3c0.3,0,0.6-0.1,0.8-0.3S419.8,47.1,419.8,46.8z"/>
	<path class="st0" d="M425,46.1c0,1.1,0,1.9,0,2.5c0,0.1,0,0.2,0,0.5c0,0.2,0,0.4,0,0.5c0,0.1,0,0.1-0.1,0.1c-0.2,0-0.5,0-0.9,0
		c-0.5,0-0.8,0-0.9,0c-0.1,0-0.1-0.1-0.1-0.2c0,0,0-0.1,0-0.3c0-0.3,0-0.9,0-1.6s0-1.2,0-1.6c0-1.6,0-2.4,0-2.2
		c0-0.9-0.1-1.6-0.1-2.2c0,0,0-0.1,0-0.1c0-0.1,0.1-0.1,0.2-0.1h2.1c0.1,0,0.1,0,0.1,0.1l0,0.1C425,43.3,425,44.8,425,46.1z"/>
	<path class="st0" d="M428.2,47c0,0.3,0,0.7,0,1.3s0,1,0,1.3c0,0.1,0,0.1-0.1,0.1c-0.1,0-0.4,0-0.9,0c-0.5,0-0.8,0-0.9,0
		c-0.1,0-0.1,0-0.2-0.1c0,0,0-0.1,0-0.2c0-0.3,0-0.7,0-1.2s0-0.9,0-1.2c0-1.1,0-2-0.1-2.6c0-0.1,0-0.1,0-0.1c0-0.1,0.1-0.1,0.2-0.1
		c0.1,0,0.3,0,0.5,0s0.4,0,0.5,0s0.3,0,0.5,0s0.4,0,0.5,0c0.1,0,0.1,0,0.1,0.1c0,0,0,0.1,0,0.1C428.3,45.1,428.2,46,428.2,47z
		 M428.4,42.6c0,0.7-0.4,1-1.1,1c-0.3,0-0.6-0.1-0.8-0.3c-0.2-0.2-0.4-0.4-0.4-0.8c0-0.3,0.1-0.6,0.4-0.8c0.2-0.2,0.5-0.3,0.8-0.3
		c0.3,0,0.6,0.1,0.8,0.3C428.2,42.1,428.4,42.3,428.4,42.6z"/>
	<path class="st0" d="M432.8,44.9c0,0,0,0.1-0.1,0.2c-0.1,0-0.2,0-0.3,0c-0.2,0-0.4,0.1-0.6,0.2c-0.2,0.1-0.3,0.3-0.3,0.5
		c0,0.1,0.1,0.3,0.3,0.5c0.3,0.3,0.5,0.5,0.6,0.6c0.2,0.3,0.3,0.6,0.3,1c0,0.2,0,0.4-0.1,0.6c-0.1,0.2-0.2,0.4-0.3,0.5
		c-0.3,0.3-0.6,0.5-1,0.6c-0.4,0.2-0.8,0.3-1.2,0.3c-0.1,0-0.3-0.2-0.5-0.6s-0.4-0.7-0.4-0.8c0,0,0-0.1,0.1-0.1
		c0.3-0.1,0.5-0.1,0.8-0.2c0.3-0.1,0.5-0.3,0.5-0.5c0-0.2-0.1-0.4-0.3-0.6c-0.4-0.4-0.5-0.6-0.6-0.6c-0.2-0.3-0.3-0.6-0.3-0.9
		c0-0.6,0.3-1.1,0.9-1.5c0.5-0.4,1.1-0.5,1.7-0.5c0.1,0,0.2,0.2,0.5,0.6S432.8,44.8,432.8,44.9z"/>
	<path class="st0" d="M439.5,46.7c0,0.3,0,0.7,0.1,1.3s0.1,1,0.1,1.3c0,0.2-0.1,0.2-0.2,0.3c-0.5,0-1,0.1-1.7,0.1
		c-0.1,0-0.1-0.1-0.1-0.3s-0.1-0.3-0.1-0.3c0,0-0.1,0-0.1,0.1c-0.4,0.4-0.9,0.7-1.4,0.7c-0.8,0-1.4-0.3-1.9-0.9
		c-0.5-0.6-0.7-1.2-0.7-2c0-0.9,0.2-1.6,0.7-2.2c0.5-0.6,1.2-0.9,2.1-0.9c0.6,0,1.1,0.2,1.5,0.6c0,0,0,0,0,0c0,0,0.1-0.1,0.1-0.3
		s0.1-0.3,0.2-0.3c0.1,0,0.4,0,0.8,0.1c0.4,0.1,0.7,0.1,0.8,0.2c0.1,0,0.1,0.1,0.1,0.1c0,0,0,0.1,0,0.1
		C439.6,45.2,439.5,45.9,439.5,46.7z M437.6,46.8c0-0.3-0.1-0.6-0.3-0.8s-0.5-0.3-0.8-0.3s-0.6,0.1-0.8,0.3s-0.3,0.5-0.3,0.8
		c0,0.3,0.1,0.6,0.3,0.8s0.5,0.3,0.8,0.3c0.3,0,0.6-0.1,0.8-0.3S437.6,47.1,437.6,46.8z"/>
	<path class="st0" d="M444.6,47.9c0,0.1,0,0.3,0,0.5s0,0.4,0,0.5s0,0.2,0,0.2s-0.1,0.1-0.2,0.1c-0.5,0.3-1.1,0.4-1.7,0.4
		c-1.1,0-1.7-0.4-1.7-1.3c0-0.3,0-0.6,0-1.2s0-0.9,0-1.2c0-0.2-0.1-0.3-0.3-0.3c0,0,0,0-0.1,0c0,0-0.1,0-0.1,0
		c-0.1,0-0.2-0.1-0.2-0.2c0-0.1,0-0.2,0-0.3s0-0.2,0-0.3c0-0.1,0-0.2,0-0.4s0-0.3,0-0.4c0-0.1,0.1-0.1,0.4-0.1c0.1,0,0.2,0,0.2-0.1
		c0-0.1,0-0.4,0-0.7c0-0.5,0-0.7,0-0.7c0-0.5,0-0.7,0.1-0.7c0.1,0,0.3,0,0.5,0.1c0.2,0.1,0.4,0.1,0.5,0.1c0.2,0,0.5,0.1,0.9,0.1
		c0.1,0,0.1,0,0.1,0.1c0,0.2,0,0.4,0,0.7s0,0.6,0,0.7c0,0.2,0.1,0.3,0.2,0.3c0.1,0,0.3,0,0.6,0s0.5,0,0.6,0c0.1,0,0.1,0,0.1,0.1
		c0,0.1,0,0.2,0,0.4s0,0.3,0,0.4c0,0.1,0,0.2,0,0.4s0,0.3,0,0.4c0,0.1-0.1,0.1-0.2,0.1c-0.1,0-0.2,0-0.4,0s-0.3,0-0.4,0H443
		c-0.1,0-0.1,0.1-0.1,0.3c0,0.1,0,0.2,0,0.4c0,0.2,0,0.3,0,0.4c0,0.3,0,0.6,0.1,0.7c0.1,0.2,0.3,0.3,0.6,0.3c0.1,0,0.2,0,0.4-0.1
		s0.3-0.1,0.4-0.1C444.5,47.8,444.6,47.8,444.6,47.9z"/>
	<path class="st0" d="M447.4,47c0,0.3,0,0.7,0,1.3s0,1,0,1.3c0,0.1,0,0.1-0.1,0.1c-0.1,0-0.4,0-0.9,0c-0.5,0-0.8,0-0.9,0
		c-0.1,0-0.1,0-0.2-0.1c0,0,0-0.1,0-0.2c0-0.3,0-0.7,0-1.2s0-0.9,0-1.2c0-1.1,0-2-0.1-2.6c0-0.1,0-0.1,0-0.1c0-0.1,0.1-0.1,0.2-0.1
		c0.1,0,0.3,0,0.5,0s0.4,0,0.5,0s0.3,0,0.5,0s0.4,0,0.5,0c0.1,0,0.1,0,0.1,0.1c0,0,0,0.1,0,0.1C447.4,45.1,447.4,46,447.4,47z
		 M447.5,42.6c0,0.7-0.4,1-1.1,1c-0.3,0-0.6-0.1-0.8-0.3c-0.2-0.2-0.4-0.4-0.4-0.8c0-0.3,0.1-0.6,0.4-0.8c0.2-0.2,0.5-0.3,0.8-0.3
		c0.3,0,0.6,0.1,0.8,0.3C447.4,42.1,447.5,42.3,447.5,42.6z"/>
	<path class="st0" d="M454.1,46.8c0,0.9-0.3,1.6-0.8,2.2s-1.3,0.8-2.1,0.8c-0.9,0-1.6-0.3-2.1-0.8s-0.8-1.3-0.8-2.1
		c0-0.9,0.3-1.6,0.8-2.2s1.3-0.8,2.2-0.8c0.9,0,1.6,0.3,2.1,0.8S454.1,45.9,454.1,46.8z M452.2,46.8c0-0.3-0.1-0.6-0.3-0.8
		s-0.4-0.4-0.7-0.4c-0.3,0-0.6,0.1-0.8,0.4c-0.2,0.2-0.3,0.5-0.3,0.8c0,0.3,0.1,0.6,0.3,0.8c0.2,0.2,0.5,0.4,0.8,0.4
		c0.3,0,0.6-0.1,0.8-0.4C452.1,47.4,452.2,47.1,452.2,46.8z"/>
	<path class="st0" d="M460.7,49.5c0,0.1-0.1,0.2-0.2,0.2s-0.4,0-0.9,0c-0.5,0-0.8,0-0.9,0s-0.2-0.1-0.2-0.2c0-0.2,0-0.5,0-0.8
		s0-0.7,0-0.8c0-0.1,0-0.4,0-0.6s0-0.5,0-0.6c0-0.5-0.2-0.8-0.7-0.8c-0.2,0-0.3,0.1-0.5,0.2c-0.2,0.1-0.3,0.3-0.3,0.4v3.2
		c0,0.1-0.1,0.2-0.2,0.2c-0.1,0-0.4,0-0.8,0c-0.5,0-0.8,0-0.9,0c-0.1,0-0.2-0.1-0.2-0.2c0-0.3,0-0.8,0-1.4s0-1.1,0-1.4
		c0-1-0.1-1.7-0.2-2.3c0,0,0-0.1,0-0.1c0-0.1,0-0.1,0.1-0.1c0.2,0,0.6-0.1,1-0.1c0.6-0.1,1-0.2,1-0.2c0,0,0.1,0.1,0.1,0.4
		s0.1,0.4,0.1,0.4c0,0,0.2-0.1,0.6-0.4s0.9-0.4,1.2-0.4c0.5,0,0.9,0.1,1.2,0.4c0.4,0.3,0.6,0.6,0.6,1.1v1.9c0,0.3,0,0.6,0,1.1
		S460.7,49.2,460.7,49.5z"/>
	<path class="st0" d="M465.1,44.9c0,0,0,0.1-0.1,0.2c-0.1,0-0.2,0-0.3,0c-0.2,0-0.4,0.1-0.6,0.2c-0.2,0.1-0.3,0.3-0.3,0.5
		c0,0.1,0.1,0.3,0.3,0.5c0.3,0.3,0.5,0.5,0.6,0.6c0.2,0.3,0.3,0.6,0.3,1c0,0.2,0,0.4-0.1,0.6c-0.1,0.2-0.2,0.4-0.3,0.5
		c-0.3,0.3-0.6,0.5-1,0.6c-0.4,0.2-0.8,0.3-1.2,0.3c-0.1,0-0.3-0.2-0.5-0.6s-0.4-0.7-0.4-0.8c0,0,0-0.1,0.1-0.1
		c0.3-0.1,0.5-0.1,0.8-0.2c0.3-0.1,0.5-0.3,0.5-0.5c0-0.2-0.1-0.4-0.3-0.6c-0.4-0.4-0.5-0.6-0.6-0.6c-0.2-0.3-0.3-0.6-0.3-0.9
		c0-0.6,0.3-1.1,0.9-1.5c0.5-0.4,1.1-0.5,1.7-0.5c0.1,0,0.2,0.2,0.5,0.6S465.1,44.8,465.1,44.9z"/>
	<path class="st0" d="M475.1,41.3c0-0.1,0,0,0,0.4c0,0.4-0.1,1-0.1,1.7c0,0.8,0,1.6,0,2.6c0,1.6,0,2.8,0.1,3.4c0,0.1,0,0.1,0,0.1
		c0,0,0,0.1-0.1,0.1c-0.1,0-0.7,0-1.6,0c-0.2,0-0.3,0-0.4-0.1c0-0.1,0-0.3,0-0.4c0,0,0-0.1,0-0.1c0,0-0.1,0-0.1,0.1
		c-0.4,0.4-0.9,0.6-1.6,0.6c-0.8,0-1.5-0.3-2-0.9c-0.5-0.6-0.7-1.2-0.7-2.1c0-0.9,0.2-1.6,0.7-2.1c0.5-0.6,1.2-0.9,2-0.9
		c0.6,0,1,0.2,1.4,0.6c0.1,0.1,0.1,0.1,0.1,0.1c0,0,0.1-0.1,0.1-0.2c0-0.3,0-0.8,0-1.3s0-1,0-1.3c0-0.1,0-0.2,0.1-0.2
		c0.3,0,0.6,0,1-0.1c0.8-0.1,1.1-0.1,1-0.1C475.1,41.2,475.1,41.2,475.1,41.3z M472.9,46.7c0-0.3-0.1-0.6-0.3-0.8s-0.5-0.3-0.8-0.3
		c-0.3,0-0.6,0.1-0.8,0.3s-0.3,0.5-0.3,0.8c0,0.3,0.1,0.6,0.3,0.8c0.2,0.2,0.4,0.4,0.8,0.4s0.6-0.1,0.8-0.4S472.9,47,472.9,46.7z"/>
	<path class="st0" d="M481.4,46.5c0,0.4-0.1,0.6-0.4,0.7c0,0-0.4,0.1-1.2,0.1c-0.5,0.1-1.1,0.1-2.1,0.2c0.1,0.3,0.2,0.4,0.5,0.6
		c0.2,0.1,0.5,0.2,0.8,0.2c0.3,0,0.7-0.1,1-0.3c0.1-0.1,0.3-0.2,0.4-0.3c0.1,0,0.2,0.2,0.4,0.6s0.3,0.6,0.3,0.7c0,0,0,0.1-0.1,0.1
		c-0.5,0.5-1.2,0.8-2.2,0.8c-0.9,0-1.7-0.3-2.3-0.8c-0.6-0.6-0.9-1.3-0.9-2.2c0-0.9,0.3-1.6,0.8-2.2c0.5-0.6,1.3-0.9,2.1-0.9
		c0.8,0,1.4,0.3,1.9,0.8S481.4,45.7,481.4,46.5z M479.3,46.1c0-0.2-0.1-0.5-0.3-0.6s-0.4-0.3-0.6-0.3c-0.2,0-0.4,0.1-0.6,0.3
		c-0.1,0.2-0.2,0.4-0.2,0.7c0,0.1,0.1,0.2,0.2,0.2c0.3,0,0.7,0,1.3-0.1C479.3,46.2,479.3,46.1,479.3,46.1z"/>
	<path class="st0" d="M491.2,41.3c0-0.1,0,0,0,0.4c0,0.4-0.1,1-0.1,1.7c0,0.8,0,1.6,0,2.6c0,1.6,0,2.8,0.1,3.4c0,0.1,0,0.1,0,0.1
		c0,0,0,0.1-0.1,0.1c-0.1,0-0.7,0-1.6,0c-0.2,0-0.3,0-0.4-0.1c0-0.1,0-0.3,0-0.4c0,0,0-0.1,0-0.1c0,0-0.1,0-0.1,0.1
		c-0.4,0.4-0.9,0.6-1.6,0.6c-0.8,0-1.5-0.3-2-0.9c-0.5-0.6-0.7-1.2-0.7-2.1c0-0.9,0.2-1.6,0.7-2.1c0.5-0.6,1.2-0.9,2-0.9
		c0.6,0,1,0.2,1.4,0.6c0.1,0.1,0.1,0.1,0.1,0.1c0,0,0.1-0.1,0.1-0.2c0-0.3,0-0.8,0-1.3s0-1,0-1.3c0-0.1,0-0.2,0.1-0.2
		c0.3,0,0.6,0,1-0.1c0.8-0.1,1.1-0.1,1-0.1C491.2,41.2,491.2,41.2,491.2,41.3z M489,46.7c0-0.3-0.1-0.6-0.3-0.8s-0.5-0.3-0.8-0.3
		c-0.3,0-0.6,0.1-0.8,0.3s-0.3,0.5-0.3,0.8c0,0.3,0.1,0.6,0.3,0.8c0.2,0.2,0.4,0.4,0.8,0.4s0.6-0.1,0.8-0.4S489,47,489,46.7z"/>
	<path class="st0" d="M497.7,46.8c0,0.9-0.3,1.6-0.8,2.2s-1.3,0.8-2.1,0.8c-0.9,0-1.6-0.3-2.1-0.8s-0.8-1.3-0.8-2.1
		c0-0.9,0.3-1.6,0.8-2.2s1.3-0.8,2.2-0.8c0.9,0,1.6,0.3,2.1,0.8S497.7,45.9,497.7,46.8z M495.8,46.8c0-0.3-0.1-0.6-0.3-0.8
		s-0.4-0.4-0.7-0.4c-0.3,0-0.6,0.1-0.8,0.4c-0.2,0.2-0.3,0.5-0.3,0.8c0,0.3,0.1,0.6,0.3,0.8c0.2,0.2,0.5,0.4,0.8,0.4
		c0.3,0,0.6-0.1,0.8-0.4C495.7,47.4,495.8,47.1,495.8,46.8z"/>
	<path class="st0" d="M504.3,49.5c0,0.1-0.1,0.2-0.2,0.2s-0.4,0-0.9,0c-0.5,0-0.8,0-0.9,0s-0.2-0.1-0.2-0.2c0-0.2,0-0.5,0-0.8
		s0-0.7,0-0.8c0-0.1,0-0.4,0-0.6s0-0.5,0-0.6c0-0.5-0.2-0.8-0.7-0.8c-0.2,0-0.3,0.1-0.5,0.2c-0.2,0.1-0.3,0.3-0.3,0.4v3.2
		c0,0.1-0.1,0.2-0.2,0.2c-0.1,0-0.4,0-0.8,0c-0.5,0-0.8,0-0.9,0c-0.1,0-0.2-0.1-0.2-0.2c0-0.3,0-0.8,0-1.4s0-1.1,0-1.4
		c0-1-0.1-1.7-0.2-2.3c0,0,0-0.1,0-0.1c0-0.1,0-0.1,0.1-0.1c0.2,0,0.6-0.1,1-0.1c0.6-0.1,1-0.2,1-0.2c0,0,0.1,0.1,0.1,0.4
		s0.1,0.4,0.1,0.4c0,0,0.2-0.1,0.6-0.4s0.9-0.4,1.2-0.4c0.5,0,0.9,0.1,1.2,0.4c0.4,0.3,0.6,0.6,0.6,1.1v1.9c0,0.3,0,0.6,0,1.1
		S504.3,49.2,504.3,49.5z"/>
	<path class="st0" d="M511.1,49.5c0,0.1-0.1,0.2-0.2,0.2s-0.4,0-0.9,0c-0.5,0-0.8,0-0.9,0s-0.2-0.1-0.2-0.2c0-0.2,0-0.5,0-0.8
		s0-0.7,0-0.8c0-0.1,0-0.4,0-0.6s0-0.5,0-0.6c0-0.5-0.2-0.8-0.7-0.8c-0.2,0-0.3,0.1-0.5,0.2c-0.2,0.1-0.3,0.3-0.3,0.4v3.2
		c0,0.1-0.1,0.2-0.2,0.2c-0.1,0-0.4,0-0.8,0c-0.5,0-0.8,0-0.9,0c-0.1,0-0.2-0.1-0.2-0.2c0-0.3,0-0.8,0-1.4s0-1.1,0-1.4
		c0-1-0.1-1.7-0.2-2.3c0,0,0-0.1,0-0.1c0-0.1,0-0.1,0.1-0.1c0.2,0,0.6-0.1,1-0.1c0.6-0.1,1-0.2,1-0.2c0,0,0.1,0.1,0.1,0.4
		s0.1,0.4,0.1,0.4c0,0,0.2-0.1,0.6-0.4s0.9-0.4,1.2-0.4c0.5,0,0.9,0.1,1.2,0.4c0.4,0.3,0.6,0.6,0.6,1.1v1.9c0,0.3,0,0.6,0,1.1
		S511.1,49.2,511.1,49.5z"/>
	<path class="st0" d="M517.4,46.5c0,0.4-0.1,0.6-0.4,0.7c0,0-0.4,0.1-1.2,0.1c-0.5,0.1-1.1,0.1-2.1,0.2c0.1,0.3,0.2,0.4,0.5,0.6
		c0.2,0.1,0.5,0.2,0.8,0.2c0.3,0,0.7-0.1,1-0.3c0.1-0.1,0.3-0.2,0.4-0.3c0.1,0,0.2,0.2,0.4,0.6s0.3,0.6,0.3,0.7c0,0,0,0.1-0.1,0.1
		c-0.5,0.5-1.2,0.8-2.2,0.8c-0.9,0-1.7-0.3-2.3-0.8c-0.6-0.6-0.9-1.3-0.9-2.2c0-0.9,0.3-1.6,0.8-2.2c0.5-0.6,1.3-0.9,2.1-0.9
		c0.8,0,1.4,0.3,1.9,0.8S517.4,45.7,517.4,46.5z M513.4,43.3c-0.1,0-0.1,0-0.1-0.1c0,0,0-0.1,0-0.1s0-0.1,0-0.2c0,0,0-0.1,0-0.2
		s0-0.2,0-0.2c0-0.1,0-0.1,0.1-0.1c0.2-0.1,0.6-0.3,1.1-0.6c0.2-0.2,0.6-0.4,1.1-0.8c0,0,0.1,0,0.1-0.1c0,0,0.1,0,0.1,0.1
		c0.1,0.1,0.2,0.2,0.4,0.4c0.1,0.1,0.3,0.2,0.5,0.3c0.1,0,0.1,0.1,0.1,0.1c0,0,0,0.1-0.1,0.1c-0.3,0.3-0.9,0.6-1.5,0.9
		S513.9,43.3,513.4,43.3L513.4,43.3z M515.4,46.1c0-0.2-0.1-0.5-0.3-0.6s-0.4-0.3-0.6-0.3c-0.2,0-0.4,0.1-0.6,0.3
		c-0.1,0.2-0.2,0.4-0.2,0.7c0,0.1,0.1,0.2,0.2,0.2c0.3,0,0.7,0,1.3-0.1C515.3,46.2,515.4,46.1,515.4,46.1z"/>
	<path class="st0" d="M523.4,46.5c0,0.4-0.1,0.6-0.4,0.7c0,0-0.4,0.1-1.2,0.1c-0.5,0.1-1.1,0.1-2.1,0.2c0.1,0.3,0.2,0.4,0.5,0.6
		c0.2,0.1,0.5,0.2,0.8,0.2c0.3,0,0.7-0.1,1-0.3c0.1-0.1,0.3-0.2,0.4-0.3c0.1,0,0.2,0.2,0.4,0.6s0.3,0.6,0.3,0.7c0,0,0,0.1-0.1,0.1
		c-0.5,0.5-1.2,0.8-2.2,0.8c-0.9,0-1.7-0.3-2.3-0.8c-0.6-0.6-0.9-1.3-0.9-2.2c0-0.9,0.3-1.6,0.8-2.2c0.5-0.6,1.3-0.9,2.1-0.9
		c0.8,0,1.4,0.3,1.9,0.8S523.4,45.7,523.4,46.5z M521.4,46.1c0-0.2-0.1-0.5-0.3-0.6s-0.4-0.3-0.6-0.3c-0.2,0-0.4,0.1-0.6,0.3
		c-0.1,0.2-0.2,0.4-0.2,0.7c0,0.1,0.1,0.2,0.2,0.2c0.3,0,0.7,0,1.3-0.1C521.3,46.2,521.4,46.1,521.4,46.1z"/>
	<path class="st0" d="M527.5,44.9c0,0,0,0.1-0.1,0.2c-0.1,0-0.2,0-0.3,0c-0.2,0-0.4,0.1-0.6,0.2c-0.2,0.1-0.3,0.3-0.3,0.5
		c0,0.1,0.1,0.3,0.3,0.5c0.3,0.3,0.5,0.5,0.6,0.6c0.2,0.3,0.3,0.6,0.3,1c0,0.2,0,0.4-0.1,0.6c-0.1,0.2-0.2,0.4-0.3,0.5
		c-0.3,0.3-0.6,0.5-1,0.6c-0.4,0.2-0.8,0.3-1.2,0.3c-0.1,0-0.3-0.2-0.5-0.6s-0.4-0.7-0.4-0.8c0,0,0-0.1,0.1-0.1
		c0.3-0.1,0.5-0.1,0.8-0.2c0.3-0.1,0.5-0.3,0.5-0.5c0-0.2-0.1-0.4-0.3-0.6c-0.4-0.4-0.5-0.6-0.6-0.6c-0.2-0.3-0.3-0.6-0.3-0.9
		c0-0.6,0.3-1.1,0.9-1.5c0.5-0.4,1.1-0.5,1.7-0.5c0.1,0,0.2,0.2,0.5,0.6S527.5,44.8,527.5,44.9z"/>
	<path class="st0" d="M537.8,46.8c0,0.8-0.2,1.5-0.7,2.1c-0.5,0.6-1.2,0.9-2,0.9c-0.3,0-0.6-0.1-1-0.2s-0.5-0.2-0.5-0.2
		c-0.1,0-0.1,0.1-0.1,0.2c0,0.2,0,0.5,0,0.9s0,0.7,0,0.9c0,0.1-0.1,0.2-0.2,0.2l-1.2,0c-0.3,0-0.4,0-0.5,0c-0.1,0-0.2-0.1-0.2-0.2
		l0-4.5c0-0.9-0.1-1.7-0.2-2.3c0,0,0-0.1,0-0.1c0-0.1,0-0.1,0.1-0.1c0.2-0.1,0.4-0.1,0.9-0.2c0.4-0.1,0.7-0.1,0.9-0.1
		c0.2,0,0.2,0.1,0.3,0.3s0,0.3,0.1,0.3c0,0,0.1-0.1,0.5-0.3s0.7-0.3,1-0.3c0.8,0,1.5,0.3,2,0.8C537.6,45.3,537.8,46,537.8,46.8z
		 M535.6,46.8c0-0.3-0.1-0.6-0.3-0.8c-0.2-0.2-0.5-0.4-0.8-0.4c-0.3,0-0.6,0.1-0.8,0.4c-0.2,0.2-0.2,0.5-0.2,0.8
		c0,0.3,0.1,0.6,0.3,0.8c0.2,0.2,0.4,0.4,0.8,0.4C535.3,48,535.6,47.6,535.6,46.8z"/>
	<path class="st0" d="M544.2,46.8c0,0.9-0.3,1.6-0.8,2.2s-1.3,0.8-2.1,0.8c-0.9,0-1.6-0.3-2.1-0.8s-0.8-1.3-0.8-2.1
		c0-0.9,0.3-1.6,0.8-2.2s1.3-0.8,2.2-0.8c0.9,0,1.6,0.3,2.1,0.8S544.2,45.9,544.2,46.8z M542.3,46.8c0-0.3-0.1-0.6-0.3-0.8
		s-0.4-0.4-0.7-0.4c-0.3,0-0.6,0.1-0.8,0.4c-0.2,0.2-0.3,0.5-0.3,0.8c0,0.3,0.1,0.6,0.3,0.8c0.2,0.2,0.5,0.4,0.8,0.4
		c0.3,0,0.6-0.1,0.8-0.4C542.2,47.4,542.3,47.1,542.3,46.8z"/>
	<path class="st0" d="M550.9,44.3c0,0.3,0,0.7,0,1.3s0,1,0,1.3c0,0.3,0,0.7,0,1.3s0,1,0,1.3c0,0.1,0,0.2-0.1,0.2
		c-0.1,0-0.5,0.1-0.9,0.1c-0.4,0-0.7,0-0.9,0c-0.1,0-0.1-0.1-0.1-0.1c0-0.1,0-0.2,0-0.4c0-0.2,0-0.3-0.1-0.3c0.1,0-0.1,0.1-0.6,0.4
		s-0.9,0.4-1.2,0.4c-1,0-1.6-0.5-1.8-1.4c-0.1-0.4-0.1-1.1-0.1-1.9c0-0.9,0.1-1.6,0.2-2.1c0-0.2,0.1-0.2,0.2-0.2c0.2,0,0.5,0,0.8,0
		s0.6,0,0.8,0c0.1,0,0.2,0.1,0.2,0.2c0,0,0,0.1,0,0.1c-0.1,0.5-0.1,1.1-0.1,1.6c0,0.7,0,1.1,0.1,1.4c0.1,0.4,0.3,0.6,0.8,0.6
		c0.2,0,0.4-0.1,0.6-0.2s0.3-0.3,0.3-0.5c0-0.1,0-1.1,0-2.9c0-0.1,0-0.2,0-0.2c0,0,0.1-0.1,0.2-0.1c0.2,0,0.5,0,0.9,0s0.7,0,0.9,0
		c0.1,0,0.2,0,0.2,0.1C550.9,44.2,550.9,44.3,550.9,44.3z"/>
	<path class="st0" d="M555.8,46c0,0.2-0.1,0.2-0.3,0.2c-0.1,0-0.2,0-0.3,0s-0.2,0-0.3,0c-0.3,0-0.5,0.1-0.7,0.2s-0.2,0.3-0.2,0.6
		c0,0.2,0,0.4,0,0.8s0,0.6,0,0.8c0,0.1,0,0.3,0,0.5s0,0.4,0,0.5c0,0.1-0.1,0.1-0.2,0.2c-0.2,0-0.5,0-0.9,0c-0.4,0-0.7,0-0.9,0
		c-0.1,0-0.2-0.1-0.2-0.2c0-0.3,0-0.8,0-1.4s0-1.1,0-1.4c0-0.9-0.1-1.7-0.3-2.3c0,0,0-0.1,0-0.1c0-0.1,0-0.1,0.1-0.1
		c0.2,0,0.5-0.1,0.9-0.1c0.6-0.1,0.9-0.2,1-0.2c0.1,0,0.1,0.1,0.1,0.4s0.1,0.4,0.1,0.4c-0.1,0,0.1-0.1,0.5-0.3s0.7-0.3,1.1-0.3
		c0.2,0,0.3,0,0.3,0.1c0,0.1,0,0.3,0,0.5c0,0.2,0,0.4,0,0.5c0,0.1,0,0.3,0,0.5C555.8,45.8,555.8,45.9,555.8,46z"/>
	<path class="st0" d="M561.6,46.1c0,1.1,0,1.9,0,2.5c0,0.1,0,0.2,0,0.5c0,0.2,0,0.4,0,0.5c0,0.1,0,0.1-0.1,0.1c-0.2,0-0.5,0-0.9,0
		c-0.5,0-0.8,0-0.9,0c-0.1,0-0.1-0.1-0.1-0.2c0,0,0-0.1,0-0.3c0-0.3,0-0.9,0-1.6s0-1.2,0-1.6c0-1.6,0-2.4,0-2.2
		c0-0.9-0.1-1.6-0.1-2.2c0,0,0-0.1,0-0.1c0-0.1,0.1-0.1,0.2-0.1h2.1c0.1,0,0.1,0,0.1,0.1l0,0.1C561.7,43.3,561.6,44.8,561.6,46.1z"
		/>
	<path class="st0" d="M568,46.5c0,0.4-0.1,0.6-0.4,0.7c0,0-0.4,0.1-1.2,0.1c-0.5,0.1-1.1,0.1-2.1,0.2c0.1,0.3,0.2,0.4,0.5,0.6
		c0.2,0.1,0.5,0.2,0.8,0.2c0.3,0,0.7-0.1,1-0.3c0.1-0.1,0.3-0.2,0.4-0.3c0.1,0,0.2,0.2,0.4,0.6s0.3,0.6,0.3,0.7c0,0,0,0.1-0.1,0.1
		c-0.5,0.5-1.2,0.8-2.2,0.8c-0.9,0-1.7-0.3-2.3-0.8c-0.6-0.6-0.9-1.3-0.9-2.2c0-0.9,0.3-1.6,0.8-2.2c0.5-0.6,1.3-0.9,2.1-0.9
		c0.8,0,1.4,0.3,1.9,0.8S568,45.7,568,46.5z M566,46.1c0-0.2-0.1-0.5-0.3-0.6s-0.4-0.3-0.6-0.3c-0.2,0-0.4,0.1-0.6,0.3
		c-0.1,0.2-0.2,0.4-0.2,0.7c0,0.1,0.1,0.2,0.2,0.2c0.3,0,0.7,0,1.3-0.1C565.9,46.2,566,46.1,566,46.1z"/>
	<path class="st0" d="M580.1,45.5c0,0.6,0,1-0.1,1.3c-0.1,0.3-0.4,0.7-0.8,1.4c-0.4,0.7-0.7,1.1-0.9,1.3c-0.1,0.1-0.4,0.2-0.8,0.2
		c-0.3,0-0.6,0-0.6,0c-0.1,0-0.1-0.1-0.2-0.1c-0.2-0.2-0.6-0.8-1-1.6c-0.5,0.9-0.8,1.4-1,1.6c-0.1,0.1-0.3,0.2-0.8,0.2
		c-0.3,0-0.5,0-0.6,0c-0.2-0.1-0.5-0.5-1-1.3c-0.4-0.6-0.7-1.2-0.8-1.6c-0.1-0.3-0.2-0.7-0.2-1.3c0-0.7,0-1.2,0.1-1.3
		c0-0.1,0.1-0.2,0.2-0.2c0.2,0,0.4,0,0.8,0s0.6,0,0.8,0c0.1,0,0.1,0.1,0.1,0.2c0,0.1,0,0.3,0,0.5s0,0.4,0,0.5c0,0.5,0,0.8,0,1
		c0,0.1,0.1,0.3,0.3,0.7s0.3,0.5,0.4,0.5c0.1,0,0.2-0.2,0.4-0.5c0.2-0.3,0.3-0.5,0.3-0.7s0.1-0.5,0.1-1.1c0-0.1,0-0.3,0-0.5
		s0-0.4,0-0.5c0-0.1,0-0.2,0.1-0.2c0.1,0,0.3,0,0.7,0l0.2,0c0,0,0,0,0,0s0,0,0,0h0h0.2c0.1,0,0.4,0,0.7,0c0.1,0,0.1,0.1,0.1,0.2
		c0,0.1,0,0.4,0,0.7s0,0.5,0,0.7c0,0.4,0,0.7,0,0.8c0,0.1,0.1,0.3,0.3,0.6c0.2,0.4,0.3,0.5,0.4,0.5s0.2-0.2,0.4-0.5
		c0.2-0.3,0.3-0.6,0.3-0.7c0-0.1,0-0.8,0-2.1c0-0.1,0-0.2,0.1-0.2c0.2,0,0.5,0,0.8,0s0.6,0,0.8,0c0.1,0,0.2,0.1,0.2,0.2
		C580.1,44.4,580.1,44.8,580.1,45.5z"/>
	<path class="st0" d="M586.1,46.5c0,0.4-0.1,0.6-0.4,0.7c0,0-0.4,0.1-1.2,0.1c-0.5,0.1-1.1,0.1-2.1,0.2c0.1,0.3,0.2,0.4,0.5,0.6
		c0.2,0.1,0.5,0.2,0.8,0.2c0.3,0,0.7-0.1,1-0.3c0.1-0.1,0.3-0.2,0.4-0.3c0.1,0,0.2,0.2,0.4,0.6s0.3,0.6,0.3,0.7c0,0,0,0.1-0.1,0.1
		c-0.5,0.5-1.2,0.8-2.2,0.8c-0.9,0-1.7-0.3-2.3-0.8c-0.6-0.6-0.9-1.3-0.9-2.2c0-0.9,0.3-1.6,0.8-2.2c0.5-0.6,1.3-0.9,2.1-0.9
		c0.8,0,1.4,0.3,1.9,0.8S586.1,45.7,586.1,46.5z M584.1,46.1c0-0.2-0.1-0.5-0.3-0.6s-0.4-0.3-0.6-0.3c-0.2,0-0.4,0.1-0.6,0.3
		c-0.1,0.2-0.2,0.4-0.2,0.7c0,0.1,0.1,0.2,0.2,0.2c0.3,0,0.7,0,1.3-0.1C584,46.2,584.1,46.1,584.1,46.1z"/>
	<path class="st0" d="M593.1,46.8c0,0.8-0.2,1.5-0.7,2.1c-0.5,0.6-1.2,0.9-2,0.9c-0.6,0-1.1-0.2-1.4-0.5c0,0-0.1,0-0.1,0
		c0,0-0.1,0.1-0.1,0.2s-0.1,0.2-0.1,0.2c-0.1,0-0.6,0-1.7,0c-0.2,0-0.4,0-0.4-0.1c0,0,0,0,0-0.1c0.1-0.6,0.1-1.8,0.1-3.6
		c0-1.7-0.1-3.1-0.2-4.4l0-0.1c0-0.1,0.1-0.1,0.2-0.1c0.1,0,0.4,0,1-0.1c0.4,0,0.8-0.1,1-0.1c0.1,0,0.1,0.1,0.1,0.2
		c0,0.2,0,0.4,0,0.6c0,0.3,0,0.5,0,0.6c0,0.4,0,0.9,0,1.6c0,0.1,0,0.2,0.1,0.2c0,0,0.1,0,0.1,0c0.4-0.4,0.8-0.6,1.4-0.6
		c0.9,0,1.5,0.3,2,0.9C592.9,45.2,593.1,45.9,593.1,46.8z M591,46.7c0-0.3-0.1-0.6-0.3-0.8s-0.5-0.3-0.8-0.3c-0.3,0-0.6,0.1-0.8,0.3
		s-0.3,0.5-0.3,0.8c0,0.3,0.1,0.6,0.3,0.8c0.2,0.2,0.5,0.3,0.8,0.3c0.3,0,0.6-0.1,0.8-0.3C590.9,47.3,591,47.1,591,46.7z"/>
</g>
<g>
</g>
<g>
</g>
<g>
</g>
<g>
</g>
<g>
</g>
</svg>
