<svg id="Calque_1" data-name="Calque 1" xmlns="http://www.w3.org/2000/svg" viewBox="0 0 841.89 595.28"><defs><style>.cls-1{font-size:24px;}.cls-1,.cls-10,.cls-11{fill:#5d1b00;font-family:Base02, "Base 02";}.cls-2,.cls-3{fill:#fefee4;}.cls-2,.cls-4,.cls-5,.cls-6,.cls-7,.cls-8,.cls-9{stroke:#5d1b00;}.cls-2,.cls-3,.cls-4,.cls-5,.cls-6,.cls-7,.cls-8,.cls-9{stroke-linecap:round;}.cls-2,.cls-3,.cls-4{stroke-width:0.4px;}.cls-3{stroke:#42210b;}.cls-4,.cls-5,.cls-7,.cls-8,.cls-9{fill:none;}.cls-5{stroke-width:0.6px;}.cls-6{fill:#c8ebff;stroke-width:0.4px;}.cls-6,.cls-7,.cls-9{stroke-miterlimit:3.08;}.cls-7{stroke-width:1.2px;}.cls-8{stroke-width:1.2px;}.cls-9{stroke-width:2.8px;}.cls-10{font-size:72px;}.cls-11{font-size:36px;}</style></defs><title>Plan de travail 1</title><text class="cls-1" transform="translate(289.45 220.83)"> <tspan x="-69.47" y="28.8">Concevoir </tspan><tspan x="-197.5" y="57.6">des visualisations de donees</tspan><tspan x="-87.65" y="86.4">pour le web </tspan><tspan x="-144.26" y="115.2">et un support anime </tspan></text><path id="path4897" class="cls-2" d="M583.05,373.87c.14.27-.16.92.4.67C583.63,374.23,583.31,374,583.05,373.87Z"/><path id="path4899" class="cls-3" d="M560.2,359.36a9.53,9.53,0,0,1-1.26,1.11c-.28.23-.73.42-.6.88a2.3,2.3,0,0,1,1.32-.09c-.2-.59.67-.87.75-1.43.05-.18.06-.48-.21-.47Z"/><path id="path4901" class="cls-3" d="M560.63,358.65c-.4.25.1.71.23.19C561.05,358.64,560.76,358.64,560.63,358.65Z"/><path id="path4903" class="cls-3" d="M561.67,357.83c-.61,0,0,.85.08.22C561.76,358,561.76,357.87,561.67,357.83Z"/><path id="path4935" class="cls-2" d="M662.13,471.72c-.18.1-.47.4-.07.39A.2.2,0,1,0,662.13,471.72Z"/><path id="path4937" class="cls-2" d="M662.91,471.31c-.12.23-.32,1,.05.91C663,472,663.42,471.28,662.91,471.31Z"/><path id="path4939" class="cls-2" d="M663.21,471.84c-.07.35.1,1-.5.76a1.07,1.07,0,0,0-.16,1.46c-.23.3,0,.68.27.29.33.18.33-.33.39-.22.15.32-.25,1.06.41.9.21-.25.36-.69.11-.79.68-.16-.28-.95-.22-.3-.39.11.22-.55-.29-.45-.45-.39.22-.5.12-.94C663.68,472.29,663.43,472.05,663.21,471.84Z"/><path id="path4941" class="cls-2" d="M661.52,465.93c-.1.18-.72.39-.2.47C661.61,466.42,662,466,661.52,465.93Z"/><path id="path4943" class="cls-2" d="M663.47,466.45c-.44.23-.3,1-1,.94-.27.12-.64.4-.19.53.21.4.57,0,.83.4a1,1,0,0,1,1.18.77c.32.16,1,.3.64-.25-.18-.22-.35-.79.14-.57.24.73,1.19-.37.75-.71s-.51.57-.91.21c-.21-.08-.6.26-.38-.18.54-.12.63-.75,0-.86-.44-.49-.48.26-.58.54-.37-.17-.25-.6-.46-.83Z"/><path id="path4945" class="cls-2" d="M658.61,466.69c-.18.28-.1.8.23.37C659.1,466.88,658.87,466.6,658.61,466.69Z"/><path id="path4947" class="cls-2" d="M638.71,455.16c-.12.39.46.64.21.1A.2.2,0,0,0,638.71,455.16Z"/><path id="path4949" class="cls-2" d="M634.73,445.5c-.34,0-.3.65,0,.25C634.73,445.69,635,445.46,634.73,445.5Z"/><path id="path4951" class="cls-2" d="M626.05,448.14c-.06.28,0,.8.33.52.25-.08.75.22.4-.23-.19-.14-.42.18-.48-.21A.19.19,0,0,0,626.05,448.14Z"/><path id="path4953" class="cls-2" d="M682.42,437.89c-.37.19-.15.91.2.59,0-.32.76-.23.29-.56A2.69,2.69,0,0,0,682.42,437.89Z"/><path id="path4955" class="cls-2" d="M678.3,431.22c-.43,0-.51.43-.07.56.24.13.4.3.3-.09C678.52,431.53,678.54,431.21,678.3,431.22Z"/><path id="path4957" class="cls-2" d="M679.47,428.71c-.18.39-.81.74-.36,1.19.51.2.66-.46.91-.72C680.12,428.77,679.73,428.78,679.47,428.71Z"/><path id="path4959" class="cls-2" d="M680.16,427.77c-.15.28-.15,1.33.29.71.14-.24-.29-.36-.11-.68C680.3,427.73,680.22,427.79,680.16,427.77Z"/><path id="path4961" class="cls-2" d="M681.16,426.19c0,.51-.55,1.05-.06,1.51s.53-.66.35-.8C680.86,426.87,682,426.15,681.16,426.19Z"/><path id="path4963" class="cls-2" d="M679.51,411.68c-.43.21.32,1,.27.28A.25.25,0,0,0,679.51,411.68Z"/><path id="path4965" class="cls-2" d="M696.07,127.2c-.18.43.38.2.53.39C696.69,127,696.32,127.39,696.07,127.2Z"/><path id="path4967" class="cls-2" d="M686.32,118.07c-.38.25-.17.63.09.82-.08.43.65.72.5.13A2.22,2.22,0,0,0,686.32,118.07Z"/><path id="path4969" class="cls-2" d="M676,131.23c-.07.48.5.8.8.55-.15-.21-.32-.24-.39-.52a.8.8,0,0,0-.41,0Z"/><path id="path4971" class="cls-4" d="M569,334.6c.14.6.74.94.67,1.6.28.63,1-.17,1.45-.2s.26.92.88.71c.26-.1.83.19.29.28s-1,.64-1,1.21c-.29.45-.62.92-.94,1.38-.59-.15-.79.63-1.27.82s-.6.7-1.06.89c-.59,0-1.16.45-1.67,0-.37.12-.81.25-1-.2-.49-.43-1.15-.25-1.73-.46-.48,0-1.35-.14-1.38.52s-.92-.12-1.33.32c-.55.24-1.45.18-1.57,1s1.28.26,1.1,1.16c0,.41-.42,1.31.35,1.15.19.29,1.18-.37.82.31-.15.25-.6,1,0,.72.23.38-.07,1,.34,1.24,0,.32.21.6.45.28.46.34,1-.1,1.42.09s.26.73.43,1.06c0,.24.12.81-.24.45-.49.33-.14.77.1,1.13,0,.79-1.29.1-1.26,1a1.14,1.14,0,0,1-.53,1.58c-.05.37-.32.73-.07,1.06-.38.31-.24.65.16.84.19.31.88.75.16.86-.47.31-.34,1.07-.94,1.28-.13.45.42.58.47.13.33-.44.86-.68,1.18-1.09.43-.25,1-.3,1.35-.54.21-.3.58-.39.72-.78a3.89,3.89,0,0,0,1.64-.66c.54-.22,1,.25,1.51.19s1.15.46,1.77.31,1.1.4,1.65.57c.22-.21.9.26.68-.2.06-.76,1.09-.09,1.49-.54s1.1,0,1.67-.14,1.17.54,1.78.28,1.17.05,1.69-.1.49-1.34,1.24-.93c.78.23.32-1.19,1.14-1,.43,0,1,.64,1.19,0,.35-.2.2-.57-.19-.44-.3-.21.06-.6.31-.68.15-.43-.78-.71-.22-1.1.71-.2-.13-1.07.61-1.25a2,2,0,0,1,1.49.15c-.12.57.42.94.65,1.41s.61.46.77.86c.39.1,0-.61.4-.72.32-.62,1.15-.42,1.7-.27a1.49,1.49,0,0,1,1.16.82c.41.33.36,1.26,1,1.24.29,0,.28.42,0,.22-.14.46.66.78.71,1.3a3,3,0,0,1,.85,1.51,15.8,15.8,0,0,1,.46,1.73c.12.64-.47,1-.94,1.23a13.17,13.17,0,0,1-1.34.91,6.1,6.1,0,0,0-1.54,0c-.4,0-.23.33,0,.44-.2.55.46.46.78.49.27.53-.17.82-.58,1-.32.7,1.12.41.86,1.09-.12.37.4.27.54.43.45-.15-.08.54.12.77,0,.6.16,1.17.07,1.76-.32.42-.18,1.3-.89,1.28-.16.53-.66.55-1.08.32-.54.15-1.09.84-1.64.51-.11-.7-.9.14-1-.52.11-.47-.48-.38-.29,0-.15.61-.87.1-1.18.5-.35,0-.77,0-.32.33,0,.59.77.24,1,.61.24-.13.45.32.55-.12s1.2-.71.79-.1c-.43.43.68.28.2.67,0,.47,1,.07.75.68.06.27.59.62.81.29.41.08.62.29,1,.29.2.28.23.57-.1.68,0,.38-.25.52-.62.43-.4.34-1.08.67-1,1.3.27.52-.18,1.18.29,1.67,0,.52-1,1-1.17.54-.3.07,0,.57-.44.29s-1,.53-1.07-.21a.69.69,0,0,0-.31-.57c-.17.13-.43.58-.83.36-.56.11-.73.83-1.06,1.18-.57,0-.27.57-.59.82,0,.3.55.87-.06,1-.34.32-.71,0-.85-.33-.44.51-1.18-.2-1.69.17-.7.08,0-.82-.52-1s-1.16,0-1.39.47a.93.93,0,0,0,0,1.3c.21.22,1.28-.45,1.24.36-.38.39.2,1.2.68.8.71-.14.74.79.49,1.18.19.24.51,0,.32.43s1,.1.57.57c-.5-.11-.5.52-.82.76-.09.52-.64.78-.81,1.27-.6,0-.63.77-.92,1.18-.12.6-.68.68-1,1.1-.52.08-1.08-.21-1.36.43-.5.28-.46,1.25-1.21,1.07-.33.15-.76.21-1,.47,0,.37-.49.58-.58.13-.44.07-.86-.33-.58-.69-.14-.37-.52.28-.75-.14s-.56.23-.82-.13c-.34.12-.56.39-.94.45a2.45,2.45,0,0,0-.58,1.49c0,.37-.07,1.05.23,1.16.5-.12.6-1,1.09-.89a1.06,1.06,0,0,1,1.24.08c.6-.16.8.63,1.33.58.22-.07.4-.78.58-.26.5.51,1.09-.45,1.69,0a1.78,1.78,0,0,0,1,.35c.63.11.18,1,.08,1.39.05.55-.45,1-.41,1.5a1.2,1.2,0,0,0,1.6.53c.41-.08.82,0,1.18-.21.72.17.42-.84,1.06-.85.36-.26.75,0,1.11-.3.63.13.87-.6,1.47-.72a8.52,8.52,0,0,0,1.6-.62c.35-.43,1.06-.46,1.5-.8a10.49,10.49,0,0,0,1.64-.45c.23.08.65.21.68.49,0,0,.88-.12.68.31a1.49,1.49,0,0,1-.06,1.6c-.08.34-.75.43-.36.86.11.3-.3.47-.36.79-.27.11-.8.11-.63.55a1.09,1.09,0,0,0-.2.93c-.56.29,0,1.09.43.9s.16.66.61.37c.39,0,.71.46.92-.08.54,0,.08.73.21,1.07-.32.25-.9.51-.78,1,.47.56.85-.51,1.25,0,.61-.08.47-.91.87-1.27s-.47-.54,0-.83c.25-.43.82-.14,1.19-.31.3.11.73.63.71,0s.85-.9,1.32-.45a5.91,5.91,0,0,1,1.5.61,13.52,13.52,0,0,1,1.07,1.19c.36.38.61,1,1.09,1.22s.46.67.95.41c.27.09.65-.08.83.26.43-.22,1-.53,1.42-.06a7.13,7.13,0,0,1,1,0c.54-.39,1,.41,1.48.41.27.24.12-.76.52-.33a2.32,2.32,0,0,1,1.1.91c-.2.61.71.33,1,.34a6.93,6.93,0,0,0,1.69-.17c.47.05.93-.35,1.34,0,.62-.43.41.59.91.72.46.4,0,.92-.37,1.09-.08.57-.82.09-.81.68-.39.39-1.07.29-1.54.61-.48-.33-.77.25-1.15.43-.24.62-1,.25-1.39.44-.4-.24-.46.62-.49.92.08.66-.42,1.25-.23,1.91a1.93,1.93,0,0,1-.51,1.62c-.25.34-.67,1.25-1.13.81-.29-.36-.92-.68-1.28-.26a1.25,1.25,0,0,0-.78.2c-.32-.2-.9-.5-.9.14-.4.19-.32,1.11-.94.68-.62-.15-.33.67-.86.69-.31.12-.61-.12-.89.2-.56-.2-.52.71-1.09.73-.45.38-.42,1.24-1.19,1.24-.56,0-1.2-.26-1.13-.91-.24-.55.24-1.35-.57-1.54-.27-.52-.89,0-.51.42,0,.47.07,1.32-.65,1.17-.29.27-1.06,0-.81.49-.19.34-1.12.64-.42,1,.09.27.77.46.29.7-.11.42-.71.22-.89.61-.51.14-.48.69,0,.78.75,0,.17.88.47,1.31-.14.31.08.76-.37.92s-.75.62-.63,1.17c0,.31.57.47.1.7-.4,0-.33.82-.68.25-.34.17-.29.91-.85.61-.56-.05,0,.65,0,.95.34.07.14-.46.56-.35s.49-.06.45.38c-.23.23-.14,1.19.26.64.51.09.8-.65,1.28-.34-.08.35.27.48-.09.74-.16.3.21.54-.15.75.2.27.77.24.61.72.25.13.51.07.67.34.26-.1.52-.31.8-.16-.35.14-.21.65-.67.69-.44.32-.94.52-1.13,1.07a.62.62,0,0,0-.66.6c-.5.28-.44-1-.78-.49.11.27,0,.73.43.63.33.38,0,1.4.52,1.48.52-.33.63.86,1,.34,0-.49.57-.16.58-.12.23-.31.48-.22.46.08.21-.2.41-.23.55,0,.14-.16,1-.44.74-.16s.39.44.4.68c.15-.27.76-.44.37,0-.38.29-.35.75.09.91.12.41.65.25.57.74.38.53.66-.51,1.11,0,.37.18.45-.55.8-.55.24-.38.23.48.64.36.35.55,1.23-.71,1.37,0-.15.42-.32,1.24.39,1.06a9.66,9.66,0,0,1,.83-1.34c.39.23-.27.67-.23,1.05s-.1.78.34.87c.09.29.72.47.17.65a4.77,4.77,0,0,0-1.11,1.13,1.86,1.86,0,0,0-1,1.32c-.05.46.29,1.37.85,1.06a1.21,1.21,0,0,1,.78-.07c-.16.54.39-.05.54.24.18-.36.54-.81.92-.81,0,.57.71-.09,1,.2.3-.34.86-.31,1-.84.49-.47,1,.22,1.38.55s.17,1.13.89,1,.19.77-.24.84a1,1,0,0,0-.5,1.24c-.08.71.54.25.81,0,.41-.69,1.11.17,1.6-.3.52,0,1.1-.1,1.51.3.37.05.45-.71.95-.38a1.85,1.85,0,0,1,1,1.23c0,.49.4.78.34,1.33.33.58-.4,1-.43,1.51.26.34.65-.3,1,0a3,3,0,0,0,.94-1.41c.48-.38.88.4.67.82,0,.43.36.84.8.55a1.64,1.64,0,0,1,1.08.09c.37-.47.9-1,1.57-.65.5,0,.67.55,1.21.48.48.43-.21,1.07-.14,1.56.37-.13.69-.21.87-.59.49-.22.5.53,1,.44a.49.49,0,0,1-.24.6c.2.4.79-.25.89.35.07.28-.52.91.08,1,.56-.14.61-1,1.09-1.27.25-.52.85-.82.67-1.49.25-.45.29.43.53.55.24.5-.35,1.45.6,1.45.34.17.36.72.9.54a.66.66,0,0,0,.85-.25c.23,0,.57.2.31-.18-.05-.36.54-.52.81-.66a6.62,6.62,0,0,1-.76,1.53c.18.38.67.66.52,1.14.38.22,1.12.13.82.84.13.79,1,.2.88-.36a.84.84,0,0,1,.84-.83c.16-.31.43-.95.78-.41s.07,1,.17,1.43a1.46,1.46,0,0,0,.09,1.59c.54-.09.68-.81,1.2-1,.44.12,1.05.44,1.16-.28.17-.33.81-.36.6-.9.71,0,.26-1.06,1-1.05.23-.23.51-.4.59-.72.55.28.33-1,.87-.47.2.27.83,0,.5.39a2.88,2.88,0,0,1-1,1.36c.23.48-.61.88-.1,1.23a3.15,3.15,0,0,1-.75,1.49c-.2.54.3,1.07.33,1.64a6,6,0,0,0,1.14,1.12.57.57,0,0,0,.88.07c.44.5.37-.53.83-.38a1,1,0,0,0,.88-.89c.32-.36.51.05.48.35.38.15.48.47.62.79a1.43,1.43,0,0,0,1,0c-.26-.51.83-.66.42-.13s-.1,1,.49.74c.28-.15.7.25.75-.29.32-.32.87-.26,1.27-.35-.08.53-1,.38-.67,1s-.53.9-1,1.23-.65,1-1.2.92c-.42.13-.15.88-.28,1.26.13.32.67.11.78.16a4.23,4.23,0,0,1-1.07,1.31c-.49-.05-1,.07-1.11.56-.42.24.49.52,0,.84a2.92,2.92,0,0,0-.64,1.63c-.33.46.22.68.57.41.25.44-.67,1.1.11,1.41.46.48,1.08-.08,1.42-.39.59.31.87-.57,1.47-.44s1.22.11,1.58-.35a3.56,3.56,0,0,1,1.37-.23c-.28.36-.86.56-1,.87.21.58.82.39,1.25.49s.71.79,1.2,1c.67.41,1-.45,1.62-.5.22.08.88,0,.78.31-.5-.07-1.38-.17-1.46.5s.68.13,1.06.2a5.49,5.49,0,0,1,1.46,0c.62,0,1,.56,1.3,1a7.23,7.23,0,0,0,.77,1.61c.08.51,0,1.29.5,1.56.36-.42.94.26,1.38-.2.39-.06.86.58,1.14,0,.44-.5.15.95.53.31.19-.39.64.13.77-.25.55.18,1-.17,1.46-.37.31.21.67,0,.84.41.28-.15.23-.85.48-1.17-.12-.26-.84-.49-.27-.84a8.48,8.48,0,0,1,1.08-1.16,4.5,4.5,0,0,0,1-1.36,5.56,5.56,0,0,0,.39-1.42.7.7,0,0,0,.56-.79c.27-.4,1.07-.33.94-.94.57-.29.38-1,.7-1.51.37-.25.92-.1,1.17-.58.39-.23-.06-.55.34-.75.12-.25-.44-.55.12-.6.2-.26-.25-.85.38-.66a1.08,1.08,0,0,0,.11-.9c.4-.67-.84-.55-1.08-.31-.31.44-.88.58-1.31.89s-1,.45-1.28,1c-.33.3-.43.71-.9.88a9.27,9.27,0,0,1-1.08,1.18c-.21.45-.53,1.06-1.13.92s-1-.9-.38-1.32c.31-.14.17-.37.17-.61.57.24,1.09-.54.94-1.06,0-.44-.07-.93.43-1.13.25-.57-.63-.94-.57-1.56a5.91,5.91,0,0,0-.56-1.66c-.46-.13-.79.63-1.14.06-.29-.32.56-.15.65-.41a4.84,4.84,0,0,1,1.55-.34c.58-.33,1.31-.35,1.86-.64.67,0,.93-.61,1.31-1,.47,0,.48-.51.73-.75a.82.82,0,0,0,1-1c-.27-.69.65-.8.89-1.3.53-.52.51.52.88.72.43.35,1.35-.26,1-.78a1.93,1.93,0,0,1-.92-.3c-.7.29-1.21-.71-.44-1,.14-.22.75-.65.77-.22-.39,0-.45.81,0,.53.15-.36.68,0,.44-.53-.12-.34.39-.39.33-.75.48.38,1.14-.35,1-.86s.13-.64.48-.69c.26-.62-1-.89-.36-1.47.76-.31,0-1,.15-1.57-.09-.73-1-.55-1.22,0-.14.23-.26.8-.48.29,0-.46-.31-.65-.69-.39-.34.06-1.2-.18-.5-.44.43-.34.85-.68,1.28-1a4.72,4.72,0,0,0,1-1.63,1.6,1.6,0,0,0,.13-1.77c-.42-.18-.81-.51-1.34-.35-.69-.13-.4-1.15-.22-1.62.34-.55,1,0,1.36.13,0,.43.3.29.54.13.43.25.5-.5.93-.55a3.58,3.58,0,0,1,.82-1.55c0-.37.43-.26.45-.65.52-.09.46-1.08,1.15-.69.35-.17.14.82.35.44s-.5-1,.11-1.34c.35-.11.66-.51,1-.12.2,0,.95-.11.42-.31-.16-.49.51-.87.84-1.16.54-.15,1.06-.73,1.66-.5.26.18.22.59.55.19.27-.18.81.33.9-.23a4,4,0,0,0,1-1.32,7,7,0,0,0-.06-1.51c-.11-.15-.76-.3-.22-.36.48-.28.73-.89,1.28-1.05s-.37-.23-.12-.6c.08-.33.52-.47.59-.78.72-.07-.09-1,.63-.9.2.21.7.55.61-.06a2.47,2.47,0,0,0,.17-1.34c-.5-.2-.92.52-1.5.28s-.88.47-1.45.3c-.35.33-.57-.37-.82,0-.36-.24-.81.32-.37.55-.6.18-.32-.64-.27-.94-.34-.38-.38-1.09-1-1.14,0-.59-.55-.14-.8,0a1.33,1.33,0,0,0-1.66-.46,2.3,2.3,0,0,0-1.12,1.16,5.71,5.71,0,0,1-.87,1.47c-.08.66-1.12.44-.91,1.22-.06.22-.08.77-.35.37-.49-.09-.11.76-.56.56-.34.19-.23-.49-.38-.64.36-.32-.49-.95-.48-.53.31.39-.75.85-.42.19.29-.21.35-.52.1-.72a2.07,2.07,0,0,1-.2-1.27c-.16-.23-.82-.32-.32-.54.3,0,.92,0,.54-.48a2.47,2.47,0,0,1,.09-1.61c.3,0,.56-.05.61-.37.51,0,1.08.11,1.46-.36.35-.29,1.08-.52,1-1a2,2,0,0,1-.32-1.63c-.11-.35.43-.4.41-.75a2,2,0,0,1,1.07,0c-.31.61.37.9.7,1.28,0,.65,1,.22,1,.72-.43.11-1.16-.06-1.39.35.33.22.72.46,1.08.2.55.29,1.08-.25,1.32-.72.18-.81,1.08-.33,1.45,0,.47-.1.4.71,1,.48.39,0,.76-.55,1,0,.51.19.26-.57.65-.59.11-.2-.12-.57-.25-.24-.69,0,0-.75-.45-1,.27-.42-.25-.82-.7-.68-.67-.28-.29-1.27-.07-1.79.3-.35.59-.7.85-1.06.39-.53,1.44.37,1.57-.43.56-.3.88.87.3.69-.12.47-.54-.24-.83-.09-.19-.2-1-.08-.48.1a.85.85,0,0,1,1,.95c.12.36.73.1,1.05.14.21-.27.17-.77.54-.95-.44,0-.27-.75,0-.73.33.44.72-.48.59-.78.11-.55.58.05.67.32.17.46,1,.09.46-.18s-.7-1.18,0-1.1c.1-.29.13-.72.6-.71.26-.3-.4-.45-.23-.83-.17-.55-1.34-.2-.9-1a2.33,2.33,0,0,1,1.13-1.07c.35.39.8,0,1.17.06.2-.36-.19-1.37-.61-.7-.46.5-1,.12-1.56.19a.71.71,0,0,1-1.29-.35c-.06-.55-.53-1.24.07-1.61.11-.3.46-.51.46-.88.36-.23.45-.62.86-.77.22-.26.69-.72,1-.19.32.2.64.14.74-.24.51,0,1.35-.29,1.15-1-.24-.4.17-.74-.17-1.12-.35-.53.27-1,.17-1.5.42-.12.87-.52.42-.93,0-.26.79,0,.62-.52-.29-.13-1.3-.5-.7-.92a1.42,1.42,0,0,0,.2-1.75,2.35,2.35,0,0,1,0-1.71,12.74,12.74,0,0,0,.47-1.76c-.21-.38,0-1.1-.66-1-.43-.6.77-.43.46-1a3.31,3.31,0,0,1,.09-1.87,1.83,1.83,0,0,0-.15-1.82c0-.53-.64-.87-.83-.26-.65.12-1.1-1-.45-1.27.35-.35.09-1,0-1.24.23-.37.75-1.15.12-1.36-.42-.32-.08-1-.45-1.37s-.15-1.11.3-.67c.48-.3.16-.89.28-1.34.44-.43.14-1.09.58-1.49,0-.61.75-.7.49-1.34.24-.37-.11-.83-.09-1.09.28-.47-.18-1-.08-1.53-.21-.56,0-1.17-.25-1.71.3-.52-.24-1.07-.33-1.64-.26-.6.19-1.16.15-1.69.46,0,.53-.31.3-.69s-.57.21-.57-.24c-.18,0-.71-.19-.29-.29-.38-.5.18-.91.25-1.38-.51-.37-.53-1.2-.5-1.81a2.5,2.5,0,0,1,.61-1.67c.45-.43-.4-1-.07-1.53a6.91,6.91,0,0,1,.52-1.93c.26-.5.89-.81.91-1.43s.84-1.05.43-1.68.27-1.22.34-1.85a3.55,3.55,0,0,0,0-2c-.11-.65-.78-.74-1.29-.87-.27-.18.25-.67-.27-.78-.28-.26.5-.3,0-.47-.47.07-1-.61-.3-.72.44.06,1.07-.46.51-.8-.19.36-1.17.47-1,0,.66.27.5-.91,1.11-.67.23.36.82.08.7.62a6.79,6.79,0,0,0-.28,1.68c0,.32-.08,1.25.44.89a4.57,4.57,0,0,1-.09-1.65,5.09,5.09,0,0,1,.36-1.93c.25-.55.48-1.11.75-1.63a9.47,9.47,0,0,1,.87-1.47c.31-.48.58-1,.89-1.45a11.73,11.73,0,0,1,.94-1.36c.31-.46.67-.85,1-1.29a8.12,8.12,0,0,1,1.08-1.19c.35-.45,1-.59,1.16-1.14a2.91,2.91,0,0,1,.86-1.47c.31-.44.74-.8,1-1.27a11.31,11.31,0,0,0,.88-1.46,9.47,9.47,0,0,0,.87-1.47,8.64,8.64,0,0,0,.9-1.41,5.63,5.63,0,0,0,.93-1.39c.25-.48.63-.94.92-1.4s.6-1,.86-1.49a10.63,10.63,0,0,1,1-1.39c.17-.53.68-.88.92-1.39s.62-.94.89-1.44.61-1,.91-1.41a9.13,9.13,0,0,1,.92-1.4c.29-.43.7-.77,1-1.22a7.1,7.1,0,0,1,1.09-1.17,4.38,4.38,0,0,0,.66-1.63,12.4,12.4,0,0,0,.39-2c0-.58.25-1.15.28-1.74s.1-1.26.09-1.89.36-1.29.09-1.8c-.49-.23-.13-1-.22-1.44a10.75,10.75,0,0,1,0-1.5,15,15,0,0,1,0-1.64,7.9,7.9,0,0,0,.1-1.68c.07-.6.09-1.21.2-1.8a7.66,7.66,0,0,1,.24-1.95c.15-.6.41-1.23,0-1.78a2,2,0,0,1-.28-1.35,9,9,0,0,1,0-1.72c.07-.55-.54-1.05-.49-1.67a7,7,0,0,1,0-1.52,6,6,0,0,1,0-1.52,6.83,6.83,0,0,1,.16-1.76,12.39,12.39,0,0,0,.25-2,10.6,10.6,0,0,1,.15-1.78,20.35,20.35,0,0,1,.48-2,10.66,10.66,0,0,0,0-1.38,2,2,0,0,0-.26-1.7c0-.56-.47-1-.42-1.57-.14-.61-.28-1.24-.46-1.83a5.5,5.5,0,0,1-.18-1.76,5.46,5.46,0,0,0-.47-1.75,6.12,6.12,0,0,1-.75-1.62,14.28,14.28,0,0,1-.49-1.73,1.56,1.56,0,0,1,0-1.46c-.61-.35-.48-1.13-.52-1.73s-.32-1.25-.33-1.9-.26-1.16-.3-1.76a3.57,3.57,0,0,1,0-1.75c.15-.65-.26-1.27,0-1.89a8.42,8.42,0,0,0,.26-1.85c.18-.66.21-1.37.34-2a5.45,5.45,0,0,1,.27-1.92c.13-.64.21-1.26.38-1.86-.07-.54.36-1,.24-1.51a3,3,0,0,1-.23-1.51,17.75,17.75,0,0,1,0-1.93,4.16,4.16,0,0,0,0-1.89c0-.46.3-.91-.07-1.31a6.34,6.34,0,0,1-.61-1.81,17.8,17.8,0,0,1-.58-1.84,11.68,11.68,0,0,0-.43-1.86,4.85,4.85,0,0,1,0-1.78,9.3,9.3,0,0,1,.08-2c0-.59.31-1.17.29-1.79a5.56,5.56,0,0,0,.27-1.57c.33-.45-.48-.66-.38-1,.51.45.3-.47.27-.74-.13-.48,0-1-.2-1.43.4-.27-.12-1.07.17-1.52,0-.25.08-.65-.2-.64.14-.54-.15-1-.19-1.54-.24-.65-.18-1.31-.4-2s-.5-1.15-.64-1.78-.56-1-.81-1.54-.66-.93-.87-1.48a3.79,3.79,0,0,0-.93-1.38,10.37,10.37,0,0,0-1-1.3,11.29,11.29,0,0,0-1-1.33c-.4-.38-.62-.88-1-1.3a8,8,0,0,1-1-1.33c-.31-.45-.72-.82-1-1.28-.13-.58-.59-.87-.84-1.39s-.53-1-.84-1.51-.53-1-.89-1.45-.47-1.07-.75-1.62-.34-1-.65-1.39c-.23-.08-.42.64-.41.11.18-.27.56-.5.29-.9-.11-.62-.38-1.2-.46-1.83a10.61,10.61,0,0,1,.06-1.69c-.1-.49.07-1,0-1.49a1.23,1.23,0,0,1,1-1.39c.31-.34-.23-.74,0-1.15-.36-.33.6-.57,0-.81-.15-.26.44-1,.56-.38.1.18-.14,1,.11.49.45-.55-.59-.87-.19-1.47.08-.22.19-.67-.13-.29-.13.06,0-.67.09-.88.2-.48,0-1,.05-1.49a17.09,17.09,0,0,0,.64-1.82,2.92,2.92,0,0,0,.38-1.88c.11-.36-.22-.45-.08-.83a7.42,7.42,0,0,1,.28-1.55c.36-.33.85-.67.71-1.24s-.65-.2-.37-.72a2.11,2.11,0,0,1,.6-1.31,3.21,3.21,0,0,1,.73-1.64c.16-.17.51-.12.4-.51a2.56,2.56,0,0,1,.89-1.32c.52-.38.08-1.14.71-1.41-.06-.65.64-1,.71-1.55a4.8,4.8,0,0,1,.13-1.73c.12-.41.15-.92-.35-1-.2-.54.22-1.22-.23-1.69s-.09-1.22-.3-1.79a4.24,4.24,0,0,0-.19-1.55c.14-.63-.45-.84-.83-1.1-.17-.42.11-.71.55-.68.06-.54-.29-1.28,0-1.86.48-.3.19-.72-.08-1,0-.61-.56-1.13-.23-1.76a2.36,2.36,0,0,0-.53-1.63c.09-.65-1.07-.47-1-1.22s.91,0,.84-.64c.16-.61-.39-1-.68-1.42-.06-.29.65-.36.27-.69s.18-.89-.29-1.21c-.3-.56.5-1.24-.17-1.72-.53-.09-.65-.94-.2-1.11.41-.4-.18-.74.13-1.2-.28-.55.21-1.18-.22-1.65.09-.24.48-.36.11-.65s-.67-.47-.62-.94c-.38-.26-.58-1.18.12-1,.58-.4-.4-1-.29-1.56s-.73-.3-.49-.86a2.19,2.19,0,0,1-1-1.28,10.88,10.88,0,0,1-.15-1.51c0-.23-.43-.14-.48-.47-.31-.23,0-1.42.41-.81.34.08.54-.13.33-.49s-.14-1-.59-1.28c.06-.44.37-.83.84-.6a1.32,1.32,0,0,0,.39-1.46c.09-.29.67-.74.07-.91-.46-.41-1.15,0-1.6-.39-.23-.19.21-.54-.27-.52s-.41-.61-.87-.43c0-.35.32-.8-.21-1-.24-.16-.09-.31-.1-.4-.48-.29-1.1-.15-1.55-.6-.62,0-.16-.88-.58-1.22-.14-.47-.88.14-.86-.47a.63.63,0,0,0-1,.14c-.18.15-.63.33-.29.53,0,.62-.76.55-1.2.52-.69.28-.72-.76-1.26-.65-.17.23-.49.71-.64.19-.36-.41-.57,0-.84.21-.3-.14-.46-.57-.86-.63-.4-.25-.68.5-1.07.43a.62.62,0,0,1-1.12.27c-.35,0-.62.57-.93.07a.52.52,0,0,1-.73-.18c-.62-.22-.7.82-1.2.88-.33.07-.79.52-1.27.45-.23.37.13,1.18-.54,1.32-.28.39.63.67.21,1.15.11.44.66.63.31,1.14s-.44,1.26.17,1.33c.29.29.3.64.65.85.08.37-.07.75.21,1.08-.21.41-.81.81-.3,1.27.2.55-.84.86-.24,1.39,0,.59.46.92.9,1.17.33,0,.59.09.47.5a.52.52,0,0,1,.27.9,1.21,1.21,0,0,1-.74,1.27c-.26.48-.75,1.14-.38,1.68.37,0,.61.55,1.09.55.28.12.6.69.05.58-.55.21-.36,1-.5,1.5-.25.09-.76,0-.75.42-.28.15-.46.41-.82.41-.26.53-.88.65-1.25,1.07a5.44,5.44,0,0,0-1.32.93c-.29.48-1,.63-1,1.3-.13.36-.38.78.15,1,.41.39,1.15.55.92,1.29-.14.41-.5.83-.06,1.19.14.6,0,1.29.33,1.82s.93.6,1.34.94c.25.19.3.65-.17.59a.65.65,0,0,0-.55.91c-.49.12-.42.77-.76,1.1-.06.62-.75.71-1,1.22a1.41,1.41,0,0,1-1,1.05c-.3.42,0,1-.22,1.44s-1.13.67-.72,1.22c.12.53.68.62.9,1.08.66.17.74.88.94,1.42.42.49.27,1.26.74,1.69.56,0,1.28.22,1.12.9.31.38.79.55.75,1.15.21.52.67,1,.56,1.59a12.81,12.81,0,0,1-.13,1.65,1.47,1.47,0,0,0-.17,1.54c.06.56-.53.89-.11,1.41a.93.93,0,0,1-.3,1.33c-.46.53.57,1.11.1,1.6-.06.43.42.66.3,1.12.32.42-.09,1.07.46,1.41a1.44,1.44,0,0,1,0,1.45c-.1.5.53.93-.06,1.31-.29.49-.54,1.06-1.14,1.22-.22.28-.58.53-.32.86-.31.39-.4,1.11-1.07,1a1.19,1.19,0,0,0-.9,1.22c-.21.6.19,1.2,0,1.8s.19,1.05.15,1.61a5.34,5.34,0,0,0-1,1.29,3.88,3.88,0,0,1-1.23,1,2.5,2.5,0,0,1-1.15.51c-.24.21.06.53-.35.44-.28.36.65.94.13,1.14a2.79,2.79,0,0,1-1.68.32c-.65,0-.87-.78-.82-1.31-.48-.35-.81-.84-.48-1.43,0-.45-.63-.41-.53-.94-.21-.54-1.18-.3-1.07-1,0-.37.28-.94-.34-.86-.33.14-.78.07-1.05.22-.62-.22-.2-1.46-1-1.16-.12-.15.52-.52.2-.86-.16-.5.11-.92.21-1.36.07-.2.06-.7-.37-.57s-.94-.16-1.29-.47c-.35.64-1,.23-1.57.18-.23.17-.6-.23-.6.23-.23.26-.78.18-.29-.08.2-.42.38-.93,0-1.25,0-.63-.74-.83-.91-1.38s-.5-1-.93-.45c-.48.18-1.12.07-1.26.73s-.86.71-1.32,1c-.66.39-1.15-.45-1.77-.23a6.72,6.72,0,0,1-1.45-.77c-.54,0-.87-.69-1.5-.64-.44-.15-.34-.93-1-.76-.35,0-.93-.14-.94.36-.42.2-1.25-.26-1.28.47s-1,.24-1.12-.18c-.69-.15-.78.65-1.08,1-.65.21-.92-.44-1.53-.57a.69.69,0,0,0-1.06.28c-.65.09-.44.71-.59,1.15-.24-.58-1-.7-1.09.07-.22.16-.59-.17-.75.23s-.79.86-.87,1.45c-.15.79-1.13-.21-1.25.26-.23.27-.74.09-.93,0-.54.24-.08.92-.59,1.2-.38.53.34.64.38,1.07-.13,0-.35-.25-.37.14a.59.59,0,0,1-.84.61c-.26.37.21,1.05-.46,1.11-.41.21-.56,1-1.11.59-.46-.13-.89-.22-1.07-.71-.36.1,0,.72-.42.84.41.52-.31,1.22.24,1.66.29.29.19.55-.2.42-.22.13-.9.15-.47.55a7.43,7.43,0,0,0,.35,1.52c.46.08.14.55-.09.69,0,.4.64.24.47.68a.81.81,0,0,1-.39,1.4c-.6.1-.87.6-1.47.73-.32.26-.78.66-1.14.58-.41-.64-1.05-.1-1.58,0a4.89,4.89,0,0,0-1,1.41,2.36,2.36,0,0,1-1.12,1.21c-.36.38-1.41.49-1.35-.25-.4-.09-.78-.6-1,0a1,1,0,0,1-1.37.32c-.34.17-.4-.27-.65,0-.52-.3-.78.72-1.37.31-.26-.06-.39.39-.52,0-.15-.15-.2.17-.34,0a5.84,5.84,0,0,0-1.32.88c-.31.53-1.07-.21-1.57.1-.58.15-1.19.68-1.78.26-.68.13-.62-.7-1.2-.73-.15-.19-.12-.37.06-.29.29-.37.46-.94-.17-1.06-.29-.09,0-.86-.48-.48-.34.28-.28.76.24.72s.51.41.06.43c-.13-.14-.56-.23-.27,0,.62.24-.43.66-.74.53-.44.21-.61-.62-1-.14s-1,.67-1,1.17-.17,1-.86.84c-.35.13-.66.8-1.13.33s-.88.26-1.23-.28c-.28-.24-.35.51-.55,0-.28-.63-.82.48-1.1-.18-.67-.34-1,1.06-.16.81.33.29-1.07.34-.57.9.08.08.45,0,.19.25-.48.09-1.28.46-.8,1.06.08.56-.44,1.05-.76,1.47-.6.29-1.11-.32-1.72-.23-.2-.23-.77.39-.76-.08.67-.19-.81-.93-.65-.17-.46.3-1.37.26-1.37,1s-.79,0-.83.62c-.35.35-.95.43-1.08-.18.13-.8-1-.66-1.4-.32-.13.62-.52-.26-.82.17-.52-.12-1.34-.14-1.7.38-.37.14-1.18-.09-.93.55s.86-.46,1,.27c.23.34.65-.2.72.32.18.26.27.73.09.9.58.6-.6.8-1,.94s-.39.73.11.5c.59.21-.61,0-.47.42-.22.19-.55.44,0,.47a3.47,3.47,0,0,1,.71,1.72c.09.39-.24.54-.25.93a2.87,2.87,0,0,0-1.19,1c-.35.3-.26.8-.7,1-.36.39-.89.37-1.27.71a7.11,7.11,0,0,1-1.67.27,3,3,0,0,1-1.52-.33,3.19,3.19,0,0,1-1-1c.52-.21,0-1,.68-1,.66.15.19-1-.27-.41-.24-.22-.71-1-.8-.27-.13.37-.7.12-1,.34-.48.52-1-.29-1.53.11,0,.36,0,.77-.52.82-.33.21-.81.17-1.08.38-.08-.54.18-1.07-.08-1.61a.55.55,0,0,1,.41-.82c-.15-.38-.43-.16-.63.05-.51-.23.11-.85-.17-1.25.19-.33.78-1.1,0-1.08-.23.56-.85.66-1.17,1.1s-1.11.25-1.18.72c.21.22.61.42.21.72-.42-.17-1.09.91-.36.65.42.34,1-.36,1.49-.22-.14.42-.9,1-.34,1.5.31.28-.28.89.39.83.21.29,1,.86.36,1.2-.22.39-1,.49-.58,1,.22.34.48.69.06,1-.22.33.58,1-.14,1-.35-.06-.59,0-.67.38a.4.4,0,1,0,.3.72c.36.15.19.63-.11.7.11.55.81-.29.65.31-.14.3.64.5.22.85-.43.11-.78.4-1.2.11-.3.63-.89.1-1-.36a1.25,1.25,0,0,1-.87-.18c-.12.2-.28.56-.54.26-.34.18-.18.55.11.63.1.55-.67.52-.83.9-.62-.3-.74,1-1.26.63-.19-.57-.88-.54-1.35-.6a1.47,1.47,0,0,0-1.3.86c-.32.45-.13,1-.16,1.48.36.38-.15.67,0,1,.32.38.17,1,.13,1.46-.25.36-.22.91-.66,1.2-.31.45-.72.81-1,1.28-.18.32-.15.6-.53.7s-.58.45-.35.88c-.27.52.47,1.08.72.44.5-.39,1.09.07,1.65-.06.34,0,.58-.3.89-.07.18-.35.77-.26,1.07-.11a2.3,2.3,0,0,0,.44,1.11c.11.39-.13,1.28-.57.64-.32.34-.47.88-.91,1.19a1.07,1.07,0,0,1-.91.83c-.19.33,0,1.07.35,1.06s.55.66.11.7c.18.37.16,1-.43.86-.4-.34-1-.13-1.43-.27-.07.46-.65.1-.84.44-.72.13-.1,1,.23,1.23s.45.65.9.37c.39.11.45.6.89.63.06.33-.74.37-.31.82a2,2,0,0,1-.26,1.76c-.22.34-.71.45-.51,1-.23.33-.73.18-.67.62-.33.07-1.2.41-1.07-.18.27-.35-.57-.42-.71-.71a3.25,3.25,0,0,1-1.58-.52c-.43,0-.93.19-1.16-.31-.34.23,0,.91-.58,1-.29.26-.82,0-1,.13-.26.42-.65-.45-.92.12-.61.28.1.68.21,1-.27.22-1.44.3-1,.85.42.28,1.35.22,1.35.89-.28.14-.47.56-.74.24-.4.18-.9.85-.36,1.24.12.47.91.43.79,1.08,0,.33,0,.74,0,1a4.24,4.24,0,0,1-.93-.2c.19.7-.66.63-.91,1-.59.08-.84-.62-1.43-.7-.16-.35-1.22,0-.55.25.47.32-.32.87-.56.33-.33-.11-.54-.33-.77,0a.31.31,0,1,0,0,.61c.17.28.58.88.3,1.13s-.67-.63-.65,0c.19.47-.48-.12-.2.38.2.31-.48.41-.56.46-.3-.11-.65-.18-.75.15-.44.1-.37-.86-.88-.28-.22-.18-.41-.27-.61-.16-.26-.25-.49-.43-.11-.72-.11-.37-.28-1-.76-.86.16-.49-.83-.37-.34,0a5,5,0,0,0-.32,1.21c.27.31.36,1.06-.28.81-.22-.4-.86-1-1.23-.5-.26.73,1.14.71.77,1.29-.56.37.27.42.42,0s.62-.09.88-.3c.18.16-.13.5.26.41.19.36.41.24.66,0,.53,0,.12.44-.06.6.17.27,1,.48.35.74-.36.27-.55,1,0,1.16.21.33-.42.08-.3.42-.41.31-.17.8-.44,1.2.24.27.53.79.7.18.21-.13.24.19.47,0,.35.24-.09.39-.18.46a1.37,1.37,0,0,1-.43,1.08c.53.35-.85.67-.14.91.29-.09.51-.17.65.19.17-.19.44-.71.56-.1.45.27.64-.48,1-.6-.16-.8,1,0,1.08-.71.31-.26.7-.57.65-1,.28-.06.52-.17.35-.48a1.09,1.09,0,0,1,1-.75,1.35,1.35,0,0,1,1.48-.8c.65-.22.76.44,1.13.76.3.1.63-.36.56.19s.27.22.43.11c.07.4.54.46.45,0,0-.73.84.24.51.6-.2.62.36,1.08.92,1.14.26.39.92-.5.82.11a1.67,1.67,0,0,0-.09,1.46,2,2,0,0,1-1.28.92c-.13.43-.7.18-.89.58a.56.56,0,0,0-.62.32c-.27,0-.51,0-.81,0,0,.47-.76.27-.5.76-.12.31-.78.45-.63.77.5.13.84.69,1.06,1.12-.25.19-.66.35-.22.64.2.17.35.93.66.54-.18-.4.11-.74.54-.56.54,0,.87-.52,1.42-.44.51-.18,1-.73,1.56-.24s-.5,1.4.11,1.55c.31.23.5-.17.84.09s1,.28.65.76c.07.6.64-.12,1,0,.16-.31.23-.75.65-.4.38-.06.38.73.76.25.36.1.8-.54,1,0a.33.33,0,0,0,0,.65c.46.08.63.46.75.84.36,0,.59-.67.93-.19.39.09.48.44.12.65-.48.39.31.38.58.43a3.56,3.56,0,0,1-.06.83c-.47-.07-.66.66-.08.57.35-.1.29.92.66.51.39-.11,1-.66,1.23,0a1.47,1.47,0,0,1,.23,1.71c-.37.49.73.59.29,1.07.11.49-.51.4-.5.89-.56,0-1,.26-1.52.27-.35,0-.52-.6-.84-.17-.37.13-.45.79-.84.56-.51.55-1.28-.27-1.74.18-.16.42-.44-.14-.76.14-.48.29-1.4,0-1.51.64s-.84,0-1,.59a1.65,1.65,0,0,0-1.36.27c-.53-.18-.8-.69-1.38-.79s-.34.54,0,.6c-.4.71-.83-.53-1.31-.22-.18.24.32.72-.26.7s-1,.46-1.55.45c-.2.3-.8.25-.91.74a1.25,1.25,0,0,1-1.19-.07c-.29.23-.25-.31-.57-.05s-.87.41-.58.88c-.33.57-1.13.21-1.62.57-.5-.14-.84.32-1.18.51-.54-.07-.87-.52-1.28-.84s-.77,0-1.1,0c-.11.46-1.39.54-.6,1.08.51.2.8.67,1.33.81-.07.27-.23.45.16.55a.82.82,0,0,0,1.38-.08c0-.31.57-1,.69-.36.51.25,1.15-.11,1.55.4s-.08.84-.29,1.17c-.29-.05-.27.49-.51.62-.08.59.91.16.81.85.52-.31.94.57.29.65-.36-.3-1.34-.2-.8.37a1.22,1.22,0,0,1-.55,1.26,1.33,1.33,0,0,0,1.07.09c.09-.45.65-.27.73-.73.27-.13.89.28.59.62a6.65,6.65,0,0,1-.16,1.69c-.7.24-.47,1-.17,1.5-.6.3.1.93.27,1.27s1.25.22.68.82A1.16,1.16,0,0,1,557,297a1.66,1.66,0,0,1-1.23.32c-.1-.53-.75.21-.61.55-.09.27-.87.09-.59.65s.79.28.93.76c.21-.25.37.32.61,0,.57.18,1.09-.18,1.54-.36.38.18.57-.26.93,0,0-.63,1.15-.27,1.08.28a2.36,2.36,0,0,1-.81,1.29.72.72,0,0,0-1,.66,1,1,0,0,1-.68.45c-.12.71-.81,0-1.12.07-.13.33-.1.74-.59.56-.41.28-1,.55-1.1,1.09a.93.93,0,0,0-.26.84c.46.17.59-.4,1-.41a3.68,3.68,0,0,0,1.36-.8c.14-.32.77-.19,1,.05.34,0,.94-.3,1,.29.34.22.85-.11.87.45.44.12.39.77.1,1s-.45.88-.84,1.11a1.78,1.78,0,0,0-.63,1c-.23.21-.82.83-.33,1,.46-.36.94-.2,1.48-.22.38-.24,1.1.15,1.14-.52.31-.48.69-.06,1,.17,0-.49.67-.42.93-.74a1.2,1.2,0,0,1,1,.28c.13.33.39.66.17.95.27.24-.12.36.21.49a1,1,0,0,0,.79.39c-.27.5.28.34.58.27.31.24.69-.1,1-.09.58-.39.48.4.46.74.58.09,1.34-.61,1.75-.12.2.2.93.37.4.76-.1.69.73.85.85,1.46.52.38.14,1,.42,1.57-.13.63.76,0,.77-.3s.22-.77.57-.44c.5-.13,1-.41,1.45,0s.67.43.85-.08,1.07-.38,1-1.09.48-1.16,1-.67c.39-.06.67.32.94.52-.17.38,0,.77-.17,1.17.08.66.91.63,1.13,1.17.12.32.6.59.36,1,.12.34-.1.42-.32.47a2.43,2.43,0,0,1-.69,1.57c-.53.35.41.27.41.1s.51.18.45-.18c.69-.23.69.77,1.11,1.05a7.34,7.34,0,0,0,.47.93c-.11.39.38.81.54,1.17,0,.54-.17,1.37-.71,1.52s.07.56.33.21a3.54,3.54,0,0,0,1.74,0c.43-.06.72-.82,1.11-.23.35.12-.12.81.48.82a.61.61,0,0,1,.35.88,2.22,2.22,0,0,0,.82,1.54c-.09.31-.06.46-.36.55-.2.44-.4,1.29-1,1.19-.3.06-.6.36-.83-.06-.41-.27-1.2-.72-1.55-.19,0,.4-.39.57-.09.95.08.25.51.76-.1.75s-.91.74-1.49.88c-.37.3-.85.21-1.24.42-.5-.23-.78.81-1.21.27a2.56,2.56,0,0,0-1.65-.22c-.48,0-.36.51-.73.72,0,.68-1,.63-1.43.69a3.36,3.36,0,0,0-1.2.91c-.39.37-.92.61-1.19,1.08-.1.26-.66.29-.32.66.1.33-.63.49-.13.8.29.36-.36.46-.24.88Z"/><g id="layer9"><path id="path4687" class="cls-5" d="M677,265.11c-.51-.37-1.25-.69-1.72-.08a1,1,0,0,0-1.32.54c-.42-.07-.77.05-.59.52a2.78,2.78,0,0,0,.25,1.83,2.31,2.31,0,0,1,.49,1.68c.31.54.53,1.1,1.15,1.35.47-.07.82.28,1.32.15a1.61,1.61,0,0,0,1.35.21c.37.17.59-.18.9.1.71,0,.85.8,1.24,1.28a1.26,1.26,0,0,1,.1,1.73c-.19.5.31.92.18,1.37a.65.65,0,0,1,.72.45c.28-.43.55.26.13.32.54.18.93.93,1.56.89.36.05.2.61.64.64,0,.39.66,1.26.84.52s1,0,1,.46c.27.4,1.16,0,.89.71.17.56.19,1.51,1,1.45.25.35-.37.91.27,1.14.41.25,1,.57.72,1.13.25.62.64-.34,1,.12s.37,1.32,1,1.53c.52-.09.5.44.17.63a2.67,2.67,0,0,1,1.41,1c.34.43,1.22.2,1,.93.11.7,1.06.18,1.39,0-.1-.16-.56-.29-.13-.41.26.31,1,.26.77-.31.15-.7,1.25-.22.71.29-.09.38.29.28.33,0,.3.06.57.35.86.49.09.48.39.4.57.06.49-.21.83.23,1.26.25-.28.72.55.87,1,1.22.24.31.21.75.72.76.17.29-.57.57-.08.88s.82.16,1.08.56c.65-.28,1.25.41,1.48,1,.39.33.82,1,1.36.45.39-.27.86-.58,1.2-.09.53-.25,1.23-.6,1.12-1.27.32-.12.83.16.75-.4.26-.06.6.21.92.23.26.19.35.15.51,0,.51.08.74.67,1.22.48"/><path id="path4691" class="cls-5" d="M657.13,391.7c0-.61-.82-.55-1.25-.63-.64.19.08-.72-.45-.87s-.64-1.3-1.2-.77c-.38-.33-.88-.55-.82-1.12,0-.29-.15-.66-.58-.6-.2-.45-1-.64-1,0-.53.19-.71.85-1.08,1.1-.65-.28-.87.68-1.54.46-.63-.05-1.28-.06-1.87-.16-.36.21-.81.71-1.18.31a4,4,0,0,1-1.63.32,1.9,1.9,0,0,1-1.15.88c-.33.3-.19-.05-.29-.21-.46.16-.42-.79-.93-.37-.33.21-.46.65-.93.34.09-.38-.64-.17-.3.1a.69.69,0,0,1-1.3.11c-.57-.1-.29.5-.71.68.13.74-.74,0-1-.21-.53-.26.46-.64-.16-.75-.26-.23-.52-.43-.79,0s-1.13-.33-1,.47c-.08.61-.7.85-.84,1.45-.48.3-.75.76-.38,1.27-.37.6-1.27-.29-1.71.37-.12.62-.91.36-1.16.59,0,.91-1.09-.58-1.13.36-.06.37,0,.82-.52.64-.39.18-1.2.32-.81.89-.36.74.94.17.6.85s.23,1.43-.51,1.74c-.23.47,0,1.23-.64,1.47s-.23,1-.79,1.29c0,.46.26,1.15-.3,1.48s0,1-.37,1.51c-.41-.06-.71-.8-1.25-.32-.36.32,0,1.19-.75,1.12-.52.19-1.25-.42-1.43.33-.34.2-.32.69-.79.44-.59-.07-1.34-.56-1.83,0a1,1,0,0,1-1.29,1,1.24,1.24,0,0,0-1.48,1c-.2.47-.55,1-1.08.64-.49.06-1.07.43-1.52,0-.48.08-1.12.5-1.14-.32-.21-.76-1-.3-1.46-.4-.38-.49-1.39-.11-1.6-.81s-1.23.52-1.39-.18c-.17-.39-.59-.6-.83-1-.54-.18-.86.42-1.34.51-.81.18-.77-1.13-1.58-1.06-.53-.14-.93.45-1.47.23a4.69,4.69,0,0,0-.92-.07"/><path id="path4701" class="cls-5" d="M646.24,332.53c-.14-.62.28-1.22.38-1.82a2.38,2.38,0,0,0,.91-1.35,2.69,2.69,0,0,1,1.72-.68c.42-.28.79-.19,1.11-.61a9.21,9.21,0,0,1,1.61-.91c.44-.37,1.09-.48,1.42-1a2.76,2.76,0,0,0,.61-1.91c.54-.48-.52-1.06,0-1.54.57-.17.24-1,0-1.35-.21-.65.37-1.24,0-1.82.24-.42.55-1.08,1.12-1.23s.39-.72.39-1.18c.22-.34-.57-.35-.14-.67.5-.5,1.26-.63,1.74-1.18a9.09,9.09,0,0,1,1.17-.53c.43.59,1-.1,1-.55.51-.08.66-.93,1.31-.67.47.3.87-.14.71-.62.2-.57.73,0,.81.35.49,0,.21-.83.78-.46a1.61,1.61,0,0,1,.81.28c.49-.42,1.21.16,1.72.37.45.36,1.14.31,1.26,1,.46.87,1.2-.06,1.78-.09s1.37.14,2.07.27,1.07-1.05,1.66-.3c.37.31-.5,1.07.14,1.1.25-.29.6-.57.86-.14.49,0,1.23.31,1.48-.27s.77-.15,1.09.11a1.62,1.62,0,0,1,1.82.32c.51.34.72.93,1.31,1.12.44.44.4,1.14.68,1.67-.16.23-.8.05-.5.52-.16.39.09.56.41.76a.78.78,0,0,0,.65,1c.58.32-.59.35,0,.65.34.15.93.38.4.77s-.53,1.34.17,1.49c.24.36.23.78-.19,1-.28.7,1.16.68.71,1.26-.63-.12-1.17.47-.66,1-.09.44-.25.88.08,1.27-.08.61-.13,1.28.55,1.54.36.45.46,1.11,1,1.39s.6,1.06,1.23,1.27,1.16.27,1.71.48c.47.41,1,.16,1.61.15s.34.81.94.55a.9.9,0,0,1,1,.61,1.79,1.79,0,0,0,.95,1c.16.48.59.52,1,.49.15.6.88.79,1,1.42.08.17,0,.39.14.46"/><path id="path4715" class="cls-5" d="M648.53,407.53a2.43,2.43,0,0,1-1.26,1.53c-.44.52-1.13.59-1.67.95s-1,1.21-1.69,1c-.58-.07-1,.4-1.54.46s-1.08.57-1.7.64c-.15.46-.66-.08-1,.07-.58-.09-1.06.26-1.61.31-.07,0-.64-.27-.59.2a1.38,1.38,0,0,1-1,0c-.12.52-.64,1.16-1.21,1.09s-1,.76-1.35,1.09c-.5-.22-.49.69-1.08.55-.28.2-.44.68-.87.62-.31.45-.8-.29-1,.28-.32-.23-.63.09-.48.51-.35.29-1-.49-1.3.12-.08.75-1.14.74-1.08,1.46-.38-.09-.81,0-.83.49s-.59.46-.94.61c.13.32.21,1-.3.62-.63-.18-.71.5-.91.89-.44.5-.64,1.15-1,1.68,0,.63-.62,1-1.1,1.27-.46,0-1.25.16-1.36.72a15.52,15.52,0,0,0-.68,1.8c0,.85-1.5.33-1.1,1.25.19.58-.19,1.13-.47,1.61-.1.57-.78.67-.92,1.28s-.91.54-1.34.84c-.49.47-.06,1.1-.21,1.6-.11.12-.14.31-.25.42"/><path id="path4717" class="cls-5" d="M616.61,433.51c-.31.34-.45.89-1,.74-.4.16-.74.58-1.22.23a.71.71,0,0,0-1,.84c0,.59,0,1.44-.85,1.54a7,7,0,0,0-1.54.93c-.17.29-.63.24-.69.64,0,.11-.15,0-.23.1"/><path id="path4721" class="cls-5" d="M657.07,220c-.68-.15-1.08-.81-1.67-1.06s-1,.16-1.47-.15c-.34.36-.89.4-1.31.66s-.49.43-.94.32c-.69.17-.93-.78-1.5-1-.41-.51-.32-1.29-.82-1.71s-.32-1.13-1-1.44a3.88,3.88,0,0,0-1.26-1.41c-.39-.41-.35-1.06-.93-1.29a18.24,18.24,0,0,0-.41-1.89c-.08-.67-.63-1.07-.78-1.68-.41-.54-.25-1.29-.46-1.94-.16-.42-.41-.83-.87-.73-.28-.6-.41-1.37-1.18-1.58-.53-.3-.7-.93-1-1.42-.35-.31-.49-.91-1-.93a3.05,3.05,0,0,1-1.47.06c-.45.24-1.67.38-1.26-.47.17-.72-1.25-.81-.58-1.5a.73.73,0,0,1-.25-.83c-.35-.23-1.1.28-1.19-.37-.49.13-.69-.6-.82-.95.13-.3.61-.49.14-.81s-.55-1.09-1-1.41c-.1-.47-.62-.82-.92-1.18-.23.09-.39.39-.6.22-.09.16-.06.59-.4.11"/><path id="path4727" class="cls-5" d="M657.71,215.54c.54-.42,1.41-.14,1.82-.7a11.3,11.3,0,0,0,1.86-1.08c.47-.46,1.24-.19,1.58-.69a5.55,5.55,0,0,1,1.3-.72,2.88,2.88,0,0,1,1.21-1.3c.45,0,.3-.41.72-.49.2-.43-.34-1,.25-1.18,0-.52.86-.1.81-.75.15-.35.7-.42.63-.91a1.31,1.31,0,0,0,1-1.09c0-.55.58-.83,1.06-1s.26-.64,0-.92c.36-.61-.38-1.18,0-1.81.19-.41.52-.72.14-1.13-.16-.59-.93.07-1.34.09-.32.35-.68-.43-1.11-.13-.62-.27.78-.95,0-1-.61-.12.16-.68-.37-.91-.35-.21,0-.78.15-1,.74-.11.18-.92.6-1.32.39-.08.58-.58,1.09-.46a.93.93,0,0,0,1.14-.78,1.45,1.45,0,0,0,0-1.55.94.94,0,0,1-.28-1.37c0-.51-.34-.85.15-1.19,0-.06,0-.2-.19-.21"/><path id="path4729" class="cls-5" d="M613.35,253.8a2.15,2.15,0,0,0-1.73-.67c-.57.19-.35-.51-.53-.82.06-.51-.28-1.1.26-1.46-.24-.7.8-.62.74-1.23.27-.29.84-.48.89-1,.52-.24.64-.83,1.21-1,.29-.66,1-.71,1.62-.88s.8-.82,1.38-1c.24-.71,1.27-.57,1.54-1.19.5,0,1.16-.23,1.26-.85.59-.27,1.17-.46,1.79-.72.55-.41,1.42.16,1.84-.55.1-.65,1-.15,1.31-.65.39-.21.87-.58,1.28-.4.43-.33,1.3,0,1.54-.61.36-.15.26-.53.62-.73,0-.69,1.12-.36,1.25-1.09.35-.53,1.17-.13,1.29.26.21.61.38-.82.81-.29.22.3.54.21.82.38.41-.45,1.32-.05,1.66-.65.37-.12.19.69.6.21.18-.32,1,.08.72-.48.12-.45.59.28.81-.2.45-.09,1,.09,1.26-.39.55,0,.75-.62,1.13-.83.5.33.37-.87,1-.78.27-.36.48.37.82,0,.6-.25,1.26-.32,1.64-.86.89.41.82-1.16,1.65-.9.56.16.27-.67.84-.64.38-.51,1.06-.44,1.61-.66.37-.33.79.36,1.2,0,.49.3.93,1.27,1.69,1,.44.31,1.12.16,1.56.43.51-.09,1.06,0,1.45-.45s.92-.16.94-.78a.79.79,0,0,1,1.32.37c.49.3.34,1.12,1,1.16.16.16.24.42.5.59"/><path id="path4733" class="cls-5" d="M611.35,283.15a4.73,4.73,0,0,0-1.78.66c-.5-.17-1,.17-1.43.29-.26.47-.59.07-1,.37-.56,0-1.47-.07-1.3.78-.27.53-.85,1-.93,1.52s-.31.91-.21,1.37c-.44.23.36.89-.32.79-.34.16-.15.46.1.52.15.58-.86.7-.41,1.35a4.24,4.24,0,0,0-.17,1.14c-.29.08-.42.52-.69.5-.34.24-.41.6-.88.64-.17.46-.11,1.1-.28,1.53.38.28,0,.78.57.86.16.34-.45,1.09-.51.42-.33-.15-.74-.14-1-.47-.34.43-1.3-.1-1.3.72a10.35,10.35,0,0,0-1.41.56c.08.54-.36,1.35-.9.7-.38-.41-1.4-.56-1.74,0-.07.68-.6,0-.87.18,0,.57.49,1.3-.2,1.62-.09.48.1,1-.5,1.13-.29.56-.85,1.21-.53,1.87a5.33,5.33,0,0,1,1.17,1.45c.07.57.68.72.93,1.11.78-.08,0,1.18-.36.54-.65-.47-.36.67-.43,1,.24.41.56.86,1.06.47.44-.08,1.26.07,1.19.66-.28.13-.52.2-.43.57-.18.5-.68.2-1,.18-.12.57-.8.44-1,.83.34.29.58,1.33-.16,1.18-.43.12-1.34.08-1.34.7s-.76,0-.9-.23c-.6.09-.65,1-1.17,1.15-.27,0-.6-.48-.68.05.2.6-.61.69-.94,1-.5.05-1-.33-1.51-.18-.31.28-.36.84-.93.69a.72.72,0,0,0-.19,1.05c-.33.3-.78.32-1,.75-.73-.09-1.22.8-2,.68-.32-.12-.81.22-.74.57-.51-.06-1.08-.06-1.29.57-.07.47.69,1.07-.07,1.36-.31.35-1.08.38-.94-.25-.4-.72-1,.26-1.46.23-.2,0-.29-.11-.41-.1"/><path id="path4741" class="cls-5" d="M610.36,244.3a2.43,2.43,0,0,1-1.64.33,3.35,3.35,0,0,1-1.8.1,1.57,1.57,0,0,1-.75-1.29c-.56-.55-1.35,0-2-.4a1.57,1.57,0,0,1-1.07-.9c-.52.08-.78-.85-1.33-.44-.43-.4-1,.51-1.27-.11a.53.53,0,0,0-.82-.62c-.3-.37-.82-1.23-1.15-.4a.5.5,0,0,1-.89-.11c-.45.6-.68-.32-.66-.7a12.33,12.33,0,0,0-.51-1.7c-.1-.6-.43-1.18,0-1.74.12-.58.33-1.35-.35-1.63-.58,0-1.26.08-1.5-.6a3.63,3.63,0,0,0-1.46-1.68,2.23,2.23,0,0,1-1-1.13c-.43-.32-.2-.82-.42-1.23.38-.61,0-1.34,0-2a3.83,3.83,0,0,0-.09-1.72,5.82,5.82,0,0,1-.48-1.77,9.64,9.64,0,0,1,.22-1.51c0-.62,0-1.24,0-1.86a6.66,6.66,0,0,1-1.13-1.42c-.16-.54-.47-1.12-.08-1.63-.42-.17-.43-.56-.31-.91a.3.3,0,0,0-.17-.21"/><path id="path4745" class="cls-5" d="M602.36,265.71c-.25.62.52,1,.37,1.65a1.65,1.65,0,0,0,0,1.76c.2.56,1,.14,1.08.85.09.51.27.95.89.76.43.27.87-.15,1.32.1.32.07.74.08.83.5.42.35.84.74,1.42.61.53.17,1.11.21,1.38.79.42.31.8.81,1.35.39.29-.46,1-.28,1.1-.91.31-.2.43-.59.85-.58a3.67,3.67,0,0,1,1.4-1.47,12.61,12.61,0,0,0,1.31-.44c-.38-.64.85-.21.64-.92.21-.35.88-.09.91-.62.27-.05.65.16.66-.29a12.25,12.25,0,0,1,1.26-.62c.28.48,1,.85,1.4.27.33-.22,1.18-.2.8-.87.19-.7,1.09,0,1.51-.26s1.27.1,1.82-.38,1.52-.1,1.94-.84c.29-.46,1-.5,1-1.12.49-.16.92-.53.7-1.05.36-.64,1.17-.47,1.71-.27a1.13,1.13,0,0,1,.6-.6c.13-.57.12-1.25.65-1.59a2.28,2.28,0,0,0,.74-1.06c.5-.47,1.54-.48,1.56-1.37.1-.6.49-1.14,1.1-1.09.34-.38.95-.56.92-1.11.46,0,.72-.41,1.19-.21.34-.55.55.51,1.06.12a7.91,7.91,0,0,0,1.27.43c.36.71,1.15-.23,1.6.33.56,0,.57-1,1.24-.73.27-.29.15-.88.73-.8.31-.27.57-.79,1.07-.52.64,0,.84-1.32,1.42-.56.49.6,1.18-.16,1.75.28.62-.19,1.07-.81,1.73-.67.5-.26.19-.72-.08-1a2.07,2.07,0,0,1,1.37-1.24c.67-.16.52.82,1,.88.26-.28.53-.69,1-.56.33-.12-.06-.6.36-.77.21-.26.15-.83.65-.54.69,0,.81-1,.81-1.61a9.57,9.57,0,0,0-.12-1.78,6.67,6.67,0,0,1,.77-2.06c.29-.6,1-.8,1.14-1.49.31-.38-.19-.71-.16-1.13-.76.13-.71-.87-1-1.31-.43-.16-.82-.54-.3-.89.21-.74,1-.95,1.37-1.52s-.08-1.35-.57-1.66c-.21-.65.24-1.62.93-1.56.45.42.79-.31,1.21-.4a2,2,0,0,1,1.37.44,1.7,1.7,0,0,0,1.6.29c.35-.57,1.12-.28,1.63-.1.7.06.74-1.17,1.53-1,.5-.32,1.36.24,1.52-.5.36-.37,1.08-.22,1.16-.88.45-.32.48-1.14,1.22-1.18s.69-1.41,1.55-1.36c.28.29.89.45,1-.1-.62-.42.7-.74.56-1.32.18-.62,1-.39,1.21-.94s.69-.39.67.1c.72.35.68-1.24,1.39-.56.31.5.76.26,1.16.11.41.26,1.19,0,1-.55.14-.54,1-.23,1.45-.34.37.06.47.45.91.34a17.11,17.11,0,0,0,1.92.83c.77.18,1.15-.61,1.82-.75.46-.15,1.41-.72,1.27.22-.2.58.41.92.9.75.75,0,.92-.88.73-1.44.18-.53-.15-1.1-.11-1.56.56-.24,1.29,1.13,1.47.18,0-.33-1-.88-.28-1,.49,0,1.26.15,1.24-.56.48-.51.86.31,1,.68s.65,1.15,1,.49.68-.09.53.33c-.11.78.69,1.1,1.29.71.41-.48,1-.74,1.4-1.28a2.13,2.13,0,0,1,1.32-1,2,2,0,0,0,1.54-.48,4.23,4.23,0,0,1,1.19-1,1.38,1.38,0,0,1,1.44-.54c-.06.42.57,1,.76.33-.12-.52.67-.93.74-.27s.65.2,1,.35c.48-.09.62-1.44,1.07-.62.22.42.47,0,.67-.06.13.64,1.16.05,1.18.87.22.41,1.09.2,1,.87-.29.5.23,1.22.78.93.43-.6.77-.23.94-.11"/><path id="path4747" class="cls-5" d="M600.42,263.45a1.35,1.35,0,0,0-1.5-.37c-.58,0-1.21.31-1.65-.22-.54-.14-1-.55-1.6-.44-.32-.19-1,.44-1-.26a3.22,3.22,0,0,0-1.2-1.23c-.58-.16,0-.85-.29-1.17.09-.48-.62-.43-.55-1a1.49,1.49,0,0,0-1.15-1.13c-.47-.17-.75-.62-1.26-.62a3.85,3.85,0,0,1-1.54-1.23c-.37-.47-1.07-.47-1.61-.67a1.41,1.41,0,0,1-1.34-.37c-.35-.35-1.37.47-1.07-.36.26-.64-.84-.35-.6-1a4.1,4.1,0,0,0-2-.52c-.64-.31-1.41.16-1.95-.26-.17-.72-1.14-.37-1.26-1.1a2.92,2.92,0,0,0-1.34-1c-.39-.14-.72-.43-1.14-.23-.46-.25-.58-.81-1.07-1.05-.23-.48-.83-.71-.77-1.31a2.71,2.71,0,0,0-1.48-1c-.58.22-1.15-.13-1.73.14-.46-.06-.74-.41-1.19-.44-.17-.11-.25-.42-.66-.44"/><path id="path4751" class="cls-5" d="M659.4,221.37c.51.45,1.19-.09,1.77-.11.34-.67,1.09-.31,1.68-.44a10.62,10.62,0,0,0,1.88-.11,3.91,3.91,0,0,0,1.48-.65c-.24-.33.22-.37.34-.7.56,0,.77-1.1,1.39-.56.24.31.6.14.46-.23.24-.19.53,0,.62-.45a.86.86,0,0,0-.26-1c.2-.41-.43-1.13.31-1.11.35,0,.48-.12.28-.39.21,0,.6,0,.3-.24.22-.32.58-.21.68-.62a3.8,3.8,0,0,1,1.59-.46c.23.37.45.35.6,0,.31-.18.63.07.9-.26.46,0,.86-.06,1-.58.34-.49.87-.93.87-1.54.29-.27.61-.47.81-.07.29-.21.42,0,.51.22.34,0,.67,0,.66-.48.37-.42.68-1,1.36-.83.29-.35.5-.91,1.09-.82.42-.41-.54-1.1.33-1.19.42-.26-.33-.88.41-.85.52-.14,1.09.22,1.53-.28a3.21,3.21,0,0,0,1.89-.22c.34-.37.69-.18,1.12-.1.5-.21,1,0,1.44-.36a1.17,1.17,0,0,0,1.16.11c.35.19.57,0,.65-.35.46-.1.51-.67.81-1,.59,0,1.2,1.43,1.69.52.37-.72,1.46-.51,1.49-1.39.43-.29.38-.86.82-1.17a1.72,1.72,0,0,0,.43-1.67,9.66,9.66,0,0,0-.14-1.08"/><path id="path4753" class="cls-5" d="M673.73,253.07c-.2.35-.32.74.12.9a2.62,2.62,0,0,0,1.7,1.16c.45.49.87,1.11,1.64,1,.4,0,.49.52.79.09.48.1.6.93,1.2.59.35-.1.5-.61,1-.35.52-.1.51.7,1,.39.32.21,1-.2.57-.61.1-.56-.37-1.34.3-1.65a.83.83,0,0,0,.15-1c.34-.2.42-.59.9-.65s.84-.53.4-.92a3.85,3.85,0,0,0,.34-1.81c.14-.36.7-1,.15-1.26-.7-.5.28-1.08,0-1.66s.6-1.12-.05-1.48c.15-.31.19-.88.64-.6.24-.6.92-.34,1.3-.79.25-.23.25-.6.72-.5.23,0,.51.38.75,0,.72,0,1,1.24,1.73.75.37-.66,1,0,1.39.12.23-.46.63-1,1.24-.74.37.33,1,.15.73-.42.31-.45.52-1.23,1.2-1.14-.12-.4-.35-.94.29-1.06.27-.25-1-.34-.3-.63.29,0,1,.45.71-.16-.51-.64.77-1,.67-.15.47.46,1.21.08,1.74.41.35-.16.67,0,1-.18.4.16.8.05,1.16.33s1-.5,1.09.25c.48-.42,1,.22,1.46.32a1.63,1.63,0,0,0,1.6,0c.57-.45,1.19-.06,1.81,0,.33.11.75.1.82-.17a2,2,0,0,0,1.37.37c.37.28.33-.07.45-.26"/><path id="path4757" class="cls-5" d="M653,368.66c-.07-.56-.63-.82-.76-1.37-.65-.24-.44-1-.4-1.54a2.28,2.28,0,0,0-.16-1.7,3.85,3.85,0,0,1,.3-1.79c.43-.39-.23-.85.1-1.29.17-.44,0-.92.19-1.35-.11-.44.3-.55.37-1a5.81,5.81,0,0,0,.92-1.78c0-.23.67-.32.18-.51-.24-.34.72-.37.15-.76-.24-.55.18-.9.52-1.25.37.23,1,0,.89-.49.33.19,0-.42.37-.41.13-.38-.72-.86-.08-1.16.3-.13.71-.39.77.07.43.06.45.93.89.39a2.7,2.7,0,0,0,1.36-.32c.4-.14,1.43-.1,1.45.63.31.39.92.22,1,.75.32-.17.68.19.78-.29.28-.54.52-1.3,1.24-1.27.38-.49,1.13.36,1.27-.4.26-.39.72,0,.74-.56.4-.49,1-.3,1.44-.66.4.06.87.63,1.16,0,.47.2.95,0,1.48.14.44-.51,1,.69,1.18,0,.41-.28.24,1,.6.43.09-.69.53-.12.8.11.4-.2.46-1,1.06-.91s.11.83.76.8c.47.17,1-.44,1.25.1a3.37,3.37,0,0,0,1.78.4c.55,0,.83-.92,1.41-.38s1.4.12,2.09.27a10.07,10.07,0,0,1,2.18.82,12.29,12.29,0,0,1,1.77,1c.59.2.91.72,1.34,1.12.41,0,.53.35.81.57.13,0,.21-.19.35-.15"/><path id="path4763" class="cls-5" d="M649.21,329.58a1.21,1.21,0,0,1,1.28-.42,5.51,5.51,0,0,0,1.59-.17.66.66,0,0,1,1.18.23,4.34,4.34,0,0,1-.68,1.25c.08.51.42,1.2-.28,1.42.11.48-.41,1,0,1.39.08.42-.41.81-.15,1.14-.34.16-.8.29-.76.81-.74.23.32.56.07,1s0,.77-.09,1.09c-.71.14,0,1-.68,1.28-.48.39.12.69.25,1-.49.44-.3,1.13-.32,1.72.24.53-.25.91-.6,1.17.2.34.08.58-.29.63-.2.35.43,1.09-.28,1.09-.43.18-1.31.21-.85.9a4.79,4.79,0,0,1-.77,1.53c-.26.14-.76.1-.66.6-.45.17-1.46-.18-1.38.67.14.58-1.17.06-.83.85s-.76.06-1.06.52-.88.24-1.29.57c-.63-.24-.77.8-.29,1.11-.29.25-.37.85-.75.31-.5,0-.32,1-1.06.82-.71,0-.17,1.07-.9,1.14.1.65-.65.77-.87,1.28a1.39,1.39,0,0,1-.55,1.34c-.16.4.06,1-.51,1.17a2.34,2.34,0,0,1-.54,1.56c-.45.4-1-.3-1.46.17a5,5,0,0,0-.82,1.22c-.51-.06-.5.8-1,1a1.09,1.09,0,0,0-.62,1.1c-.41.47-.81,1-1.2,1.46a1.65,1.65,0,0,1-1.38.77c-.33-.25-1.1-.35-.88.31,0,.34-.53,0-.46.47-.17.5-.94.48-.91,1.06.22.7-.47,1.19-.35,1.85-.17.62-1.07-.21-1.14.61-.34.47-1.12.54-1.41,1.07,0,.54-.65,1.25-1,.54-.35-.07-.76,0-.48.45.05.6-.5.68-.9.4a3.26,3.26,0,0,1-1.4,1.58c-.55.15-.91-.53-1.45-.51-.38.25-.22.89-.68,1.16-.15.45-.46.83-.62,1.28-.32.11-.6-.34-1-.13-.31-.19-.09-1-.68-.71-.85,0,.32,1.14-.26,1.15-.51-.26-1.47-.68-1.46.24a.65.65,0,0,1-.64.59c0,.37.14,1.14-.21,1.25-.27-.83-1.17-.22-1.49.25-.14.23.61.55,0,.71-.39.13-.89.43-1-.12-.93-.16.28,1-.52.92-.46,0-1.35.34-.78.82a2.2,2.2,0,0,1-.71,1.49.6.6,0,0,0-.83.73c-.44.64-1.25-.29-1.64.4a4.14,4.14,0,0,0-2,.5c-.4-.14-.88.41-1.31-.06-.55.22-.67.88-1.09,1.25-.15.48,0,1.09-.69,1.21s-.86.91-1.44,1.23c-.42.37-1.18.73-1.08,1.38a1.6,1.6,0,0,1,.41,1c.32.25.21.78-.22.68-.28.36-.94-.49-.83.25,0,.56-.52,1-.91,1.32.06.49-.67.69-.86.35-.28.26-.22.64-.64.87s-.74-.09-.89.39c-.31.38-.15.89-.32,1.24.68,0,.36.66.35,1s-.5.77.15.66c0,.29-.34.28-.39.43"/><path id="path4765" class="cls-5" d="M640.66,324.69c.36-.31.83-.86,1.34-.72.4.55-.38,1-.31,1.56-.09.57-.56,1.05-.51,1.66.06.42-.24.79-.34,1.17-.45.35-.07,1-.39,1.51a2.74,2.74,0,0,1-.48,1.7c-.4.34-1,.44-1.08,1a1.29,1.29,0,0,1-1.2.41c-.38.38-.82.32-1.24.62-.68-.42-1.3.2-2,.22a2,2,0,0,0-1.68.32c-.61.24-1.4,0-1.79.57a5.67,5.67,0,0,1-1.62.88c-.4.79-1.19-.31-1.73.33-.58.2-1.24-.28-1.63.4-.18.37-.8.51-.45,1a2.38,2.38,0,0,0,.29.85c-.6.24,0,.81-.54,1.09-.5.63-1.15.24-1.75.05-.44-.41-.51.3-.74.51.31.63-.56,1.6-1,.84-.22,0-.26.66-.63,0-.3-.21-.45-.82-.85-.32-.51.1-1,0-1.37.55a9.2,9.2,0,0,0-1.2,1.37.62.62,0,0,0-.64.95c-.42.62-1-.14-1.19-.57-.35-.21-.64.35-1,.2-.45.58.45,1.13.46,1.73.28.34.49.68.18,1.09,0,.52-.67-.11-1,.22-.52.22-1-.73-1.33,0-.35.48-1.13.25-1.38.91-.51.22-.59.95-1.26.93a.93.93,0,0,1-1.28,1c-.4-.12-.14-.82-.69-.9-.71-.38-1.37.29-1.71.86a1.15,1.15,0,0,1-1.52.6,4.24,4.24,0,0,1-1.59-.34c-.38-.25-1-.33-.91.33s-1,.4-1.29,1c-.3.43-1,.33-1.1,1a2.2,2.2,0,0,0-1.44.65c-.67,0-.66.72-1.18,1-.36.72-.87-.84-1.38-.08a3.55,3.55,0,0,0-1.38.66c-.58,0,.13.82-.57.6-.42-.65-1-.07-1.23.47-.12.37-.34.34-.56.1-.14.5-.73,0-.49-.38a.35.35,0,1,0-.66-.21"/><path id="path4767" class="cls-5" d="M611.68,281.15a1.76,1.76,0,0,0,1.25-.81c.52,0,.71.8,1.28.91.35.21.68.54,1.07.24a1.57,1.57,0,0,0,1.14-.21,1.79,1.79,0,0,1,.88,1.47c.24.19.66.22.67.59.44.22.86.61,1.37.59a4.82,4.82,0,0,0,1.81-.18,2.14,2.14,0,0,0,1.27-1c.08-.43,0-.78.48-1,.09-.75,1-.86,1.33-1.52-.19-.64.63-.72.77-1.27.49-.36.53-1,1-1.39-.07-.44-.3-1,.37-1.05.32-.52,1.1-.25,1.32-.9.53,0,.83-.39,1.3-.58.13-.36-.12-.73.25-1,.07-.64.47-1.26,1.19-1.1.25-.44,1.14-.94,1.34-.14.11.27.53,0,.69.28.57-.19,1.2-.05,1.67-.53.45,0,.8.46,1.21,0a5.64,5.64,0,0,0,1.84-.38c.21-.6.93-.42,1.42-.66.41,0,.92.22.68.69.56.07.88-.92,1.57-.71.13-.13-.19-.57.27-.59s.8-.43,1.24-.15.78-.3,1-.36c.44-.23.89-.69,1.48-.52.35-.18.84-.18.67.32.32.38.7,1,1.28.54.65-.17,1.16-.85,1.89-.42.54.36,1.35.3,1.7.93a3.74,3.74,0,0,0,1.56,1.25,6,6,0,0,1,1.17.72c.26.26.52.43.54.85.33.38.91.35,1.28.68.64-.09.39.62.93.73.24.79,1.23.17,1.77.2.29.29.1.8.55,1.05a1.77,1.77,0,0,1,0,1.32c-.18.63-.93.29-1.34.58s-1-.44-1.07.33c-.12.51,1.15,1,.26,1.27-.33,0-1.3-.07-.74.45.4.22,1.23.29.82.89-.14.45.1,1,.61.63.8-.14.85,1,.64,1.49.33.71,1.49-.26,1.56.71,0,.63,1,.46,1.15,1.11.25.24.69.15.7.61.38.39.86.88,1.44.44.4-.18.86.32,1.23.55a4.77,4.77,0,0,0,1.39,1.05,5.24,5.24,0,0,0,1.9.8c.45.17.66.86,1.27.56a20.34,20.34,0,0,0,2.08-.19,3.1,3.1,0,0,1,1.78.48c.13.41.75,1.1,1,.36a1.7,1.7,0,0,1,1.5.39.71.71,0,0,0,1.29-.12c.32-.77,1.32-.12.91.54.41.2,1.34.23,1,1-.2.56-1.3.84-.91,1.51.59.23,1.08-.51,1.65-.4.15.34,0,1,.52,1.15.07-.74,1-.12.5.31s.56.54.64.09c.6-.32.22.37.18.64.11.58.53.77,1,.91.27.52.69.16.9-.16.49-.28,1.63-.16,1.31.63-.33.33-1.12.6-.73,1.19.46.14,1,.22,1.35.39.28-.52.41-1.15.73-1.71a.39.39,0,0,1,.76.08c.24-.14.74-.41.78.16,0,.73.57.93,1.18.8.52.3.3,1.07.78,1.46.71.3-.87,1.07,0,1.1.55,0,1.23-.11,1.7.25.26.63-.88.62-.5,1.32.18.8,1.12.29,1.6.71.65.11.34,1,.72,1.35,0,.37-.18.83.39.85.39.33.77.11,1.06-.13.67.1.89.71,1.11,1.26a1.38,1.38,0,0,1-.17,1.45c0,.3.52.23.48.64.31.59,1.25.23,1.51.86.33.4.8.62.62,1.19-.51.19-.37.88.21.58a9,9,0,0,0,1.59-.56c-.51-.2.2-.94.26-.41.55.19,1.17,1.08.23,1.19-.61.43.57.68.73,1,.41.26.74.82,1.23.83s.29-1.2.84-.63c-.27.69.77.74.78.09s.12-1.22.83-1c.87.1.11,1.11.46,1.4.67.05,1.5.29,2-.26s1.22,0,1.79.16.71.65,1,.45"/><path id="path4773" class="cls-5" d="M642.59,322.17c-.41.16-.76,1.3-1.09.45-.43-.45-.18-1.23-.76-1.57s.07-1.08-.51-1.4c-.19-.54.55-1.39-.35-1.57a2,2,0,0,1-.81-1.81c.19-.37-.15-.72.08-1-.44-.34-.61-1.11-1.22-1.19s-1.14.22-1.77.17c0,.46-.54,0-.69-.06-.61,0-1,.68-1.57.61-.23.61-.76.39-1.26.39s-.93.44-1.4.51a2.23,2.23,0,0,0-1.74.44,2.06,2.06,0,0,0-1.71.84c.25.75-.68.69-1.15.82a1.25,1.25,0,0,1-1.36.16c-.51-.52-1.1.24-1.63-.18-.57-.19-1.36-.43-1.81.15-.18.82-1.09.89-1.35,1.68,0,.56-.77.36-.8.93a.57.57,0,0,0-.75.54c-.18.68-.93.69-1.36,1.06-.48.08-1-.26-1.21.32a1.8,1.8,0,0,0-1.43.64c-.45.21-.38.87-.8,1.07s-1,.37-1.21.88c-.52,0-.6.69-1.13.72-.41.48-1.15-.41-1.39.37a10.94,10.94,0,0,1-.41,1.84c.23.8-1.24.46-1.11,1.3-.26.56-.6-.47-.78.13-.12.42-.48,1.17-.93.82-.51.42-.78,1.18-1.46,1.36,0,.51-.41.85-.7,1.12.28.46.43,1.38-.29,1.49s-.41,1.42-1.34,1.2c-.31.21.33.75-.28.75-.25.25-.44.65-.81.57-.63.14-1.16.89-1.77.65,0,.6-.53.4-.94.35-.47.48-1.11.69-1.58,1.18-.74.08-.43,1.14-1.24,1.18-.19.2,0,.63-.46.58-.49.28-.5.92-1,1.26-.12.64-.48,1.23-.18,1.89,0,.4-.86.43-.54,1a1.66,1.66,0,0,0-.57,1.61c-.15.29-.68.47-.37.92-.43.64-.11,1.39,0,2.09a1.86,1.86,0,0,1-.27,1.74,3.7,3.7,0,0,1-1,1.4c-.06.49.22,1.2-.15,1.54"/></g><g id="layer10"><g id="g4840"><path id="path4842" class="cls-6" d="M620.64,340.16c.25-.24.18.33.39.25.05.24.35.41.35.61-.27,0-.25-.41-.58-.39,0-.15-.1-.52-.29-.25-.23.06-.19.54-.51.31-.13.06-.23,0-.36,0a6.15,6.15,0,0,0-.48.81c-.19.26-.55.33-.78.57a.86.86,0,0,0-.5.65c-.07-.18-.08-.35-.25-.43.07-.29.4-.44.34-.79s.42-.45.53-.75.45-.19.6-.38c.33-.11.72-.29,1,0s.11-.29.4-.15h.06l0,0Z"/><path id="path4844" class="cls-6" d="M613.61,210c.33-.19.61.33,1,.26.28.11.7-.12.85.23s-.24.68-.29,1-.5.43-.78.54-.59-.31-.93-.22c-.23-.41.47-.18.59-.46s-.14-.65-.34-.86-.26-.41-.06-.52Z"/><path id="path4846" class="cls-6" d="M623,266c.17-.06.07.54,0,.59C622.82,266.35,622.76,266.33,623,266Z"/><path id="path4848" class="cls-6" d="M655,404.65c.36-.31.69.39.2.43-.34.12-.81-.14-1,.27-.34.18-.14.75-.56.83s-.1-.59,0-.82.51-.23.74-.47C654.66,405,654.76,404.61,655,404.65Z"/><path id="path4850" class="cls-6" d="M631.08,416.07a.81.81,0,0,1,.68.14c-.13.28-.67-.25-.64.19-.21,0-.53,0-.41.29s-.47.19-.29.51c-.17.28-.23-.26-.42-.27.06-.14.43-.06.3-.35a.37.37,0,0,1,.61-.33c.1,0,.13-.12.17-.18Z"/><path id="path4852" class="cls-6" d="M665.33,433.33c.24-.22.26.3.13.43a2.26,2.26,0,0,0-.07,1.26c.15.37-.56-.09-.67-.11.41-.15.31-.67.36-1S665.1,433.35,665.33,433.33Z"/><path id="path4854" class="cls-6" d="M646.65,444.86c.27,0,.27.62.05.8a3.48,3.48,0,0,0-.42.92c-.12.29.08.66-.24.84.06.38-.15.73-.11,1.1s-.18.4-.25.07c-.43-.13-.15-.66.05-.88a2,2,0,0,0,.29-1c.07-.24,0-.47.24-.63-.07-.37.5-.57.3-1C646.6,445,646.48,444.81,646.65,444.86Z"/><path id="path4856" class="cls-6" d="M693.43,197.83c.2-.16.15.37.3.47a1.67,1.67,0,0,0,.52.74c.17.25.53.37.39.76s.15.72.17,1.06c.29.06.5.38.62.66a2.78,2.78,0,0,0,.51.84,2.94,2.94,0,0,1,.41,1c.1.37.65.26.71.66s.37.58.41.9.36.66,0,.86c-.4,0-.38.52-.54.8s-.2.53.12.62a4.62,4.62,0,0,1,.31,1,2,2,0,0,1,.14,1.07c.11.31.54.43.61.75.24.45.44-.23.64-.39a1.73,1.73,0,0,0-.12-1.12,6.38,6.38,0,0,1-.46-.9,5.35,5.35,0,0,1-.33-1.1c.27-.21.63-.35.83,0a3.47,3.47,0,0,1,.47.84c.2.23.32.55.57.72s.38.46.53.71.38.41.56.64.41.5.56.77.19.64.41.89a1.82,1.82,0,0,1,.51.74c.18.35.09.71.19,1.07a1.31,1.31,0,0,0,.56.76c.34.28,0,.77.15,1.07s.39.66.29,1.07-.73.35-1,.13a2.3,2.3,0,0,0-.72-.55c-.16-.31-.58-.33-.86-.5s-.51-.5-.85-.38c-.21-.17-.48-.27-.7-.46a1.44,1.44,0,0,1-1-.31c-.21-.18-.51-.32-.6-.64a4.61,4.61,0,0,1-.19-1.12c.11-.34-.3-.58-.18-.93a1.54,1.54,0,0,0-.36-.92,3.64,3.64,0,0,0-.47-.81,7.71,7.71,0,0,0-.51-.69c-.18-.27-.83-.22-.54-.66.12-.26.4-.54.19-.84,0-.3.53-.59.27-.87s-.05-.68-.35-.85a1.27,1.27,0,0,0-.46-.85c-.42-.09.14-.48-.19-.71s.43-.66.12-1c-.2-.13-.23-.36-.47-.46.06-.2-.35-.22-.41-.46s-.24-.59-.52-.73c-.09-.19-.21-.36-.42-.18s-.37.28-.5,0-.49-.47-.5-.82a.53.53,0,0,1,.65-.56c.33,0,.71-.06.66-.48.14-.33.34-.72,0-1a1.3,1.3,0,0,0-.09-.31Z"/><path id="path4858" class="cls-6" d="M673.14,201.81c.15-.15.05.42.29.24.05.24.51,0,.45.39.11.33-.23.42-.42.18-.31,0-.9-.12-.6-.53C673,202.07,673,201.79,673.14,201.81Z"/><path id="path4860" class="cls-6" d="M625.4,265.25c.32-.21.64.12,1,0,.42.09.22.74-.11.84s-.69-.28-.9.1a.86.86,0,0,1-.83.39c-.42,0-.84,0-1.26,0-.34.25-.35-.49-.2-.63s.48.54.69.11.61-.26.82-.54A.85.85,0,0,1,625.4,265.25Z"/><path id="path4862" class="cls-6" d="M696.51,271.34c.29-.22.42.42.76.17.35,0,.71.05,1.05.1s.31.32,0,.25-.59.3-.94.19a.52.52,0,0,1-.83-.33c-.1-.13-.48-.21-.17-.38h.14Z"/><path id="path4864" class="cls-6" d="M703.1,277.54c.24-.12.16.46.48.4s.4.58-.05.49c-.23-.14-.45-.3-.74-.18-.46,0-.14-.44-.24-.66.23-.06.2.33.47.31s-.07-.2.08-.36Z"/><path id="path4866" class="cls-6" d="M708.51,301.24c.16-.11.07.39.33.32.3.2.43-.19.55-.29.17.24-.3.35,0,.58s-.22.29-.34.49c-.34.12-.07-.71-.42-.34-.19.1-.36-.11-.15-.18A.37.37,0,0,1,708.51,301.24Z"/><path id="path4868" class="cls-6" d="M707.17,303c.18-.13.19.33.44.25s-.05.29.22.28.38-.61.77-.42c.34,0,.51.39.81.51,0,.25.13.56,0,.75-.32-.13-.69-.06-1-.21-.29.18.17.88.35.43.34-.26.6.36.56.63s-.5.17-.57.53c-.21.06-.33-.36-.54-.09-.37.24.4.28.32.61.22.41-.23.7-.54.78-.09.28-.44.31-.44.61a8.93,8.93,0,0,0-.26,1.27.56.56,0,0,1-.62.7c-.33.07-.71-.18-1-.05a2.42,2.42,0,0,1-1.07-.09,1.08,1.08,0,0,1-.7-.68c-.24-.15-.71-.39-.4-.75,0-.23.36-.28.33-.58a1.55,1.55,0,0,1,.53-.71,2.56,2.56,0,0,1,1.19-.26c.23,0,.31,0,.55-.05s.06-.48.3-.61c.05-.33.4-.53.39-.86.28-.1.68-.28.77-.58s0-.77-.24-.57c-.09.4-.44-.24-.13-.34C707.29,303.33,707.14,303.17,707.17,303Z"/><path id="path4870" class="cls-6" d="M694.73,311.84a.47.47,0,0,1,.72.31c-.18.3.42.28.28.64a.38.38,0,0,1-.73.15c-.25-.22-.67-.16-1-.17a2.09,2.09,0,0,1-1-.28c-.32-.15,0-.27.16-.29s.74-.14,1.08-.26a.55.55,0,0,0,.46-.1Z"/><path id="path4872" class="cls-6" d="M665.81,313.71c.3-.15.53.27.67.49s.65.3.55.71c-.32.24-.49-.15-.66-.38.08-.43-.47-.45-.59-.78v0Z"/><path id="path4874" class="cls-6" d="M698,320.67c.18,0,.43.33.22.56,0,.36.51.46.47.82-.08.58.78.21.79.68.28.16.78.1.86.49a.61.61,0,0,1-.07.88c-.28.27.08.68-.18,1a3,3,0,0,1-.55.75,1,1,0,0,0-.59.72.39.39,0,0,0-.37-.12c-.13-.21.33-.12.1-.37s-.68,0-.86.24-.27.69-.66.64a1.38,1.38,0,0,1-1.16,0,2.12,2.12,0,0,1-.77-.53c-.14-.28-.47-.39-.6-.68s-.23-.52-.55-.54-.42-.09-.51-.34c-.3-.11-.66-.48-.37-.81a6.9,6.9,0,0,1,.84-.5c.25-.19.32-.6.71-.45s.74.09,1,.35.75-.07,1.12,0a1.44,1.44,0,0,1,.4.6c.14-.15.35-.24.18-.48-.37,0-.5-.39-.74-.55s-.35-.28-.6-.26c-.16-.16-.33,0-.5-.18-.21.19-.61,0-.36-.24.28-.11.53-.34.81-.17.23-.09.58.12.4-.28a.89.89,0,0,1,0-1c.24-.21.67.09.67.33.34-.07.28.71.65.35.17-.25,0-.66.21-.91Zm-2.38,3.46c-.19.22-.51.34-.66.62-.14.43.54.31.78.27.34.15.61-.47.16-.56-.07-.14,0-.41-.28-.34Z"/></g></g><g id="layer4"><polyline id="polyline3083" class="cls-7" points="595.92 395.82 596.12 395.62 596.12 395.44 596 395.25 596.01 395.05 596.22 395.03 596.26 394.84 596.15 394.69 596.15 394.58 596.22 394.51 596.26 394.38 596.27 394.26 596.37 394.13 596.22 393.85 596.04 393.82 595.84 393.87 595.64 393.7 595.54 393.5 595.82 393 595.97 392.9 596.11 392.57 596.27 392.33 596.38 392.27 596.48 392.08 596.59 392.07 596.69 392.12 596.92 392.18 597.07 392.12 597.35 391.79 597.46 391.77 597.55 391.65 597.5 391.51 597.53 391.36 597.74 391.19 597.83 391.19 597.89 391.39 598 391.41 598.58 391.15 598.47 390.97 598.49 390.7 598.52 390.56 598.53 390.33 598.45 390.2 598.48 390.13 598.77 390.02 598.83 389.94 598.84 389.77 598.99 389.77 599.21 389.76 599.61 389.55 599.86 389.38 600.12 389.42 600.33 389.27 600.55 389.08 600.63 388.79 600.38 388.53 600.21 388.1 600.1 387.65 600.01 386.96 600.3 386.92 600.51 386.72 600.92 386.4 601.27 386.09 601.64 385.99 602.1 385.34 602.34 385.19 602.91 385.1 603.08 384.84 603.2 384.67 603.24 384.43 603.21 384.3 603.31 383.93 603.48 383.63 603.64 383.51 603.92 383.12 604.11 382.81 604.3 382.62 604.5 382.58 604.58 382.68 604.79 382.73 604.87 382.83 605.16 382.81 605.45 382.6 605.56 382.55 605.68 382.58 605.74 382.64 605.9 382.64 606.28 382.38 606.4 382.36 606.84 382.2 607.13 382.16 607.69 382.11 607.88 382.11 607.9 381.86 608.01 381.81 608.41 381.81 608.67 381.94 608.84 381.98 609.24 381.9 609.31 381.85 609.4 381.44 609.36 381.34 609.44 381.06 609.84 380.91 610.13 380.93 610.24 381.01 610.4 380.95 610.56 380.49 610.8 380.23 610.88 379.42 610.71 379.22 610.71 379.11 611.07 378.81 611.46 378.73 611.98 378.6 612.04 378.51 611.98 378.34 611.82 378.01 611.85 377.86 612.01 377.77 612.25 377.77 612.4 378.05 612.55 378.1 612.81 378.06 613.13 377.89 613.36 377.87 613.56 377.72 613.39 377.44 613.2 377.35 613.2 377.24 613.47 377.03 613.8 376.62 614.33 376.47 614.56 376.57 614.81 376.98 615.02 376.49 615.03 376.03 614.99 375.69 615 375.62 615.2 375.6 615.47 375.5 615.71 374.78 615.74 374.5 616.33 374.46 616.63 374.63 617.21 375.02 617.24 374.76 617.21 374.69 617.23 374.5 617.1 374.31 617.09 374.15 616.95 374.03 616.98 373.83 617.31 373.77 617.53 373.57 617.85 373.88 617.79 374.16 617.89 374.35 618.23 374.39 618.55 374.37 618.75 374.54 618.84 374.61 618.92 374.56 619.23 373.96 619.46 373.64 619.61 373.14 619.93 372.88 619.92 372.71 620.06 372.56 620.01 372.3 620.1 372.17 620.36 372.1 620.57 372.15 621.45 372.65 621.88 372.56 622.39 372.14 622.82 371.71 623.16 371.01 623.72 371.27 623.85 371.22 624.09 370.66 623.92 370.39 623.94 370.19 624.6 370.2 624.83 370.54 625.04 370.53 625.43 370.17 625.55 369.56 626.74 368.78 626.98 368.45 627.13 368.19 627.29 368.12 627.52 368.13 627.69 368.27 628.01 368.18 628.07 367.91 628.01 367.66 628.08 367.29 628.4 366.86 628.45 366.64 628.46 365.93 628.59 365.67 628.91 365.56 629.29 365.2 629.45 364.75 629.73 364.78 629.82 364.55 629.72 364.32 630.01 364.02 630.54 364.17 630.55 364.29 630.94 364.19 631.14 364.25 631.92 363.77 632.64 362.82 632.82 362.4 633.14 362.27 633.81 362.4 633.97 362.53 634.45 362.62 634.65 362.94 635.07 363.21 635.52 363.55 635.62 363.74 636.31 363.74 636.57 363.48 636.71 363.63 636.95 363.7 637.06 363.59 637.24 363.76 637.48 363.46 637.61 363.44 637.71 363.53 637.95 363.44 638.05 363.51 638 363.66 638.26 364.09 638.79 364.24 639.53 364.61 639.95 364.71 640.91 365.21 641.29 365.38 641.4 365.32 641.53 365.21 641.53 364.95 641.5 364.73 641.6 364.59 642 364.76 642.44 364.95 642.98 364.97 643.46 364.95 643.91 364.48 644.21 364.52 644.8 364.33 644.98 364.11 645.12 364.26 645.24 364.07 645.4 364.07 645.57 364.13 645.68 364.41 645.52 364.91 645.54 365.3 645.61 365.62 645.35 365.77 645.28 365.99 644.99 366.08 644.95 366.29 644.96 366.46 645.03 366.51 645.32 366.48 645.45 366.38 645.53 366.36 645.56 366.46 646.04 366.7 646.01 366.81 646 366.98 646.11 367.07 646.26 367.17 646.78 367.46 647.2 367.76 647.32 367.97 647.49 367.95 647.76 368.41 648.6 368.64 649.33 368.38 649.76 368.17 650.31 368.08 650.64 368.04 651 368.28 651.21 368.23 651.37 368.38 651.87 368.39 652.42 368.8 653.2 369.06 653.82 368.39 654.02 367.95 654.71 367.39 654.91 366.83 655.28 366.42 655.6 365.97 655.76 365.97 656.12 365.77 656.81 365.81 657.4 365.34 657.63 365.47 658.19 365.12 658.55 365.1"/></g><g id="layer15"><path id="polyline3348" class="cls-8" d="M681.59,217.59h-.29c-.35,0-.69,0-1,.09l-.67.32c-.68.26-1.36.49-2,.75a3.77,3.77,0,0,1-.48,0c-.15,0-.31,0-.45.05a1.2,1.2,0,0,1-.42.12,4.21,4.21,0,0,1-.48-.12c-.09-.06-.16,0-.22.07s-.21,0-.3,0a1.29,1.29,0,0,0-.45.27,1,1,0,0,0-.38.15c-.08.08-.19.06-.3.06s-.15,0-.13.12-.16.11-.22.17-.1.16-.2.11a.92.92,0,0,0-.21.13c-.08.09-.21,0-.31,0s-.1-.21-.19-.27a2.21,2.21,0,0,0-.5-.21c-.19-.08-.41-.07-.6-.16a2.12,2.12,0,0,0-.62-.23c-.09,0-.18.08-.26,0a.7.7,0,0,1-.27-.27.92.92,0,0,0-.32-.26,3.3,3.3,0,0,0-.63-.2,1.08,1.08,0,0,0-.44,0c-.1,0-.15.07-.21.12s-.28,0-.42,0-.18.05-.15.14.12.16.05.22-.09.18-.18.13-.17,0-.22-.07a.8.8,0,0,0-.37-.23c-.09,0-.19,0-.26,0a.19.19,0,0,0-.14.18l-.48-.19a4.28,4.28,0,0,0-1-.11,4.17,4.17,0,0,0-.71.07,3.2,3.2,0,0,1-.42-.1.73.73,0,0,0-.36,0c-.1,0-.17,0-.14-.11l-.28-.17a1.17,1.17,0,0,1-.11-.28.36.36,0,0,0-.16-.22l-.5,0a6.27,6.27,0,0,1-.75,0,1.82,1.82,0,0,0-.57,0,1.11,1.11,0,0,1-.44,0,1.34,1.34,0,0,1-.4-.23c-.06-.08-.15,0-.23,0a.77.77,0,0,1-.37,0c-.16.05-.32.13-.48.19s-.22.14-.24.27a.29.29,0,0,0,0,.24.55.55,0,0,1,0,.31c-.24.16-.51.28-.76.42s-.43.35-.65.52l.06.24c0,.18-.08.36-.11.54a2.57,2.57,0,0,1,.26.41.73.73,0,0,1,.08.36,2,2,0,0,1-.35.41,5.12,5.12,0,0,0-.15.78c0,.31,0,.62,0,.93-.07.1-.16.19-.24.29a3.94,3.94,0,0,0-.1.47.65.65,0,0,0-.24.35c0,.12.1.21.06.32a.5.5,0,0,0,0,.32,1.67,1.67,0,0,0,.18.28.24.24,0,0,1,.11.21,2.35,2.35,0,0,1-.11.35,1,1,0,0,1-.23.13,1,1,0,0,1-.43.14l-1.12-.16a1.76,1.76,0,0,0-.4-.07,2.73,2.73,0,0,0-.56.15,4.78,4.78,0,0,0-.47.54,2.86,2.86,0,0,0-.3.54c0,.09-.06.17-.16.19s-.12.14-.16.22-.15,0-.22.08-.16.14-.25.2a3.54,3.54,0,0,0-.16.34c-.07-.13-.1-.29-.24-.37a1.06,1.06,0,0,0-.23-.19c-.14,0-.29,0-.43,0a1.94,1.94,0,0,1-.57-.25c-.07,0-.17,0-.25,0s-.21.08-.27.16-.12.17-.16.26,0,.16-.11.09a.7.7,0,0,1-.33-.2,2.12,2.12,0,0,1-.33-.34,3,3,0,0,1-.11-.66c-.09-.12-.14-.27-.28-.34s-.2,0-.28,0-.21-.13-.21-.25,0-.18,0-.25-.17-.09-.16-.19a.26.26,0,0,1,0-.24c.09-.1-.07-.08-.14-.12s-.14.12-.19.06-.08-.29-.14-.43-.08-.16-.14,0-.16.08-.22,0-.19-.09-.19-.21,0-.18-.08-.21-.29,0-.42-.07-.09-.12-.06-.19a3.06,3.06,0,0,0,.17-.59c0-.09,0-.17-.11-.17s-.18.12-.28.08-.2,0-.18-.09.06-.19.09-.28.17-.1.1-.19-.12-.08-.19-.1l-.27-.06c-.08,0-.11.12-.19.16s-.14,0-.23,0-.2,0-.2-.08.1-.26.08-.4,0-.17-.09-.21-.11.11-.18.14-.14.07-.22.08,0-.14,0-.21-.12-.15-.12-.25a.38.38,0,0,0-.09-.25.25.25,0,0,0-.22,0c-.08,0-.18.06-.24,0a.24.24,0,0,1-.1-.21c0-.11.12-.07.18-.06a.45.45,0,0,0,.21-.24c0-.08-.08-.13-.14-.17a1.27,1.27,0,0,1-.34,0c-.08,0-.19,0-.21.07s-.09.18-.19.16-.14-.08-.11-.14,0-.13,0-.21-.16-.11-.13-.14.22-.12.24-.25,0-.18-.05-.22-.15-.11-.12-.18.09-.17,0-.22,0-.18-.09-.22a.28.28,0,0,0-.25,0,1.32,1.32,0,0,1-.25.16c-.07.07-.15,0-.21,0s0-.12,0-.2-.06-.41-.11-.61a.69.69,0,0,1,0-.24c-.06-.12-.16-.23-.14-.37s.07-.25.12-.37l.48-1a1,1,0,0,0-.41-.09l-.67-.06a.81.81,0,0,0,0-.27l0,0-.71-.31a.83.83,0,0,0-.35.05.61.61,0,0,0-.26.15c-.08,0-.16-.11-.25-.08a.74.74,0,0,0-.39.07c-.08,0-.15.15-.25.11s-.31,0-.46-.08a1.56,1.56,0,0,1-.4-.27.44.44,0,0,0-.25-.15c-.12,0-.15-.12-.22-.2l-.24-.35a4,4,0,0,1-.69,0c-.12.18-.24.36-.37.53a2.91,2.91,0,0,0-.3,0l-.26.27.21.81-.31.42c-.24.05-.49.07-.72.13a1.56,1.56,0,0,0-.26.11c0,.05,0,.19-.14.18a.54.54,0,0,0-.31,0c-.13,0-.22.16-.33.23s-.09.45-.12.67a1.11,1.11,0,0,0,.08.44,6.37,6.37,0,0,0,.39.73,3.45,3.45,0,0,1-.2.62l-.21.47-.83.37.37.61a.65.65,0,0,0,0,.34c.05.14.13.26.19.39s.22,0,.14.13l-.2.51.62,1.9-.54,2.71c-.13.06-.24.18-.39.17s-.38-.05-.56,0-.2,0-.19.11,0,.19-.07.23-.22-.06-.3,0-.16,0-.24,0-.14.12-.21.13a3,3,0,0,0-.31-.16l-.4.06c-.09.12-.15.27-.25.38s-.26.15-.32.29-.15.26-.29.33l-.57.37a1.38,1.38,0,0,0-.25-.17l-.74-.06-.15.4a.73.73,0,0,0-.32.18c-.08.06-.15.18-.27.16l-.79.07-.87-.53c-.42.18-.84.35-1.25.57a3.54,3.54,0,0,1-.34.16,2.68,2.68,0,0,0-.4,0c-.09,0-.2.05-.24.16s-.19.25-.26.39l-.1.39c-.13.08-.28.13-.35.27a.5.5,0,0,1-.12.28c-.07.12-.18.22-.24.35s-.08.38-.15.56l-.8.71c-.06.1-.16.19-.15.32a.24.24,0,0,1-.09.22,8.35,8.35,0,0,1-.6.59c-.08,0-.18,0-.25,0s-.25.26-.39.37l-.5.11a4.06,4.06,0,0,0-.28.83,1.22,1.22,0,0,1-.09.27,1,1,0,0,1-.4.19c-.11,0-.23,0-.34.09l-.26.27-.82,0a1.34,1.34,0,0,0-.27-.07l-.66.28a.68.68,0,0,0-.18.29c-.06.1,0,.22,0,.33-.23.3-.45.62-.69.91a1.8,1.8,0,0,1-.19.2c-.13,0-.27.09-.4,0a.71.71,0,0,1-.3-.18.45.45,0,0,0-.26-.14c-.25-.07-.51-.12-.76-.18a3.75,3.75,0,0,1-.81.16c-.37,0-.74,0-1.11.1a1.87,1.87,0,0,1-.58,0c-.2,0-.38-.12-.59-.08h-.39l-.33-.3c-.11,0-.23.06-.32,0s-.3-.18-.45-.25a1,1,0,0,1-.46-.12c-.09-.08-.14-.07-.12.05a1,1,0,0,1-.07.43c-.16.37-.33.74-.47,1.11,0,.13,0,.27-.15.36s-.2.19-.19.32a2.91,2.91,0,0,0,0,.51,2.78,2.78,0,0,0,.26.32l.32.18-.12.53c0,.08.12.15.12.23a2.13,2.13,0,0,0-.09.71c0,.2-.06.4,0,.6s.07.18.12.26a4.63,4.63,0,0,1,.42.32c.06.09.16.16.13.27a4.64,4.64,0,0,1,0,.53c-.1.17-.22.33-.32.51s-.06.3-.11.44l-.28.35c0,.17,0,.33,0,.49a3.15,3.15,0,0,0-.09.42l.14.32a2.63,2.63,0,0,1-.21.41,2.69,2.69,0,0,1-.51.44c-.09,0-.16.08-.13.19a1.54,1.54,0,0,1,0,.3l-.25.34c0,.15.07.31.08.46a1.36,1.36,0,0,0-.14.33,1.36,1.36,0,0,1-.12.49,1,1,0,0,1-.36.27c-.09.05-.2.08-.24.19s0,.24,0,.35a3.13,3.13,0,0,1,0,.43c0,.08-.06.18-.15.22a3.71,3.71,0,0,0-.32.23.57.57,0,0,0,0,.34c.06.36.12.72.17,1.07a5.52,5.52,0,0,0-.16.54c0,.08,0,.19,0,.24a1.86,1.86,0,0,1,.41.43,1.49,1.49,0,0,0,.31.4c.07,0,.18,0,.26,0s.2.07.3.12.13.13.22.09a.29.29,0,0,1,.24,0c.06.05.19.05.2.13l.08.38-.65.57c-.1,0-.22,0-.32,0s-.31.31-.45.48-.06.24-.11.35l-.5.42a2.57,2.57,0,0,1-.08.38c-.1.15-.21.29-.3.44a2.36,2.36,0,0,1,0,.46,1.5,1.5,0,0,0-.11.36,4.13,4.13,0,0,0-.58.52l-.7.8c0,.07,0,.2-.13.16s-.17,0-.22.08a1.79,1.79,0,0,1-.28.27,2.38,2.38,0,0,1-.51.18l-.35.51c0,.06.16.14.09.19a1.64,1.64,0,0,0-.24.21l-.08.44-1.22.69-.46-.19a1.23,1.23,0,0,0-.17.41,1.93,1.93,0,0,0,0,.34c-.07.07-.19.11-.18.22s0,.21-.09.24a2.11,2.11,0,0,1-.33.18,4.1,4.1,0,0,0-.5,0c0,.07,0,.16,0,.23l-.38.4"/><path id="polyline3350" class="cls-8" d="M681.59,217.59c0-.09,0-.21.15-.25l.9-.62a2.74,2.74,0,0,0,.14-.68,2.25,2.25,0,0,1,.08-.52l-.23-.31.4-.41a2.66,2.66,0,0,0,.63.09c.24-.2.51-.38.74-.6a9.35,9.35,0,0,0,.36-1c.16,0,.32,0,.47-.07a.93.93,0,0,1,.3-.26.76.76,0,0,0,.3-.23,2.63,2.63,0,0,1,.45-.36,5.88,5.88,0,0,1,.77-.44,1.78,1.78,0,0,0,.48-.28.75.75,0,0,0,.25-.25c.05-.08,0-.19,0-.28s-.18.06-.23,0a.44.44,0,0,1-.11-.35.94.94,0,0,1,.15-.28l.22-.18a1,1,0,0,1,0-.29.12.12,0,0,0,0-.2,1.51,1.51,0,0,1-.15-.28c0-.08,0-.18.1-.23s.08-.2.11-.3.12-.18.17-.27l.32-.21a.44.44,0,0,1,0-.32c0-.09,0-.16-.06-.21a1.09,1.09,0,0,1-.23-.25.65.65,0,0,1,0-.31c0-.08-.13-.15-.08-.22a1.28,1.28,0,0,0,.19-.43c0-.08.14-.07.21-.11s.16-.13.24-.19l.1-.27c-.11-.05-.18-.18-.28-.25a6.14,6.14,0,0,0-1-.39.68.68,0,0,0-.25-.23c-.14-.07-.19-.23-.34-.27s-.15-.11-.25-.07-.18.08-.21,0-.08-.17-.18-.18-.13-.1-.17-.18,0-.18-.14-.19l-.35,0a.77.77,0,0,0-.28-.23c-.06,0-.21-.05-.12-.15a1.16,1.16,0,0,0,.1-.28c.2-.05.39-.12.59-.16l.32.09c0-.15,0-.31.07-.46l.28-.29c-.08-.11-.12-.25-.26-.3s-.16-.06-.26-.06c-.26-.15-.55-.26-.81-.42-.07-.05-.16-.09-.17-.19a3.76,3.76,0,0,0-.46-.89q-.23-.36-.42-.75a5.07,5.07,0,0,0-.35-.46,8.43,8.43,0,0,1-.64-.57c-.09-.09,0-.23-.05-.34,0-.27,0-.53,0-.8a1.59,1.59,0,0,1-.26-.5,6.36,6.36,0,0,0-.35-1,3.16,3.16,0,0,1-.25-.79c0-.23,0-.46,0-.69a3.82,3.82,0,0,1,.05-.68.51.51,0,0,1,.22-.24c.19-.15.44-.14.65-.23a1.27,1.27,0,0,0,.39-.26,4.7,4.7,0,0,0,.58-.51,2.34,2.34,0,0,0,.22-.23v-.37l-.4-.25c.05-.07.14-.14.1-.23a.56.56,0,0,1,0-.36c.05-.11.16-.2.14-.33a2.74,2.74,0,0,1,.08-.5,1.83,1.83,0,0,1,.35-.44c.06-.09.18-.16.17-.28s0-.3,0-.45a.81.81,0,0,1,.17-.3,1.54,1.54,0,0,0,.14-.7,1.38,1.38,0,0,0,.12-.56.19.19,0,0,1,.1-.21c.09,0,.1-.12.1-.21a.67.67,0,0,1,.1-.3,1.51,1.51,0,0,0,.29-.13,2.53,2.53,0,0,1,.34-.57c.07-.07.05-.18.05-.28a1.8,1.8,0,0,1-.13-.52c0-.13,0-.27-.06-.4s-.09-.19,0-.29a6,6,0,0,1,.22-.72c.11-.12.27-.21.33-.37a.42.42,0,0,0,.08-.26,5.4,5.4,0,0,0,0-.7,3.36,3.36,0,0,1-.29-.24l-.57-1.4c-.34-.07-.68-.15-1-.21a3.36,3.36,0,0,0,.08-.77c0-.23,0-.46,0-.69a1.43,1.43,0,0,0-.14-.5c-.1-.11-.07-.26-.09-.4l0-.34a3.07,3.07,0,0,1-.36-.2c-.07-.14-.17-.28-.23-.43l.08-.42a.49.49,0,0,0-.29-.06c-.09,0-.12-.11-.18-.16s-.09-.2-.16-.27a1.53,1.53,0,0,0-.51-.13,2.2,2.2,0,0,0-.57.05,1.61,1.61,0,0,0-.42-.36,1.71,1.71,0,0,0-.38-.13l-.55-.07a2.54,2.54,0,0,0-.32.55c-.06.1-.09.21-.15.3a1.35,1.35,0,0,0-.33.19l-.09.37a1,1,0,0,0-.53.21c-.08.06-.16.14-.27.13a1.61,1.61,0,0,1-.38,0,.37.37,0,0,1-.21.16c-.14,0-.23.16-.34.24a1.78,1.78,0,0,1-.42.35,2.17,2.17,0,0,0-.36,0c-.08,0-.16.11-.25.06s-.17-.08-.26-.06-.17.12-.26.05,0-.2-.1-.15l-.19.07"/><path id="polyline3352" class="cls-8" d="M681.59,217.59a5.25,5.25,0,0,1-.22.67c0,.24-.08.48-.12.72a5.74,5.74,0,0,0-.31.91,4.17,4.17,0,0,0,.26.46l.3.32c0,.4,0,.8.06,1.2l-.09.44a1.86,1.86,0,0,0,.53.26,3.33,3.33,0,0,0,.55.1.52.52,0,0,1,0,.3c0,.07.12.11.18.17s.31.27.45.42.23.59.34.89c.15.07.32.12.46.2s.13.13.23.13a1,1,0,0,1,.42.13l.41.23c.08,0,.22,0,.25-.17s0-.21.14-.17.17.06.24,0,.2-.15.32-.13.51,0,.76,0c.09,0,.22,0,.27-.09s.06-.24.13-.34a.24.24,0,0,1,.17-.17.88.88,0,0,1,.28,0c.1.08.21.14.25.26s.3.44.44.66a1.27,1.27,0,0,0,.13.32c.09.06.16.17.29.17a.33.33,0,0,0,.24,0c.11,0,.16-.13.23-.21a.45.45,0,0,1,.2-.21.21.21,0,0,1,.22,0,.89.89,0,0,1,0,.4,2.12,2.12,0,0,1,.14.55,1.77,1.77,0,0,0,.19.33,1.07,1.07,0,0,0,.43,0,5.51,5.51,0,0,1,.57-.06.2.2,0,0,0,.13-.2c0-.1.12-.1.19-.14a1.93,1.93,0,0,0,.52-.38c.13-.13.34-.23.35-.44a1.33,1.33,0,0,1,.3-.59,1,1,0,0,1,.32-.3,2,2,0,0,1,.74-.32.55.55,0,0,1,.31.08c.27-.07.56-.09.83-.18a1.15,1.15,0,0,0,.42-.23,8.8,8.8,0,0,0,.72-.65.75.75,0,0,1,.26-.27l.35-.24c0-.06-.15-.13-.1-.2s.18-.08.28-.12a2.16,2.16,0,0,0,.49-.22.86.86,0,0,1,.39,0,4.19,4.19,0,0,1,.33.26,1.14,1.14,0,0,1,.31.31c0,.06.16.05.23.08s.2,0,.23-.14a1,1,0,0,0,.14-.6.52.52,0,0,1,.28-.13.24.24,0,0,1,.23,0c.12,0,.1.17.15.26a.68.68,0,0,0,.11.31,1.28,1.28,0,0,0,.43-.06c.1.06.18.17.31.15a.19.19,0,0,0,.22-.09,1.83,1.83,0,0,0,.32-.3c.09-.13.11-.29.22-.41a.18.18,0,0,1,.24-.11c.09.12.13.27.27.34a.29.29,0,0,0,.23.09c.1.05.12-.07.15-.14s.16-.11.22-.09.07.21.18.26.14.07.22.06a1.9,1.9,0,0,1,.46.1c.07,0,.16.08.19.15a1.66,1.66,0,0,1,.11.38c.18.11.4.11.58.21a2.16,2.16,0,0,1,.35.24.68.68,0,0,1,.07.48.58.58,0,0,0,0,.32c0,.09,0,.2.11.25a1.34,1.34,0,0,0,.31.22.44.44,0,0,0,.3,0,.78.78,0,0,0,.35-.18,3.12,3.12,0,0,1,.44-.09l.22.09"/></g><g id="layer8"><g id="Major_Political_Boundary_State_" data-name="Major Political Boundary State "><polyline id="polyline3098" class="cls-9" points="685.67 364.33 685.33 364.26 684.9 364.1 684.72 364.08 684.64 363.99 684.6 363.84 684.64 363.73 684.63 363.65 684.54 363.63 684.5 363.52 684.39 363.41 684.31 363.37 684.09 363.11 683.78 363.02 683.58 362.89 683.37 362.76 683.34 362.55 683.16 362.53 682.79 362.66 682.47 362.93 682.02 363.1 681.98 362.96 682.08 362.62 682 362.54 681.87 362.48 681.73 362.59 681.73 362.7 681.77 362.87 681.27 363.15 681.09 363.1 680.9 363.1 680.72 363.35 680.72 363.51 680.86 363.82 680.74 363.96 680.24 363.93 680.07 363.96 680.01 364.13 679.91 364.13 679.62 364.24 679.58 364.46 679.47 364.66 678.98 364.97 678.73 365.19 678.44 365.13 678.31 365.13 678.17 365.25 678.04 365.47 678 365.64 677.96 365.97 677.96 366.28 677.75 366.48 677.59 366.45 677.47 366.48 677.34 366.64 677.09 367.01 676.95 367.06 676.87 367.06 676.76 367.18 676.62 367.54 676.49 367.48 676.43 367.23 676.33 367.15 676.14 367.18 675.95 367.06 675.71 367.26 675.62 367.4 675.48 367.51 675.37 367.93 675.15 367.9 674.93 368.23 674.77 368.38 674.53 368.58 674.64 368.75 674.62 368.94 674.46 369.09 674.3 369.07 673.95 369.11 673.94 369.25 673.98 369.44 673.92 369.53 673.83 369.55 673.59 369.48 673.33 369.38 673.04 369.38 672.93 369.46 672.74 369.74 672.59 369.94 672.48 369.98 672.38 369.98 672.17 369.94 671.84 369.85 671.62 369.89 671.37 370.04 671.28 370.04 671.1 369.83 671 369.63 671 369.35 671.08 369.11 671.19 368.85 671.21 368.47 671 368.25 671.07 368.1 670.99 368.02 670.74 367.99 670.45 367.99 670.38 367.84 670.21 367.48 670.06 367.37 669.92 367.45 669.55 367.32 669.47 367.48 669.37 367.48 669.22 367.48 668.82 367.69 668.46 367.78 668.14 367.75 668.13 367.54 667.99 367.32 667.83 367.35 667.69 367.43 667.08 367.58 666.56 367.75 665.95 368.12 665.23 368.21 664.98 368.42 664.9 368.4 664.82 368.23 664.64 367.93 664.38 367.67 664.1 367.48 663.81 367.48 663.66 367.3 663.12 367.28 662.78 367.2 662.4 367.04 662.02 367.06 661.86 367.06 661.79 366.96 661.24 366.22 660.53 366.55 660.15 366.89 660.04 366.96 659.28 366.33 659.28 366.09 659.14 365.64 658.55 365.1 658.95 364.37 659.19 363.16 659.29 362.79 659.41 362.31 659.58 362.06 659.62 361.67 659.93 361.23 659.65 360.11 660.27 359.12 660.64 358.84 661.06 357.97 661.51 357.27 661.6 357.27 662.38 355.96 661.8 353.67 661.58 353.81 661.45 353.7 661.37 353.7 661.31 353.81 661.2 353.81 660.95 353.7 660.95 353.53 660.98 353.42 660.68 353.47 660.06 353.05 660.04 352.72 659.57 352.38 659.28 352.36 658.88 352.38 658.7 352.24 658.64 352.27 658.53 352.5 657.99 352.61 657.56 352.8 657.27 352.66 657.08 352.89 656.9 352.89 656.71 352.55 656.5 352.33 656.42 352.44 656.32 352.38 656.32 352.24 656.25 352.13 656.48 351.91 657.23 351.27 657.39 351.07 657.7 351.04 657.81 350.57 658.26 349.84 658.55 349.59 658.9 348.92 658.26 348.53 657.77 348.53 657.43 348.22 657.41 347.97 656.92 347.33 656.67 346.88 657.17 346.32 657.5 346.1 657.85 345.09 657.8 344.5 657.88 344.19 658.11 343.97 658.13 343.69 658.11 343.55 658.15 343.18 657.9 342.65 657.94 342.09 657.86 341.73 658.29 340.56 657.82 340.44 657.57 340.25 657.47 340 657.42 339.75 657.59 338.77 657.34 338.41 657.28 338.27 657.3 337.96 657.2 337.62 657.36 337.29 657.38 336.9 656.87 336.51 656.8 336.31 656.62 336.06 656.68 335.83 656.82 335.61 656.99 334.35 657.22 332.79 657.51 328.96 656.76 328.93 656.37 328.85 656.08 328.71 655.81 328.51 655.6 328.38 655.44 328.38 655.25 328.46 655.09 328.63 654.86 328.71 653.64 328.85 653.3 328.57 652.56 328.1 652.41 328.21 652.25 328.32 652.02 328.32 651.44 328.24 651.32 328.43 650.99 328.46 650.62 328.49 650.26 328.65 649.66 328.99 649.14 329.07 648.19 329.35 648.03 329.05 648.11 328.88 647.94 328.88 647.28 327.9 647.22 327.65 646.85 327.09 646.81 326.53 646.76 326.19 646.64 326.08 646.25 326.14 646.06 325.94 645.65 325.75 645.44 325.37 645.13 325.07 645.07 324.9 645.19 324.56 644.92 324.48 644.47 324.06 644.36 323.81 643.78 323.78 643.62 323.59 643.47 323.11 643.66 322.44 643.87 322.16 643.89 322.05 643.66 321.97 643.45 321.77 643.33 321.49 643.27 321.07 643.04 320.74 643.41 319.93 643.45 319.28 643.51 319.12 643.74 318.72 643.78 318.5 643.7 318.25 643.93 317.89 643.97 317.69 643.91 317.5 643.97 317.16 643.93 316.8 644.05 316.35 643.93 315.71 643.58 315.51 643.33 315.01 643.04 314.64 642.85 314.14 642.54 313.92 642.52 313.16 642.58 312.94 642.54 312.63 641.57 311.96 641.45 311.65 640.95 311.65 640.53 311.24 640.53 310.85 639.95 310.65 639.87 310.48 639.17 310.2 638.16 310.36 637.71 310.53 637.56 310.5 637.48 310.28 636.88 309.77 636.51 309.05 636.22 308.71 636.09 308.32 635.89 308.15 635.27 308.01 635.12 307.68 634.96 307.56 634.36 307.31 634.93 306.2 634.87 306.11 635.08 305.94 634.85 305.75 634.73 305.25 634.48 304.77 634.31 303.96 634.11 303.68 633.96 303.29 633.98 302.84 634.13 302.62 634.09 302.48 634.17 302.09 633.38 301.5 633.32 301.03 633.24 300.78 633.26 300.55 633.2 300.36 633.22 300.13 633.2 299.6 631.79 299.01 631.6 299.01 631.42 298.9 630.9 298.79 630.84 298.68 630.53 297.87 630.53 297.59 630.75 297.17 630.5 296.84 630.44 296.3 630.65 295.72 630.82 295.41 630.96 295.07 630.9 294.6 630.79 294.43 630.71 294.35 630.65 293.68 630.61 293.48 630.39 292.88 630.29 292.69 630.31 292.24 630.43 291.88 630.21 291.21 630.16 290.95 629.91 291.01 629.19 291.18 628.74 291.09 628.32 291.21 628.13 291.4 627.78 291.4 627.27 291.79 626.81 291.74 626.4 291.88 625.71 291.49 625.44 291.23 625.32 290.87 625.11 290.79 624.35 290.67 624.14 290.76 624 290.53 623.98 290.2 623.93 289.98 623.77 289.81 623.58 289.56 623.04 289.39 622.82 289.44 622.34 289.56 622.15 289.53 621.66 289.11 621.64 288.83 621.08 288.27 620.81 287.85 620.48 287.32 619.9 287.52 619.65 287.15 619.42 286.76 619.4 286.06 618.86 285.7 618.65 285.87 617.62 285.64 617.21 285.73 617 285.7 616.52 285.62 616.07 285.62 615.59 285.45 615.38 285.53 615.12 285.37 614.95 285.42 614.62 285.34 614.29 285.03 614.18 284.89 613.79 284.81 613.63 284.67 613.56 284.42 613.56 284.02 613.36 283.69 613.34 283.35 613.07 282.77 612.8 282.57 612.76 282.49 612.76 282.35 612.65 282.15 612.61 281.9 612.01 281.7 611.6 281.7 611.59 281.14 611.36 280.72 611.05 280.41 610.55 280.61 609.99 280.94 609.45 281 609.1 281 608.63 281.16 608.15 281.25 607.7 280.77 607.63 280.58 607.01 279.99 606.8 279.85 606.51 279.38 606.06 279.15 606.04 278.82 605.89 278.62 605.52 278.43 605.02 277.92 604.63 277.73 604.57 277.53 604.75 277 604.75 276.72 605 276.25 605 276.05 604.94 275.86 605.13 275.63 605.25 275.41 605.21 275.24 605.21 275.04 605.23 274.9 605.09 274.76 604.82 274.74 604.57 274.26 604.05 273.81 603.97 273.34 603.97 273.12 603.78 272.89 603.43 272.67 603.18 272.61 602.75 272.33 602.23 272.22 601.88 272.22 601.57 272.08 601.53 271.94 601.2 271.64 601.03 271.5 600.95 271.25 600.95 270.94 601.17 270.63 601.09 270.52 601.07 270.35 601.17 270.21 601.42 269.79 601.38 268.87 601.24 268.42 601.01 268.23 601.17 268 601.28 267.56 601.51 267.39 601.55 267.22 601.49 267 601.46 266.52 601.3 266.38 601.26 266.16 601.28 265.94 601.42 265.55 601.36 265.21 600.72 265.04 600.49 265.21 600.12 265.15 599.85 265.21 599.46 265.55 599.21 265.71 598.86 265.63 598.69 265.96 598.3 266.33 597.65 266.44 597.35 266.55 597.14 266.8 596.95 266.86 596.76 266.91 596.72 267.31 596.56 267.28 596.37 267.44 596.25 267.56 595.83 267.53 595.52 267.78 595.34 267.89 594.9 268.09 594.82 267.98 594.86 267.64 594.74 267.56 594.38 267.6 593.71 267.48 593.46 267.29 592.84 267.29 592.74 267.12 592.1 266.73 591.62 266.76 591.23 266.59 591.02 266.67 590.77 266.67 590.52 266.53 590.17 265.92 589.22 266.06 588.87 265.92 588.6 266.2 587.4 266.31 587.27 266.06 587.07 265.97 586.67 265.75 586.57 265.39 586.2 265.14 585.91 264.8 585.72 264.44 585.56 263.99 585.43 263.54 584.23 263.35 583.63 263.54 583.05 263.51 582.8 263.57 582.29 263.38 582.1 263.18 580.88 263.15 580.34 262.96 580.05 262.43 579.16 262.09 578.83 261.93 578.66 261.73 578.54 261.54 578.5 261.17 577.79 261.09 577.38 261.37 577.13 261.51 575.33 261.39 575.04 261.28 574.21 261.2 573.84 261.37 573.63 261.34 573.41 261.03 573.37 260.84 573.43 260.7 573.59 260.67 573.55 260.19 573.55 260 573.37 259.72 573.28 259.36 573.53 259.05 573.47 258.91 572.83 258.85 572.12 258.85 571.98 258.96 571.32 258.96 570.86 259.16 570.05 259.1 569.78 258.91 569.58 258.69 568.89 258.49 568.42 258.32 567.98 258.04 567.69 257.71 567.49 257.45 567.32 256.98 567.24 256.73 567.07 256.56 566.95 256.25 566.95 256.09 566.68 256.14 566.41 256.2 566.08 256.06 565.75 256.23 565.44 256.14 565.23 256.37 564.94 256.45 564.59 256.42 564.22 256.51 563.76 256.37 563.55 256.09 563.55 255.97 563.41 255.78 562.85 256.03 562.23 255.92 561.36 256.37 561.32 256.59 560.86 256.93 560.39 256.84 560.26 256.67 559.76 256.67 559.66 256.42 559.29 256.06 559.27 255.61 558.86 255.58 558.5 254.86 557.43 254.63 557.16 254.47 556.57 254.36 556.38 254.25"/></g></g><text class="cls-10" transform="translate(135.32 208.76)">SAE 303</text><text class="cls-11" transform="translate(127.22 398.76)">LA POLLUTION EN <tspan x="103.26" y="43.2">CORSE</tspan></text></svg>