<?xml version="1.0" encoding="utf-8"?>
<!-- Generator: Adobe Illustrator 24.0.0, SVG Export Plug-In . SVG Version: 6.00 Build 0)  -->
<svg version="1.1" id="Calque_1" xmlns="http://www.w3.org/2000/svg" xmlns:xlink="http://www.w3.org/1999/xlink" x="0px" y="0px"
	 viewBox="0 0 131.8 123.2" style="enable-background:new 0 0 131.8 123.2;" xml:space="preserve">
<style type="text/css">
	.st0{fill:#FCDAC0;}
	.st1{fill:#5C200E;}
	.st2{fill:#BCDAA9;}
	.st3{fill:#F8DFEE;}
	.st4{fill:#EC5F59;}
	.st5{fill:#ADDCEB;}
</style>
<path class="st0" d="M198.4,111.7L198.4,111.7c-0.9,0-1.5-0.6-1.5-1.3V30.3c0-0.7,0.7-1.3,1.5-1.3l6.7,0c0.9,0,1.7,0.7,1.5,1.3v74.4
	C206.7,108.6,203,111.7,198.4,111.7z"/>
<path class="st1" d="M196.9,110.6c1,0.1,1.4-2.1,2.4-2c0,0-0.1-0.1-0.1-0.1c-0.1-0.3,0.1-0.6,0.1-1c-0.2,0-0.4,0-0.6,0.1V107
	c-0.6,0.1-0.7-0.2-0.5-0.6c0-0.1,0-0.2,0-0.2c0-1.4,0.1-2.8,0-4.1c-0.1-1.3-0.1-2.6-0.1-3.9c0.1-1.9,0.1-3.9,0.1-5.8
	c0-1.4-0.1-2.9,0-4.3c0-0.4-0.1-0.9,0.1-1.4c0.2-0.5,0.1-1.1,0.1-1.7c0-0.4,0-0.8,0-1.2c0-0.2,0-0.3,0-0.5c0-0.2-0.2-0.4-0.1-0.6
	c0-0.4,0.3-0.8,0.2-1.1c-0.2-0.6-0.1-1.2-0.1-1.8c0-0.5,0-1,0-1.4c0.1-1-0.3-2,0-3c0.1-0.4,0-0.9,0-1.3c0-0.7-0.1-1.4-0.1-2.1
	c0-1.2,0.1-2.3,0.1-3.5c0-0.4-0.2-0.9-0.2-1.3c0-0.5,0.1-1,0.2-1.5c0-0.4-0.2-0.8-0.1-1.1c0.4-0.6,0.1-1.1,0.1-1.6
	c0-0.9,0.1-1.8,0.1-2.7c0-0.3,0-0.6,0-0.9c0-0.4,0-0.9,0-1.5c-0.2-0.1-0.2-0.4,0-0.8c0-0.1,0.1-0.2,0.1-0.2
	c-0.5-0.4,0.1-0.5,0.4-0.8c-0.4-0.1-0.7-0.1-1.1-0.2c0.2-0.6,0.4-1.1,0.6-1.6c0.2-0.6,0.2-1.1-0.2-1.7c-0.2-0.2-0.3-0.5-0.3-0.8
	c0-0.6,0-1.2,0-1.8c0-1.4,0-2.9,0-4.3c0-0.1-0.1-0.2,0-0.2c0.1-0.5-0.4-1.1,0.5-1.4c-0.7-0.3-0.6-0.8-0.6-1.2c0-1,0-2.1,0-3.1
	c0.3-0.1,0.5-0.1,0.7-0.1c-0.2-0.1-0.4-0.2-0.4-0.3c-0.1-0.3-0.2-0.6-0.2-0.9c0-0.7,0.2-1.5,0.1-2.2c-0.1-1.1,0.1-2.3,0.2-3.4
	c0-0.2-0.2-0.5-0.3-0.7c0.2-0.3,0.5-0.6,0.6-1c0.2-0.4,0.2-0.8,0.2-1.3c0.1,0.2,0.2,0.4,0.2,0.4c0.1-0.3,0.3-0.6,0.5-0.9
	c0,0-0.1,0-0.3-0.2c0.3-0.1,0.6-0.1,0.8-0.2c0,0.2,0,0.4,0.1,0.6c0.4-0.4,1.2,0.1,1.5-0.6c0.1,0.1,0.2,0.2,0.4,0.2
	c0.1-0.1,0.2-0.2,0.3-0.2c0.5,0,1,0,1.6,0.1c0.1,0,0.3,0.1,0.3,0.2c0,0.6,0,1.1,0,1.7c-0.1,0-0.1,0-0.2,0c-0.1-0.2-0.1-0.4-0.2-0.7
	c0-0.1-0.1-0.2-0.2-0.2c0,0-0.2,0-0.2,0.1c-0.1,0.4-0.2,0.8-0.2,1.2c0.4,0,0.7,0,0.9,0c0.1,0,0.1,0,0.2,0
	c0.1,11.6,0.1,23.2,0.1,34.7c0.1,11.6,0.1,23.2,0.2,34.8c0.1-2,0.1-4.1,0.1-6.1c0-3.6,0-7.2,0-10.8c0-4.4,0-8.8,0-13.2
	c0-3.5,0-7.1,0-10.6c0-3.6-0.1-7.1-0.1-10.7c0-2.8,0-5.6,0-8.4c0-2.9,0-5.8,0-8.6c0-0.4,0.2-0.8,0.3-1.3c-0.7-0.5-0.2-1.2-0.3-2
	c0.7,0.2,1.3,1.1,1.9,1.2c-0.1-0.1-0.1-0.7-0.2-0.8c-0.3-0.2-0.7-0.6-1.2-0.6c-1.6-0.1-3.2-0.3-4.9-0.3c-1.1,0-2.2,0.2-3.4,0.4
	c-0.5,0.1-0.8,0.3-0.7,0.9c0.1,1,0,2,0,3.1c0,5,0.1,10.1,0.1,15.1c0,7.6,0,15.1,0,22.7c0,3.3,0,6.6,0,9.9c0,3,0.1,6,0.1,9.1"/>
<path class="st2" d="M182.7,99.9L182.7,99.9c-0.9,0-1.5-0.2-1.5-0.4V76.1c0-0.2,0.7-0.4,1.5-0.4h6.7c0.9,0,1.7,0.2,1.5,0.4v21.8
	C190.9,99,187.3,99.9,182.7,99.9z"/>
<path class="st3" d="M214.2,111.7L214.2,111.7c-0.9,0-1.5-0.6-1.5-1.3V30.3c0-0.7,0.7-1.3,1.5-1.3l6.7,0c0.9,0,1.7,0.7,1.5,1.3v74.4
	C222.5,108.5,218.8,111.7,214.2,111.7z"/>
<path class="st1" d="M213.1,110.6c1,0.1,1.4-2.1,2.4-2c0,0-0.1-0.1-0.1-0.1c-0.1-0.3,0.1-0.6,0.1-1c-0.2,0-0.4,0-0.6,0.1V107
	c-0.6,0.1-0.7-0.2-0.5-0.6c0-0.1,0-0.2,0-0.2c0-1.4,0.1-2.8,0-4.1c-0.1-1.3-0.1-2.6-0.1-3.9c0.1-1.9,0.1-3.9,0.1-5.8
	c0-1.4-0.1-2.9,0-4.3c0-0.4-0.1-0.9,0.1-1.4c0.2-0.5,0.1-1.1,0.1-1.7c0-0.4,0-0.8,0-1.2c0-0.2,0-0.3,0-0.5c0-0.2-0.2-0.4-0.1-0.6
	c0-0.4,0.3-0.8,0.2-1.1c-0.2-0.6-0.1-1.2-0.1-1.8c0-0.5,0-1,0-1.4c0.1-1-0.3-2,0-3c0.1-0.4,0-0.9,0-1.3c0-0.7-0.1-1.4-0.1-2.1
	c0-1.2,0.1-2.3,0.1-3.5c0-0.4-0.2-0.9-0.2-1.3c0-0.5,0.1-1,0.2-1.5c0-0.4-0.2-0.8-0.1-1.1c0.4-0.6,0.1-1.1,0.1-1.6
	c0-0.9,0.1-1.8,0.1-2.7c0-0.3,0-0.6,0-0.8c0-0.4,0-0.9,0-1.5c-0.2-0.1-0.2-0.4,0-0.8c0-0.1,0.1-0.2,0.1-0.2
	c-0.5-0.4,0.1-0.5,0.4-0.8c-0.4-0.1-0.7-0.1-1.1-0.2c0.2-0.6,0.4-1.1,0.6-1.6c0.2-0.6,0.2-1.1-0.2-1.7c-0.2-0.2-0.3-0.5-0.3-0.8
	c0-0.6,0-1.2,0-1.8c0-1.4,0-2.9,0-4.3c0-0.1-0.1-0.2,0-0.2c0.1-0.5-0.4-1.1,0.5-1.4c-0.7-0.3-0.6-0.8-0.6-1.2c0-1,0-2.1,0-3.1
	c0.3-0.1,0.5-0.1,0.7-0.1c-0.2-0.1-0.4-0.2-0.4-0.3c-0.1-0.3-0.2-0.6-0.2-0.9c0-0.7,0.2-1.5,0.1-2.2c-0.1-1.1,0.1-2.3,0.2-3.4
	c0-0.2-0.2-0.5-0.3-0.7c0.2-0.3,0.5-0.6,0.6-1c0.2-0.4,0.2-0.8,0.2-1.3c0.1,0.2,0.2,0.4,0.2,0.4c0.1-0.3,0.3-0.6,0.5-0.9
	c0,0-0.1,0-0.3-0.2c0.3-0.1,0.6-0.1,0.8-0.2c0,0.2,0,0.4,0.1,0.6c0.4-0.4,1.2,0.1,1.5-0.6c0.1,0.1,0.2,0.2,0.4,0.2
	c0.1-0.1,0.2-0.2,0.3-0.2c0.5,0,1,0,1.6,0.1c0.1,0,0.3,0.1,0.3,0.2c0,0.6,0,1.1,0,1.7c-0.1,0-0.1,0-0.2,0c-0.1-0.2-0.1-0.4-0.2-0.7
	c0-0.1-0.1-0.2-0.2-0.2c0,0-0.2,0-0.2,0.1c-0.1,0.4-0.2,0.8-0.2,1.2c0.4,0,0.7,0,0.9,0c0.1,0,0.1,0,0.2,0
	c0.1,11.6,0.1,23.1,0.1,34.7c0.1,11.6,0.1,23.2,0.2,34.8c0.1-2,0.1-4.1,0.1-6.1c0-3.6,0-7.2,0-10.8c0-4.4,0-8.8,0-13.2
	c0-3.5,0-7.1,0-10.6c0-3.6-0.1-7.1-0.1-10.7c0-2.8,0-5.6,0-8.4c0-2.9,0-5.8,0-8.6c0-0.4,0.2-0.8,0.3-1.3c-0.7-0.5-0.2-1.2-0.3-2
	c0.7,0.2,1.3,1.1,1.9,1.2c-0.1-0.1-0.1-0.7-0.2-0.8c-0.3-0.2-0.7-0.6-1.2-0.6c-1.6-0.1-3.2-0.3-4.9-0.3c-1.1,0-2.2,0.2-3.4,0.4
	c-0.5,0.1-0.8,0.3-0.7,0.9c0.1,1,0,2,0,3.1c0,5,0.1,10.1,0.1,15.1c0,7.6,0,15.1,0,22.7c0,3.3,0,6.6,0,9.9c0,3,0.1,6,0.1,9"/>
<path class="st4" d="M164.5,111.4L164.5,111.4l0-21.5h6.5c1.6,0,2.8,1.3,2.8,2.8v9.3C173.8,107.2,169.6,111.4,164.5,111.4z"/>
<g>
	<g>
		<path class="st1" d="M164.1,111.4c1,0,1.4-0.6,2.4-0.5c0,0-0.1,0-0.1,0c-0.1-0.1,0.1-0.2,0.1-0.3c-0.2,0-0.4,0-0.6,0v-0.2
			c-0.6,0-0.7,0-0.5-0.2c0,0,0,0,0-0.1c0-0.4,0.1-0.7,0-1.1c-0.1-0.3-0.1-0.7-0.1-1c0.1-0.5,0.1-1,0.1-1.5c0-0.4-0.1-0.8,0-1.1
			c0-0.1-0.1-0.2,0.1-0.4c0.2-0.1,0.1-0.3,0.1-0.4c0-0.1,0-0.2,0-0.3c0,0,0-0.1,0-0.1c0-0.1-0.2-0.1-0.1-0.2c0-0.1,0.3-0.2,0.2-0.3
			c-0.2-0.2-0.1-0.3-0.1-0.5c0-0.1,0-0.3,0-0.4c0.1-0.3-0.3-0.5,0-0.8c0.1-0.1,0-0.2,0-0.4c0-0.2-0.1-0.4-0.1-0.5
			c0-0.3,0.1-0.6,0.1-0.9c0-0.1-0.2-0.2-0.2-0.4c0-0.1,0.1-0.3,0.2-0.4c0-0.1-0.2-0.2-0.1-0.3c0.4-0.1,0.1-0.3,0.1-0.4
			c0-0.2,0.1-0.5,0.1-0.7c0-0.1,0-0.1,0-0.2c0-0.1,0-0.2,0-0.4c-0.2,0-0.2-0.1,0-0.2c0,0,0.1,0,0.1,0c-0.5-0.1,0.1-0.1,0.4-0.2
			c-0.4,0-0.7,0-1.1-0.1c0.2-0.1,0.4-0.3,0.6-0.4c0.2-0.2,0.2-0.3-0.2-0.4c-0.2-0.1-0.3-0.1-0.3-0.2c0-0.2,0-0.3,0-0.5
			c0-0.4,0-0.8,0-1.1c0,0-0.1,0,0-0.1c0.1-0.1-0.4-0.3,0.5-0.4c-0.7-0.1-0.6-0.2-0.6-0.3c0-0.3,0-0.5,0-0.8c0.3,0,0.5,0,0.7,0
			c-0.2,0-0.4,0-0.4-0.1c-0.1-0.1-0.2-0.2-0.2-0.2c0-0.2,0.2-0.4,0.1-0.6c-0.1-0.3,0.1-0.6,0.2-0.9c0-0.1-0.2-0.1-0.3-0.2
			c0.2-0.1,0.5-0.2,0.6-0.3c0.2-0.1,0.2-0.2,0.2-0.4c0.1,0.1,0.2,0.1,0.2,0.1c0.1-0.1,0.3-0.2,0.5-0.2c0,0-0.1,0-0.3,0
			c0.3,0,0.6,0,0.8-0.1c0,0.1,0,0.1,0.1,0.2c0.4-0.1,1.2,0,1.5-0.2c0.1,0,0.2,0,0.4,0.1c0.1,0,0.2-0.1,0.3-0.1c0.5,0,1,0,1.6,0
			c0.1,0,0.3,0,0.3,0.1c0,0.1,0,0.3,0,0.4c-0.1,0-0.1,0-0.2,0c-0.1-0.1-0.1-0.1-0.2-0.2c0,0-0.1,0-0.2-0.1c0,0-0.2,0-0.2,0
			c-0.1,0.1-0.2,0.2-0.2,0.3c0.4,0,0.7,0,0.9,0c0.1,0,0.1,0,0.2,0c0.1,3,0.1,6.1,0.1,9.1c0.1,3.1,0.2,3.1,0.2,6.2c0.1-0.5,0,0,0-0.5
			c0-0.9,0,0,0-0.9c0-1.2,0-2.3,0-3.5c0-0.9,0-1.9,0-2.8c0-0.9-0.1-1.9-0.1-2.8c0-0.7,0-1.5,0-2.2c0-0.8,0-1.5,0-2.3
			c0-0.1,0.2-0.2,0.3-0.3c-0.7-0.1-0.2-0.3-0.3-0.5c0.7,0.1,1.3,0.3,1.9,0.3c-0.1,0-0.1-0.2-0.2-0.2c-0.3-0.1-0.7-0.2-1.2-0.2
			c-1.6,0-3.2-0.1-4.9-0.1c-1.1,0-2.2,0.1-3.4,0.1c-0.5,0-0.8,0.1-0.7,0.2c0.1,0.3,0,0.5,0,0.8c0,1.3,0.1,2.7,0.1,4c0,2,0,4,0,6
			c0,0.9,0,1.7,0,2.6c0,0.8,0.1,1.6,0.1,2.4"/>
	</g>
</g>
<path class="st2" d="M181.6,111.2L181.6,111.2l0-18.2h6.5c1.6,0,2.8,1.3,2.8,2.8v6.1C190.9,107,186.8,111.2,181.6,111.2z"/>
<path class="st1" d="M181.2,111.2c1,0,1.4-0.9,2.4-0.9c0,0-0.1,0-0.1-0.1c-0.1-0.1,0.1-0.3,0.1-0.4c-0.2,0-0.4,0-0.6,0v-0.3
	c-0.6,0-0.7-0.1-0.5-0.3c0,0,0-0.1,0-0.1c0-0.6,0.1-1.2,0-1.8c-0.1-0.6-0.1-1.1-0.1-1.7c0.1-0.8,0.1-1.7,0.1-2.5
	c0-0.6-0.1-1.3,0-1.9c0-0.2-0.1-0.4,0.1-0.6c0.2-0.2,0.1-0.5,0.1-0.7c0-0.2,0-0.4,0-0.5c0-0.1,0-0.1,0-0.2c0-0.1-0.2-0.2-0.1-0.3
	c0-0.2,0.3-0.3,0.2-0.5c-0.2-0.3-0.1-0.5-0.1-0.8c0-0.2,0-0.4,0-0.6c0.1-0.4-0.3-0.9,0-1.3c0.1-0.2,0-0.4,0-0.6
	c0-0.3-0.1-0.6-0.1-0.9c0-0.5,0.1-1,0.1-1.5c0-0.2-0.2-0.4-0.2-0.6c0-0.2,0.1-0.4,0.2-0.6c0-0.2-0.2-0.4-0.1-0.5
	c0.4-0.2,0.1-0.5,0.1-0.7c0-0.4,0.1-0.8,0.1-1.2c0-0.1,0-0.2,0-0.4c0-0.2,0-0.4,0-0.6c-0.2-0.1-0.2-0.2,0-0.3c0,0,0.1-0.1,0.1-0.1
	c-0.5-0.2,0.1-0.2,0.4-0.3c-0.4,0-0.7-0.1-1.1-0.1c0.2-0.2,0.4-0.5,0.6-0.7c0.2-0.3,0.2-0.5-0.2-0.7c-0.2-0.1-0.3-0.2-0.3-0.4
	c0-0.3,0-0.5,0-0.8c0-0.6,0-1.2,0-1.9c0,0-0.1-0.1,0-0.1c0.1-0.2-0.4-0.5,0.5-0.6c-0.7-0.1-0.6-0.3-0.6-0.5c0-0.4,0-0.9,0-1.3
	c0.3,0,0.5,0,0.7-0.1c-0.2,0-0.4-0.1-0.4-0.1c-0.1-0.1-0.2-0.3-0.2-0.4c0-0.3,0.2-0.6,0.1-0.9c-0.1-0.5,0.1-1,0.2-1.5
	c0-0.1-0.2-0.2-0.3-0.3c0.2-0.1,0.5-0.3,0.6-0.4c0.2-0.2,0.2-0.4,0.2-0.6c0.1,0.1,0.2,0.2,0.2,0.2c0.1-0.1,0.3-0.3,0.5-0.4
	c0,0-0.1,0-0.3-0.1c0.3,0,0.6-0.1,0.8-0.1c0,0.1,0,0.2,0.1,0.3c0.4-0.2,1.2,0,1.5-0.3c0.1,0,0.2,0.1,0.4,0.1c0.1,0,0.2-0.1,0.3-0.1
	c0.5,0,1,0,1.6,0c0.1,0,0.3,0.1,0.3,0.1c0,0.2,0,0.5,0,0.7c-0.1,0-0.1,0-0.2,0c-0.1-0.1-0.1-0.2-0.2-0.3c0,0-0.1-0.1-0.2-0.1
	c0,0-0.2,0-0.2,0c-0.1,0.2-0.2,0.4-0.2,0.5c0.4,0,0.7,0,0.9,0c0.1,0,0.1,0,0.2,0c0.1,5,0.1,10.1,0.1,15.1c0.1,5,0.1,10.1,0.2,15.1
	c0.1-0.9,0.1-1.8,0.1-2.7c0-1.6,0-3.1,0-4.7c0-1.9,0-3.8,0-5.7c0-1.5,0-3.1,0-4.6c0-1.6-0.1-3.1-0.1-4.7c0-1.2,0-2.4,0-3.7
	c0-1.3,0-2.5,0-3.8c0-0.2,0.2-0.3,0.3-0.5c-0.7-0.2-0.2-0.5-0.3-0.9c0.7,0.1,1.3,0.5,1.9,0.5c-0.1,0-0.1-0.3-0.2-0.3
	c-0.3-0.1-0.7-0.3-1.2-0.3c-1.6-0.1-3.2-0.1-4.9-0.1c-1.1,0-2.2,0.1-3.4,0.2c-0.5,0-0.8,0.1-0.7,0.4c0.1,0.4,0,0.9,0,1.3
	c0,2.2,0.1,4.4,0.1,6.6c0,3.3,0,6.6,0,9.8c0,1.4,0,2.9,0,4.3c0,1.3,0.1,2.6,0.1,3.9"/>
<path class="st5" d="M149.1,111.6L149.1,111.6c-0.6,0-1.1-0.5-1.1-1.1v-8c0-0.6,0.5-1.1,1.1-1.1h7.8c0.6,0,1.1,0.5,1.1,1.1v0.2
	C158,107.6,154,111.6,149.1,111.6z"/>
<path class="st1" d="M147.8,111.6c1,0,1.4-0.3,2.4-0.2c0,0-0.1,0-0.1,0c-0.1,0,0.1-0.1,0.1-0.1c-0.2,0-0.4,0-0.6,0v-0.1
	c-0.6,0-0.7,0-0.5-0.1c0,0,0,0,0,0c0-0.2,0.1-0.3,0-0.5c-0.1-0.2-0.1-0.3-0.1-0.5c0.1-0.2,0.1-0.5,0.1-0.7c0-0.2-0.1-0.4,0-0.5
	c0-0.1-0.1-0.1,0.1-0.2c0.2-0.1,0.1-0.1,0.1-0.2c0-0.1,0-0.1,0-0.2c0,0,0,0,0-0.1c0,0-0.2-0.1-0.1-0.1c0,0,0.3-0.1,0.2-0.1
	c-0.2-0.1-0.1-0.2-0.1-0.2c0-0.1,0-0.1,0-0.2c0.1-0.1-0.3-0.2,0-0.4c0.1-0.1,0-0.1,0-0.2c0-0.1-0.1-0.2-0.1-0.3
	c0-0.1,0.1-0.3,0.1-0.4c0-0.1-0.2-0.1-0.2-0.2c0-0.1,0.1-0.1,0.2-0.2c0,0-0.2-0.1-0.1-0.1c0.4-0.1,0.1-0.1,0.1-0.2
	c0-0.1,0.1-0.2,0.1-0.3c0,0,0-0.1,0-0.1c0-0.1,0-0.1,0-0.2c-0.2,0-0.2-0.1,0-0.1c0,0,0.1,0,0.1,0c-0.5-0.1,0.1-0.1,0.4-0.1
	c-0.4,0-0.7,0-1.1,0c0.2-0.1,0.4-0.1,0.6-0.2c0.2-0.1,0.2-0.1-0.2-0.2c-0.2,0-0.3-0.1-0.3-0.1c0-0.1,0-0.2,0-0.2c0-0.2,0-0.4,0-0.5
	c0,0-0.1,0,0,0c0.1-0.1-0.4-0.1,0.5-0.2c-0.7,0-0.6-0.1-0.6-0.2c0-0.1,0-0.3,0-0.4c0.3,0,0.5,0,0.7,0c-0.2,0-0.4,0-0.4,0
	c-0.1,0-0.2-0.1-0.2-0.1c0-0.1,0.2-0.2,0.1-0.3c-0.1-0.1,0.1-0.3,0.2-0.4c0,0-0.2-0.1-0.3-0.1c0.2,0,0.5-0.1,0.6-0.1
	c0.2,0,0.2-0.1,0.2-0.2c0.1,0,0.2,0,0.2,0.1c0.1,0,0.3-0.1,0.5-0.1c0,0-0.1,0-0.3,0c0.3,0,0.6,0,0.8,0c0,0,0,0.1,0.1,0.1
	c0.4-0.1,1.2,0,1.5-0.1c0.1,0,0.2,0,0.4,0c0.1,0,0.2,0,0.3,0c0.5,0,1,0,1.6,0c0.1,0,0.3,0,0.3,0c0,0.1,0,0.1,0,0.2
	c-0.1,0-0.1,0-0.2,0c-0.1,0-0.1-0.1-0.2-0.1c0,0-0.1,0-0.2,0c0,0-0.2,0-0.2,0c-0.1,0.1-0.2,0.1-0.2,0.1c0.4,0,0.7,0,0.9,0
	c0.1,0,0.1,0,0.2,0c0.1,1.4,0.1,2.9,0.1,4.3c0.1,1.5,0.1,1.5,0.1,3c0.1-0.3,0.1-1.3,0.1-1.6c0-0.5,0.1,1.3,0.1,0.8
	c0-0.6,0-1.1,0-1.7c0-0.4,0-0.9,0-1.3c0-0.4-0.1-0.9-0.1-1.3c0-0.4,0-0.7,0-1.1c0-0.4,0-0.7,0-1.1c0,0,0.2-0.1,0.3-0.2
	c-0.7-0.1-0.2-0.1-0.3-0.3c0.7,0,1.3,0.1,1.9,0.2c-0.1,0-0.1-0.1-0.2-0.1c-0.3,0-0.7-0.1-1.2-0.1c-1.6,0-3.2,0-4.9,0
	c-1.1,0-2.2,0-3.4,0.1c-0.5,0-0.8,0-0.7,0.1c0.1,0.1,0,0.3,0,0.4c0,0.6,0.1,1.3,0.1,1.9c0,0.9,0,1.9,0,2.8c0,0.4,0,0.8,0,1.2
	c0,0.4,0.1,0.8,0.1,1.1"/>
<g>
	
		<image style="overflow:visible;opacity:0.75;" width="71" height="54" xlink:href="B58600E1.png"  transform="matrix(0.24 0 0 0.24 144.2868 92.8566)">
	</image>
	<g>
		<g>
			<path class="st5" d="M148.6,94.4h2.1l-0.7,1.5c0.2,0.2,0.4,0.3,0.5,0.5c0.1,0.2,0.2,0.4,0.2,0.7c0,0.4-0.1,0.7-0.4,1
				s-0.6,0.4-1,0.4c-0.2,0-0.5,0-0.7-0.1v-1.1c0.2,0.1,0.3,0.2,0.4,0.2c0.1,0,0.3,0,0.3-0.1s0.1-0.2,0.1-0.4c0-0.2-0.1-0.3-0.2-0.4
				s-0.3-0.1-0.6-0.1l0.3-0.8h-0.4V94.4z"/>
			<path class="st5" d="M153.1,94.4c0.3,0,0.5,0.1,0.7,0.3s0.3,0.5,0.3,0.7c0,0.3-0.1,0.5-0.3,0.7c-0.2,0.2-0.5,0.3-0.7,0.3
				c-0.3,0-0.5-0.1-0.7-0.3c-0.2-0.2-0.3-0.5-0.3-0.7c0-0.3,0.1-0.5,0.3-0.7S152.8,94.4,153.1,94.4z M153.1,95c-0.1,0-0.2,0-0.3,0.1
				s-0.1,0.2-0.1,0.3s0,0.2,0.1,0.3s0.2,0.1,0.3,0.1s0.2,0,0.3-0.1s0.1-0.2,0.1-0.3s0-0.2-0.1-0.3S153.2,95,153.1,95z M155.4,94.4
				l-1.6,4h-0.4l1.6-4H155.4z M155.8,96.4c0.3,0,0.5,0.1,0.7,0.3s0.3,0.5,0.3,0.7s-0.1,0.5-0.3,0.7s-0.5,0.3-0.7,0.3
				c-0.3,0-0.5-0.1-0.7-0.3s-0.3-0.5-0.3-0.7s0.1-0.5,0.3-0.7S155.5,96.4,155.8,96.4z M155.8,97c-0.1,0-0.2,0-0.3,0.1
				s-0.1,0.2-0.1,0.3c0,0.1,0,0.2,0.1,0.3s0.2,0.1,0.3,0.1s0.2,0,0.3-0.1s0.1-0.2,0.1-0.3c0-0.1,0-0.2-0.1-0.3S155.9,97,155.8,97z"
				/>
		</g>
	</g>
</g>
<g>
	
		<image style="overflow:visible;opacity:0.75;" width="73" height="55" xlink:href="B58600E0.png"  transform="matrix(0.24 0 0 0.24 160.3668 80.1366)">
	</image>
	<g>
		<g>
			<path class="st4" d="M165.5,81.7l1.1,0.4l-0.8,2.2c0,0.1,0,0.1,0,0.2c0,0.1,0,0.2,0.1,0.3s0.2,0.1,0.3,0.1s0.2,0,0.3-0.1
				s0.1-0.2,0.1-0.3s0-0.2-0.1-0.3s-0.2-0.1-0.3-0.1c0,0-0.1,0-0.1,0l0.5-1.1c0.4,0.2,0.7,0.4,0.9,0.6s0.3,0.5,0.3,0.9
				c0,0.4-0.1,0.8-0.4,1.1c-0.3,0.3-0.7,0.4-1.1,0.4c-0.4,0-0.8-0.1-1.1-0.4c-0.3-0.3-0.5-0.6-0.5-1c0-0.2,0.1-0.5,0.2-0.9
				L165.5,81.7z"/>
			<path class="st4" d="M169.6,81.7c0.3,0,0.5,0.1,0.7,0.3s0.3,0.5,0.3,0.7c0,0.3-0.1,0.5-0.3,0.7c-0.2,0.2-0.5,0.3-0.7,0.3
				c-0.3,0-0.5-0.1-0.7-0.3c-0.2-0.2-0.3-0.5-0.3-0.7c0-0.3,0.1-0.5,0.3-0.7S169.3,81.7,169.6,81.7z M169.6,82.3
				c-0.1,0-0.2,0-0.3,0.1s-0.1,0.2-0.1,0.3s0,0.2,0.1,0.3s0.2,0.1,0.3,0.1s0.2,0,0.3-0.1s0.1-0.2,0.1-0.3s0-0.2-0.1-0.3
				S169.7,82.3,169.6,82.3z M171.9,81.8l-1.6,4h-0.4l1.6-4H171.9z M172.3,83.7c0.3,0,0.5,0.1,0.7,0.3s0.3,0.5,0.3,0.7
				s-0.1,0.5-0.3,0.7s-0.5,0.3-0.7,0.3c-0.3,0-0.5-0.1-0.7-0.3s-0.3-0.5-0.3-0.7s0.1-0.5,0.3-0.7S172,83.7,172.3,83.7z M172.3,84.3
				c-0.1,0-0.2,0-0.3,0.1s-0.1,0.2-0.1,0.3c0,0.1,0,0.2,0.1,0.3s0.2,0.1,0.3,0.1s0.2,0,0.3-0.1s0.1-0.2,0.1-0.3c0-0.1,0-0.2-0.1-0.3
				S172.4,84.3,172.3,84.3z"/>
		</g>
	</g>
</g>
<g>
	
		<image style="overflow:visible;opacity:0.75;" width="85" height="54" xlink:href="B58600EE.png"  transform="matrix(0.24 0 0 0.24 178.1268 66.2166)">
	</image>
	<g>
		<g>
			<path class="st2" d="M183.7,67.9v4h-1.1v-4H183.7z"/>
			<path class="st2" d="M187.4,67.9v4h-1.1v-4H187.4z"/>
			<path class="st2" d="M190.3,67.8c0.3,0,0.5,0.1,0.7,0.3s0.3,0.5,0.3,0.7c0,0.3-0.1,0.5-0.3,0.7c-0.2,0.2-0.5,0.3-0.7,0.3
				c-0.3,0-0.5-0.1-0.7-0.3c-0.2-0.2-0.3-0.5-0.3-0.7c0-0.3,0.1-0.5,0.3-0.7S190,67.8,190.3,67.8z M190.3,68.4c-0.1,0-0.2,0-0.3,0.1
				s-0.1,0.2-0.1,0.3s0,0.2,0.1,0.3s0.2,0.1,0.3,0.1s0.2,0,0.3-0.1s0.1-0.2,0.1-0.3s0-0.2-0.1-0.3S190.4,68.4,190.3,68.4z
				 M192.6,67.9l-1.6,4h-0.4l1.6-4H192.6z M193,69.8c0.3,0,0.5,0.1,0.7,0.3s0.3,0.5,0.3,0.7s-0.1,0.5-0.3,0.7s-0.5,0.3-0.7,0.3
				c-0.3,0-0.5-0.1-0.7-0.3s-0.3-0.5-0.3-0.7s0.1-0.5,0.3-0.7S192.7,69.8,193,69.8z M193,70.4c-0.1,0-0.2,0-0.3,0.1
				s-0.1,0.2-0.1,0.3c0,0.1,0,0.2,0.1,0.3s0.2,0.1,0.3,0.1s0.2,0,0.3-0.1s0.1-0.2,0.1-0.3c0-0.1,0-0.2-0.1-0.3S193.1,70.4,193,70.4z
				"/>
		</g>
	</g>
</g>
<g>
	
		<image style="overflow:visible;opacity:0.75;" width="88" height="55" xlink:href="B58600F8.png"  transform="matrix(0.24 0 0 0.24 192.7668 17.4966)">
	</image>
	<g>
		<g>
			<path class="st0" d="M200.1,19.1v4h-1.1v-3.1l-0.5,1h0.2V22h-1.6l1.2-2.8H200.1z"/>
			<path class="st0" d="M200.9,21.6v-0.9c0-0.5,0.1-0.9,0.4-1.2c0.3-0.3,0.6-0.4,1-0.4s0.8,0.1,1,0.4s0.4,0.7,0.4,1.2v0.9
				c0,0.5-0.1,0.9-0.4,1.2s-0.6,0.4-1,0.4s-0.8-0.1-1-0.4C201,22.5,200.9,22.1,200.9,21.6z M202,20.5v1.3c0,0.2,0.1,0.4,0.3,0.4
				c0.2,0,0.3-0.1,0.3-0.4v-1.3c0-0.2-0.1-0.4-0.3-0.4C202.1,20.1,202,20.2,202,20.5z"/>
			<path class="st0" d="M205.7,19.1c0.3,0,0.5,0.1,0.7,0.3s0.3,0.5,0.3,0.7c0,0.3-0.1,0.5-0.3,0.7c-0.2,0.2-0.5,0.3-0.7,0.3
				c-0.3,0-0.5-0.1-0.7-0.3c-0.2-0.2-0.3-0.5-0.3-0.7c0-0.3,0.1-0.5,0.3-0.7S205.4,19.1,205.7,19.1z M205.7,19.7
				c-0.1,0-0.2,0-0.3,0.1s-0.1,0.2-0.1,0.3s0,0.2,0.1,0.3s0.2,0.1,0.3,0.1s0.2,0,0.3-0.1s0.1-0.2,0.1-0.3s0-0.2-0.1-0.3
				S205.9,19.7,205.7,19.7z M208,19.1l-1.6,4h-0.4l1.6-4H208z M208.4,21.1c0.3,0,0.5,0.1,0.7,0.3s0.3,0.5,0.3,0.7s-0.1,0.5-0.3,0.7
				s-0.5,0.3-0.7,0.3c-0.3,0-0.5-0.1-0.7-0.3s-0.3-0.5-0.3-0.7s0.1-0.5,0.3-0.7S208.1,21.1,208.4,21.1z M208.4,21.7
				c-0.1,0-0.2,0-0.3,0.1S208,22,208,22.1c0,0.1,0,0.2,0.1,0.3s0.2,0.1,0.3,0.1s0.2,0,0.3-0.1s0.1-0.2,0.1-0.3c0-0.1,0-0.2-0.1-0.3
				S208.6,21.7,208.4,21.7z"/>
		</g>
	</g>
</g>
<g>
	
		<image style="overflow:visible;opacity:0.75;" width="88" height="55" xlink:href="B58600F9.png"  transform="matrix(0.24 0 0 0.24 209.5668 17.4966)">
	</image>
	<g>
		<g>
			<path class="st3" d="M216.8,19.1v4h-1.1v-3.1l-0.5,1h0.2V22h-1.6l1.2-2.8H216.8z"/>
			<path class="st3" d="M217.7,21.6v-0.9c0-0.5,0.1-0.9,0.4-1.2c0.3-0.3,0.6-0.4,1-0.4s0.8,0.1,1,0.4s0.4,0.7,0.4,1.2v0.9
				c0,0.5-0.1,0.9-0.4,1.2s-0.6,0.4-1,0.4s-0.8-0.1-1-0.4C217.8,22.5,217.7,22.1,217.7,21.6z M218.8,20.5v1.3c0,0.2,0.1,0.4,0.3,0.4
				c0.2,0,0.3-0.1,0.3-0.4v-1.3c0-0.2-0.1-0.4-0.3-0.4C218.9,20.1,218.8,20.2,218.8,20.5z"/>
			<path class="st3" d="M222.5,19.1c0.3,0,0.5,0.1,0.7,0.3s0.3,0.5,0.3,0.7c0,0.3-0.1,0.5-0.3,0.7c-0.2,0.2-0.5,0.3-0.7,0.3
				c-0.3,0-0.5-0.1-0.7-0.3c-0.2-0.2-0.3-0.5-0.3-0.7c0-0.3,0.1-0.5,0.3-0.7S222.2,19.1,222.5,19.1z M222.5,19.7
				c-0.1,0-0.2,0-0.3,0.1s-0.1,0.2-0.1,0.3s0,0.2,0.1,0.3s0.2,0.1,0.3,0.1s0.2,0,0.3-0.1s0.1-0.2,0.1-0.3s0-0.2-0.1-0.3
				S222.6,19.7,222.5,19.7z M224.8,19.1l-1.6,4h-0.4l1.6-4H224.8z M225.2,21.1c0.3,0,0.5,0.1,0.7,0.3s0.3,0.5,0.3,0.7
				s-0.1,0.5-0.3,0.7s-0.5,0.3-0.7,0.3c-0.3,0-0.5-0.1-0.7-0.3s-0.3-0.5-0.3-0.7s0.1-0.5,0.3-0.7S224.9,21.1,225.2,21.1z
				 M225.2,21.7c-0.1,0-0.2,0-0.3,0.1s-0.1,0.2-0.1,0.3c0,0.1,0,0.2,0.1,0.3s0.2,0.1,0.3,0.1s0.2,0,0.3-0.1s0.1-0.2,0.1-0.3
				c0-0.1,0-0.2-0.1-0.3S225.3,21.7,225.2,21.7z"/>
		</g>
	</g>
</g>
<path class="st0" d="M39.3,75.7L39.3,75.7c-0.6,0-1.1-0.4-1.1-0.9V17.3c0-0.5,0.5-0.9,1.1-0.9h4.8c0.6,0,1.2,0.5,1.1,0.9v53.3
	C45.2,73.4,42.6,75.7,39.3,75.7z"/>
<path class="st1" d="M38.2,74.9c0.7,0.1,1-1.5,1.7-1.4c0,0,0-0.1-0.1-0.1c-0.1-0.2,0-0.4,0.1-0.7c-0.1,0-0.3,0-0.4,0v-0.4
	c-0.4,0-0.5-0.1-0.3-0.4c0-0.1,0-0.1,0-0.2c0-1,0.1-2,0-3c-0.1-0.9-0.1-1.8,0-2.8c0.1-1.4,0.1-2.8,0.1-4.2c0-1-0.1-2.1,0-3.1
	c0-0.3-0.1-0.6,0.1-1c0.2-0.4,0-0.8,0-1.2c0-0.3,0-0.6,0-0.9c0-0.1,0-0.2,0-0.3c0-0.1-0.1-0.3-0.1-0.4c0-0.3,0.2-0.6,0.1-0.8
	c-0.1-0.4,0-0.9-0.1-1.3c0-0.3,0-0.7,0-1c0.1-0.7-0.2-1.4,0-2.2c0.1-0.3,0-0.6,0-1c0-0.5-0.1-1-0.1-1.5c0-0.8,0.1-1.7,0.1-2.5
	c0-0.3-0.1-0.6-0.1-1c0-0.4,0.1-0.7,0.1-1.1c0-0.3-0.2-0.6-0.1-0.8c0.3-0.4,0.1-0.8,0.1-1.1c0-0.6,0.1-1.3,0.1-1.9
	c0-0.2,0-0.4,0-0.6c0-0.3,0-0.6,0-1c-0.2-0.1-0.2-0.3,0-0.6c0,0,0.1-0.1,0.1-0.1c-0.3-0.3,0-0.4,0.3-0.5c-0.3-0.1-0.5-0.1-0.7-0.2
	c0.1-0.4,0.3-0.8,0.4-1.1c0.1-0.4,0.1-0.8-0.1-1.2c-0.1-0.2-0.2-0.4-0.2-0.6c0-0.4,0-0.9,0-1.3c0-1,0-2,0-3.1c0-0.1,0-0.1,0-0.2
	c0.1-0.3-0.3-0.8,0.4-1C39,27,39,26.7,39,26.4c0-0.7,0-1.5,0-2.2c0.2,0,0.4-0.1,0.5-0.1c-0.1-0.1-0.3-0.1-0.3-0.2
	c-0.1-0.2-0.1-0.4-0.1-0.7c0-0.5,0.1-1.1,0.1-1.6c-0.1-0.8,0.1-1.6,0.2-2.4c0-0.2-0.1-0.4-0.2-0.5c0.2-0.2,0.4-0.5,0.5-0.7
	c0.1-0.3,0.1-0.6,0.2-1c0.1,0.1,0.1,0.3,0.2,0.3c0.1-0.2,0.2-0.4,0.4-0.7c0,0-0.1,0-0.2-0.1c0.2-0.1,0.4-0.1,0.6-0.1
	c0,0.2,0,0.3,0.1,0.4c0.3-0.3,0.9,0,1.1-0.4c0.1,0.1,0.2,0.1,0.3,0.2c0.1-0.1,0.1-0.2,0.2-0.2c0.4,0,0.7,0,1.1,0.1
	c0.1,0,0.2,0.1,0.2,0.2c0,0.4,0,0.8,0,1.2c-0.1,0-0.1,0-0.2,0c0-0.2-0.1-0.3-0.1-0.5c0-0.1-0.1-0.1-0.2-0.2c0,0-0.2,0-0.2,0.1
	c-0.1,0.3-0.1,0.6-0.2,0.8c0.3,0,0.5,0,0.7,0c0.1,0,0.1,0,0.2,0c0.1,8.3,0,16.6,0.1,24.9c0,8.3,0.1,16.6,0.1,24.9c0-1.5,0-2.9,0-4.4
	c0-2.6,0-5.2,0-7.7c0-3.2,0-6.3,0-9.5c0-2.5,0-5.1,0-7.6c0-2.6,0-5.1-0.1-7.7c0-2,0-4,0-6c0-2.1,0-4.1,0-6.2c0-0.3,0.1-0.6,0.2-0.9
	c-0.5-0.3-0.1-0.8-0.2-1.4c0.5,0.1,0.9,0.8,1.3,0.9c0-0.1-0.1-0.5-0.1-0.5c-0.2-0.2-0.5-0.4-0.8-0.4c-1.1-0.1-2.3-0.2-3.5-0.2
	c-0.8,0-1.6,0.2-2.4,0.3c-0.4,0.1-0.5,0.2-0.5,0.6c0.1,0.7,0,1.5,0,2.2c0,3.6,0.1,7.2,0.1,10.8c0,5.4,0,10.8,0,16.3
	c0,2.4,0,4.7,0,7.1c0,2.2,0,4.3,0.1,6.5"/>
<path class="st2" d="M28.1,67.2L28.1,67.2c-0.6,0-1.1-0.1-1.1-0.3V50.1c0-0.2,0.5-0.3,1.1-0.3h4.8c0.6,0,1.2,0.1,1.1,0.3v15.6
	C34,66.6,31.4,67.2,28.1,67.2z"/>
<path class="st3" d="M50.6,75.6L50.6,75.6c-0.6,0-1.1-0.4-1.1-0.9V17.3c0-0.5,0.5-0.9,1.1-0.9h4.8c0.6,0,1.2,0.5,1.1,0.9v53.3
	C56.4,73.4,53.8,75.6,50.6,75.6z"/>
<path class="st1" d="M49.7,74.9c0.7,0.1,1-1.5,1.7-1.4c0,0,0-0.1-0.1-0.1c-0.1-0.2,0-0.4,0.1-0.7c-0.1,0-0.3,0-0.4,0v-0.4
	c-0.4,0-0.5-0.1-0.3-0.4c0-0.1,0-0.1,0-0.2c0-1,0.1-2,0-3c-0.1-0.9-0.1-1.8,0-2.8c0.1-1.4,0.1-2.8,0.1-4.2c0-1-0.1-2.1,0-3.1
	c0-0.3-0.1-0.6,0.1-1c0.2-0.4,0-0.8,0-1.2c0-0.3,0-0.6,0-0.9c0-0.1,0-0.2,0-0.3c0-0.1-0.1-0.3-0.1-0.4c0-0.3,0.2-0.6,0.1-0.8
	c-0.1-0.4,0-0.9-0.1-1.3c0-0.3,0-0.7,0-1c0.1-0.7-0.2-1.4,0-2.2c0.1-0.3,0-0.6,0-1c0-0.5-0.1-1-0.1-1.5c0-0.8,0.1-1.7,0.1-2.5
	c0-0.3-0.1-0.6-0.1-1c0-0.4,0.1-0.7,0.1-1.1c0-0.3-0.2-0.6-0.1-0.8c0.3-0.4,0.1-0.8,0.1-1.1c0-0.6,0.1-1.3,0.1-1.9
	c0-0.2,0-0.4,0-0.6c0-0.3,0-0.6,0-1c-0.2-0.1-0.2-0.3,0-0.6c0,0,0.1-0.1,0.1-0.1c-0.3-0.3,0-0.4,0.3-0.5c-0.3-0.1-0.5-0.1-0.7-0.2
	c0.1-0.4,0.3-0.8,0.4-1.1c0.1-0.4,0.1-0.8-0.1-1.2c-0.1-0.2-0.2-0.4-0.2-0.6c0-0.4,0-0.9,0-1.3c0-1,0-2,0-3.1c0-0.1,0-0.1,0-0.2
	c0.1-0.3-0.3-0.8,0.4-1c-0.5-0.2-0.5-0.5-0.5-0.9c0-0.7,0-1.5,0-2.2c0.2,0,0.4-0.1,0.5-0.1c-0.1-0.1-0.3-0.1-0.3-0.2
	c-0.1-0.2-0.1-0.4-0.1-0.7c0-0.5,0.1-1.1,0.1-1.6c-0.1-0.8,0.1-1.6,0.2-2.4c0-0.2-0.1-0.4-0.2-0.5c0.2-0.2,0.4-0.5,0.5-0.7
	c0.1-0.3,0.1-0.6,0.2-1c0.1,0.1,0.1,0.3,0.2,0.3c0.1-0.2,0.2-0.4,0.4-0.7c0,0-0.1,0-0.2-0.1c0.2-0.1,0.4-0.1,0.6-0.1
	c0,0.2,0,0.3,0.1,0.4c0.3-0.3,0.9,0,1.1-0.4c0.1,0.1,0.2,0.1,0.3,0.2c0.1-0.1,0.1-0.2,0.2-0.2c0.4,0,0.7,0,1.1,0.1
	c0.1,0,0.2,0.1,0.2,0.2c0,0.4,0,0.8,0,1.2c-0.1,0-0.1,0-0.2,0c0-0.2-0.1-0.3-0.1-0.5c0-0.1-0.1-0.1-0.2-0.2c0,0-0.2,0-0.2,0.1
	c-0.1,0.3-0.1,0.6-0.2,0.8c0.3,0,0.5,0,0.7,0c0.1,0,0.1,0,0.2,0c0.1,8.3,0,16.6,0.1,24.9c0,8.3,0.1,16.6,0.1,24.9c0-1.5,0-2.9,0-4.4
	c0-2.6,0-5.2,0-7.7c0-3.2,0-6.3,0-9.5c0-2.5,0-5.1,0-7.6c0-2.6,0-5.1-0.1-7.7c0-2,0-4,0-6c0-2.1,0-4.1,0-6.2c0-0.3,0.1-0.6,0.2-0.9
	c-0.5-0.3-0.1-0.8-0.2-1.4c0.5,0.1,0.9,0.8,1.3,0.9c0-0.1-0.1-0.5-0.1-0.5c-0.2-0.2-0.5-0.4-0.8-0.4c-1.1-0.1-2.3-0.2-3.5-0.2
	c-0.8,0-1.6,0.2-2.4,0.3c-0.4,0.1-0.5,0.2-0.5,0.6c0.1,0.7,0,1.5,0,2.2c0,3.6,0.1,7.2,0.1,10.8c0,5.4,0,10.8,0,16.2
	c0,2.4,0,4.7,0,7.1c0,2.2,0,4.3,0.1,6.5"/>
<path class="st4" d="M15.2,75.4L15.2,75.4l0-15.4H19c1.6,0,2.8,1.3,2.8,2.8v5.9C21.8,72.5,18.9,75.4,15.2,75.4z"/>
<g>
	<g>
		<path class="st1" d="M14.9,75.4c0.7,0,1-0.4,1.7-0.4c0,0,0,0-0.1,0c-0.1,0,0-0.1,0.1-0.2c-0.1,0-0.3,0-0.4,0v-0.1
			c-0.4,0-0.5,0-0.3-0.1c0,0,0,0,0,0c0-0.3,0.1-0.5,0-0.8c-0.1-0.2-0.1-0.5,0-0.7c0.1-0.4,0.1-0.7,0.1-1.1c0-0.3-0.1-0.5,0-0.8
			c0-0.1-0.1-0.2,0.1-0.3c0.2-0.1,0-0.2,0-0.3c0-0.1,0-0.2,0-0.2c0,0,0-0.1,0-0.1c0,0-0.1-0.1-0.1-0.1c0-0.1,0.2-0.1,0.1-0.2
			c-0.1-0.1,0-0.2-0.1-0.3c0-0.1,0-0.2,0-0.3c0.1-0.2-0.2-0.4,0-0.6c0.1-0.1,0-0.2,0-0.3c0-0.1-0.1-0.3-0.1-0.4
			c0-0.2,0.1-0.4,0.1-0.7c0-0.1-0.1-0.2-0.1-0.3c0-0.1,0.1-0.2,0.1-0.3c0-0.1-0.2-0.2-0.1-0.2c0.3-0.1,0.1-0.2,0.1-0.3
			c0-0.2,0.1-0.3,0.1-0.5c0-0.1,0-0.1,0-0.2c0-0.1,0-0.2,0-0.3c-0.2,0-0.2-0.1,0-0.1c0,0,0.1,0,0.1,0c-0.3-0.1,0-0.1,0.3-0.1
			c-0.3,0-0.5,0-0.7,0c0.1-0.1,0.3-0.2,0.4-0.3c0.1-0.1,0.1-0.2-0.1-0.3c-0.1,0-0.2-0.1-0.2-0.2c0-0.1,0-0.2,0-0.3
			c0-0.3,0-0.5,0-0.8c0,0,0,0,0,0c0.1-0.1-0.3-0.2,0.4-0.3c-0.5-0.1-0.5-0.1-0.5-0.2c0-0.2,0-0.4,0-0.6c0.2,0,0.4,0,0.5,0
			c-0.1,0-0.3,0-0.3-0.1c-0.1-0.1-0.1-0.1-0.1-0.2c0-0.1,0.1-0.3,0.1-0.4c-0.1-0.2,0.1-0.4,0.2-0.6c0,0-0.1-0.1-0.2-0.1
			c0.2-0.1,0.4-0.1,0.5-0.2c0.1-0.1,0.1-0.2,0.2-0.3c0.1,0,0.1,0.1,0.2,0.1c0.1,0,0.2-0.1,0.4-0.2c0,0-0.1,0-0.2,0
			c0.2,0,0.4,0,0.6,0c0,0,0,0.1,0.1,0.1c0.3-0.1,0.9,0,1.1-0.1c0.1,0,0.2,0,0.3,0c0.1,0,0.1,0,0.2,0c0.4,0,0.7,0,1.1,0
			c0.1,0,0.2,0,0.2,0c0,0.1,0,0.2,0,0.3c-0.1,0-0.1,0-0.2,0c0,0-0.1-0.1-0.1-0.1c0,0-0.1,0-0.2,0c0,0-0.2,0-0.2,0
			c-0.1,0.1-0.1,0.2-0.2,0.2c0.3,0,0.5,0,0.7,0c0.1,0,0.1,0,0.2,0c0.1,2.2,0,4.4,0.1,6.6c0,2.2,0.1,2.3,0.2,4.4c0-0.4,0,0,0-0.4
			c0-0.7,0,0,0-0.7c0-0.8,0-1.7,0-2.5c0-0.7,0-1.3,0-2c0-0.7,0-1.3-0.1-2c0-0.5,0-1.1,0-1.6c0-0.5,0-1.1,0-1.6
			c0-0.1,0.1-0.2,0.2-0.2c-0.5-0.1-0.1-0.2-0.2-0.4c0.5,0,0.9,0.2,1.3,0.2c0,0-0.1-0.1-0.1-0.1c-0.2,0-0.5-0.1-0.8-0.1
			c-1.1,0-2.3-0.1-3.5-0.1c-0.8,0-1.6,0-2.4,0.1c-0.4,0-0.5,0.1-0.5,0.2c0.1,0.2,0,0.4,0,0.6c0,1,0.1,1.9,0.1,2.9c0,1.4,0,2.9,0,4.3
			c0,0.6,0,1.2,0,1.9c0,0.6,0,1.1,0.1,1.7"/>
	</g>
</g>
<path class="st2" d="M27.4,75.3L27.4,75.3l0-13.1h3.8c1.6,0,2.8,1.3,2.8,2.8v3.6C34,72.3,31,75.3,27.4,75.3z"/>
<path class="st1" d="M27.1,75.3c0.7,0,1-0.7,1.7-0.6c0,0,0,0-0.1,0c-0.1-0.1,0-0.2,0.1-0.3c-0.1,0-0.3,0-0.4,0v-0.2
	c-0.4,0-0.5-0.1-0.3-0.2c0,0,0-0.1,0-0.1c0-0.4,0.1-0.9,0-1.3c-0.1-0.4-0.1-0.8,0-1.2c0.1-0.6,0.1-1.2,0.1-1.8c0-0.4-0.1-0.9,0-1.3
	c0-0.1-0.1-0.3,0.1-0.4c0.2-0.2,0-0.3,0-0.5c0-0.1,0-0.3,0-0.4c0,0,0-0.1,0-0.1c0-0.1-0.1-0.1-0.1-0.2c0-0.1,0.2-0.2,0.1-0.3
	c-0.1-0.2,0-0.4-0.1-0.6c0-0.1,0-0.3,0-0.5c0.1-0.3-0.2-0.6,0-0.9c0.1-0.1,0-0.3,0-0.4c0-0.2-0.1-0.4-0.1-0.6c0-0.4,0.1-0.7,0.1-1.1
	c0-0.1-0.1-0.3-0.1-0.4c0-0.2,0.1-0.3,0.1-0.5c0-0.1-0.2-0.3-0.1-0.3c0.3-0.2,0.1-0.3,0.1-0.5c0-0.3,0.1-0.6,0.1-0.8
	c0-0.1,0-0.2,0-0.3c0-0.1,0-0.3,0-0.5c-0.2,0-0.2-0.1,0-0.2c0,0,0.1,0,0.1-0.1c-0.3-0.1,0-0.2,0.3-0.2c-0.3,0-0.5,0-0.7-0.1
	c0.1-0.2,0.3-0.3,0.4-0.5c0.1-0.2,0.1-0.4-0.1-0.5C28.1,57.2,28,57.1,28,57c0-0.2,0-0.4,0-0.6c0-0.4,0-0.9,0-1.3c0,0,0-0.1,0-0.1
	c0.1-0.1-0.3-0.3,0.4-0.4c-0.5-0.1-0.5-0.2-0.5-0.4c0-0.3,0-0.6,0-1c0.2,0,0.4,0,0.5,0c-0.1,0-0.3-0.1-0.3-0.1
	C28,53,28,52.9,28,52.8c0-0.2,0.1-0.5,0.1-0.7c-0.1-0.4,0.1-0.7,0.2-1.1c0-0.1-0.1-0.2-0.2-0.2c0.2-0.1,0.4-0.2,0.5-0.3
	c0.1-0.1,0.1-0.3,0.2-0.4c0.1,0.1,0.1,0.1,0.2,0.1c0.1-0.1,0.2-0.2,0.4-0.3c0,0-0.1,0-0.2,0c0.2,0,0.4,0,0.6-0.1
	c0,0.1,0,0.1,0.1,0.2c0.3-0.1,0.9,0,1.1-0.2c0.1,0,0.2,0,0.3,0.1c0.1,0,0.1-0.1,0.2-0.1c0.4,0,0.7,0,1.1,0c0.1,0,0.2,0,0.2,0.1
	c0,0.2,0,0.3,0,0.5c-0.1,0-0.1,0-0.2,0c0-0.1-0.1-0.1-0.1-0.2c0,0-0.1-0.1-0.2-0.1c0,0-0.2,0-0.2,0c-0.1,0.1-0.1,0.3-0.2,0.4
	c0.3,0,0.5,0,0.7,0c0.1,0,0.1,0,0.2,0c0.1,3.6,0,7.2,0.1,10.8c0,3.6,0.1,7.2,0.1,10.8c0-0.6,0-1.3,0-1.9c0-1.1,0-2.2,0-3.4
	c0-1.4,0-2.7,0-4.1c0-1.1,0-2.2,0-3.3c0-1.1,0-2.2-0.1-3.3c0-0.9,0-1.7,0-2.6c0-0.9,0-1.8,0-2.7c0-0.1,0.1-0.2,0.2-0.4
	c-0.5-0.1-0.1-0.4-0.2-0.6c0.5,0.1,0.9,0.3,1.3,0.4c0,0-0.1-0.2-0.1-0.2c-0.2-0.1-0.5-0.2-0.8-0.2c-1.1,0-2.3-0.1-3.5-0.1
	c-0.8,0-1.6,0.1-2.4,0.1c-0.4,0-0.5,0.1-0.5,0.3c0.1,0.3,0,0.6,0,1c0,1.6,0.1,3.1,0.1,4.7c0,2.4,0,4.7,0,7.1c0,1,0,2,0,3.1
	c0,0.9,0,1.9,0.1,2.8"/>
<path class="st5" d="M4.2,75.6L4.2,75.6c-0.4,0-0.8-0.3-0.8-0.8V69c0-0.4,0.3-0.8,0.8-0.8h5.6c0.4,0,0.8,0.3,0.8,0.8v0.2
	C10.6,72.7,7.7,75.6,4.2,75.6z"/>
<path class="st1" d="M3.4,75.6c0.7,0,1-0.2,1.7-0.2c0,0,0,0-0.1,0c-0.1,0,0-0.1,0.1-0.1c-0.1,0-0.3,0-0.4,0v-0.1
	c-0.4,0-0.5,0-0.3-0.1c0,0,0,0,0,0c0-0.1,0.1-0.2,0-0.4c-0.1-0.1-0.1-0.2,0-0.3c0.1-0.2,0.1-0.3,0.1-0.5c0-0.1-0.1-0.3,0-0.4
	c0,0-0.1-0.1,0.1-0.1c0.2,0,0-0.1,0-0.2c0,0,0-0.1,0-0.1c0,0,0,0,0,0c0,0-0.1,0-0.1-0.1c0,0,0.2-0.1,0.1-0.1c-0.1-0.1,0-0.1-0.1-0.2
	c0,0,0-0.1,0-0.1c0.1-0.1-0.2-0.2,0-0.3c0.1,0,0-0.1,0-0.1c0-0.1-0.1-0.1-0.1-0.2c0-0.1,0.1-0.2,0.1-0.3c0,0-0.1-0.1-0.1-0.1
	c0,0,0.1-0.1,0.1-0.1c0,0-0.2-0.1-0.1-0.1c0.3,0,0.1-0.1,0.1-0.1c0-0.1,0.1-0.2,0.1-0.2c0,0,0-0.1,0-0.1c0,0,0-0.1,0-0.1
	c-0.2,0-0.2,0,0-0.1c0,0,0.1,0,0.1,0c-0.3,0,0,0,0.3-0.1c-0.3,0-0.5,0-0.7,0c0.1-0.1,0.3-0.1,0.4-0.1c0.1-0.1,0.1-0.1-0.1-0.2
	c-0.1,0-0.2,0-0.2-0.1c0-0.1,0-0.1,0-0.2c0-0.1,0-0.3,0-0.4c0,0,0,0,0,0c0.1,0-0.3-0.1,0.4-0.1c-0.5,0-0.5-0.1-0.5-0.1
	c0-0.1,0-0.2,0-0.3c0.2,0,0.4,0,0.5,0c-0.1,0-0.3,0-0.3,0c-0.1,0-0.1-0.1-0.1-0.1c0-0.1,0.1-0.1,0.1-0.2c-0.1-0.1,0.1-0.2,0.2-0.3
	c0,0-0.1,0-0.2-0.1c0.2,0,0.4-0.1,0.5-0.1c0.1,0,0.1-0.1,0.2-0.1c0.1,0,0.1,0,0.2,0c0.1,0,0.2-0.1,0.4-0.1c0,0-0.1,0-0.2,0
	c0.2,0,0.4,0,0.6,0c0,0,0,0,0.1,0.1c0.3,0,0.9,0,1.1-0.1c0.1,0,0.2,0,0.3,0c0.1,0,0.1,0,0.2,0c0.4,0,0.7,0,1.1,0c0.1,0,0.2,0,0.2,0
	c0,0,0,0.1,0,0.1c-0.1,0-0.1,0-0.2,0c0,0-0.1,0-0.1-0.1c0,0-0.1,0-0.2,0c0,0-0.2,0-0.2,0c-0.1,0-0.1,0.1-0.2,0.1c0.3,0,0.5,0,0.7,0
	c0.1,0,0.1,0,0.2,0c0.1,1,0,2.1,0.1,3.1c0,1,0,1.1,0.1,2.1c0-0.2,0-0.9,0-1.1c0-0.3,0,0.9,0,0.6c0-0.4,0-0.8,0-1.2c0-0.3,0-0.6,0-1
	c0-0.3,0-0.6-0.1-1c0-0.3,0-0.5,0-0.8c0-0.3,0-0.5,0-0.8c0,0,0.1-0.1,0.2-0.1c-0.5,0-0.1-0.1-0.2-0.2c0.5,0,0.9,0.1,1.3,0.1
	c0,0-0.1-0.1-0.1-0.1c-0.2,0-0.5-0.1-0.8-0.1c-1.1,0-2.3,0-3.5,0c-0.8,0-1.6,0-2.4,0c-0.4,0-0.5,0-0.5,0.1c0.1,0.1,0,0.2,0,0.3
	c0,0.5,0.1,0.9,0.1,1.4c0,0.7,0,1.4,0,2c0,0.3,0,0.6,0,0.9c0,0.3,0,0.5,0.1,0.8"/>
<g>
	
		<image style="overflow:visible;opacity:0.75;" width="263" height="327" xlink:href="B58600FA.png"  transform="matrix(0.24 0 0 0.24 73.7268 14.6166)">
	</image>
	<g>
		<g>
			<path class="st3" d="M79.8,17.9v0.8h-0.3v0.8h-0.9v-2c0-0.4,0.1-0.7,0.3-0.9c0.2-0.2,0.5-0.3,0.9-0.3c0.4,0,0.6,0.1,0.8,0.3
				s0.3,0.5,0.3,0.9v2h-0.9v-2c0-0.1,0-0.2,0-0.3s-0.1-0.1-0.2-0.1c-0.1,0-0.2,0.1-0.2,0.3v0.4H79.8z"/>
			<path class="st3" d="M83,18.4l0.9,0c0,0.3-0.1,0.6-0.4,0.8c-0.2,0.2-0.5,0.3-0.8,0.3c-0.3,0-0.6-0.1-0.9-0.4
				c-0.2-0.2-0.4-0.5-0.4-0.9c0-0.3,0.1-0.6,0.4-0.8s0.5-0.3,0.8-0.3c0.3,0,0.5,0.1,0.8,0.3c0.2,0.2,0.4,0.4,0.4,0.7l-0.9,0
				c-0.1-0.1-0.2-0.1-0.3-0.1c-0.1,0-0.2,0-0.2,0.1c-0.1,0.1-0.1,0.1-0.1,0.2c0,0.1,0,0.2,0.1,0.3s0.2,0.1,0.3,0.1
				C82.9,18.7,83,18.6,83,18.4z"/>
			<path class="st3" d="M85.9,18.4l0.9,0c0,0.3-0.1,0.6-0.4,0.8c-0.2,0.2-0.5,0.3-0.8,0.3c-0.3,0-0.6-0.1-0.9-0.4
				c-0.2-0.2-0.4-0.5-0.4-0.9c0-0.3,0.1-0.6,0.4-0.8c0.2-0.2,0.5-0.3,0.9-0.3c0.3,0,0.5,0.1,0.8,0.3s0.4,0.4,0.4,0.7l-0.9,0
				c-0.1-0.1-0.2-0.1-0.3-0.1c-0.1,0-0.2,0-0.2,0.1c-0.1,0.1-0.1,0.1-0.1,0.2c0,0.1,0,0.2,0.1,0.3c0.1,0.1,0.2,0.1,0.3,0.1
				C85.7,18.7,85.9,18.6,85.9,18.4z"/>
			<path class="st3" d="M88.3,17.2v2.3h-0.9v-2.3H88.3z M87.8,16.2c0.1,0,0.2,0,0.3,0.1c0.1,0.1,0.1,0.2,0.1,0.3
				c0,0.1,0,0.2-0.1,0.3C88.1,17,88,17,87.8,17c-0.1,0-0.2,0-0.3-0.1c-0.1-0.1-0.1-0.2-0.1-0.3c0-0.1,0-0.2,0.1-0.3
				C87.6,16.2,87.7,16.2,87.8,16.2z"/>
			<path class="st3" d="M90.4,16.3h0.9v1.9c0,0.4-0.1,0.6-0.3,0.9c-0.1,0.1-0.2,0.2-0.4,0.3c-0.2,0.1-0.3,0.1-0.5,0.1
				c-0.3,0-0.6-0.1-0.9-0.3c-0.2-0.2-0.4-0.5-0.4-0.9c0-0.3,0.1-0.6,0.4-0.8c0.2-0.2,0.5-0.4,0.8-0.4c0.1,0,0.1,0,0.2,0v1
				c-0.1-0.1-0.1-0.1-0.2-0.1c-0.1,0-0.2,0-0.2,0.1c-0.1,0.1-0.1,0.1-0.1,0.2c0,0.1,0,0.2,0.1,0.2s0.1,0.1,0.2,0.1
				c0.2,0,0.3-0.2,0.3-0.5V16.3z"/>
			<path class="st3" d="M94.3,18.5h-1.3c0-0.1,0-0.1,0-0.2c0-0.1,0-0.2,0-0.2h0.4c0-0.2-0.1-0.3-0.3-0.3c-0.1,0-0.2,0-0.3,0.1
				c-0.1,0.1-0.1,0.2-0.1,0.4c0,0.1,0,0.3,0.1,0.4c0.1,0.1,0.2,0.1,0.3,0.1c0.1,0,0.2,0,0.3-0.1l0.5,0.6c-0.2,0.2-0.5,0.3-0.8,0.3
				c-0.3,0-0.6-0.1-0.9-0.3c-0.2-0.2-0.3-0.5-0.3-0.9c0-0.3,0.1-0.6,0.4-0.9s0.5-0.3,0.9-0.3c0.3,0,0.6,0.1,0.8,0.3
				c0.2,0.2,0.3,0.5,0.3,0.8C94.3,18.4,94.3,18.4,94.3,18.5z"/>
			<path class="st3" d="M96.9,19.5H96v-1.3c0-0.1-0.1-0.2-0.2-0.2c-0.1,0-0.2,0.1-0.2,0.2v1.3h-0.9v-1.3c0-0.3,0.1-0.6,0.3-0.8
				s0.4-0.3,0.7-0.3c0.3,0,0.6,0.1,0.8,0.4c0.2,0.2,0.2,0.4,0.2,0.8V19.5z"/>
			<path class="st3" d="M98.4,16.3v0.9h0.4v0.9h-0.4c0,0.2,0,0.3,0.1,0.4c0.1,0.1,0.2,0.1,0.3,0.1v0.9c0,0-0.1,0-0.1,0
				c-0.2,0-0.4,0-0.6-0.1c-0.2-0.1-0.3-0.2-0.4-0.4c-0.1-0.2-0.2-0.5-0.2-0.8v-1.9H98.4z"/>
			<path class="st3" d="M103.2,16.3l-1.4,3.3l-1.4-3.3h1.1l0.3,1l0.3-1H103.2z"/>
			<path class="st3" d="M104.9,18.6v0.9c-0.1,0-0.1,0-0.2,0c-0.3,0-0.6-0.1-0.9-0.3s-0.3-0.5-0.3-0.9c0-0.3,0.1-0.6,0.4-0.9
				c0.2-0.2,0.5-0.3,0.9-0.3c0.4,0,0.7,0.1,0.9,0.3c0.2,0.2,0.3,0.5,0.3,0.9v1.1H105v-1.1c0-0.1,0-0.2-0.1-0.3
				c-0.1-0.1-0.1-0.1-0.2-0.1c-0.1,0-0.2,0-0.2,0.1s-0.1,0.1-0.1,0.2c0,0.1,0,0.2,0.1,0.2c0.1,0.1,0.1,0.1,0.2,0.1
				C104.8,18.7,104.8,18.7,104.9,18.6z"/>
			<path class="st3" d="M108.1,17.2v0.9c-0.1,0-0.2,0-0.3,0.1c0,0-0.1,0.1-0.1,0.3c0,0.4-0.2,0.8-0.5,0.9c-0.2,0.1-0.4,0.1-0.7,0.1
				h-0.1v-0.9h0c0.1,0,0.2,0,0.3-0.1c0.1-0.1,0.1-0.2,0.1-0.3c0-0.2,0-0.4,0.1-0.5c0-0.1,0.1-0.2,0.2-0.3c0.2-0.2,0.4-0.2,0.7-0.2
				H108.1z"/>
			<path class="st3" d="M110,18.4l0.9,0c0,0.3-0.1,0.6-0.4,0.8c-0.2,0.2-0.5,0.3-0.8,0.3c-0.3,0-0.6-0.1-0.9-0.4
				c-0.2-0.2-0.4-0.5-0.4-0.9c0-0.3,0.1-0.6,0.4-0.8c0.2-0.2,0.5-0.3,0.9-0.3c0.3,0,0.5,0.1,0.8,0.3s0.4,0.4,0.4,0.7l-0.9,0
				c-0.1-0.1-0.2-0.1-0.3-0.1c-0.1,0-0.2,0-0.2,0.1c-0.1,0.1-0.1,0.1-0.1,0.2c0,0.1,0,0.2,0.1,0.3c0.1,0.1,0.2,0.1,0.3,0.1
				C109.8,18.7,110,18.6,110,18.4z"/>
			<path class="st3" d="M111.5,17.2h0.9v1.3c0,0.1,0.1,0.2,0.2,0.2c0.1,0,0.2-0.1,0.2-0.2v-1.3h0.9v1.3c0,0.3-0.1,0.6-0.3,0.8
				s-0.4,0.3-0.7,0.3c-0.3,0-0.6-0.1-0.8-0.4c-0.2-0.2-0.2-0.4-0.2-0.8V17.2z"/>
			<path class="st3" d="M115.2,16.3v3.2h-0.9v-3.2H115.2z"/>
			<path class="st3" d="M117.2,18.6v0.9c-0.1,0-0.1,0-0.2,0c-0.3,0-0.6-0.1-0.9-0.3s-0.3-0.5-0.3-0.9c0-0.3,0.1-0.6,0.4-0.9
				c0.2-0.2,0.5-0.3,0.9-0.3c0.4,0,0.7,0.1,0.9,0.3c0.2,0.2,0.3,0.5,0.3,0.9v1.1h-0.9v-1.1c0-0.1,0-0.2-0.1-0.3
				c-0.1-0.1-0.1-0.1-0.2-0.1c-0.1,0-0.2,0-0.2,0.1s-0.1,0.1-0.1,0.2c0,0.1,0,0.2,0.1,0.2c0.1,0.1,0.1,0.1,0.2,0.1
				C117,18.7,117.1,18.7,117.2,18.6z"/>
			<path class="st3" d="M119.8,17.2v2.3h-0.9v-2.3H119.8z M119.4,16.2c0.1,0,0.2,0,0.3,0.1c0.1,0.1,0.1,0.2,0.1,0.3
				c0,0.1,0,0.2-0.1,0.3c-0.1,0.1-0.2,0.1-0.3,0.1c-0.1,0-0.2,0-0.3-0.1c-0.1-0.1-0.1-0.2-0.1-0.3c0-0.1,0-0.2,0.1-0.3
				C119.1,16.2,119.2,16.2,119.4,16.2z"/>
			<path class="st3" d="M121.8,17.2v0.9c-0.1,0-0.1-0.1-0.2-0.1c-0.2,0-0.2,0.1-0.2,0.4v1.1h-0.9v-1.3c0-0.3,0.1-0.6,0.3-0.8
				c0.2-0.2,0.4-0.3,0.7-0.3C121.6,17.1,121.7,17.2,121.8,17.2z"/>
			<path class="st3" d="M124.6,18.5h-1.3c0-0.1,0-0.1,0-0.2c0-0.1,0-0.2,0-0.2h0.4c0-0.2-0.1-0.3-0.3-0.3c-0.1,0-0.2,0-0.3,0.1
				c-0.1,0.1-0.1,0.2-0.1,0.4c0,0.1,0,0.3,0.1,0.4c0.1,0.1,0.2,0.1,0.3,0.1c0.1,0,0.2,0,0.3-0.1l0.5,0.6c-0.2,0.2-0.5,0.3-0.8,0.3
				c-0.3,0-0.6-0.1-0.9-0.3c-0.2-0.2-0.3-0.5-0.3-0.9c0-0.3,0.1-0.6,0.4-0.9s0.5-0.3,0.9-0.3c0.3,0,0.6,0.1,0.8,0.3
				c0.2,0.2,0.3,0.5,0.3,0.8C124.6,18.4,124.6,18.4,124.6,18.5z"/>
			<path class="st3" d="M80.8,22.3l1,0c-0.1,0.5-0.2,0.9-0.5,1.2c-0.3,0.3-0.7,0.4-1.1,0.4c-0.5,0-0.9-0.2-1.2-0.5
				c-0.3-0.3-0.5-0.7-0.5-1.2c0-0.5,0.2-0.9,0.5-1.2c0.3-0.3,0.7-0.5,1.2-0.5c0.5,0,0.9,0.2,1.2,0.5c0.2,0.2,0.4,0.5,0.5,0.9l-1,0.1
				c-0.1-0.3-0.3-0.5-0.6-0.5c-0.2,0-0.4,0.1-0.5,0.2c-0.1,0.1-0.2,0.3-0.2,0.5c0,0.2,0.1,0.4,0.2,0.5c0.1,0.1,0.3,0.2,0.5,0.2
				c0.2,0,0.4-0.1,0.5-0.2C80.7,22.6,80.7,22.5,80.8,22.3z"/>
			<path class="st3" d="M84.6,22.8h-1.3c0-0.1,0-0.1,0-0.2c0-0.1,0-0.2,0-0.2h0.4c0-0.2-0.1-0.3-0.3-0.3c-0.1,0-0.2,0-0.3,0.1
				c-0.1,0.1-0.1,0.2-0.1,0.4c0,0.1,0,0.3,0.1,0.4c0.1,0.1,0.2,0.1,0.3,0.1c0.1,0,0.2,0,0.3-0.1l0.5,0.6c-0.2,0.2-0.5,0.3-0.8,0.3
				c-0.3,0-0.6-0.1-0.9-0.3c-0.2-0.2-0.3-0.5-0.3-0.9c0-0.3,0.1-0.6,0.4-0.9s0.5-0.3,0.9-0.3c0.3,0,0.6,0.1,0.8,0.3
				c0.2,0.2,0.3,0.5,0.3,0.8C84.6,22.7,84.6,22.7,84.6,22.8z M83.7,20.7h0.5l-0.5,0.5h-0.5L83.7,20.7z"/>
			<path class="st3" d="M86.5,21.5v0.9c-0.1,0-0.1-0.1-0.2-0.1c-0.2,0-0.2,0.1-0.2,0.4v1.1h-0.9v-1.3c0-0.3,0.1-0.6,0.3-0.8
				c0.2-0.2,0.4-0.3,0.7-0.3C86.3,21.4,86.4,21.4,86.5,21.5z"/>
			<path class="st3" d="M89.3,22.8h-1.3c0-0.1,0-0.1,0-0.2c0-0.1,0-0.2,0-0.2h0.4c0-0.2-0.1-0.3-0.3-0.3c-0.1,0-0.2,0-0.3,0.1
				c-0.1,0.1-0.1,0.2-0.1,0.4c0,0.1,0,0.3,0.1,0.4c0.1,0.1,0.2,0.1,0.3,0.1c0.1,0,0.2,0,0.3-0.1l0.5,0.6c-0.2,0.2-0.5,0.3-0.8,0.3
				c-0.3,0-0.6-0.1-0.9-0.3c-0.2-0.2-0.3-0.5-0.3-0.9c0-0.3,0.1-0.6,0.4-0.9s0.5-0.3,0.9-0.3c0.3,0,0.6,0.1,0.8,0.3
				c0.2,0.2,0.3,0.5,0.3,0.8C89.3,22.7,89.3,22.7,89.3,22.8z M88.3,20.7h0.5l-0.5,0.5h-0.5L88.3,20.7z"/>
			<path class="st3" d="M90.7,20.6v1.9c0,0.3,0.1,0.5,0.3,0.5c0.1,0,0.2,0,0.2-0.1s0.1-0.1,0.1-0.2c0-0.1,0-0.2-0.1-0.2
				c-0.1-0.1-0.1-0.1-0.2-0.1c-0.1,0-0.1,0-0.2,0.1v-1c0.1,0,0.2,0,0.2,0c0.3,0,0.6,0.1,0.8,0.4c0.2,0.2,0.3,0.5,0.3,0.8
				c0,0.3-0.1,0.6-0.4,0.9c-0.2,0.2-0.5,0.3-0.9,0.3c-0.2,0-0.3,0-0.5-0.1c-0.2-0.1-0.3-0.2-0.4-0.3c-0.2-0.2-0.3-0.5-0.3-0.9v-1.9
				H90.7z"/>
			<path class="st3" d="M94.1,21.5v0.9c-0.1,0-0.1-0.1-0.2-0.1c-0.2,0-0.2,0.1-0.2,0.4v1.1h-0.9v-1.3c0-0.3,0.1-0.6,0.3-0.8
				c0.2-0.2,0.4-0.3,0.7-0.3C93.9,21.4,94,21.4,94.1,21.5z"/>
			<path class="st3" d="M95.9,22.9v0.9c-0.1,0-0.1,0-0.2,0c-0.3,0-0.6-0.1-0.9-0.3s-0.3-0.5-0.3-0.9c0-0.3,0.1-0.6,0.4-0.9
				c0.2-0.2,0.5-0.3,0.9-0.3c0.4,0,0.7,0.1,0.9,0.3c0.2,0.2,0.3,0.5,0.3,0.9v1.1H96v-1.1c0-0.1,0-0.2-0.1-0.3
				c-0.1-0.1-0.1-0.1-0.2-0.1c-0.1,0-0.2,0-0.2,0.1s-0.1,0.1-0.1,0.2c0,0.1,0,0.2,0.1,0.2c0.1,0.1,0.1,0.1,0.2,0.1
				C95.7,23,95.8,23,95.9,22.9z"/>
			<path class="st3" d="M98.5,20.6v3.2h-0.9v-3.2H98.5z"/>
			<path class="st0" d="M80.8,30.8l1,0c-0.1,0.5-0.2,0.9-0.5,1.2c-0.3,0.3-0.7,0.4-1.1,0.4c-0.5,0-0.9-0.2-1.2-0.5
				c-0.3-0.3-0.5-0.7-0.5-1.2c0-0.5,0.2-0.9,0.5-1.2c0.3-0.3,0.7-0.5,1.2-0.5c0.5,0,0.9,0.2,1.2,0.5c0.2,0.2,0.4,0.5,0.5,0.9l-1,0.1
				c-0.1-0.3-0.3-0.5-0.6-0.5c-0.2,0-0.4,0.1-0.5,0.2c-0.1,0.1-0.2,0.3-0.2,0.5c0,0.2,0.1,0.4,0.2,0.5c0.1,0.1,0.3,0.2,0.5,0.2
				c0.2,0,0.4-0.1,0.5-0.2C80.7,31.2,80.7,31.1,80.8,30.8z"/>
			<path class="st0" d="M83.7,31.5v0.9c-0.1,0-0.1,0-0.2,0c-0.3,0-0.6-0.1-0.9-0.3c-0.2-0.2-0.3-0.5-0.3-0.9c0-0.3,0.1-0.6,0.4-0.9
				c0.2-0.2,0.5-0.3,0.9-0.3c0.4,0,0.7,0.1,0.9,0.3c0.2,0.2,0.3,0.5,0.3,0.9v1.1h-0.9v-1.1c0-0.1,0-0.2-0.1-0.3
				c-0.1-0.1-0.1-0.1-0.2-0.1c-0.1,0-0.2,0-0.2,0.1s-0.1,0.1-0.1,0.2c0,0.1,0,0.2,0.1,0.2c0.1,0.1,0.1,0.1,0.2,0.1
				C83.5,31.6,83.6,31.6,83.7,31.5z"/>
			<path class="st0" d="M86.7,30V31c-0.1,0-0.1-0.1-0.2-0.1c-0.2,0-0.2,0.1-0.2,0.4v1.1h-0.9v-1.3c0-0.3,0.1-0.6,0.3-0.8
				c0.2-0.2,0.4-0.3,0.7-0.3C86.5,30,86.5,30,86.7,30z"/>
			<path class="st0" d="M88.6,29.2h0.9v1.9c0,0.4-0.1,0.6-0.3,0.9c-0.1,0.1-0.2,0.2-0.4,0.3c-0.2,0.1-0.3,0.1-0.5,0.1
				c-0.3,0-0.6-0.1-0.9-0.3c-0.2-0.2-0.4-0.5-0.4-0.9c0-0.3,0.1-0.6,0.4-0.8c0.2-0.2,0.5-0.4,0.8-0.4c0.1,0,0.1,0,0.2,0v1
				c-0.1-0.1-0.1-0.1-0.2-0.1c-0.1,0-0.2,0-0.2,0.1c-0.1,0.1-0.1,0.1-0.1,0.2c0,0.1,0,0.2,0.1,0.2s0.1,0.1,0.2,0.1
				c0.2,0,0.3-0.2,0.3-0.5V29.2z"/>
			<path class="st0" d="M91,30.1v2.3h-0.9v-2.3H91z M90.6,29c0.1,0,0.2,0,0.3,0.1c0.1,0.1,0.1,0.2,0.1,0.3c0,0.1,0,0.2-0.1,0.3
				c-0.1,0.1-0.2,0.1-0.3,0.1s-0.2,0-0.3-0.1c-0.1-0.1-0.1-0.2-0.1-0.3c0-0.1,0-0.2,0.1-0.3S90.4,29,90.6,29z"/>
			<path class="st0" d="M92.8,30c0.3,0,0.6,0.1,0.8,0.4c0.2,0.2,0.4,0.5,0.4,0.8c0,0.3-0.1,0.6-0.4,0.9c-0.2,0.2-0.5,0.4-0.9,0.4
				s-0.6-0.1-0.9-0.4c-0.2-0.2-0.4-0.5-0.4-0.9c0-0.3,0.1-0.6,0.4-0.9C92.2,30.1,92.5,30,92.8,30z M92.8,30.9c-0.1,0-0.2,0-0.2,0.1
				c-0.1,0.1-0.1,0.1-0.1,0.2c0,0.1,0,0.2,0.1,0.2c0.1,0.1,0.1,0.1,0.2,0.1c0.1,0,0.2,0,0.2-0.1c0.1-0.1,0.1-0.1,0.1-0.2
				c0-0.1,0-0.2-0.1-0.2C93,30.9,92.9,30.9,92.8,30.9z"/>
			<path class="st0" d="M95.4,33.2h-0.9v-1.9c0-0.4,0.1-0.6,0.3-0.9c0.1-0.1,0.2-0.2,0.4-0.3c0.2-0.1,0.3-0.1,0.5-0.1
				c0.3,0,0.6,0.1,0.9,0.3c0.2,0.2,0.4,0.5,0.4,0.9c0,0.3-0.1,0.6-0.4,0.8c-0.2,0.2-0.5,0.4-0.8,0.4c-0.1,0-0.1,0-0.2,0v-1
				c0.1,0.1,0.1,0.1,0.2,0.1c0.1,0,0.2,0,0.2-0.1s0.1-0.1,0.1-0.2c0-0.1,0-0.2-0.1-0.2s-0.1-0.1-0.2-0.1c-0.2,0-0.3,0.2-0.3,0.5
				V33.2z"/>
			<path class="st0" d="M98.9,31.5v0.9c-0.1,0-0.1,0-0.2,0c-0.3,0-0.6-0.1-0.9-0.3c-0.2-0.2-0.3-0.5-0.3-0.9c0-0.3,0.1-0.6,0.4-0.9
				c0.2-0.2,0.5-0.3,0.9-0.3c0.4,0,0.7,0.1,0.9,0.3c0.2,0.2,0.3,0.5,0.3,0.9v1.1H99v-1.1c0-0.1,0-0.2-0.1-0.3
				c-0.1-0.1-0.1-0.1-0.2-0.1c-0.1,0-0.2,0-0.2,0.1s-0.1,0.1-0.1,0.2c0,0.1,0,0.2,0.1,0.2c0.1,0.1,0.1,0.1,0.2,0.1
				C98.8,31.6,98.8,31.6,98.9,31.5z"/>
			<path class="st0" d="M101.4,29.2v0.9h0.4V31h-0.4c0,0.2,0,0.3,0.1,0.4c0.1,0.1,0.2,0.1,0.3,0.1v0.9c0,0-0.1,0-0.1,0
				c-0.2,0-0.4,0-0.6-0.1c-0.2-0.1-0.3-0.2-0.4-0.4c-0.1-0.2-0.2-0.5-0.2-0.8v-1.9H101.4z"/>
			<path class="st0" d="M103.3,29.2v1c0.1-0.1,0.3-0.2,0.4-0.2c0.2,0,0.4,0.1,0.5,0.2c0.1,0.2,0.2,0.4,0.2,0.7v1.5h-0.9v-1.2
				c0-0.1,0-0.2,0-0.2c0,0-0.1-0.1-0.1-0.1c-0.1,0-0.1,0.1-0.1,0.2v1.3h-0.9v-3.2H103.3z"/>
			<path class="st0" d="M106.1,30.1v2.3h-0.9v-2.3H106.1z M105.7,29c0.1,0,0.2,0,0.3,0.1c0.1,0.1,0.1,0.2,0.1,0.3
				c0,0.1,0,0.2-0.1,0.3c-0.1,0.1-0.2,0.1-0.3,0.1c-0.1,0-0.2,0-0.3-0.1c-0.1-0.1-0.1-0.2-0.1-0.3c0-0.1,0-0.2,0.1-0.3
				C105.4,29.1,105.5,29,105.7,29z"/>
			<path class="st0" d="M109.1,31.4h-1.3c0-0.1,0-0.1,0-0.2c0-0.1,0-0.2,0-0.2h0.4c0-0.2-0.1-0.3-0.3-0.3c-0.1,0-0.2,0-0.3,0.1
				c-0.1,0.1-0.1,0.2-0.1,0.4c0,0.1,0,0.3,0.1,0.4s0.2,0.1,0.3,0.1c0.1,0,0.2,0,0.3-0.1l0.5,0.6c-0.2,0.2-0.5,0.3-0.8,0.3
				c-0.3,0-0.6-0.1-0.9-0.3c-0.2-0.2-0.3-0.5-0.3-0.9c0-0.3,0.1-0.6,0.4-0.9s0.5-0.3,0.9-0.3c0.3,0,0.6,0.1,0.8,0.3
				c0.2,0.2,0.3,0.5,0.3,0.8C109.1,31.2,109.1,31.3,109.1,31.4z"/>
			<path class="st0" d="M79.4,34.4v2.3h-0.9v-2.3H79.4z M79,33.3c0.1,0,0.2,0,0.3,0.1c0.1,0.1,0.1,0.2,0.1,0.3c0,0.1,0,0.2-0.1,0.3
				c-0.1,0.1-0.2,0.1-0.3,0.1c-0.1,0-0.2,0-0.3-0.1c-0.1-0.1-0.1-0.2-0.1-0.3c0-0.1,0-0.2,0.1-0.3C78.8,33.4,78.9,33.3,79,33.3z"/>
			<path class="st0" d="M81.6,34.4v0.9c-0.1,0-0.2,0-0.3,0.1c0,0-0.1,0.1-0.1,0.3c0,0.4-0.2,0.8-0.5,0.9c-0.2,0.1-0.4,0.1-0.7,0.1
				H80v-0.9h0c0.1,0,0.2,0,0.3-0.1c0.1-0.1,0.1-0.2,0.1-0.3c0-0.2,0-0.4,0.1-0.5s0.1-0.2,0.2-0.3c0.2-0.2,0.4-0.2,0.7-0.2H81.6z"/>
			<path class="st0" d="M83.6,35.6l0.9,0c0,0.3-0.1,0.6-0.4,0.8c-0.2,0.2-0.5,0.3-0.8,0.3c-0.3,0-0.6-0.1-0.9-0.4
				c-0.2-0.2-0.4-0.5-0.4-0.9c0-0.3,0.1-0.6,0.4-0.8c0.2-0.2,0.5-0.3,0.9-0.3c0.3,0,0.5,0.1,0.8,0.3s0.4,0.4,0.4,0.7l-0.9,0
				c-0.1-0.1-0.2-0.1-0.3-0.1c-0.1,0-0.2,0-0.2,0.1c-0.1,0.1-0.1,0.1-0.1,0.2c0,0.1,0,0.2,0.1,0.3c0.1,0.1,0.2,0.1,0.3,0.1
				C83.4,35.9,83.5,35.8,83.6,35.6z"/>
			<path class="st0" d="M85.9,33.5v1c0.1-0.1,0.3-0.2,0.4-0.2c0.2,0,0.4,0.1,0.5,0.2c0.1,0.2,0.2,0.4,0.2,0.7v1.5h-0.9v-1.2
				c0-0.1,0-0.2,0-0.2c0,0-0.1-0.1-0.1-0.1c-0.1,0-0.1,0.1-0.1,0.2v1.3H85v-3.2H85.9z"/>
			<path class="st0" d="M90.1,35.7h-1.3c0-0.1,0-0.1,0-0.2c0-0.1,0-0.2,0-0.2h0.4c0-0.2-0.1-0.3-0.3-0.3c-0.1,0-0.2,0-0.3,0.1
				c-0.1,0.1-0.1,0.2-0.1,0.4c0,0.1,0,0.3,0.1,0.4s0.2,0.1,0.3,0.1c0.1,0,0.2,0,0.3-0.1l0.5,0.6c-0.2,0.2-0.5,0.3-0.8,0.3
				c-0.3,0-0.6-0.1-0.9-0.3c-0.2-0.2-0.3-0.5-0.3-0.9c0-0.3,0.1-0.6,0.4-0.9s0.5-0.3,0.9-0.3c0.3,0,0.6,0.1,0.8,0.3
				c0.2,0.2,0.3,0.5,0.3,0.8C90.1,35.5,90.1,35.6,90.1,35.7z M89.1,33.6h0.5l-0.5,0.5h-0.5L89.1,33.6z"/>
			<path class="st0" d="M93.8,36.7H93v-1.2c0-0.1,0-0.2,0-0.2c0,0-0.1-0.1-0.1-0.1c-0.1,0-0.1,0.1-0.1,0.3v1.2h-0.9v-1.2
				c0-0.1,0-0.2,0-0.2s-0.1-0.1-0.1-0.1c-0.1,0-0.1,0.1-0.1,0.3v1.2h-0.9v-1.4c0-0.3,0.1-0.5,0.3-0.7c0.2-0.2,0.4-0.3,0.6-0.3
				c0.3,0,0.5,0.1,0.7,0.3c0.2-0.2,0.5-0.3,0.7-0.3c0.3,0,0.5,0.1,0.7,0.3c0.1,0.2,0.2,0.4,0.2,0.7V36.7z"/>
			<path class="st0" d="M95.4,34.4v2.3h-0.9v-2.3H95.4z M95,33.3c0.1,0,0.2,0,0.3,0.1c0.1,0.1,0.1,0.2,0.1,0.3c0,0.1,0,0.2-0.1,0.3
				c-0.1,0.1-0.2,0.1-0.3,0.1c-0.1,0-0.2,0-0.3-0.1c-0.1-0.1-0.1-0.2-0.1-0.3c0-0.1,0-0.2,0.1-0.3C94.8,33.4,94.9,33.3,95,33.3z"/>
			<path class="st0" d="M97.6,37.5v-1.9c0-0.3-0.1-0.5-0.3-0.5c-0.1,0-0.2,0-0.2,0.1s-0.1,0.1-0.1,0.2c0,0.1,0,0.2,0.1,0.2
				c0.1,0.1,0.1,0.1,0.2,0.1c0.1,0,0.1,0,0.2-0.1v1c-0.1,0-0.2,0-0.2,0c-0.3,0-0.6-0.1-0.8-0.4c-0.2-0.2-0.4-0.5-0.4-0.8
				c0-0.3,0.1-0.6,0.4-0.9c0.2-0.2,0.5-0.3,0.9-0.3c0.2,0,0.3,0,0.5,0.1c0.2,0.1,0.3,0.2,0.4,0.3c0.2,0.2,0.3,0.5,0.3,0.9v1.9H97.6z
				"/>
			<path class="st0" d="M99.2,34.4h0.9v1.3c0,0.1,0.1,0.2,0.2,0.2c0.1,0,0.2-0.1,0.2-0.2v-1.3h0.9v1.3c0,0.3-0.1,0.6-0.3,0.8
				s-0.4,0.3-0.7,0.3c-0.3,0-0.6-0.1-0.8-0.4c-0.2-0.2-0.2-0.4-0.2-0.8V34.4z"/>
			<path class="st0" d="M104.2,35.7h-1.3c0-0.1,0-0.1,0-0.2c0-0.1,0-0.2,0-0.2h0.4c0-0.2-0.1-0.3-0.3-0.3c-0.1,0-0.2,0-0.3,0.1
				c-0.1,0.1-0.1,0.2-0.1,0.4c0,0.1,0,0.3,0.1,0.4c0.1,0.1,0.2,0.1,0.3,0.1c0.1,0,0.2,0,0.3-0.1l0.5,0.6c-0.2,0.2-0.5,0.3-0.8,0.3
				c-0.3,0-0.6-0.1-0.9-0.3c-0.2-0.2-0.3-0.5-0.3-0.9c0-0.3,0.1-0.6,0.4-0.9s0.5-0.3,0.9-0.3c0.3,0,0.6,0.1,0.8,0.3
				c0.2,0.2,0.3,0.5,0.3,0.8C104.3,35.5,104.3,35.6,104.2,35.7z"/>
			<path class="st2" d="M78.6,42.1h1.1c0.7,0,1,0.3,1,0.8c0,0.3-0.1,0.5-0.3,0.7c0.3,0.1,0.5,0.4,0.5,0.8c0,0.3-0.1,0.5-0.3,0.7
				c-0.1,0.1-0.2,0.1-0.3,0.2c-0.1,0-0.3,0-0.4,0h-0.2v-0.8h0.2c0.1,0,0.2,0,0.2,0c0,0,0.1-0.1,0.1-0.1c0-0.1-0.1-0.2-0.2-0.2h-0.2
				v-0.8c0.2,0,0.3-0.1,0.3-0.2c0-0.1-0.1-0.2-0.2-0.2h-0.2v2.3h-0.9V42.1z"/>
			<path class="st2" d="M82.8,42.9v0.9c-0.1,0-0.1-0.1-0.2-0.1c-0.2,0-0.2,0.1-0.2,0.4v1.1h-0.9V44c0-0.3,0.1-0.6,0.3-0.8
				c0.2-0.2,0.4-0.3,0.7-0.3C82.6,42.9,82.7,42.9,82.8,42.9z"/>
			<path class="st2" d="M84.4,42.9c0.3,0,0.6,0.1,0.8,0.4c0.2,0.2,0.4,0.5,0.4,0.8c0,0.3-0.1,0.6-0.4,0.9c-0.2,0.2-0.5,0.4-0.9,0.4
				s-0.6-0.1-0.9-0.4c-0.2-0.2-0.4-0.5-0.4-0.9c0-0.3,0.1-0.6,0.4-0.9C83.7,43,84,42.9,84.4,42.9z M84.3,43.7c-0.1,0-0.2,0-0.2,0.1
				C84,43.9,84,44,84,44.1c0,0.1,0,0.2,0.1,0.2c0.1,0.1,0.1,0.1,0.2,0.1c0.1,0,0.2,0,0.2-0.1c0.1-0.1,0.1-0.1,0.1-0.2
				c0-0.1,0-0.2-0.1-0.2C84.5,43.8,84.4,43.7,84.3,43.7z"/>
			<path class="st2" d="M88.2,45.2h-0.9v-1.3c0-0.1-0.1-0.2-0.2-0.2c-0.1,0-0.2,0.1-0.2,0.2v1.3h-0.9V44c0-0.3,0.1-0.6,0.3-0.8
				c0.2-0.2,0.4-0.3,0.7-0.3c0.3,0,0.6,0.1,0.8,0.4c0.2,0.2,0.2,0.4,0.2,0.8V45.2z"/>
			<path class="st2" d="M90.4,44.2l0.9,0c0,0.3-0.1,0.6-0.4,0.8c-0.2,0.2-0.5,0.3-0.8,0.3c-0.3,0-0.6-0.1-0.9-0.4
				c-0.2-0.2-0.4-0.5-0.4-0.9c0-0.3,0.1-0.6,0.4-0.8c0.2-0.2,0.5-0.3,0.9-0.3c0.3,0,0.5,0.1,0.8,0.3s0.4,0.4,0.4,0.7l-0.9,0
				c-0.1-0.1-0.2-0.1-0.3-0.1c-0.1,0-0.2,0-0.2,0.1c-0.1,0.1-0.1,0.1-0.1,0.2c0,0.1,0,0.2,0.1,0.3c0.1,0.1,0.2,0.1,0.3,0.1
				C90.2,44.4,90.3,44.4,90.4,44.2z"/>
			<path class="st2" d="M92.7,42.1v1c0.1-0.1,0.3-0.2,0.4-0.2c0.2,0,0.4,0.1,0.5,0.2c0.1,0.2,0.2,0.4,0.2,0.7v1.5H93V44
				c0-0.1,0-0.2,0-0.2c0,0-0.1-0.1-0.1-0.1c-0.1,0-0.1,0.1-0.1,0.2v1.3h-0.9v-3.2H92.7z"/>
			<path class="st2" d="M95.7,42.9c0.3,0,0.6,0.1,0.8,0.4c0.2,0.2,0.4,0.5,0.4,0.8c0,0.3-0.1,0.6-0.4,0.9c-0.2,0.2-0.5,0.4-0.9,0.4
				s-0.6-0.1-0.9-0.4c-0.2-0.2-0.4-0.5-0.4-0.9c0-0.3,0.1-0.6,0.4-0.9C95.1,43,95.4,42.9,95.7,42.9z M95.7,43.7
				c-0.1,0-0.2,0-0.2,0.1c-0.1,0.1-0.1,0.1-0.1,0.2c0,0.1,0,0.2,0.1,0.2c0.1,0.1,0.1,0.1,0.2,0.1c0.1,0,0.2,0,0.2-0.1
				c0.1-0.1,0.1-0.1,0.1-0.2c0-0.1,0-0.2-0.1-0.2C95.9,43.8,95.8,43.7,95.7,43.7z"/>
			<path class="st2" d="M98.3,46.1h-0.9v-1.9c0-0.4,0.1-0.6,0.3-0.9c0.1-0.1,0.2-0.2,0.4-0.3c0.2-0.1,0.3-0.1,0.5-0.1
				c0.3,0,0.6,0.1,0.9,0.3c0.2,0.2,0.4,0.5,0.4,0.9c0,0.3-0.1,0.6-0.4,0.8c-0.2,0.2-0.5,0.4-0.8,0.4c-0.1,0-0.1,0-0.2,0v-1
				c0.1,0.1,0.1,0.1,0.2,0.1c0.1,0,0.2,0,0.2-0.1c0.1-0.1,0.1-0.1,0.1-0.2c0-0.1,0-0.2-0.1-0.2s-0.1-0.1-0.2-0.1
				c-0.2,0-0.3,0.2-0.3,0.5V46.1z"/>
			<path class="st2" d="M102.5,45.2h-0.9v-1.3c0-0.1-0.1-0.2-0.2-0.2c-0.1,0-0.2,0.1-0.2,0.2v1.3h-0.9V44c0-0.3,0.1-0.6,0.3-0.8
				s0.4-0.3,0.7-0.3c0.3,0,0.6,0.1,0.8,0.4c0.2,0.2,0.2,0.4,0.2,0.8V45.2z"/>
			<path class="st2" d="M105.6,44.2h-1.3c0-0.1,0-0.1,0-0.2c0-0.1,0-0.2,0-0.2h0.4c0-0.2-0.1-0.3-0.3-0.3c-0.1,0-0.2,0-0.3,0.1
				c-0.1,0.1-0.1,0.2-0.1,0.4c0,0.1,0,0.3,0.1,0.4c0.1,0.1,0.2,0.1,0.3,0.1c0.1,0,0.2,0,0.3-0.1l0.5,0.6c-0.2,0.2-0.5,0.3-0.8,0.3
				c-0.3,0-0.6-0.1-0.9-0.3c-0.2-0.2-0.3-0.5-0.3-0.9c0-0.3,0.1-0.6,0.4-0.9s0.5-0.3,0.9-0.3c0.3,0,0.6,0.1,0.8,0.3
				c0.2,0.2,0.3,0.5,0.3,0.8C105.6,44.1,105.6,44.2,105.6,44.2z"/>
			<path class="st2" d="M106.1,43h0.9v1.3c0,0.1,0.1,0.2,0.2,0.2c0.1,0,0.2-0.1,0.2-0.2V43h0.9v1.3c0,0.3-0.1,0.6-0.3,0.8
				s-0.4,0.3-0.7,0.3c-0.3,0-0.6-0.1-0.8-0.4c-0.2-0.2-0.2-0.4-0.2-0.8V43z"/>
			<path class="st2" d="M112.1,45.2h-0.9V44c0-0.1,0-0.2,0-0.2c0,0-0.1-0.1-0.1-0.1c-0.1,0-0.1,0.1-0.1,0.3v1.2h-0.9V44
				c0-0.1,0-0.2,0-0.2c0,0-0.1-0.1-0.1-0.1c-0.1,0-0.1,0.1-0.1,0.3v1.2h-0.9v-1.4c0-0.3,0.1-0.5,0.3-0.7c0.2-0.2,0.4-0.3,0.6-0.3
				c0.3,0,0.5,0.1,0.7,0.3c0.2-0.2,0.5-0.3,0.7-0.3c0.3,0,0.5,0.1,0.7,0.3c0.1,0.2,0.2,0.4,0.2,0.7V45.2z"/>
			<path class="st2" d="M114,42.9c0.3,0,0.6,0.1,0.8,0.4c0.2,0.2,0.4,0.5,0.4,0.8c0,0.3-0.1,0.6-0.4,0.9c-0.2,0.2-0.5,0.4-0.9,0.4
				s-0.6-0.1-0.9-0.4c-0.2-0.2-0.4-0.5-0.4-0.9c0-0.3,0.1-0.6,0.4-0.9C113.3,43,113.6,42.9,114,42.9z M113.9,43.7
				c-0.1,0-0.2,0-0.2,0.1c-0.1,0.1-0.1,0.1-0.1,0.2c0,0.1,0,0.2,0.1,0.2c0.1,0.1,0.1,0.1,0.2,0.1c0.1,0,0.2,0,0.2-0.1
				c0.1-0.1,0.1-0.1,0.1-0.2c0-0.1,0-0.2-0.1-0.2C114.1,43.8,114,43.7,113.9,43.7z"/>
			<path class="st2" d="M116.6,46.1h-0.9v-1.9c0-0.4,0.1-0.6,0.3-0.9c0.1-0.1,0.2-0.2,0.4-0.3c0.2-0.1,0.3-0.1,0.5-0.1
				c0.3,0,0.6,0.1,0.9,0.3c0.2,0.2,0.4,0.5,0.4,0.9c0,0.3-0.1,0.6-0.4,0.8c-0.2,0.2-0.5,0.4-0.8,0.4c-0.1,0-0.1,0-0.2,0v-1
				c0.1,0.1,0.1,0.1,0.2,0.1c0.1,0,0.2,0,0.2-0.1c0.1-0.1,0.1-0.1,0.1-0.2c0-0.1,0-0.2-0.1-0.2s-0.1-0.1-0.2-0.1
				c-0.2,0-0.3,0.2-0.3,0.5V46.1z"/>
			<path class="st2" d="M120,44.4v0.9c-0.1,0-0.1,0-0.2,0c-0.3,0-0.6-0.1-0.9-0.3s-0.3-0.5-0.3-0.9c0-0.3,0.1-0.6,0.4-0.9
				c0.2-0.2,0.5-0.3,0.9-0.3c0.4,0,0.7,0.1,0.9,0.3c0.2,0.2,0.3,0.5,0.3,0.9v1.1h-0.9v-1.1c0-0.1,0-0.2-0.1-0.3
				c-0.1-0.1-0.1-0.1-0.2-0.1c-0.1,0-0.2,0-0.2,0.1s-0.1,0.1-0.1,0.2c0,0.1,0,0.2,0.1,0.2c0.1,0.1,0.1,0.1,0.2,0.1
				C119.9,44.4,119.9,44.4,120,44.4z"/>
			<path class="st2" d="M122.5,42.1V43h0.4v0.9h-0.4c0,0.2,0,0.3,0.1,0.4c0.1,0.1,0.2,0.1,0.3,0.1v0.9c0,0-0.1,0-0.1,0
				c-0.2,0-0.4,0-0.6-0.1c-0.2-0.1-0.3-0.2-0.4-0.4c-0.1-0.2-0.2-0.5-0.2-0.8v-1.9H122.5z"/>
			<path class="st2" d="M124.4,42.1v1c0.1-0.1,0.3-0.2,0.4-0.2c0.2,0,0.4,0.1,0.5,0.2c0.1,0.2,0.2,0.4,0.2,0.7v1.5h-0.9V44
				c0-0.1,0-0.2,0-0.2c0,0-0.1-0.1-0.1-0.1c-0.1,0-0.1,0.1-0.1,0.2v1.3h-0.9v-3.2H124.4z"/>
			<path class="st2" d="M127.2,42.9v2.3h-0.9v-2.3H127.2z M126.8,41.9c0.1,0,0.2,0,0.3,0.1c0.1,0.1,0.1,0.2,0.1,0.3
				c0,0.1,0,0.2-0.1,0.3c-0.1,0.1-0.2,0.1-0.3,0.1s-0.2,0-0.3-0.1c-0.1-0.1-0.1-0.2-0.1-0.3c0-0.1,0-0.2,0.1-0.3
				S126.7,41.9,126.8,41.9z"/>
			<path class="st2" d="M130.2,44.2h-1.3c0-0.1,0-0.1,0-0.2c0-0.1,0-0.2,0-0.2h0.4c0-0.2-0.1-0.3-0.3-0.3c-0.1,0-0.2,0-0.3,0.1
				c-0.1,0.1-0.1,0.2-0.1,0.4c0,0.1,0,0.3,0.1,0.4s0.2,0.1,0.3,0.1c0.1,0,0.2,0,0.3-0.1l0.5,0.6c-0.2,0.2-0.5,0.3-0.8,0.3
				c-0.3,0-0.6-0.1-0.9-0.3c-0.2-0.2-0.3-0.5-0.3-0.9c0-0.3,0.1-0.6,0.4-0.9c0.2-0.2,0.5-0.3,0.9-0.3c0.3,0,0.6,0.1,0.8,0.3
				c0.2,0.2,0.3,0.5,0.3,0.8C130.2,44.1,130.2,44.2,130.2,44.2z"/>
			<path class="st2" d="M80,48.5l0.9,0c0,0.3-0.1,0.6-0.4,0.8c-0.2,0.2-0.5,0.3-0.8,0.3c-0.3,0-0.6-0.1-0.9-0.4
				c-0.2-0.2-0.4-0.5-0.4-0.9c0-0.3,0.1-0.6,0.4-0.8c0.2-0.2,0.5-0.3,0.9-0.3c0.3,0,0.5,0.1,0.8,0.3s0.4,0.4,0.4,0.7l-0.9,0
				c-0.1-0.1-0.2-0.1-0.3-0.1c-0.1,0-0.2,0-0.2,0.1c-0.1,0.1-0.1,0.1-0.1,0.2c0,0.1,0,0.2,0.1,0.3c0.1,0.1,0.2,0.1,0.3,0.1
				C79.8,48.7,79.9,48.6,80,48.5z"/>
			<path class="st2" d="M82.3,46.4v1c0.1-0.1,0.3-0.2,0.4-0.2c0.2,0,0.4,0.1,0.5,0.2c0.1,0.2,0.2,0.4,0.2,0.7v1.5h-0.9v-1.2
				c0-0.1,0-0.2,0-0.2c0,0-0.1-0.1-0.1-0.1c-0.1,0-0.1,0.1-0.1,0.2v1.3h-0.9v-3.2H82.3z"/>
			<path class="st2" d="M85.5,47.2v0.9c-0.1,0-0.1-0.1-0.2-0.1c-0.2,0-0.2,0.1-0.2,0.4v1.1h-0.9v-1.3c0-0.3,0.1-0.6,0.3-0.8
				c0.2-0.2,0.4-0.3,0.7-0.3C85.3,47.2,85.4,47.2,85.5,47.2z"/>
			<path class="st2" d="M87.1,47.2c0.3,0,0.6,0.1,0.8,0.4c0.2,0.2,0.4,0.5,0.4,0.8c0,0.3-0.1,0.6-0.4,0.9c-0.2,0.2-0.5,0.4-0.9,0.4
				s-0.6-0.1-0.9-0.4c-0.2-0.2-0.4-0.5-0.4-0.9c0-0.3,0.1-0.6,0.4-0.9C86.4,47.3,86.7,47.2,87.1,47.2z M87.1,48
				c-0.1,0-0.2,0-0.2,0.1c-0.1,0.1-0.1,0.1-0.1,0.2c0,0.1,0,0.2,0.1,0.2c0.1,0.1,0.1,0.1,0.2,0.1c0.1,0,0.2,0,0.2-0.1
				c0.1-0.1,0.1-0.1,0.1-0.2c0-0.1,0-0.2-0.1-0.2C87.2,48.1,87.2,48,87.1,48z"/>
			<path class="st2" d="M90.9,49.5h-0.9v-1.3c0-0.1-0.1-0.2-0.2-0.2c-0.1,0-0.2,0.1-0.2,0.2v1.3h-0.9v-1.3c0-0.3,0.1-0.6,0.3-0.8
				s0.4-0.3,0.7-0.3c0.3,0,0.6,0.1,0.8,0.4c0.2,0.2,0.2,0.4,0.2,0.8V49.5z"/>
			<path class="st2" d="M92.5,47.2v2.3h-0.9v-2.3H92.5z M92.1,46.2c0.1,0,0.2,0,0.3,0.1c0.1,0.1,0.1,0.2,0.1,0.3
				c0,0.1,0,0.2-0.1,0.3C92.3,47,92.2,47,92.1,47c-0.1,0-0.2,0-0.3-0.1c-0.1-0.1-0.1-0.2-0.1-0.3c0-0.1,0-0.2,0.1-0.3
				C91.9,46.2,92,46.2,92.1,46.2z"/>
			<path class="st2" d="M94.7,50.4v-1.9c0-0.3-0.1-0.5-0.3-0.5c-0.1,0-0.2,0-0.2,0.1S94,48.3,94,48.4c0,0.1,0,0.2,0.1,0.2
				c0.1,0.1,0.1,0.1,0.2,0.1c0.1,0,0.1,0,0.2-0.1v1c-0.1,0-0.2,0-0.2,0c-0.3,0-0.6-0.1-0.8-0.4c-0.2-0.2-0.4-0.5-0.4-0.8
				c0-0.3,0.1-0.6,0.4-0.9c0.2-0.2,0.5-0.3,0.9-0.3c0.2,0,0.3,0,0.5,0.1s0.3,0.2,0.4,0.3c0.2,0.2,0.3,0.5,0.3,0.9v1.9H94.7z"/>
			<path class="st2" d="M96.3,47.3h0.9v1.3c0,0.1,0.1,0.2,0.2,0.2c0.1,0,0.2-0.1,0.2-0.2v-1.3h0.9v1.3c0,0.3-0.1,0.6-0.3,0.8
				s-0.4,0.3-0.7,0.3c-0.3,0-0.6-0.1-0.8-0.4c-0.2-0.2-0.2-0.4-0.2-0.8V47.3z"/>
			<path class="st2" d="M101.3,48.5H100c0-0.1,0-0.1,0-0.2c0-0.1,0-0.2,0-0.2h0.4c0-0.2-0.1-0.3-0.3-0.3c-0.1,0-0.2,0-0.3,0.1
				c-0.1,0.1-0.1,0.2-0.1,0.4c0,0.1,0,0.3,0.1,0.4s0.2,0.1,0.3,0.1c0.1,0,0.2,0,0.3-0.1l0.5,0.6c-0.2,0.2-0.5,0.3-0.8,0.3
				c-0.3,0-0.6-0.1-0.9-0.3c-0.2-0.2-0.3-0.5-0.3-0.9c0-0.3,0.1-0.6,0.4-0.9s0.5-0.3,0.9-0.3c0.3,0,0.6,0.1,0.8,0.3
				c0.2,0.2,0.3,0.5,0.3,0.8C101.3,48.4,101.3,48.5,101.3,48.5z"/>
			<path class="st2" d="M104.4,47.2c0.3,0,0.6,0.1,0.8,0.4c0.2,0.2,0.4,0.5,0.4,0.8c0,0.3-0.1,0.6-0.4,0.9c-0.2,0.2-0.5,0.4-0.9,0.4
				s-0.6-0.1-0.9-0.4c-0.2-0.2-0.4-0.5-0.4-0.9c0-0.3,0.1-0.6,0.4-0.9C103.8,47.3,104.1,47.2,104.4,47.2z M104.4,48
				c-0.1,0-0.2,0-0.2,0.1c-0.1,0.1-0.1,0.1-0.1,0.2c0,0.1,0,0.2,0.1,0.2c0.1,0.1,0.1,0.1,0.2,0.1c0.1,0,0.2,0,0.2-0.1
				c0.1-0.1,0.1-0.1,0.1-0.2c0-0.1,0-0.2-0.1-0.2C104.6,48.1,104.5,48,104.4,48z"/>
			<path class="st2" d="M107.1,46.4v1.9c0,0.3,0.1,0.5,0.3,0.5c0.1,0,0.2,0,0.2-0.1s0.1-0.1,0.1-0.2c0-0.1,0-0.2-0.1-0.2
				c-0.1-0.1-0.1-0.1-0.2-0.1c-0.1,0-0.1,0-0.2,0.1v-1c0.1,0,0.2,0,0.2,0c0.3,0,0.6,0.1,0.8,0.4c0.2,0.2,0.3,0.5,0.3,0.8
				c0,0.3-0.1,0.6-0.4,0.9c-0.2,0.2-0.5,0.3-0.9,0.3c-0.2,0-0.3,0-0.5-0.1c-0.2-0.1-0.3-0.2-0.4-0.3c-0.2-0.2-0.3-0.5-0.3-0.9v-1.9
				H107.1z"/>
			<path class="st2" d="M110.7,47.3v0.9c-0.1,0-0.2,0-0.3,0.1c0,0-0.1,0.1-0.1,0.3c0,0.4-0.2,0.8-0.5,0.9c-0.2,0.1-0.4,0.1-0.7,0.1
				H109v-0.9h0c0.1,0,0.2,0,0.3-0.1c0.1-0.1,0.1-0.2,0.1-0.3c0-0.2,0-0.4,0.1-0.5c0-0.1,0.1-0.2,0.2-0.3c0.2-0.2,0.4-0.2,0.7-0.2
				H110.7z"/>
			<path class="st2" d="M112,46.4v0.9h0.4v0.9H112c0,0.2,0,0.3,0.1,0.4c0.1,0.1,0.2,0.1,0.3,0.1v0.9c0,0-0.1,0-0.1,0
				c-0.2,0-0.4,0-0.6-0.1c-0.2-0.1-0.3-0.2-0.4-0.4c-0.1-0.2-0.2-0.5-0.2-0.8v-1.9H112z"/>
			<path class="st2" d="M114.3,47.2v0.9c-0.1,0-0.1-0.1-0.2-0.1c-0.2,0-0.2,0.1-0.2,0.4v1.1H113v-1.3c0-0.3,0.1-0.6,0.3-0.8
				c0.2-0.2,0.4-0.3,0.7-0.3C114.1,47.2,114.2,47.2,114.3,47.2z"/>
			<path class="st2" d="M114.8,47.3h0.9v1.3c0,0.1,0.1,0.2,0.2,0.2c0.1,0,0.2-0.1,0.2-0.2v-1.3h0.9v1.3c0,0.3-0.1,0.6-0.3,0.8
				s-0.4,0.3-0.7,0.3c-0.3,0-0.6-0.1-0.8-0.4c-0.2-0.2-0.2-0.4-0.2-0.8V47.3z"/>
			<path class="st2" d="M119,48.5l0.9,0c0,0.3-0.1,0.6-0.4,0.8c-0.2,0.2-0.5,0.3-0.8,0.3c-0.3,0-0.6-0.1-0.9-0.4
				c-0.2-0.2-0.4-0.5-0.4-0.9c0-0.3,0.1-0.6,0.4-0.8c0.2-0.2,0.5-0.3,0.9-0.3c0.3,0,0.5,0.1,0.8,0.3s0.4,0.4,0.4,0.7l-0.9,0
				c-0.1-0.1-0.2-0.1-0.3-0.1c-0.1,0-0.2,0-0.2,0.1c-0.1,0.1-0.1,0.1-0.1,0.2c0,0.1,0,0.2,0.1,0.3c0.1,0.1,0.2,0.1,0.3,0.1
				C118.8,48.7,118.9,48.6,119,48.5z"/>
			<path class="st2" d="M121.2,46.4v0.9h0.4v0.9h-0.4c0,0.2,0,0.3,0.1,0.4c0.1,0.1,0.2,0.1,0.3,0.1v0.9c0,0-0.1,0-0.1,0
				c-0.2,0-0.4,0-0.6-0.1c-0.2-0.1-0.3-0.2-0.4-0.4c-0.1-0.2-0.2-0.5-0.2-0.8v-1.9H121.2z"/>
			<path class="st2" d="M123.1,47.2v2.3h-0.9v-2.3H123.1z M122.7,46.2c0.1,0,0.2,0,0.3,0.1c0.1,0.1,0.1,0.2,0.1,0.3
				c0,0.1,0,0.2-0.1,0.3c-0.1,0.1-0.2,0.1-0.3,0.1c-0.1,0-0.2,0-0.3-0.1c-0.1-0.1-0.1-0.2-0.1-0.3c0-0.1,0-0.2,0.1-0.3
				C122.5,46.2,122.6,46.2,122.7,46.2z"/>
			<path class="st2" d="M125.6,47.2l-1.1,2.4l-1.1-2.4h0.8l0.2,0.6l0.3-0.6H125.6z"/>
			<path class="st2" d="M128.2,48.5h-1.3c0-0.1,0-0.1,0-0.2c0-0.1,0-0.2,0-0.2h0.4c0-0.2-0.1-0.3-0.3-0.3c-0.1,0-0.2,0-0.3,0.1
				c-0.1,0.1-0.1,0.2-0.1,0.4c0,0.1,0,0.3,0.1,0.4c0.1,0.1,0.2,0.1,0.3,0.1c0.1,0,0.2,0,0.3-0.1l0.5,0.6c-0.2,0.2-0.5,0.3-0.8,0.3
				c-0.3,0-0.6-0.1-0.9-0.3c-0.2-0.2-0.3-0.5-0.3-0.9c0-0.3,0.1-0.6,0.4-0.9s0.5-0.3,0.9-0.3c0.3,0,0.6,0.1,0.8,0.3
				c0.2,0.2,0.3,0.5,0.3,0.8C128.2,48.4,128.2,48.5,128.2,48.5z"/>
			<path class="st4" d="M80.8,56.6l1,0c-0.1,0.5-0.2,0.9-0.5,1.2c-0.3,0.3-0.7,0.4-1.1,0.4c-0.5,0-0.9-0.2-1.2-0.5
				c-0.3-0.3-0.5-0.7-0.5-1.2c0-0.5,0.2-0.9,0.5-1.2c0.3-0.3,0.7-0.5,1.2-0.5c0.5,0,0.9,0.2,1.2,0.5c0.2,0.2,0.4,0.5,0.5,0.9l-1,0.1
				c-0.1-0.3-0.3-0.5-0.6-0.5c-0.2,0-0.4,0.1-0.5,0.2c-0.1,0.1-0.2,0.3-0.2,0.5c0,0.2,0.1,0.4,0.2,0.5c0.1,0.1,0.3,0.2,0.5,0.2
				c0.2,0,0.4-0.1,0.5-0.2C80.7,57,80.7,56.8,80.8,56.6z"/>
			<path class="st4" d="M83.7,57.3v0.9c-0.1,0-0.1,0-0.2,0c-0.3,0-0.6-0.1-0.9-0.3c-0.2-0.2-0.3-0.5-0.3-0.9c0-0.3,0.1-0.6,0.4-0.9
				c0.2-0.2,0.5-0.3,0.9-0.3c0.4,0,0.7,0.1,0.9,0.3c0.2,0.2,0.3,0.5,0.3,0.9v1.1h-0.9V57c0-0.1,0-0.2-0.1-0.3
				c-0.1-0.1-0.1-0.1-0.2-0.1c-0.1,0-0.2,0-0.2,0.1s-0.1,0.1-0.1,0.2c0,0.1,0,0.2,0.1,0.2c0.1,0.1,0.1,0.1,0.2,0.1
				C83.5,57.3,83.6,57.3,83.7,57.3z"/>
			<path class="st4" d="M87.5,58.1h-0.9v-1.3c0-0.1-0.1-0.2-0.2-0.2c-0.1,0-0.2,0.1-0.2,0.2v1.3h-0.9v-1.3c0-0.3,0.1-0.6,0.3-0.8
				s0.4-0.3,0.7-0.3c0.3,0,0.6,0.1,0.8,0.4c0.2,0.2,0.2,0.4,0.2,0.8V58.1z"/>
			<path class="st4" d="M89.6,57.1l0.9,0c0,0.3-0.1,0.6-0.4,0.8c-0.2,0.2-0.5,0.3-0.8,0.3c-0.3,0-0.6-0.1-0.9-0.4
				c-0.2-0.2-0.4-0.5-0.4-0.9c0-0.3,0.1-0.6,0.4-0.8c0.2-0.2,0.5-0.3,0.9-0.3c0.3,0,0.5,0.1,0.8,0.3s0.4,0.4,0.4,0.7l-0.9,0
				c-0.1-0.1-0.2-0.1-0.3-0.1c-0.1,0-0.2,0-0.2,0.1c-0.1,0.1-0.1,0.1-0.1,0.2c0,0.1,0,0.2,0.1,0.3c0.1,0.1,0.2,0.1,0.3,0.1
				C89.4,57.3,89.5,57.2,89.6,57.1z"/>
			<path class="st4" d="M93.4,57.1H92c0-0.1,0-0.1,0-0.2c0-0.1,0-0.2,0-0.2h0.4c0-0.2-0.1-0.3-0.3-0.3c-0.1,0-0.2,0-0.3,0.1
				c-0.1,0.1-0.1,0.2-0.1,0.4c0,0.1,0,0.3,0.1,0.4c0.1,0.1,0.2,0.1,0.3,0.1c0.1,0,0.2,0,0.3-0.1l0.5,0.6c-0.2,0.2-0.5,0.3-0.8,0.3
				c-0.3,0-0.6-0.1-0.9-0.3C91.1,57.6,91,57.3,91,57c0-0.3,0.1-0.6,0.4-0.9s0.5-0.3,0.9-0.3c0.3,0,0.6,0.1,0.8,0.3
				c0.2,0.2,0.3,0.5,0.3,0.8C93.4,57,93.4,57,93.4,57.1z"/>
			<path class="st4" d="M95.2,55.8v0.9c-0.1,0-0.1-0.1-0.2-0.1c-0.2,0-0.2,0.1-0.2,0.4v1.1h-0.9v-1.3c0-0.3,0.1-0.6,0.3-0.8
				c0.2-0.2,0.4-0.3,0.7-0.3C95,55.8,95.1,55.8,95.2,55.8z"/>
			<path class="st4" d="M98.5,55h0.9v1.9c0,0.4-0.1,0.6-0.3,0.9c-0.1,0.1-0.2,0.2-0.4,0.3c-0.2,0.1-0.3,0.1-0.5,0.1
				c-0.3,0-0.6-0.1-0.9-0.3C97.1,57.6,97,57.3,97,57c0-0.3,0.1-0.6,0.4-0.8c0.2-0.2,0.5-0.4,0.8-0.4c0.1,0,0.1,0,0.2,0v1
				c-0.1-0.1-0.1-0.1-0.2-0.1c-0.1,0-0.2,0-0.2,0.1c-0.1,0.1-0.1,0.1-0.1,0.2c0,0.1,0,0.2,0.1,0.2s0.1,0.1,0.2,0.1
				c0.2,0,0.3-0.2,0.3-0.5V55z"/>
			<path class="st4" d="M100.1,55.8h0.9v1.3c0,0.1,0.1,0.2,0.2,0.2c0.1,0,0.2-0.1,0.2-0.2v-1.3h0.9v1.3c0,0.3-0.1,0.6-0.3,0.8
				s-0.4,0.3-0.7,0.3c-0.3,0-0.6-0.1-0.8-0.4c-0.2-0.2-0.2-0.4-0.2-0.8V55.8z"/>
			<path class="st4" d="M105.1,59h-0.9V57c0-0.4,0.1-0.6,0.3-0.9c0.1-0.1,0.2-0.2,0.4-0.3c0.2-0.1,0.3-0.1,0.5-0.1
				c0.3,0,0.6,0.1,0.9,0.3c0.2,0.2,0.4,0.5,0.4,0.9c0,0.3-0.1,0.6-0.4,0.8c-0.2,0.2-0.5,0.4-0.8,0.4c-0.1,0-0.1,0-0.2,0v-1
				c0.1,0.1,0.1,0.1,0.2,0.1c0.1,0,0.2,0,0.2-0.1c0.1-0.1,0.1-0.1,0.1-0.2c0-0.1,0-0.2-0.1-0.2s-0.1-0.1-0.2-0.1
				c-0.2,0-0.3,0.2-0.3,0.5V59z"/>
			<path class="st4" d="M108.4,55.8c0.3,0,0.6,0.1,0.8,0.4c0.2,0.2,0.4,0.5,0.4,0.8c0,0.3-0.1,0.6-0.4,0.9c-0.2,0.2-0.5,0.4-0.9,0.4
				s-0.6-0.1-0.9-0.4c-0.2-0.2-0.4-0.5-0.4-0.9c0-0.3,0.1-0.6,0.4-0.9C107.8,55.9,108.1,55.8,108.4,55.8z M108.4,56.6
				c-0.1,0-0.2,0-0.2,0.1c-0.1,0.1-0.1,0.1-0.1,0.2c0,0.1,0,0.2,0.1,0.2c0.1,0.1,0.1,0.1,0.2,0.1c0.1,0,0.2,0,0.2-0.1
				c0.1-0.1,0.1-0.1,0.1-0.2c0-0.1,0-0.2-0.1-0.2C108.6,56.7,108.5,56.6,108.4,56.6z"/>
			<path class="st4" d="M110.2,55.8h0.9v1.3c0,0.1,0.1,0.2,0.2,0.2c0.1,0,0.2-0.1,0.2-0.2v-1.3h0.9v1.3c0,0.3-0.1,0.6-0.3,0.8
				s-0.4,0.3-0.7,0.3c-0.3,0-0.6-0.1-0.8-0.4c-0.2-0.2-0.2-0.4-0.2-0.8V55.8z"/>
			<path class="st4" d="M116.2,58.1h-0.9v-1.2c0-0.1,0-0.2,0-0.2c0,0-0.1-0.1-0.1-0.1c-0.1,0-0.1,0.1-0.1,0.3v1.2h-0.9v-1.2
				c0-0.1,0-0.2,0-0.2s-0.1-0.1-0.1-0.1c-0.1,0-0.1,0.1-0.1,0.3v1.2H113v-1.4c0-0.3,0.1-0.5,0.3-0.7c0.2-0.2,0.4-0.3,0.6-0.3
				c0.3,0,0.5,0.1,0.7,0.3c0.2-0.2,0.5-0.3,0.7-0.3c0.3,0,0.5,0.1,0.7,0.3c0.1,0.2,0.2,0.4,0.2,0.7V58.1z"/>
			<path class="st4" d="M118,55.8c0.3,0,0.6,0.1,0.8,0.4c0.2,0.2,0.4,0.5,0.4,0.8c0,0.3-0.1,0.6-0.4,0.9c-0.2,0.2-0.5,0.4-0.9,0.4
				s-0.6-0.1-0.9-0.4c-0.2-0.2-0.4-0.5-0.4-0.9c0-0.3,0.1-0.6,0.4-0.9C117.4,55.9,117.7,55.8,118,55.8z M118,56.6
				c-0.1,0-0.2,0-0.2,0.1c-0.1,0.1-0.1,0.1-0.1,0.2c0,0.1,0,0.2,0.1,0.2c0.1,0.1,0.1,0.1,0.2,0.1c0.1,0,0.2,0,0.2-0.1
				c0.1-0.1,0.1-0.1,0.1-0.2c0-0.1,0-0.2-0.1-0.2C118.2,56.7,118.1,56.6,118,56.6z"/>
			<path class="st4" d="M121.9,58.1H121v-1.3c0-0.1-0.1-0.2-0.2-0.2c-0.1,0-0.2,0.1-0.2,0.2v1.3h-0.9v-1.3c0-0.3,0.1-0.6,0.3-0.8
				c0.2-0.2,0.4-0.3,0.7-0.3c0.3,0,0.6,0.1,0.8,0.4c0.2,0.2,0.2,0.4,0.2,0.8V58.1z"/>
			<path class="st5" d="M79.6,63.5v3.2h-0.9v-3.2H79.6z"/>
			<path class="st5" d="M82.4,66.7h-0.9v-1.3c0-0.1-0.1-0.2-0.2-0.2c-0.1,0-0.2,0.1-0.2,0.2v1.3h-0.9v-1.3c0-0.3,0.1-0.6,0.3-0.8
				c0.2-0.2,0.4-0.3,0.7-0.3c0.3,0,0.6,0.1,0.8,0.4c0.2,0.2,0.2,0.4,0.2,0.8V66.7z"/>
			<path class="st5" d="M84.4,64.9v0.9H84v0.9h-0.9v-2c0-0.2,0-0.4,0.1-0.6c0.1-0.2,0.2-0.4,0.4-0.5s0.4-0.2,0.6-0.2l0.1,0v0.9
				c0,0,0,0,0,0c-0.1,0-0.2,0-0.3,0.1S84,64.7,84,64.8v0.1H84.4z"/>
			<path class="st5" d="M87.3,65.7H86c0-0.1,0-0.1,0-0.2c0-0.1,0-0.2,0-0.2h0.4c0-0.2-0.1-0.3-0.3-0.3c-0.1,0-0.2,0-0.3,0.1
				c-0.1,0.1-0.1,0.2-0.1,0.4c0,0.1,0,0.3,0.1,0.4C86,66,86,66,86.2,66c0.1,0,0.2,0,0.3-0.1l0.5,0.6c-0.2,0.2-0.5,0.3-0.8,0.3
				c-0.3,0-0.6-0.1-0.9-0.3c-0.2-0.2-0.3-0.5-0.3-0.9c0-0.3,0.1-0.6,0.4-0.9c0.2-0.2,0.5-0.3,0.9-0.3c0.3,0,0.6,0.1,0.8,0.3
				c0.2,0.2,0.3,0.5,0.3,0.8C87.3,65.6,87.3,65.6,87.3,65.7z"/>
			<path class="st5" d="M89.3,65.6l0.9,0c0,0.3-0.1,0.6-0.4,0.8c-0.2,0.2-0.5,0.3-0.8,0.3c-0.3,0-0.6-0.1-0.9-0.4
				c-0.2-0.2-0.4-0.5-0.4-0.9c0-0.3,0.1-0.6,0.4-0.8c0.2-0.2,0.5-0.3,0.9-0.3c0.3,0,0.5,0.1,0.8,0.3c0.2,0.2,0.4,0.4,0.4,0.7l-0.9,0
				c-0.1-0.1-0.2-0.1-0.3-0.1c-0.1,0-0.2,0-0.2,0.1c-0.1,0.1-0.1,0.1-0.1,0.2c0,0.1,0,0.2,0.1,0.3c0.1,0.1,0.2,0.1,0.3,0.1
				C89.2,65.9,89.3,65.8,89.3,65.6z"/>
			<path class="st5" d="M91.6,63.5v0.9H92v0.9h-0.4c0,0.2,0,0.3,0.1,0.4s0.2,0.1,0.3,0.1v0.9c0,0-0.1,0-0.1,0c-0.2,0-0.4,0-0.6-0.1
				c-0.2-0.1-0.3-0.2-0.4-0.4c-0.1-0.2-0.2-0.5-0.2-0.8v-1.9H91.6z"/>
			<path class="st5" d="M93.5,64.4v2.3h-0.9v-2.3H93.5z M93.1,63.4c0.1,0,0.2,0,0.3,0.1c0.1,0.1,0.1,0.2,0.1,0.3
				c0,0.1,0,0.2-0.1,0.3c-0.1,0.1-0.2,0.1-0.3,0.1c-0.1,0-0.2,0-0.3-0.1c-0.1-0.1-0.1-0.2-0.1-0.3c0-0.1,0-0.2,0.1-0.3
				C92.8,63.4,92.9,63.4,93.1,63.4z"/>
			<path class="st5" d="M95.3,64.3c0.3,0,0.6,0.1,0.8,0.4c0.2,0.2,0.4,0.5,0.4,0.8c0,0.3-0.1,0.6-0.4,0.9c-0.2,0.2-0.5,0.4-0.9,0.4
				s-0.6-0.1-0.9-0.4c-0.2-0.2-0.4-0.5-0.4-0.9c0-0.3,0.1-0.6,0.4-0.9C94.7,64.5,95,64.3,95.3,64.3z M95.3,65.2
				c-0.1,0-0.2,0-0.2,0.1C95,65.4,95,65.4,95,65.5c0,0.1,0,0.2,0.1,0.2c0.1,0.1,0.1,0.1,0.2,0.1c0.1,0,0.2,0,0.2-0.1
				c0.1-0.1,0.1-0.1,0.1-0.2c0-0.1,0-0.2-0.1-0.2C95.5,65.2,95.4,65.2,95.3,65.2z"/>
			<path class="st5" d="M99.2,66.7h-0.9v-1.3c0-0.1-0.1-0.2-0.2-0.2c-0.1,0-0.2,0.1-0.2,0.2v1.3h-0.9v-1.3c0-0.3,0.1-0.6,0.3-0.8
				s0.4-0.3,0.7-0.3c0.3,0,0.6,0.1,0.8,0.4c0.2,0.2,0.2,0.4,0.2,0.8V66.7z"/>
			<path class="st5" d="M101.4,64.4v0.9c-0.1,0-0.2,0-0.3,0.1c0,0-0.1,0.1-0.1,0.3c0,0.4-0.2,0.8-0.5,0.9c-0.2,0.1-0.4,0.1-0.7,0.1
				h-0.1v-0.9h0c0.1,0,0.2,0,0.3-0.1c0.1-0.1,0.1-0.2,0.1-0.3c0-0.2,0-0.4,0.1-0.5s0.1-0.2,0.2-0.3c0.2-0.2,0.4-0.2,0.7-0.2H101.4z"
				/>
			<path class="st5" d="M104.6,65.8v0.9c-0.1,0-0.1,0-0.2,0c-0.3,0-0.6-0.1-0.9-0.3s-0.3-0.5-0.3-0.9c0-0.3,0.1-0.6,0.4-0.9
				c0.2-0.2,0.5-0.3,0.9-0.3c0.4,0,0.7,0.1,0.9,0.3c0.2,0.2,0.3,0.5,0.3,0.9v1.1h-0.9v-1.1c0-0.1,0-0.2-0.1-0.3
				c-0.1-0.1-0.1-0.1-0.2-0.1c-0.1,0-0.2,0-0.2,0.1s-0.1,0.1-0.1,0.2c0,0.1,0,0.2,0.1,0.2c0.1,0.1,0.1,0.1,0.2,0.1
				C104.5,65.9,104.5,65.9,104.6,65.8z"/>
			<path class="st5" d="M107.2,64.4v2.3h-0.9v-2.3H107.2z M106.8,63.4c0.1,0,0.2,0,0.3,0.1c0.1,0.1,0.1,0.2,0.1,0.3
				c0,0.1,0,0.2-0.1,0.3c-0.1,0.1-0.2,0.1-0.3,0.1s-0.2,0-0.3-0.1c-0.1-0.1-0.1-0.2-0.1-0.3c0-0.1,0-0.2,0.1-0.3
				S106.7,63.4,106.8,63.4z"/>
			<path class="st5" d="M109.2,65.7v0.8c-0.1,0-0.2,0.1-0.4,0.1c-0.3,0-0.5-0.1-0.7-0.3c-0.2-0.2-0.3-0.5-0.3-0.8
				c0-0.3,0.1-0.6,0.3-0.8c0.2-0.2,0.5-0.3,0.9-0.3c0.2,0,0.4,0,0.5,0.1s0.3,0.2,0.4,0.3c0.2,0.2,0.2,0.5,0.2,0.9v0.8
				c0,0.4-0.1,0.7-0.4,1c-0.2,0.3-0.5,0.4-0.9,0.4c-0.1,0-0.3,0-0.4-0.1v-0.8c0.1,0.1,0.2,0.1,0.3,0.1c0.2,0,0.3-0.1,0.4-0.2
				s0.1-0.2,0.1-0.4v-0.9c0-0.2-0.1-0.4-0.3-0.4c-0.1,0-0.2,0-0.2,0.1c-0.1,0.1-0.1,0.1-0.1,0.2c0,0.1,0,0.2,0.1,0.2
				c0.1,0.1,0.1,0.1,0.2,0.1C109.1,65.8,109.1,65.8,109.2,65.7z"/>
			<path class="st5" d="M110.9,64.4h0.9v1.3c0,0.1,0.1,0.2,0.2,0.2c0.1,0,0.2-0.1,0.2-0.2v-1.3h0.9v1.3c0,0.3-0.1,0.6-0.3,0.8
				s-0.4,0.3-0.7,0.3c-0.3,0-0.6-0.1-0.8-0.4c-0.2-0.2-0.2-0.4-0.2-0.8V64.4z"/>
			<path class="st5" d="M116,65.7h-1.3c0-0.1,0-0.1,0-0.2c0-0.1,0-0.2,0-0.2h0.4c0-0.2-0.1-0.3-0.3-0.3c-0.1,0-0.2,0-0.3,0.1
				c-0.1,0.1-0.1,0.2-0.1,0.4c0,0.1,0,0.3,0.1,0.4s0.2,0.1,0.3,0.1c0.1,0,0.2,0,0.3-0.1l0.5,0.6c-0.2,0.2-0.5,0.3-0.8,0.3
				c-0.3,0-0.6-0.1-0.9-0.3c-0.2-0.2-0.3-0.5-0.3-0.9c0-0.3,0.1-0.6,0.4-0.9c0.2-0.2,0.5-0.3,0.9-0.3c0.3,0,0.6,0.1,0.8,0.3
				s0.3,0.5,0.3,0.8C116,65.6,116,65.6,116,65.7z M114.2,63.4c0.1,0,0.2,0,0.3,0.1c0.1,0.1,0.1,0.2,0.1,0.3c0,0.1,0,0.2-0.1,0.3
				c-0.1,0.1-0.2,0.1-0.3,0.1c-0.1,0-0.2,0-0.3-0.1c-0.1-0.1-0.1-0.2-0.1-0.3c0-0.1,0-0.2,0.1-0.3C114,63.4,114.1,63.4,114.2,63.4z
				 M115.4,63.4c0.1,0,0.2,0,0.3,0.1c0.1,0.1,0.1,0.2,0.1,0.3c0,0.1,0,0.2-0.1,0.3c-0.1,0.1-0.2,0.1-0.3,0.1c-0.1,0-0.2,0-0.3-0.1
				c-0.1-0.1-0.1-0.2-0.1-0.3c0-0.1,0-0.2,0.1-0.3S115.2,63.4,115.4,63.4z"/>
			<path class="st5" d="M118,64.4v0.9c-0.1,0-0.2,0-0.3,0.1c0,0-0.1,0.1-0.1,0.3c0,0.4-0.2,0.8-0.5,0.9c-0.2,0.1-0.4,0.1-0.7,0.1
				h-0.1v-0.9h0c0.1,0,0.2,0,0.3-0.1c0.1-0.1,0.1-0.2,0.1-0.3c0-0.2,0-0.4,0.1-0.5s0.1-0.2,0.2-0.3c0.2-0.2,0.4-0.2,0.7-0.2H118z"/>
			<path class="st5" d="M121.4,63.5h0.9v1.9c0,0.4-0.1,0.6-0.3,0.9c-0.1,0.1-0.2,0.2-0.4,0.3c-0.2,0.1-0.3,0.1-0.5,0.1
				c-0.3,0-0.6-0.1-0.9-0.3c-0.2-0.2-0.4-0.5-0.4-0.9c0-0.3,0.1-0.6,0.4-0.8s0.5-0.4,0.8-0.4c0.1,0,0.1,0,0.2,0v1
				c-0.1-0.1-0.1-0.1-0.2-0.1c-0.1,0-0.2,0-0.2,0.1c-0.1,0.1-0.1,0.1-0.1,0.2c0,0.1,0,0.2,0.1,0.2c0.1,0.1,0.1,0.1,0.2,0.1
				c0.2,0,0.3-0.2,0.3-0.5V63.5z"/>
			<path class="st5" d="M125.2,65.7h-1.3c0-0.1,0-0.1,0-0.2c0-0.1,0-0.2,0-0.2h0.4c0-0.2-0.1-0.3-0.3-0.3c-0.1,0-0.2,0-0.3,0.1
				c-0.1,0.1-0.1,0.2-0.1,0.4c0,0.1,0,0.3,0.1,0.4c0.1,0.1,0.2,0.1,0.3,0.1c0.1,0,0.2,0,0.3-0.1l0.5,0.6c-0.2,0.2-0.5,0.3-0.8,0.3
				c-0.3,0-0.6-0.1-0.9-0.3c-0.2-0.2-0.3-0.5-0.3-0.9c0-0.3,0.1-0.6,0.4-0.9c0.2-0.2,0.5-0.3,0.9-0.3c0.3,0,0.6,0.1,0.8,0.3
				c0.2,0.2,0.3,0.5,0.3,0.8C125.2,65.6,125.2,65.6,125.2,65.7z"/>
			<path class="st5" d="M127.3,64.4v0.9c-0.1,0-0.2,0-0.3,0.1c0,0-0.1,0.1-0.1,0.3c0,0.4-0.2,0.8-0.5,0.9c-0.2,0.1-0.4,0.1-0.7,0.1
				h-0.1v-0.9h0c0.1,0,0.2,0,0.3-0.1c0.1-0.1,0.1-0.2,0.1-0.3c0-0.2,0-0.4,0.1-0.5s0.1-0.2,0.2-0.3c0.2-0.2,0.4-0.2,0.7-0.2H127.3z"
				/>
			<path class="st5" d="M80.3,68.7l-1.1,2.4l-1.1-2.4H79l0.2,0.6l0.3-0.6H80.3z"/>
			<path class="st5" d="M81.7,68.6c0.3,0,0.6,0.1,0.8,0.4c0.2,0.2,0.4,0.5,0.4,0.8c0,0.3-0.1,0.6-0.4,0.9C82.3,70.9,82,71,81.7,71
				s-0.6-0.1-0.9-0.4c-0.2-0.2-0.4-0.5-0.4-0.9c0-0.3,0.1-0.6,0.4-0.9C81.1,68.7,81.4,68.6,81.7,68.6z M81.7,69.5
				c-0.1,0-0.2,0-0.2,0.1c-0.1,0.1-0.1,0.1-0.1,0.2c0,0.1,0,0.2,0.1,0.2s0.1,0.1,0.2,0.1c0.1,0,0.2,0,0.2-0.1s0.1-0.1,0.1-0.2
				c0-0.1,0-0.2-0.1-0.2C81.9,69.5,81.8,69.5,81.7,69.5z"/>
			<path class="st5" d="M84.4,68.7V71h-0.9v-2.3H84.4z M83.9,67.7c0.1,0,0.2,0,0.3,0.1c0.1,0.1,0.1,0.2,0.1,0.3c0,0.1,0,0.2-0.1,0.3
				s-0.2,0.1-0.3,0.1s-0.2,0-0.3-0.1s-0.1-0.2-0.1-0.3c0-0.1,0-0.2,0.1-0.3C83.7,67.7,83.8,67.7,83.9,67.7z"/>
			<path class="st5" d="M87.4,70h-1.3c0-0.1,0-0.1,0-0.2c0-0.1,0-0.2,0-0.2h0.4c0-0.2-0.1-0.3-0.3-0.3c-0.1,0-0.2,0-0.3,0.1
				c-0.1,0.1-0.1,0.2-0.1,0.4c0,0.1,0,0.3,0.1,0.4s0.2,0.1,0.3,0.1c0.1,0,0.2,0,0.3-0.1l0.5,0.6c-0.2,0.2-0.5,0.3-0.8,0.3
				c-0.3,0-0.6-0.1-0.9-0.3c-0.2-0.2-0.3-0.5-0.3-0.9c0-0.3,0.1-0.6,0.4-0.9c0.2-0.2,0.5-0.3,0.9-0.3c0.3,0,0.6,0.1,0.8,0.3
				c0.2,0.2,0.3,0.5,0.3,0.8C87.4,69.8,87.4,69.9,87.4,70z"/>
			<path class="st5" d="M89.4,68.7v0.9c-0.1,0-0.2,0-0.3,0.1c0,0-0.1,0.1-0.1,0.3c0,0.4-0.2,0.8-0.5,0.9c-0.2,0.1-0.4,0.1-0.7,0.1
				h-0.1v-0.9h0c0.1,0,0.2,0,0.3-0.1s0.1-0.2,0.1-0.3c0-0.2,0-0.4,0.1-0.5s0.1-0.2,0.2-0.3c0.2-0.2,0.4-0.2,0.7-0.2H89.4z"/>
			<path class="st5" d="M92.6,68.7v0.9c-0.1,0-0.1-0.1-0.2-0.1c-0.2,0-0.2,0.1-0.2,0.4V71h-0.9v-1.3c0-0.3,0.1-0.6,0.3-0.8
				c0.2-0.2,0.4-0.3,0.7-0.3C92.5,68.6,92.5,68.6,92.6,68.7z"/>
			<path class="st5" d="M95.4,70h-1.3c0-0.1,0-0.1,0-0.2c0-0.1,0-0.2,0-0.2h0.4c0-0.2-0.1-0.3-0.3-0.3c-0.1,0-0.2,0-0.3,0.1
				c-0.1,0.1-0.1,0.2-0.1,0.4c0,0.1,0,0.3,0.1,0.4c0.1,0.1,0.2,0.1,0.3,0.1c0.1,0,0.2,0,0.3-0.1l0.5,0.6c-0.2,0.2-0.5,0.3-0.8,0.3
				c-0.3,0-0.6-0.1-0.9-0.3c-0.2-0.2-0.3-0.5-0.3-0.9c0-0.3,0.1-0.6,0.4-0.9c0.2-0.2,0.5-0.3,0.9-0.3c0.3,0,0.6,0.1,0.8,0.3
				c0.2,0.2,0.3,0.5,0.3,0.8C95.4,69.8,95.4,69.9,95.4,70z"/>
			<path class="st5" d="M97.5,68.7v0.9c-0.1,0-0.2,0-0.3,0.1c0,0-0.1,0.1-0.1,0.3c0,0.4-0.2,0.8-0.5,0.9c-0.2,0.1-0.4,0.1-0.7,0.1
				h-0.1v-0.9h0c0.1,0,0.2,0,0.3-0.1s0.1-0.2,0.1-0.3c0-0.2,0-0.4,0.1-0.5s0.1-0.2,0.2-0.3c0.2-0.2,0.4-0.2,0.7-0.2H97.5z"/>
			<path class="st5" d="M98.8,71.8h-0.9v-1.9c0-0.4,0.1-0.6,0.3-0.9c0.1-0.1,0.2-0.2,0.4-0.3c0.2-0.1,0.3-0.1,0.5-0.1
				c0.3,0,0.6,0.1,0.9,0.3s0.4,0.5,0.4,0.9c0,0.3-0.1,0.6-0.4,0.8c-0.2,0.2-0.5,0.4-0.8,0.4c-0.1,0-0.1,0-0.2,0v-1
				c0.1,0.1,0.1,0.1,0.2,0.1c0.1,0,0.2,0,0.2-0.1c0.1-0.1,0.1-0.1,0.1-0.2s0-0.2-0.1-0.2c-0.1-0.1-0.1-0.1-0.2-0.1
				c-0.2,0-0.3,0.2-0.3,0.5V71.8z"/>
			<path class="st5" d="M101.8,68.7V71H101v-2.3H101.8z M101.4,67.7c0.1,0,0.2,0,0.3,0.1c0.1,0.1,0.1,0.2,0.1,0.3
				c0,0.1,0,0.2-0.1,0.3s-0.2,0.1-0.3,0.1s-0.2,0-0.3-0.1s-0.1-0.2-0.1-0.3c0-0.1,0-0.2,0.1-0.3C101.2,67.7,101.3,67.7,101.4,67.7z"
				/>
			<path class="st5" d="M103.8,68.7v0.9c-0.1,0-0.1-0.1-0.2-0.1c-0.2,0-0.2,0.1-0.2,0.4V71h-0.9v-1.3c0-0.3,0.1-0.6,0.3-0.8
				c0.2-0.2,0.4-0.3,0.7-0.3C103.6,68.6,103.7,68.6,103.8,68.7z"/>
			<path class="st5" d="M105.6,70.1V71c-0.1,0-0.1,0-0.2,0c-0.3,0-0.6-0.1-0.9-0.3c-0.2-0.2-0.3-0.5-0.3-0.9c0-0.3,0.1-0.6,0.4-0.9
				c0.2-0.2,0.5-0.3,0.9-0.3c0.4,0,0.7,0.1,0.9,0.3c0.2,0.2,0.3,0.5,0.3,0.9V71h-0.9v-1.1c0-0.1,0-0.2-0.1-0.3
				c-0.1-0.1-0.1-0.1-0.2-0.1c-0.1,0-0.2,0-0.2,0.1s-0.1,0.1-0.1,0.2c0,0.1,0,0.2,0.1,0.2c0.1,0.1,0.1,0.1,0.2,0.1
				C105.5,70.2,105.5,70.2,105.6,70.1z"/>
			<path class="st5" d="M108.1,67.8v0.9h0.4v0.9h-0.4c0,0.2,0,0.3,0.1,0.4c0.1,0.1,0.2,0.1,0.3,0.1V71c0,0-0.1,0-0.1,0
				c-0.2,0-0.4,0-0.6-0.1c-0.2-0.1-0.3-0.2-0.4-0.4c-0.1-0.2-0.2-0.5-0.2-0.8v-1.9H108.1z"/>
			<path class="st5" d="M110.3,68.6c0.3,0,0.6,0.1,0.8,0.4c0.2,0.2,0.4,0.5,0.4,0.8c0,0.3-0.1,0.6-0.4,0.9c-0.2,0.2-0.5,0.4-0.9,0.4
				s-0.6-0.1-0.9-0.4c-0.2-0.2-0.4-0.5-0.4-0.9c0-0.3,0.1-0.6,0.4-0.9C109.6,68.7,109.9,68.6,110.3,68.6z M110.2,69.5
				c-0.1,0-0.2,0-0.2,0.1c-0.1,0.1-0.1,0.1-0.1,0.2c0,0.1,0,0.2,0.1,0.2s0.1,0.1,0.2,0.1c0.1,0,0.2,0,0.2-0.1s0.1-0.1,0.1-0.2
				c0-0.1,0-0.2-0.1-0.2C110.4,69.5,110.3,69.5,110.2,69.5z"/>
			<path class="st5" d="M112.9,68.7V71h-0.9v-2.3H112.9z M112.5,67.7c0.1,0,0.2,0,0.3,0.1c0.1,0.1,0.1,0.2,0.1,0.3
				c0,0.1,0,0.2-0.1,0.3s-0.2,0.1-0.3,0.1c-0.1,0-0.2,0-0.3-0.1s-0.1-0.2-0.1-0.3c0-0.1,0-0.2,0.1-0.3
				C112.3,67.7,112.4,67.7,112.5,67.7z"/>
			<path class="st5" d="M114.9,68.7v0.9c-0.1,0-0.1-0.1-0.2-0.1c-0.2,0-0.2,0.1-0.2,0.4V71h-0.9v-1.3c0-0.3,0.1-0.6,0.3-0.8
				c0.2-0.2,0.4-0.3,0.7-0.3C114.7,68.6,114.8,68.6,114.9,68.7z"/>
			<path class="st5" d="M117.7,70h-1.3c0-0.1,0-0.1,0-0.2c0-0.1,0-0.2,0-0.2h0.4c0-0.2-0.1-0.3-0.3-0.3c-0.1,0-0.2,0-0.3,0.1
				c-0.1,0.1-0.1,0.2-0.1,0.4c0,0.1,0,0.3,0.1,0.4c0.1,0.1,0.2,0.1,0.3,0.1c0.1,0,0.2,0,0.3-0.1l0.5,0.6c-0.2,0.2-0.5,0.3-0.8,0.3
				c-0.3,0-0.6-0.1-0.9-0.3c-0.2-0.2-0.3-0.5-0.3-0.9c0-0.3,0.1-0.6,0.4-0.9c0.2-0.2,0.5-0.3,0.9-0.3c0.3,0,0.6,0.1,0.8,0.3
				c0.2,0.2,0.3,0.5,0.3,0.8C117.7,69.8,117.7,69.9,117.7,70z"/>
			<path class="st5" d="M119.7,68.7v0.9c-0.1,0-0.2,0-0.3,0.1c0,0-0.1,0.1-0.1,0.3c0,0.4-0.2,0.8-0.5,0.9c-0.2,0.1-0.4,0.1-0.7,0.1
				h-0.1v-0.9h0c0.1,0,0.2,0,0.3-0.1s0.1-0.2,0.1-0.3c0-0.2,0-0.4,0.1-0.5s0.1-0.2,0.2-0.3c0.2-0.2,0.4-0.2,0.7-0.2H119.7z"/>
			<path class="st5" d="M79.4,73v2.3h-0.9V73H79.4z M79,71.9c0.1,0,0.2,0,0.3,0.1c0.1,0.1,0.1,0.2,0.1,0.3c0,0.1,0,0.2-0.1,0.3
				c-0.1,0.1-0.2,0.1-0.3,0.1c-0.1,0-0.2,0-0.3-0.1c-0.1-0.1-0.1-0.2-0.1-0.3c0-0.1,0-0.2,0.1-0.3C78.8,72,78.9,71.9,79,71.9z"/>
			<path class="st5" d="M82.2,75.3h-0.9V74c0-0.1-0.1-0.2-0.2-0.2c-0.1,0-0.2,0.1-0.2,0.2v1.3h-0.9V74c0-0.3,0.1-0.6,0.3-0.8
				s0.4-0.3,0.7-0.3c0.3,0,0.6,0.1,0.8,0.4c0.2,0.2,0.2,0.4,0.2,0.8V75.3z"/>
			<path class="st5" d="M84.2,73.5v0.9h-0.4v0.9H83v-2c0-0.2,0-0.4,0.1-0.6c0.1-0.2,0.2-0.4,0.4-0.5c0.2-0.1,0.4-0.2,0.6-0.2l0.1,0
				V73c0,0,0,0,0,0c-0.1,0-0.2,0-0.3,0.1s-0.1,0.2-0.1,0.3v0.1H84.2z"/>
			<path class="st5" d="M87.1,74.3h-1.3c0-0.1,0-0.1,0-0.2c0-0.1,0-0.2,0-0.2h0.4c0-0.2-0.1-0.3-0.3-0.3c-0.1,0-0.2,0-0.3,0.1
				c-0.1,0.1-0.1,0.2-0.1,0.4c0,0.1,0,0.3,0.1,0.4s0.2,0.1,0.3,0.1c0.1,0,0.2,0,0.3-0.1l0.5,0.6c-0.2,0.2-0.5,0.3-0.8,0.3
				c-0.3,0-0.6-0.1-0.9-0.3c-0.2-0.2-0.3-0.5-0.3-0.9c0-0.3,0.1-0.6,0.4-0.9c0.2-0.2,0.5-0.3,0.9-0.3c0.3,0,0.6,0.1,0.8,0.3
				s0.3,0.5,0.3,0.8C87.1,74.1,87.1,74.2,87.1,74.3z M86.2,72.2h0.5l-0.5,0.5h-0.5L86.2,72.2z"/>
			<path class="st5" d="M89,72.9v0.9c-0.1,0-0.1-0.1-0.2-0.1c-0.2,0-0.2,0.1-0.2,0.4v1.1h-0.9V74c0-0.3,0.1-0.6,0.3-0.8
				c0.2-0.2,0.4-0.3,0.7-0.3C88.8,72.9,88.9,72.9,89,72.9z"/>
			<path class="st5" d="M90.3,73v2.3h-0.9V73H90.3z M89.9,71.9c0.1,0,0.2,0,0.3,0.1c0.1,0.1,0.1,0.2,0.1,0.3c0,0.1,0,0.2-0.1,0.3
				c-0.1,0.1-0.2,0.1-0.3,0.1c-0.1,0-0.2,0-0.3-0.1c-0.1-0.1-0.1-0.2-0.1-0.3c0-0.1,0-0.2,0.1-0.3C89.7,72,89.8,71.9,89.9,71.9z"/>
			<path class="st5" d="M93.4,74.3H92c0-0.1,0-0.1,0-0.2c0-0.1,0-0.2,0-0.2h0.4c0-0.2-0.1-0.3-0.3-0.3c-0.1,0-0.2,0-0.3,0.1
				c-0.1,0.1-0.1,0.2-0.1,0.4c0,0.1,0,0.3,0.1,0.4c0.1,0.1,0.2,0.1,0.3,0.1c0.1,0,0.2,0,0.3-0.1l0.5,0.6c-0.2,0.2-0.5,0.3-0.8,0.3
				c-0.3,0-0.6-0.1-0.9-0.3c-0.2-0.2-0.3-0.5-0.3-0.9c0-0.3,0.1-0.6,0.4-0.9c0.2-0.2,0.5-0.3,0.9-0.3c0.3,0,0.6,0.1,0.8,0.3
				c0.2,0.2,0.3,0.5,0.3,0.8C93.4,74.1,93.4,74.2,93.4,74.3z"/>
			<path class="st5" d="M93.9,73h0.9v1.3c0,0.1,0.1,0.2,0.2,0.2c0.1,0,0.2-0.1,0.2-0.2V73H96v1.3c0,0.3-0.1,0.6-0.3,0.8
				s-0.4,0.3-0.7,0.3c-0.3,0-0.6-0.1-0.8-0.4c-0.2-0.2-0.2-0.4-0.2-0.8V73z"/>
			<path class="st5" d="M98,72.9v0.9c-0.1,0-0.1-0.1-0.2-0.1c-0.2,0-0.2,0.1-0.2,0.4v1.1h-0.9V74c0-0.3,0.1-0.6,0.3-0.8
				c0.2-0.2,0.4-0.3,0.7-0.3C97.8,72.9,97.9,72.9,98,72.9z"/>
			<path class="st5" d="M100.8,74.3h-1.3c0-0.1,0-0.1,0-0.2c0-0.1,0-0.2,0-0.2h0.4c0-0.2-0.1-0.3-0.3-0.3c-0.1,0-0.2,0-0.3,0.1
				c-0.1,0.1-0.1,0.2-0.1,0.4c0,0.1,0,0.3,0.1,0.4s0.2,0.1,0.3,0.1c0.1,0,0.2,0,0.3-0.1l0.5,0.6c-0.2,0.2-0.5,0.3-0.8,0.3
				c-0.3,0-0.6-0.1-0.9-0.3c-0.2-0.2-0.3-0.5-0.3-0.9c0-0.3,0.1-0.6,0.4-0.9c0.2-0.2,0.5-0.3,0.9-0.3c0.3,0,0.6,0.1,0.8,0.3
				s0.3,0.5,0.3,0.8C100.8,74.1,100.8,74.2,100.8,74.3z"/>
			<path class="st5" d="M102.8,73v0.9c-0.1,0-0.2,0-0.3,0.1c0,0-0.1,0.1-0.1,0.3c0,0.4-0.2,0.8-0.5,0.9c-0.2,0.1-0.4,0.1-0.7,0.1
				h-0.1v-0.9h0c0.1,0,0.2,0,0.3-0.1c0.1-0.1,0.1-0.2,0.1-0.3c0-0.2,0-0.4,0.1-0.5c0-0.1,0.1-0.2,0.2-0.3c0.2-0.2,0.4-0.2,0.7-0.2
				H102.8z"/>
		</g>
	</g>
</g>
<g>
	
		<image style="overflow:visible;opacity:0.75;" width="64" height="51" xlink:href="B58600FB.png"  transform="matrix(0.24 0 0 0.24 60.7668 62.3766)">
	</image>
	<g>
		<g>
			<path class="st5" d="M65.1,64.1h1.7l-0.5,1.2c0.2,0.1,0.3,0.3,0.4,0.4c0.1,0.1,0.1,0.3,0.1,0.5c0,0.3-0.1,0.6-0.3,0.8
				c-0.2,0.2-0.5,0.3-0.8,0.3c-0.2,0-0.4,0-0.5-0.1v-0.9c0.1,0.1,0.3,0.1,0.3,0.1c0.1,0,0.2,0,0.3-0.1s0.1-0.2,0.1-0.3
				c0-0.1-0.1-0.2-0.2-0.3c-0.1-0.1-0.3-0.1-0.4-0.1l0.2-0.6h-0.3V64.1z"/>
			<path class="st5" d="M68.7,64c0.2,0,0.4,0.1,0.6,0.2s0.2,0.4,0.2,0.6c0,0.2-0.1,0.4-0.2,0.6c-0.2,0.2-0.4,0.2-0.6,0.2
				c-0.2,0-0.4-0.1-0.6-0.2s-0.2-0.4-0.2-0.6c0-0.2,0.1-0.4,0.2-0.6S68.4,64,68.7,64z M68.7,64.5c-0.1,0-0.2,0-0.3,0.1
				c-0.1,0.1-0.1,0.2-0.1,0.3c0,0.1,0,0.2,0.1,0.3c0.1,0.1,0.2,0.1,0.3,0.1c0.1,0,0.2,0,0.3-0.1C69,65,69,65,69,64.9
				c0-0.1,0-0.2-0.1-0.3C68.8,64.5,68.8,64.5,68.7,64.5z M70.5,64.1l-1.3,3.2h-0.3l1.3-3.2H70.5z M70.8,65.6c0.2,0,0.4,0.1,0.6,0.2
				s0.2,0.4,0.2,0.6s-0.1,0.4-0.2,0.6s-0.4,0.2-0.6,0.2c-0.2,0-0.4-0.1-0.6-0.2S70,66.7,70,66.4s0.1-0.4,0.2-0.6
				S70.6,65.6,70.8,65.6z M70.8,66.1c-0.1,0-0.2,0-0.3,0.1c-0.1,0.1-0.1,0.2-0.1,0.3c0,0.1,0,0.2,0.1,0.3c0.1,0.1,0.2,0.1,0.3,0.1
				s0.2,0,0.3-0.1c0.1-0.1,0.1-0.2,0.1-0.3c0-0.1,0-0.2-0.1-0.3C71,66.1,70.9,66.1,70.8,66.1z"/>
		</g>
	</g>
</g>
<g>
	
		<image style="overflow:visible;opacity:0.75;" width="66" height="51" xlink:href="B58600FC.png"  transform="matrix(0.24 0 0 0.24 60.2868 53.4966)">
	</image>
	<g>
		<g>
			<path class="st4" d="M65.4,55.1l0.8,0.3l-0.6,1.7c0,0,0,0.1,0,0.1c0,0.1,0,0.2,0.1,0.2c0.1,0.1,0.1,0.1,0.2,0.1s0.2,0,0.2-0.1
				c0.1-0.1,0.1-0.1,0.1-0.2s0-0.2-0.1-0.2c-0.1-0.1-0.1-0.1-0.2-0.1c0,0,0,0-0.1,0l0.4-0.9c0.3,0.1,0.6,0.3,0.7,0.5
				s0.2,0.4,0.2,0.7c0,0.3-0.1,0.6-0.4,0.9c-0.2,0.2-0.5,0.4-0.9,0.4c-0.3,0-0.6-0.1-0.8-0.4c-0.2-0.2-0.4-0.5-0.4-0.8
				c0-0.1,0.1-0.4,0.2-0.7L65.4,55.1z"/>
			<path class="st4" d="M68.7,55.1c0.2,0,0.4,0.1,0.6,0.2c0.2,0.2,0.2,0.4,0.2,0.6c0,0.2-0.1,0.4-0.2,0.6c-0.2,0.2-0.4,0.2-0.6,0.2
				c-0.2,0-0.4-0.1-0.6-0.2s-0.2-0.4-0.2-0.6c0-0.2,0.1-0.4,0.2-0.6S68.4,55.1,68.7,55.1z M68.7,55.6c-0.1,0-0.2,0-0.3,0.1
				c-0.1,0.1-0.1,0.2-0.1,0.3c0,0.1,0,0.2,0.1,0.3c0.1,0.1,0.2,0.1,0.3,0.1c0.1,0,0.2,0,0.3-0.1C69,56.1,69,56,69,55.9
				c0-0.1,0-0.2-0.1-0.3C68.8,55.6,68.8,55.6,68.7,55.6z M70.5,55.2l-1.3,3.2h-0.3l1.3-3.2H70.5z M70.8,56.7c0.2,0,0.4,0.1,0.6,0.2
				s0.2,0.4,0.2,0.6s-0.1,0.4-0.2,0.6c-0.2,0.2-0.4,0.2-0.6,0.2c-0.2,0-0.4-0.1-0.6-0.2C70,57.9,70,57.7,70,57.5s0.1-0.4,0.2-0.6
				S70.6,56.7,70.8,56.7z M70.8,57.2c-0.1,0-0.2,0-0.3,0.1c-0.1,0.1-0.1,0.2-0.1,0.3c0,0.1,0,0.2,0.1,0.3c0.1,0.1,0.2,0.1,0.3,0.1
				s0.2,0,0.3-0.1c0.1-0.1,0.1-0.2,0.1-0.3c0-0.1,0-0.2-0.1-0.3C71,57.2,70.9,57.2,70.8,57.2z"/>
		</g>
	</g>
</g>
<g>
	
		<image style="overflow:visible;opacity:0.75;" width="74" height="50" xlink:href="B58600FD.png"  transform="matrix(0.24 0 0 0.24 60.5268 40.7766)">
	</image>
	<g>
		<g>
			<path class="st2" d="M65.7,42.3v3.2h-0.9v-3.2H65.7z"/>
			<path class="st2" d="M68.6,42.3v3.2h-0.9v-3.2H68.6z"/>
			<path class="st2" d="M70.9,42.3c0.2,0,0.4,0.1,0.6,0.2c0.2,0.2,0.2,0.4,0.2,0.6c0,0.2-0.1,0.4-0.2,0.6c-0.2,0.2-0.4,0.2-0.6,0.2
				c-0.2,0-0.4-0.1-0.6-0.2s-0.2-0.4-0.2-0.6c0-0.2,0.1-0.4,0.2-0.6S70.7,42.3,70.9,42.3z M70.9,42.8c-0.1,0-0.2,0-0.3,0.1
				c-0.1,0.1-0.1,0.2-0.1,0.3c0,0.1,0,0.2,0.1,0.3c0.1,0.1,0.2,0.1,0.3,0.1s0.2,0,0.3-0.1c0.1-0.1,0.1-0.2,0.1-0.3
				c0-0.1,0-0.2-0.1-0.3C71.1,42.8,71,42.8,70.9,42.8z M72.7,42.3l-1.3,3.2h-0.3l1.3-3.2H72.7z M73,43.9c0.2,0,0.4,0.1,0.6,0.2
				s0.2,0.4,0.2,0.6s-0.1,0.4-0.2,0.6c-0.2,0.2-0.4,0.2-0.6,0.2c-0.2,0-0.4-0.1-0.6-0.2c-0.2-0.2-0.2-0.4-0.2-0.6s0.1-0.4,0.2-0.6
				S72.8,43.9,73,43.9z M73,44.3c-0.1,0-0.2,0-0.3,0.1c-0.1,0.1-0.1,0.2-0.1,0.3c0,0.1,0,0.2,0.1,0.3c0.1,0.1,0.2,0.1,0.3,0.1
				s0.2,0,0.3-0.1c0.1-0.1,0.1-0.2,0.1-0.3c0-0.1,0-0.2-0.1-0.3C73.2,44.4,73.1,44.3,73,44.3z"/>
		</g>
	</g>
</g>
<g>
	
		<image style="overflow:visible;opacity:0.75;" width="77" height="51" xlink:href="3C5E2142.png"  transform="matrix(0.24 0 0 0.24 60.5268 28.0566)">
	</image>
	<g>
		<g>
			<path class="st0" d="M67.1,29.8v3.2h-0.9v-2.4l-0.4,0.8H66V32h-1.2l0.9-2.2H67.1z"/>
			<path class="st0" d="M67.7,31.7V31c0-0.4,0.1-0.7,0.3-1c0.2-0.2,0.5-0.4,0.8-0.4s0.6,0.1,0.8,0.4c0.2,0.2,0.3,0.6,0.3,1v0.7
				c0,0.4-0.1,0.7-0.3,1S69.2,33,68.9,33s-0.6-0.1-0.8-0.4C67.8,32.4,67.7,32.1,67.7,31.7z M68.6,30.8v1.1c0,0.2,0.1,0.3,0.2,0.3
				c0.2,0,0.2-0.1,0.2-0.3v-1.1c0-0.2-0.1-0.3-0.2-0.3C68.7,30.5,68.6,30.6,68.6,30.8z"/>
			<path class="st0" d="M71.6,29.7c0.2,0,0.4,0.1,0.6,0.2c0.2,0.2,0.2,0.4,0.2,0.6c0,0.2-0.1,0.4-0.2,0.6s-0.4,0.2-0.6,0.2
				c-0.2,0-0.4-0.1-0.6-0.2s-0.2-0.4-0.2-0.6c0-0.2,0.1-0.4,0.2-0.6S71.4,29.7,71.6,29.7z M71.6,30.2c-0.1,0-0.2,0-0.3,0.1
				c-0.1,0.1-0.1,0.2-0.1,0.3c0,0.1,0,0.2,0.1,0.3c0.1,0.1,0.2,0.1,0.3,0.1c0.1,0,0.2,0,0.3-0.1c0.1-0.1,0.1-0.2,0.1-0.3
				c0-0.1,0-0.2-0.1-0.3C71.8,30.2,71.7,30.2,71.6,30.2z M73.4,29.8l-1.3,3.2h-0.3l1.3-3.2H73.4z M73.7,31.3c0.2,0,0.4,0.1,0.6,0.2
				s0.2,0.4,0.2,0.6c0,0.2-0.1,0.4-0.2,0.6c-0.2,0.2-0.4,0.2-0.6,0.2c-0.2,0-0.4-0.1-0.6-0.2c-0.2-0.2-0.2-0.4-0.2-0.6
				c0-0.2,0.1-0.4,0.2-0.6S73.5,31.3,73.7,31.3z M73.7,31.8c-0.1,0-0.2,0-0.3,0.1c-0.1,0.1-0.1,0.2-0.1,0.3c0,0.1,0,0.2,0.1,0.3
				c0.1,0.1,0.2,0.1,0.3,0.1c0.1,0,0.2,0,0.3-0.1c0.1-0.1,0.1-0.2,0.1-0.3c0-0.1,0-0.2-0.1-0.3C73.9,31.8,73.8,31.8,73.7,31.8z"/>
		</g>
	</g>
</g>
<g>
	
		<image style="overflow:visible;opacity:0.75;" width="77" height="50" xlink:href="3C5E2146.png"  transform="matrix(0.24 0 0 0.24 60.5268 15.3366)">
	</image>
	<g>
		<g>
			<path class="st3" d="M67.1,16.9V20h-0.9v-2.4l-0.4,0.8H66v0.7h-1.2l0.9-2.2H67.1z"/>
			<path class="st3" d="M67.7,18.8v-0.7c0-0.4,0.1-0.7,0.3-1c0.2-0.2,0.5-0.4,0.8-0.4c0.3,0,0.6,0.1,0.8,0.4c0.2,0.2,0.3,0.6,0.3,1
				v0.7c0,0.4-0.1,0.7-0.3,1s-0.5,0.4-0.8,0.4c-0.3,0-0.6-0.1-0.8-0.4C67.8,19.5,67.7,19.2,67.7,18.8z M68.6,17.9V19
				c0,0.2,0.1,0.3,0.2,0.3c0.2,0,0.2-0.1,0.2-0.3v-1.1c0-0.2-0.1-0.3-0.2-0.3C68.7,17.6,68.6,17.7,68.6,17.9z"/>
			<path class="st3" d="M71.6,16.8c0.2,0,0.4,0.1,0.6,0.2c0.2,0.2,0.2,0.4,0.2,0.6c0,0.2-0.1,0.4-0.2,0.6c-0.2,0.2-0.4,0.2-0.6,0.2
				c-0.2,0-0.4-0.1-0.6-0.2s-0.2-0.4-0.2-0.6c0-0.2,0.1-0.4,0.2-0.6S71.4,16.8,71.6,16.8z M71.6,17.3c-0.1,0-0.2,0-0.3,0.1
				c-0.1,0.1-0.1,0.2-0.1,0.3c0,0.1,0,0.2,0.1,0.3c0.1,0.1,0.2,0.1,0.3,0.1s0.2,0,0.3-0.1c0.1-0.1,0.1-0.2,0.1-0.3
				c0-0.1,0-0.2-0.1-0.3C71.8,17.3,71.7,17.3,71.6,17.3z M73.4,16.9L72.1,20h-0.3l1.3-3.2H73.4z M73.7,18.4c0.2,0,0.4,0.1,0.6,0.2
				s0.2,0.4,0.2,0.6s-0.1,0.4-0.2,0.6C74.1,20,74,20,73.7,20c-0.2,0-0.4-0.1-0.6-0.2c-0.2-0.2-0.2-0.4-0.2-0.6s0.1-0.4,0.2-0.6
				S73.5,18.4,73.7,18.4z M73.7,18.9c-0.1,0-0.2,0-0.3,0.1c-0.1,0.1-0.1,0.2-0.1,0.3c0,0.1,0,0.2,0.1,0.3c0.1,0.1,0.2,0.1,0.3,0.1
				s0.2,0,0.3-0.1c0.1-0.1,0.1-0.2,0.1-0.3c0-0.1,0-0.2-0.1-0.3C73.9,18.9,73.8,18.9,73.7,18.9z"/>
		</g>
	</g>
</g>
<g>
</g>
<g>
</g>
<g>
</g>
<g>
</g>
<g>
</g>
<g>
</g>
</svg>
