<?xml version="1.0" encoding="utf-8"?>
<!-- Generator: Adobe Illustrator 24.0.0, SVG Export Plug-In . SVG Version: 6.00 Build 0)  -->
<svg version="1.1" id="Calque_1" xmlns="http://www.w3.org/2000/svg" xmlns:xlink="http://www.w3.org/1999/xlink" x="0px" y="0px"
	 viewBox="0 0 131.8 123.2" style="enable-background:new 0 0 131.8 123.2;" xml:space="preserve">
<style type="text/css">
	.st0{fill:#FCDAC0;}
	.st1{fill:#5C200E;}
	.st2{fill:#BCDAA9;}
	.st3{fill:#F8DFEE;}
	.st4{fill:#EC5F59;}
	.st5{fill:#ADDCEB;}
</style>
<path class="st0" d="M81.3,103.4L81.3,103.4c-0.9,0-1.5-0.6-1.5-1.3V22c0-0.7,0.7-1.3,1.5-1.3l6.7,0c0.9,0,1.7,0.7,1.5,1.3v74.4
	C89.5,100.3,85.8,103.4,81.3,103.4z"/>
<path class="st1" d="M79.7,102.4c1,0.1,1.4-2.1,2.4-2c0,0-0.1-0.1-0.1-0.1c-0.1-0.3,0.1-0.6,0.1-1c-0.2,0-0.4,0-0.6,0.1v-0.6
	c-0.6,0.1-0.7-0.2-0.5-0.6c0-0.1,0-0.2,0-0.2c0-1.4,0.1-2.8,0-4.1C81,92.4,81,91.2,81,89.9c0.1-1.9,0.1-3.9,0.1-5.8
	c0-1.4-0.1-2.9,0-4.3c0-0.4-0.1-0.9,0.1-1.4c0.2-0.5,0.1-1.1,0.1-1.7c0-0.4,0-0.8,0-1.2c0-0.2,0-0.3,0-0.5c0-0.2-0.2-0.4-0.1-0.6
	c0-0.4,0.3-0.8,0.2-1.1c-0.2-0.6-0.1-1.2-0.1-1.8c0-0.5,0-1,0-1.4c0.1-1-0.3-2,0-3c0.1-0.4,0-0.9,0-1.3c0-0.7-0.1-1.4-0.1-2.1
	c0-1.2,0.1-2.3,0.1-3.5c0-0.4-0.2-0.9-0.2-1.3c0-0.5,0.1-1,0.2-1.5c0-0.4-0.2-0.8-0.1-1.1c0.4-0.6,0.1-1.1,0.1-1.6
	c0-0.9,0.1-1.8,0.1-2.7c0-0.3,0-0.6,0-0.9c0-0.4,0-0.9,0-1.5c-0.2-0.1-0.2-0.4,0-0.8c0-0.1,0.1-0.2,0.1-0.2
	c-0.5-0.4,0.1-0.5,0.4-0.8c-0.4-0.1-0.7-0.1-1.1-0.2c0.2-0.6,0.4-1.1,0.6-1.6c0.2-0.6,0.2-1.1-0.2-1.7c-0.2-0.2-0.3-0.5-0.3-0.8
	c0-0.6,0-1.2,0-1.8c0-1.4,0-2.9,0-4.3c0-0.1-0.1-0.2,0-0.2c0.1-0.5-0.4-1.1,0.5-1.4c-0.7-0.3-0.6-0.8-0.6-1.2c0-1,0-2.1,0-3.1
	c0.3-0.1,0.5-0.1,0.7-0.1c-0.2-0.1-0.4-0.2-0.4-0.3c-0.1-0.3-0.2-0.6-0.2-0.9c0-0.7,0.2-1.5,0.1-2.2c-0.1-1.1,0.1-2.3,0.2-3.4
	c0-0.2-0.2-0.5-0.3-0.7c0.2-0.3,0.5-0.6,0.6-1c0.2-0.4,0.2-0.8,0.2-1.3c0.1,0.2,0.2,0.4,0.2,0.4c0.1-0.3,0.3-0.6,0.5-0.9
	c0,0-0.1,0-0.3-0.2c0.3-0.1,0.6-0.1,0.8-0.2c0,0.2,0,0.4,0.1,0.6c0.4-0.4,1.2,0.1,1.5-0.6c0.1,0.1,0.2,0.2,0.4,0.2
	c0.1-0.1,0.2-0.2,0.3-0.2c0.5,0,1,0,1.6,0.1c0.1,0,0.3,0.1,0.3,0.2c0,0.6,0,1.1,0,1.7c-0.1,0-0.1,0-0.2,0C87,22.5,87,22.3,86.9,22
	c0-0.1-0.1-0.2-0.2-0.2c0,0-0.2,0-0.2,0.1c-0.1,0.4-0.2,0.8-0.2,1.2c0.4,0,0.7,0,0.9,0c0.1,0,0.1,0,0.2,0
	c0.1,11.6,0.1,23.2,0.1,34.7c0.1,11.6,0.1,23.2,0.2,34.8c0.1-2,0.1-4.1,0.1-6.1c0-3.6,0-7.2,0-10.8c0-4.4,0-8.8,0-13.2
	c0-3.5,0-7.1,0-10.6c0-3.6-0.1-7.1-0.1-10.7c0-2.8,0-5.6,0-8.4c0-2.9,0-5.8,0-8.6c0-0.4,0.2-0.8,0.3-1.3c-0.7-0.5-0.2-1.2-0.3-2
	c0.7,0.2,1.3,1.1,1.9,1.2c-0.1-0.1-0.1-0.7-0.2-0.8c-0.3-0.2-0.7-0.6-1.2-0.6c-1.6-0.1-3.2-0.3-4.9-0.3c-1.1,0-2.2,0.2-3.4,0.4
	c-0.5,0.1-0.8,0.3-0.7,0.9c0.1,1,0,2,0,3.1c0,5,0.1,10.1,0.1,15.1c0,7.6,0,15.1,0,22.7c0,3.3,0,6.6,0,9.9c0,3,0.1,6,0.1,9.1"/>
<path class="st2" d="M65.5,91.7L65.5,91.7c-0.9,0-1.5-0.2-1.5-0.4V67.8c0-0.2,0.7-0.4,1.5-0.4h6.7c0.9,0,1.7,0.2,1.5,0.4v21.8
	C73.8,90.8,70.1,91.7,65.5,91.7z"/>
<path class="st3" d="M97.1,103.4L97.1,103.4c-0.9,0-1.5-0.6-1.5-1.3V22c0-0.7,0.7-1.3,1.5-1.3h6.7c0.9,0,1.7,0.7,1.5,1.3v74.4
	C105.3,100.3,101.6,103.4,97.1,103.4z"/>
<path class="st1" d="M95.9,102.3c1,0.1,1.4-2.1,2.4-2c0,0-0.1-0.1-0.1-0.1c-0.1-0.3,0.1-0.6,0.1-1c-0.2,0-0.4,0-0.6,0.1v-0.6
	c-0.6,0.1-0.7-0.2-0.5-0.6c0-0.1,0-0.2,0-0.2c0-1.4,0.1-2.8,0-4.1c-0.1-1.3-0.1-2.6-0.1-3.9c0.1-1.9,0.1-3.9,0.1-5.8
	c0-1.4-0.1-2.9,0-4.3c0-0.4-0.1-0.9,0.1-1.4c0.2-0.5,0.1-1.1,0.1-1.7c0-0.4,0-0.8,0-1.2c0-0.2,0-0.3,0-0.5c0-0.2-0.2-0.4-0.1-0.6
	c0-0.4,0.3-0.8,0.2-1.1c-0.2-0.6-0.1-1.2-0.1-1.8c0-0.5,0-1,0-1.4c0.1-1-0.3-2,0-3c0.1-0.4,0-0.9,0-1.3c0-0.7-0.1-1.4-0.1-2.1
	c0-1.2,0.1-2.3,0.1-3.5c0-0.4-0.2-0.9-0.2-1.3c0-0.5,0.1-1,0.2-1.5c0-0.4-0.2-0.8-0.1-1.1c0.4-0.6,0.1-1.1,0.1-1.6
	c0-0.9,0.1-1.8,0.1-2.7c0-0.3,0-0.6,0-0.8c0-0.4,0-0.9,0-1.5c-0.2-0.1-0.2-0.4,0-0.8c0-0.1,0.1-0.2,0.1-0.2
	c-0.5-0.4,0.1-0.5,0.4-0.8c-0.4-0.1-0.7-0.1-1.1-0.2c0.2-0.6,0.4-1.1,0.6-1.6c0.2-0.6,0.2-1.1-0.2-1.7c-0.2-0.2-0.3-0.5-0.3-0.8
	c0-0.6,0-1.2,0-1.8c0-1.4,0-2.9,0-4.3c0-0.1-0.1-0.2,0-0.2c0.1-0.5-0.4-1.1,0.5-1.4C97,35.6,97,35.1,97,34.6c0-1,0-2.1,0-3.1
	c0.3-0.1,0.5-0.1,0.7-0.1c-0.2-0.1-0.4-0.2-0.4-0.3c-0.1-0.3-0.2-0.6-0.2-0.9c0-0.7,0.2-1.5,0.1-2.2c-0.1-1.1,0.1-2.3,0.2-3.4
	c0-0.2-0.2-0.5-0.3-0.7c0.2-0.3,0.5-0.6,0.6-1c0.2-0.4,0.2-0.8,0.2-1.3c0.1,0.2,0.2,0.4,0.2,0.4c0.1-0.3,0.3-0.6,0.5-0.9
	c0,0-0.1,0-0.3-0.2c0.3-0.1,0.6-0.1,0.8-0.2c0,0.2,0,0.4,0.1,0.6c0.4-0.4,1.2,0.1,1.5-0.6c0.1,0.1,0.2,0.2,0.4,0.2
	c0.1-0.1,0.2-0.2,0.3-0.2c0.5,0,1,0,1.6,0.1c0.1,0,0.3,0.1,0.3,0.2c0,0.6,0,1.1,0,1.7c-0.1,0-0.1,0-0.2,0c-0.1-0.2-0.1-0.4-0.2-0.7
	c0-0.1-0.1-0.2-0.2-0.2c0,0-0.2,0-0.2,0.1c-0.1,0.4-0.2,0.8-0.2,1.2c0.4,0,0.7,0,0.9,0c0.1,0,0.1,0,0.2,0
	c0.1,11.6,0.1,23.1,0.1,34.7c0.1,11.6,0.1,23.2,0.2,34.8c0.1-2,0.1-4.1,0.1-6.1c0-3.6,0-7.2,0-10.8c0-4.4,0-8.8,0-13.2
	c0-3.5,0-7.1,0-10.6c0-3.6-0.1-7.1-0.1-10.7c0-2.8,0-5.6,0-8.4c0-2.9,0-5.8,0-8.6c0-0.4,0.2-0.8,0.3-1.3c-0.7-0.5-0.2-1.2-0.3-2
	c0.7,0.2,1.3,1.1,1.9,1.2c-0.1-0.1-0.1-0.7-0.2-0.8c-0.3-0.2-0.7-0.6-1.2-0.6c-1.6-0.1-3.2-0.3-4.9-0.3c-1.1,0-2.2,0.2-3.4,0.4
	c-0.5,0.1-0.8,0.3-0.7,0.9c0.1,1,0,2,0,3.1c0,5,0.1,10.1,0.1,15.1c0,7.6,0,15.1,0,22.7c0,3.3,0,6.6,0,9.9c0,3,0.1,6,0.1,9"/>
<path class="st4" d="M47.3,103.1L47.3,103.1l0-21.5h6.5c1.6,0,2.8,1.3,2.8,2.8v9.3C56.6,98.9,52.5,103.1,47.3,103.1z"/>
<g>
	<g>
		<path class="st1" d="M46.9,103.1c1,0,1.4-0.6,2.4-0.5c0,0-0.1,0-0.1,0c-0.1-0.1,0.1-0.2,0.1-0.3c-0.2,0-0.4,0-0.6,0v-0.2
			c-0.6,0-0.7,0-0.5-0.2c0,0,0,0,0-0.1c0-0.4,0.1-0.7,0-1.1c-0.1-0.3-0.1-0.7-0.1-1c0.1-0.5,0.1-1,0.1-1.5c0-0.4-0.1-0.8,0-1.1
			c0-0.1-0.1-0.2,0.1-0.4c0.2-0.1,0.1-0.3,0.1-0.4c0-0.1,0-0.2,0-0.3c0,0,0-0.1,0-0.1c0-0.1-0.2-0.1-0.1-0.2c0-0.1,0.3-0.2,0.2-0.3
			c-0.2-0.2-0.1-0.3-0.1-0.5c0-0.1,0-0.3,0-0.4c0.1-0.3-0.3-0.5,0-0.8c0.1-0.1,0-0.2,0-0.4c0-0.2-0.1-0.4-0.1-0.5
			c0-0.3,0.1-0.6,0.1-0.9c0-0.1-0.2-0.2-0.2-0.4c0-0.1,0.1-0.3,0.2-0.4c0-0.1-0.2-0.2-0.1-0.3c0.4-0.1,0.1-0.3,0.1-0.4
			c0-0.2,0.1-0.5,0.1-0.7c0-0.1,0-0.1,0-0.2c0-0.1,0-0.2,0-0.4c-0.2,0-0.2-0.1,0-0.2c0,0,0.1,0,0.1,0c-0.5-0.1,0.1-0.1,0.4-0.2
			c-0.4,0-0.7,0-1.1-0.1c0.2-0.1,0.4-0.3,0.6-0.4c0.2-0.2,0.2-0.3-0.2-0.4c-0.2-0.1-0.3-0.1-0.3-0.2c0-0.2,0-0.3,0-0.5
			c0-0.4,0-0.8,0-1.1c0,0-0.1,0,0-0.1c0.1-0.1-0.4-0.3,0.5-0.4C48,85.5,48,85.4,48,85.3c0-0.3,0-0.5,0-0.8c0.3,0,0.5,0,0.7,0
			c-0.2,0-0.4,0-0.4-0.1c-0.1-0.1-0.2-0.2-0.2-0.2c0-0.2,0.2-0.4,0.1-0.6c-0.1-0.3,0.1-0.6,0.2-0.9c0-0.1-0.2-0.1-0.3-0.2
			c0.2-0.1,0.5-0.2,0.6-0.3c0.2-0.1,0.2-0.2,0.2-0.4c0.1,0.1,0.2,0.1,0.2,0.1c0.1-0.1,0.3-0.2,0.5-0.2c0,0-0.1,0-0.3,0
			c0.3,0,0.6,0,0.8-0.1c0,0.1,0,0.1,0.1,0.2c0.4-0.1,1.2,0,1.5-0.2c0.1,0,0.2,0,0.4,0.1c0.1,0,0.2-0.1,0.3-0.1c0.5,0,1,0,1.6,0
			c0.1,0,0.3,0,0.3,0.1c0,0.1,0,0.3,0,0.4c-0.1,0-0.1,0-0.2,0c-0.1-0.1-0.1-0.1-0.2-0.2c0,0-0.1,0-0.2-0.1c0,0-0.2,0-0.2,0
			c-0.1,0.1-0.2,0.2-0.2,0.3c0.4,0,0.7,0,0.9,0c0.1,0,0.1,0,0.2,0c0.1,3,0.1,6.1,0.1,9.1c0.1,3.1,0.2,3.1,0.2,6.2c0.1-0.5,0,0,0-0.5
			c0-0.9,0,0,0-0.9c0-1.2,0-2.3,0-3.5c0-0.9,0-1.9,0-2.8c0-0.9-0.1-1.9-0.1-2.8c0-0.7,0-1.5,0-2.2c0-0.8,0-1.5,0-2.3
			c0-0.1,0.2-0.2,0.3-0.3c-0.7-0.1-0.2-0.3-0.3-0.5c0.7,0.1,1.3,0.3,1.9,0.3c-0.1,0-0.1-0.2-0.2-0.2c-0.3-0.1-0.7-0.2-1.2-0.2
			c-1.6,0-3.2-0.1-4.9-0.1c-1.1,0-2.2,0.1-3.4,0.1c-0.5,0-0.8,0.1-0.7,0.2c0.1,0.3,0,0.5,0,0.8c0,1.3,0.1,2.7,0.1,4c0,2,0,4,0,6
			c0,0.9,0,1.7,0,2.6c0,0.8,0.1,1.6,0.1,2.4"/>
	</g>
</g>
<path class="st2" d="M64.4,102.9L64.4,102.9l0-18.2H71c1.6,0,2.8,1.3,2.8,2.8v6.1C73.8,98.7,69.6,102.9,64.4,102.9z"/>
<path class="st1" d="M64,102.9c1,0,1.4-0.9,2.4-0.9c0,0-0.1,0-0.1-0.1c-0.1-0.1,0.1-0.3,0.1-0.4c-0.2,0-0.4,0-0.6,0v-0.3
	c-0.6,0-0.7-0.1-0.5-0.3c0,0,0-0.1,0-0.1c0-0.6,0.1-1.2,0-1.8c-0.1-0.6-0.1-1.1-0.1-1.7c0.1-0.8,0.1-1.7,0.1-2.5
	c0-0.6-0.1-1.3,0-1.9c0-0.2-0.1-0.4,0.1-0.6c0.2-0.2,0.1-0.5,0.1-0.7c0-0.2,0-0.4,0-0.5c0-0.1,0-0.1,0-0.2c0-0.1-0.2-0.2-0.1-0.3
	c0-0.2,0.3-0.3,0.2-0.5c-0.2-0.3-0.1-0.5-0.1-0.8c0-0.2,0-0.4,0-0.6c0.1-0.4-0.3-0.9,0-1.3c0.1-0.2,0-0.4,0-0.6
	c0-0.3-0.1-0.6-0.1-0.9c0-0.5,0.1-1,0.1-1.5c0-0.2-0.2-0.4-0.2-0.6c0-0.2,0.1-0.4,0.2-0.6c0-0.2-0.2-0.4-0.1-0.5
	c0.4-0.2,0.1-0.5,0.1-0.7c0-0.4,0.1-0.8,0.1-1.2c0-0.1,0-0.2,0-0.4c0-0.2,0-0.4,0-0.6c-0.2-0.1-0.2-0.2,0-0.3c0,0,0.1-0.1,0.1-0.1
	c-0.5-0.2,0.1-0.2,0.4-0.3c-0.4,0-0.7-0.1-1.1-0.1c0.2-0.2,0.4-0.5,0.6-0.7c0.2-0.3,0.2-0.5-0.2-0.7c-0.2-0.1-0.3-0.2-0.3-0.4
	c0-0.3,0-0.5,0-0.8c0-0.6,0-1.2,0-1.9c0,0-0.1-0.1,0-0.1c0.1-0.2-0.4-0.5,0.5-0.6c-0.7-0.1-0.6-0.3-0.6-0.5c0-0.4,0-0.9,0-1.3
	c0.3,0,0.5,0,0.7-0.1c-0.2,0-0.4-0.1-0.4-0.1c-0.1-0.1-0.2-0.3-0.2-0.4c0-0.3,0.2-0.6,0.1-0.9c-0.1-0.5,0.1-1,0.2-1.5
	c0-0.1-0.2-0.2-0.3-0.3c0.2-0.1,0.5-0.3,0.6-0.4c0.2-0.2,0.2-0.4,0.2-0.6c0.1,0.1,0.2,0.2,0.2,0.2c0.1-0.1,0.3-0.3,0.5-0.4
	c0,0-0.1,0-0.3-0.1c0.3,0,0.6-0.1,0.8-0.1c0,0.1,0,0.2,0.1,0.3c0.4-0.2,1.2,0,1.5-0.3c0.1,0,0.2,0.1,0.4,0.1c0.1,0,0.2-0.1,0.3-0.1
	c0.5,0,1,0,1.6,0c0.1,0,0.3,0.1,0.3,0.1c0,0.2,0,0.5,0,0.7c-0.1,0-0.1,0-0.2,0c-0.1-0.1-0.1-0.2-0.2-0.3c0,0-0.1-0.1-0.2-0.1
	c0,0-0.2,0-0.2,0c-0.1,0.2-0.2,0.4-0.2,0.5c0.4,0,0.7,0,0.9,0c0.1,0,0.1,0,0.2,0c0.1,5,0.1,10.1,0.1,15.1c0.1,5,0.1,10.1,0.2,15.1
	C72,97.8,72,96.9,72,96c0-1.6,0-3.1,0-4.7c0-1.9,0-3.8,0-5.7c0-1.5,0-3.1,0-4.6c0-1.6-0.1-3.1-0.1-4.7c0-1.2,0-2.4,0-3.7
	c0-1.3,0-2.5,0-3.8c0-0.2,0.2-0.3,0.3-0.5c-0.7-0.2-0.2-0.5-0.3-0.9c0.7,0.1,1.3,0.5,1.9,0.5c-0.1,0-0.1-0.3-0.2-0.3
	c-0.3-0.1-0.7-0.3-1.2-0.3c-1.6-0.1-3.2-0.1-4.9-0.1c-1.1,0-2.2,0.1-3.4,0.2c-0.5,0-0.8,0.1-0.7,0.4c0.1,0.4,0,0.9,0,1.3
	c0,2.2,0.1,4.4,0.1,6.6c0,3.3,0,6.6,0,9.8c0,1.4,0,2.9,0,4.3c0,1.3,0.1,2.6,0.1,3.9"/>
<path class="st5" d="M31.9,103.3L31.9,103.3c-0.6,0-1.1-0.5-1.1-1.1v-8c0-0.6,0.5-1.1,1.1-1.1h7.8c0.6,0,1.1,0.5,1.1,1.1v0.2
	C40.8,99.3,36.8,103.3,31.9,103.3z"/>
<path class="st1" d="M30.7,103.3c1,0,1.4-0.3,2.4-0.2c0,0-0.1,0-0.1,0c-0.1,0,0.1-0.1,0.1-0.1c-0.2,0-0.4,0-0.6,0v-0.1
	c-0.6,0-0.7,0-0.5-0.1c0,0,0,0,0,0c0-0.2,0.1-0.3,0-0.5c-0.1-0.2-0.1-0.3-0.1-0.5c0.1-0.2,0.1-0.5,0.1-0.7c0-0.2-0.1-0.4,0-0.5
	c0-0.1-0.1-0.1,0.1-0.2c0.2-0.1,0.1-0.1,0.1-0.2c0-0.1,0-0.1,0-0.2c0,0,0,0,0-0.1c0,0-0.2-0.1-0.1-0.1c0,0,0.3-0.1,0.2-0.1
	c-0.2-0.1-0.1-0.2-0.1-0.2c0-0.1,0-0.1,0-0.2c0.1-0.1-0.3-0.2,0-0.4c0.1-0.1,0-0.1,0-0.2c0-0.1-0.1-0.2-0.1-0.3
	c0-0.1,0.1-0.3,0.1-0.4c0-0.1-0.2-0.1-0.2-0.2c0-0.1,0.1-0.1,0.2-0.2c0,0-0.2-0.1-0.1-0.1c0.4-0.1,0.1-0.1,0.1-0.2
	c0-0.1,0.1-0.2,0.1-0.3c0,0,0-0.1,0-0.1c0-0.1,0-0.1,0-0.2c-0.2,0-0.2-0.1,0-0.1c0,0,0.1,0,0.1,0c-0.5-0.1,0.1-0.1,0.4-0.1
	c-0.4,0-0.7,0-1.1,0c0.2-0.1,0.4-0.1,0.6-0.2c0.2-0.1,0.2-0.1-0.2-0.2c-0.2,0-0.3-0.1-0.3-0.1c0-0.1,0-0.2,0-0.2c0-0.2,0-0.4,0-0.5
	c0,0-0.1,0,0,0c0.1-0.1-0.4-0.1,0.5-0.2c-0.7,0-0.6-0.1-0.6-0.2c0-0.1,0-0.3,0-0.4c0.3,0,0.5,0,0.7,0c-0.2,0-0.4,0-0.4,0
	c-0.1,0-0.2-0.1-0.2-0.1c0-0.1,0.2-0.2,0.1-0.3c-0.1-0.1,0.1-0.3,0.2-0.4c0,0-0.2-0.1-0.3-0.1c0.2,0,0.5-0.1,0.6-0.1
	c0.2,0,0.2-0.1,0.2-0.2c0.1,0,0.2,0,0.2,0.1c0.1,0,0.3-0.1,0.5-0.1c0,0-0.1,0-0.3,0c0.3,0,0.6,0,0.8,0c0,0,0,0.1,0.1,0.1
	c0.4-0.1,1.2,0,1.5-0.1c0.1,0,0.2,0,0.4,0c0.1,0,0.2,0,0.3,0c0.5,0,1,0,1.6,0c0.1,0,0.3,0,0.3,0c0,0.1,0,0.1,0,0.2
	c-0.1,0-0.1,0-0.2,0c-0.1,0-0.1-0.1-0.2-0.1c0,0-0.1,0-0.2,0c0,0-0.2,0-0.2,0c-0.1,0.1-0.2,0.1-0.2,0.1c0.4,0,0.7,0,0.9,0
	c0.1,0,0.1,0,0.2,0c0.1,1.4,0.1,2.9,0.1,4.3c0.1,1.5,0.1,1.5,0.1,3c0.1-0.3,0.1-1.3,0.1-1.6c0-0.5,0.1,1.3,0.1,0.8
	c0-0.6,0-1.1,0-1.7c0-0.4,0-0.9,0-1.3c0-0.4-0.1-0.9-0.1-1.3c0-0.4,0-0.7,0-1.1c0-0.4,0-0.7,0-1.1c0,0,0.2-0.1,0.3-0.2
	c-0.7-0.1-0.2-0.1-0.3-0.3c0.7,0,1.3,0.1,1.9,0.2c-0.1,0-0.1-0.1-0.2-0.1c-0.3,0-0.7-0.1-1.2-0.1c-1.6,0-3.2,0-4.9,0
	c-1.1,0-2.2,0-3.4,0.1c-0.5,0-0.8,0-0.7,0.1c0.1,0.1,0,0.3,0,0.4c0,0.6,0.1,1.3,0.1,1.9c0,0.9,0,1.9,0,2.8c0,0.4,0,0.8,0,1.2
	c0,0.4,0.1,0.8,0.1,1.1"/>
</svg>
